<svg width="33" height="34" viewBox="0 0 33 34" fill="none" xmlns="http://www.w3.org/2000/svg">
<path opacity="0.4" d="M16.3773 30.5446C23.9337 30.5446 30.0592 24.4189 30.0592 16.8626C30.0592 9.30628 23.9337 3.18066 16.3773 3.18066C8.82094 3.18066 2.69531 9.30628 2.69531 16.8626C2.69531 24.4189 8.82094 30.5446 16.3773 30.5446Z" fill="white"/>
<path d="M20.483 14.4404L16.5152 12.1556C15.5301 11.5809 14.3398 11.5809 13.3547 12.1556C12.3696 12.7302 11.7812 13.7427 11.7812 14.892V19.4754C11.7812 20.611 12.3696 21.6372 13.3547 22.2118C13.8473 22.4991 14.3945 22.6359 14.9281 22.6359C15.4754 22.6359 16.009 22.4991 16.5015 22.2118L20.4693 19.9269C21.4544 19.3523 22.0427 18.3398 22.0427 17.1905C22.0701 16.0412 21.4818 15.0151 20.483 14.4404Z" fill="white"/>
</svg>
