<svg width="33" height="34" viewBox="0 0 33 34" fill="none" xmlns="http://www.w3.org/2000/svg">
<path d="M16.4182 29.6202C23.2189 29.6202 28.732 24.1071 28.732 17.3064C28.732 10.5057 23.2189 4.99268 16.4182 4.99268C9.61755 4.99268 4.10449 10.5057 4.10449 17.3064C4.10449 24.1071 9.61755 29.6202 16.4182 29.6202Z" fill="#00002F" fill-opacity="0.4"/>
<path d="M16.4184 8.13963C16.4184 7.94454 16.4184 7.84699 16.4816 7.78639C16.5449 7.7258 16.6395 7.72986 16.8287 7.73797C18.3675 7.80395 19.8698 8.24021 21.207 9.0123C22.6629 9.85289 23.872 11.0619 24.7126 12.5179C25.5532 13.9738 25.9957 15.6253 25.9957 17.3065C25.9957 18.9878 25.5532 20.6393 24.7126 22.0952C23.872 23.5511 22.6629 24.7602 21.207 25.6008C19.7511 26.4414 18.0996 26.8839 16.4184 26.8839C14.7371 26.8839 13.0856 26.4414 11.6297 25.6008C10.2924 24.8287 9.16341 23.7458 8.33691 22.4462C8.23527 22.2864 8.18444 22.2065 8.2053 22.1214C8.22616 22.0363 8.31063 21.9875 8.47959 21.89L16.2131 17.425C16.3133 17.3672 16.3634 17.3383 16.3909 17.2907C16.4184 17.2431 16.4184 17.1852 16.4184 17.0696V8.13963Z" fill="#00002F"/>
</svg>
