<svg width="33" height="34" viewBox="0 0 33 34" fill="none" xmlns="http://www.w3.org/2000/svg">
<path d="M16.4192 29.6207C23.2199 29.6207 28.733 24.1076 28.733 17.3069C28.733 10.5062 23.2199 4.99316 16.4192 4.99316C9.61852 4.99316 4.10547 10.5062 4.10547 17.3069C4.10547 24.1076 9.61852 29.6207 16.4192 29.6207Z" fill="#00002F" fill-opacity="0.4"/>
<path d="M16.4169 8.14061C16.4169 7.94552 16.4169 7.84797 16.4801 7.78737C16.5435 7.72677 16.638 7.73084 16.8272 7.73895C18.366 7.80492 19.8683 8.24119 21.2056 9.01327C22.6615 9.85386 23.8705 11.0629 24.7112 12.5188C25.5518 13.9748 25.9943 15.6263 25.9943 17.3075C25.9943 18.9888 25.5518 20.6403 24.7112 22.0962C23.8705 23.5521 22.6615 24.7612 21.2056 25.6018C19.7497 26.4424 18.0981 26.8849 16.4169 26.8849C14.7357 26.8849 13.0841 26.4424 11.6282 25.6018C10.2909 24.8297 9.16195 23.7468 8.33545 22.4471C8.2338 22.2873 8.18297 22.2074 8.20384 22.1223C8.22469 22.0372 8.30916 21.9885 8.47812 21.891L16.2117 17.426C16.3118 17.3681 16.3619 17.3393 16.3894 17.2916C16.4169 17.244 16.4169 17.1862 16.4169 17.0705V8.14061Z" fill="white"/>
</svg>
