<svg width="33" height="33" viewBox="0 0 33 33" fill="none" xmlns="http://www.w3.org/2000/svg">
<path opacity="0.4" d="M27.3237 13.8452V24.7908C27.3237 28.8954 25.9555 30.2636 21.851 30.2636H10.9054C6.80081 30.2636 5.43262 28.8954 5.43262 24.7908V13.8452H27.3237Z" fill="#FF4E00"/>
<path d="M29.4161 9.74078V11.109C29.4161 12.614 28.691 13.8454 26.6797 13.8454H6.1568C4.06346 13.8454 3.42041 12.614 3.42041 11.109V9.74078C3.42041 8.23577 4.06346 7.00439 6.1568 7.00439H26.6797C28.691 7.00439 29.4161 8.23577 29.4161 9.74078Z" fill="#FF4E00"/>
<path opacity="0.4" d="M15.9271 7.004H8.37457C7.90938 6.49776 7.92306 5.71789 8.41561 5.22534L10.3584 3.28251C10.8647 2.77627 11.6993 2.77627 12.2055 3.28251L15.9271 7.004Z" fill="#FF4E00"/>
<path opacity="0.4" d="M24.4489 7.004H16.8965L20.618 3.28251C21.1242 2.77627 21.9588 2.77627 22.465 3.28251L24.4079 5.22534C24.9004 5.71789 24.9141 6.49776 24.4489 7.004Z" fill="#FF4E00"/>
<path opacity="0.6" d="M12.231 13.8452V20.8777C12.231 21.9723 13.435 22.6153 14.3517 22.027L15.6378 21.1787C16.103 20.8777 16.6913 20.8777 17.1428 21.1787L18.3605 21.9997C19.2635 22.6017 20.4812 21.9586 20.4812 20.8641V13.8452H12.231Z" fill="#FF4E00"/>
</svg>
