<svg width="22" height="22" viewBox="0 0 22 22" fill="none" xmlns="http://www.w3.org/2000/svg">
<path d="M5.16667 1C1.98039 1 1 1.98039 1 5.16667C1 8.35294 1.98039 9.33333 5.16667 9.33333C8.35294 9.33333 9.33333 8.35294 9.33333 5.16667C9.33333 1.98039 8.35294 1 5.16667 1Z" stroke="white" stroke-width="1.3" stroke-linecap="round" stroke-linejoin="round"/>
<path d="M5.16667 12.6665C1.98039 12.6665 1 13.6469 1 16.8332C1 20.0194 1.98039 20.9998 5.16667 20.9998C8.35294 20.9998 9.33333 20.0194 9.33333 16.8332C9.33333 13.6469 8.35294 12.6665 5.16667 12.6665Z" stroke="white" stroke-width="1.3" stroke-linecap="round" stroke-linejoin="round"/>
<path d="M16.8337 12.6665C13.6474 12.6665 12.667 13.6469 12.667 16.8332C12.667 20.0194 13.6474 20.9998 16.8337 20.9998C20.0199 20.9998 21.0003 20.0194 21.0003 16.8332C21.0003 13.6469 20.0199 12.6665 16.8337 12.6665Z" stroke="white" stroke-width="1.3" stroke-linecap="round" stroke-linejoin="round"/>
<path d="M16.8337 1C13.6474 1 12.667 1.98039 12.667 5.16667C12.667 8.35294 13.6474 9.33333 16.8337 9.33333C20.0199 9.33333 21.0003 8.35294 21.0003 5.16667C21.0003 1.98039 20.0199 1 16.8337 1Z" stroke="white" stroke-width="1.3" stroke-linecap="round" stroke-linejoin="round"/>
</svg>
