<svg width="13" height="18" viewBox="0 0 13 18" fill="none" xmlns="http://www.w3.org/2000/svg">
<path d="M3.1875 3.4C3.1875 1.90419 4.33832 0.75 5.6875 0.75H7.3125C8.66165 0.75 9.8125 1.9042 9.8125 3.4V8.5C9.8125 9.99577 8.66165 11.15 7.3125 11.15H5.6875C4.33832 11.15 3.1875 9.99578 3.1875 8.5V3.4Z" stroke="#FF4E00" stroke-width="1.5"/>
<path fill-rule="evenodd" clip-rule="evenodd" d="M0.8125 7.00049C1.26123 7.00049 1.625 7.38103 1.625 7.85049V8.70049C1.625 11.0477 3.44385 12.9505 5.6875 12.9505H6.5H7.3125C9.55614 12.9505 11.375 11.0477 11.375 8.70049V7.85049C11.375 7.38103 11.7388 7.00049 12.1875 7.00049C12.6362 7.00049 13 7.38103 13 7.85049V8.70049C13 11.9866 10.4536 14.6505 7.3125 14.6505V16.3505C7.3125 16.8199 6.94874 17.2005 6.5 17.2005C6.05126 17.2005 5.6875 16.8199 5.6875 16.3505V14.6505C2.54638 14.6505 0 11.9866 0 8.70049V7.85049C0 7.38103 0.363772 7.00049 0.8125 7.00049Z" fill="#FF4E00"/>
</svg>
