<svg width="19" height="16" viewBox="0 0 19 16" fill="none" xmlns="http://www.w3.org/2000/svg">
<path d="M16.4324 7.66846V13.25C16.4324 14.2165 15.6192 15 14.616 15H3.71733C2.71413 15 1.90088 14.2165 1.90088 13.25V7.66846M5.07966 6.03125C5.07966 7.11852 4.16475 8 3.03616 8C1.98623 8 1.12124 7.23717 1.00576 6.25542C0.988337 6.10727 1.01242 5.95825 1.05149 5.81401L2.00075 2.30827C2.20941 1.53769 2.93177 1 3.75837 1H14.5749C15.4015 1 16.1239 1.53769 16.3325 2.30827L17.2818 5.81401C17.3209 5.95825 17.345 6.10727 17.3276 6.25542C17.212 7.23717 16.3471 8 15.2972 8C14.1686 8 13.2537 7.11852 13.2537 6.03125M5.07966 6.03125C5.07966 7.11852 5.99457 8 7.12316 8C8.25171 8 9.16666 7.11852 9.16666 6.03125M5.07966 6.03125L5.53377 1M13.2537 6.03125C13.2537 7.11852 12.3387 8 11.2102 8C10.0816 8 9.16666 7.11852 9.16666 6.03125M13.2537 6.03125L12.7995 1M9.16666 6.03125V1" stroke="#FF4E00" stroke-width="1.5" stroke-linecap="round" stroke-linejoin="round"/>
</svg>
