<svg width="69" height="16" viewBox="0 0 69 16" fill="none" xmlns="http://www.w3.org/2000/svg">
<path d="M1 7.31982C0.447715 7.31982 4.82823e-08 7.76754 0 8.31982C-4.82823e-08 8.87211 0.447715 9.31982 1 9.31982L1 7.31982ZM68.7071 9.02694C69.0976 8.63641 69.0976 8.00325 68.7071 7.61272L62.3431 1.24876C61.9526 0.858237 61.3195 0.858237 60.9289 1.24876C60.5384 1.63929 60.5384 2.27245 60.9289 2.66298L66.5858 8.31983L60.9289 13.9767C60.5384 14.3672 60.5384 15.0004 60.9289 15.3909C61.3195 15.7814 61.9526 15.7814 62.3431 15.3909L68.7071 9.02694ZM1 9.31982L68 9.31983L68 7.31983L1 7.31982L1 9.31982Z" fill="#FF4E00"/>
</svg>
