<svg width="26" height="26" viewBox="0 0 26 26" fill="none" xmlns="http://www.w3.org/2000/svg">
<path d="M25.6409 16.4346C25.2877 16.0815 24.7554 15.9778 24.2957 16.1726C22.9286 16.7516 21.4788 17.0452 19.9865 17.0452C17.0396 17.0452 14.2692 15.8977 12.1856 13.814C8.99044 10.619 8.06475 5.86553 9.82721 1.70407C10.022 1.24414 9.91826 0.712108 9.56508 0.359027C9.212 0.00584459 8.67976 -0.0975966 8.22004 0.097149C6.62069 0.774722 5.18394 1.74413 3.9497 2.97847C1.40237 5.5257 -0.000304637 8.91235 4.96272e-08 12.5146C0.000304736 16.1164 1.40308 19.5026 3.95001 22.0496C6.49734 24.597 9.88419 25.9999 13.4865 25.9999C17.0882 25.9999 20.4744 24.5972 23.0215 22.0502C24.2559 20.8158 25.2252 19.3791 25.9028 17.7798C26.0976 17.3199 25.994 16.7878 25.6409 16.4346Z" fill="#00002F"/>
</svg>
