<svg width="54" height="20" viewBox="0 0 54 20" fill="none" xmlns="http://www.w3.org/2000/svg">
<path d="M44 9.25C44.4142 9.25 44.75 9.58579 44.75 10C44.75 10.4142 44.4142 10.75 44 10.75L44 9.25ZM9.46967 10.5303C9.17678 10.2374 9.17678 9.76257 9.46967 9.46967L14.2426 4.6967C14.5355 4.40381 15.0104 4.40381 15.3033 4.6967C15.5962 4.9896 15.5962 5.46447 15.3033 5.75736L11.0607 10L15.3033 14.2426C15.5962 14.5355 15.5962 15.0104 15.3033 15.3033C15.0104 15.5962 14.5355 15.5962 14.2426 15.3033L9.46967 10.5303ZM44 10.75L10 10.75L10 9.25L44 9.25L44 10.75Z" fill="#FF4E00"/>
</svg>
