<svg width="51" height="51" viewBox="0 0 51 51" fill="none" xmlns="http://www.w3.org/2000/svg">
<path d="M38 23.3198H13M33 23.3198V28.3198M35.5 13.3198H15.5V5.81982C15.5 5.15678 15.7634 4.5209 16.2322 4.05206C16.7011 3.58322 17.337 3.31982 18 3.31982H33C33.663 3.31982 34.2989 3.58322 34.7678 4.05206C35.2366 4.5209 35.5 5.15678 35.5 5.81982V13.3198Z" stroke="#FF4E00" stroke-width="5" stroke-linecap="round" stroke-linejoin="round"/>
<path d="M48 45.8198V15.8198C48 14.4391 46.8807 13.3198 45.5 13.3198L5.5 13.3198C4.11929 13.3198 3 14.4391 3 15.8198V45.8198C3 47.2005 4.11929 48.3198 5.5 48.3198H45.5C46.8807 48.3198 48 47.2005 48 45.8198Z" stroke="#FF4E00" stroke-width="5" stroke-linecap="round" stroke-linejoin="round"/>
</svg>
