<svg width="51" height="46" viewBox="0 0 51 46" fill="none" xmlns="http://www.w3.org/2000/svg">
<path d="M45.4798 22.3726V38.3198C45.4798 41.0813 43.2413 43.3198 40.4798 43.3198H10.4798C7.71837 43.3198 5.4798 41.0813 5.4798 38.3198V22.3726M14.2298 17.6948C14.2298 20.8013 11.7114 23.3198 8.6048 23.3198C5.71472 23.3198 3.33372 21.1403 3.01585 18.3353C2.9679 17.912 3.0342 17.4862 3.14172 17.0741L5.7547 7.05772C6.32905 4.85607 8.31745 3.31982 10.5928 3.31982H40.3668C42.642 3.31982 44.6305 4.85607 45.2048 7.05772L47.8178 17.0741C47.9253 17.4862 47.9918 17.912 47.9438 18.3353C47.6258 21.1403 45.2448 23.3198 42.3548 23.3198C39.2483 23.3198 36.7298 20.8013 36.7298 17.6948M14.2298 17.6948C14.2298 20.8013 16.7482 23.3198 19.8548 23.3198C22.9613 23.3198 25.4798 20.8013 25.4798 17.6948M14.2298 17.6948L15.4798 3.31982M36.7298 17.6948C36.7298 20.8013 34.2113 23.3198 31.1048 23.3198C27.9983 23.3198 25.4798 20.8013 25.4798 17.6948M36.7298 17.6948L35.4798 3.31982M25.4798 17.6948V3.31982" stroke="#FF4E00" stroke-width="5" stroke-linecap="round" stroke-linejoin="round"/>
</svg>
