<svg width="51" height="51" viewBox="0 0 51 51" fill="none" xmlns="http://www.w3.org/2000/svg">
<path d="M30.625 38.5614L35.5 48.3114L40.45 43.2364L48 43.3114L40.975 29.3614V29.3364" stroke="#FF4E00" stroke-width="5" stroke-linecap="round" stroke-linejoin="round"/>
<path d="M20.375 38.5614L15.5 48.3114L10.55 43.2364L3 43.3114L10.025 29.3614V29.3364" stroke="#FF4E00" stroke-width="5" stroke-linecap="round" stroke-linejoin="round"/>
<path d="M43.6998 20.8112C43.6998 22.7112 42.0248 24.3112 41.4748 26.0112C40.9248 27.7112 41.2998 30.0362 40.2248 31.5112C39.1498 32.9862 36.8498 33.3112 35.4998 34.4112C34.1498 35.5112 32.9998 37.5612 31.2498 38.1362C29.4998 38.7112 27.5248 37.6112 25.6248 37.6112C23.7248 37.6112 21.6998 38.6862 19.9998 38.1362C18.2998 37.5862 17.2248 35.4612 15.7498 34.4112C14.2748 33.3612 11.9748 32.9862 10.8998 31.5112C9.8248 30.0362 10.2248 27.7612 9.6498 26.0112C9.0748 24.2612 7.2998 22.7112 7.2998 20.8112C7.2998 18.9112 8.97481 17.3112 9.52481 15.6112C10.0748 13.9112 9.69981 11.5862 10.7748 10.1112C11.8498 8.6362 14.1498 8.3112 15.6248 7.2112C17.0998 6.1112 17.9998 4.0612 19.8748 3.4862C21.7498 2.9112 23.5998 4.0112 25.4998 4.0112C27.3998 4.0112 29.4248 2.9362 31.1248 3.4862C32.8248 4.0362 33.8998 6.1612 35.4998 7.2112C37.0998 8.2612 39.2748 8.6362 40.3498 10.1112C41.4248 11.5862 41.0248 13.8612 41.5998 15.6112C42.1748 17.3612 43.6998 18.9112 43.6998 20.8112ZM25.4998 13.3112C24.0164 13.3112 22.5664 13.7511 21.333 14.5752C20.0997 15.3993 19.1384 16.5706 18.5707 17.9411C18.003 19.3115 17.8545 20.8195 18.1439 22.2744C18.4333 23.7292 19.1476 25.0656 20.1965 26.1145C21.2454 27.1634 22.5818 27.8777 24.0366 28.1671C25.4915 28.4565 26.9995 28.308 28.3699 27.7403C29.7404 27.1726 30.9117 26.2113 31.7358 24.978C32.5599 23.7446 32.9998 22.2946 32.9998 20.8112C32.9998 18.8221 32.2096 16.9144 30.8031 15.5079C29.3966 14.1014 27.4889 13.3112 25.4998 13.3112Z" stroke="#FF4E00" stroke-width="5" stroke-linecap="round" stroke-linejoin="round"/>
</svg>
