<svg width="58" height="44" viewBox="0 0 58 44" fill="none" xmlns="http://www.w3.org/2000/svg">
<path d="M54.0356 21.2297C51.8794 11.4821 48.6813 5.26412 43.5555 3.74889C42.5628 3.45929 41.5334 3.31483 40.4993 3.31998C37.3481 3.31998 34.8614 5.19498 29.2493 5.19498C23.6372 5.19498 21.1458 3.31998 17.9993 3.31998C16.922 3.3144 15.8493 3.45876 14.8118 3.74889C9.67898 5.26412 6.50789 11.4879 4.32703 21.2297C2.10047 31.1801 2.50359 39.0422 6.85594 40.5516C9.90281 41.6063 12.6274 39.4255 15.2079 36.2157C18.1376 32.5594 21.7458 31.4344 29.2493 31.4344C36.7528 31.4344 40.2204 32.5594 43.1548 36.2157C45.7329 39.4278 48.5583 41.5817 51.5243 40.5704C56.3313 38.9286 56.2634 31.2973 54.0356 21.2297Z" stroke="#FF4E00" stroke-width="5" stroke-miterlimit="10"/>
<path d="M33.4678 20.6636C34.7622 20.6636 35.8115 19.6142 35.8115 18.3198C35.8115 17.0254 34.7622 15.9761 33.4678 15.9761C32.1734 15.9761 31.124 17.0254 31.124 18.3198C31.124 19.6142 32.1734 20.6636 33.4678 20.6636Z" fill="#FF4E00"/>
<path d="M38.624 25.8198C38.1602 25.8198 37.7068 25.6822 37.3213 25.4244C36.9357 25.1666 36.6353 24.8002 36.4581 24.3716C36.2809 23.943 36.2348 23.4715 36.3257 23.0167C36.4166 22.5619 36.6405 22.1443 36.9688 21.8167C37.2972 21.4892 37.7153 21.2664 38.1704 21.1766C38.6254 21.0869 39.0968 21.1341 39.525 21.3124C39.9532 21.4907 40.3188 21.792 40.5756 22.1782C40.8325 22.5644 40.9689 23.0181 40.9678 23.4819C40.9662 24.1025 40.7186 24.6972 40.2792 25.1354C39.8399 25.5737 39.2446 25.8198 38.624 25.8198Z" fill="#FF4E00"/>
<path d="M38.624 15.5073C39.9184 15.5073 40.9678 14.458 40.9678 13.1636C40.9678 11.8692 39.9184 10.8198 38.624 10.8198C37.3296 10.8198 36.2803 11.8692 36.2803 13.1636C36.2803 14.458 37.3296 15.5073 38.624 15.5073Z" fill="#FF4E00"/>
<path d="M43.7803 20.6636C45.0747 20.6636 46.124 19.6142 46.124 18.3198C46.124 17.0254 45.0747 15.9761 43.7803 15.9761C42.4859 15.9761 41.4365 17.0254 41.4365 18.3198C41.4365 19.6142 42.4859 20.6636 43.7803 20.6636Z" fill="#FF4E00"/>
<path d="M17.999 12.6948V23.9448" stroke="#FF4E00" stroke-width="5" stroke-linecap="round" stroke-linejoin="round"/>
<path d="M23.624 18.3198H12.374" stroke="#FF4E00" stroke-width="5" stroke-linecap="round" stroke-linejoin="round"/>
</svg>
