<svg width="48" height="51" viewBox="0 0 48 51" fill="none" xmlns="http://www.w3.org/2000/svg">
<path d="M6.78221 43.918L11.6862 39.0125C19.2062 40.7089 25.883 39.8785 31.5263 36.476C41.8314 30.2672 44.8716 17.8708 44.9951 17.3476C45.2015 16.4782 44.8343 15.5699 44.0771 15.0971C43.6952 14.8566 43.2565 14.7542 42.8243 14.7835C46.1602 9.06705 46.5697 3.36525 46.5875 3.04514C46.6558 1.97433 45.9018 1.03026 44.8473 0.853142C33.3722 -1.05125 24.1265 2.14982 17.3051 10.3718C17.1117 10.0745 16.8371 9.83075 16.5122 9.66339C15.7988 9.30103 14.9409 9.3774 14.3039 9.86325C4.62109 17.2273 6.09488 29.6107 8.56474 36.229L3.83138 40.964C3.0173 41.778 3.01568 43.0975 3.83138 43.9132C4.64546 44.7337 5.96651 44.7337 6.78221 43.918ZM13.8343 16.1906C13.8473 16.2345 13.8603 16.2816 13.8749 16.3255C14.1707 17.2403 15.1716 17.9082 16.1271 17.8107C17.2222 17.7002 17.7097 16.956 18.3889 15.9258C20.5322 12.6695 26.8709 3.03539 42.1434 4.69605C41.5796 7.6355 39.9466 13.3373 35.4066 17.4044C34.7176 18.0203 34.5145 19.0163 34.911 19.8499C35.3042 20.6884 36.2028 21.1645 37.1143 21.0215C37.4539 20.9711 38.3639 20.8184 39.4575 20.5438C37.8326 24.2924 34.7095 29.6969 29.344 32.919C24.6464 35.7366 19.0015 36.4223 12.5523 34.9567C11.4733 32.0448 8.76785 22.9876 13.8343 16.1906Z" fill="#FF4E00"/>
<path d="M45.3771 45.4468H2.43736C1.09031 45.4468 0 46.5387 0 47.8841C0 49.2296 1.09031 50.3215 2.43736 50.3215H45.3771C46.7242 50.3215 47.8145 49.2296 47.8145 47.8841C47.8145 46.5387 46.7242 45.4468 45.3771 45.4468Z" fill="#FF4E00"/>
</svg>
