<svg width="30" height="23" viewBox="0 0 30 23" fill="none" xmlns="http://www.w3.org/2000/svg">
<path d="M25.3921 1.92842C23.4508 1.03476 21.3832 0.376277 19.2052 0C18.9369 0.470347 18.6212 1.11315 18.416 1.63054C16.1117 1.28561 13.8232 1.28561 11.5663 1.63054C11.3453 1.11315 11.0297 0.470347 10.7613 0C8.5833 0.376277 6.51575 1.03476 4.57445 1.92842C0.660292 7.79208 -0.397163 13.5147 0.123673 19.1432C2.72785 21.0716 5.23733 22.2318 7.71525 23C8.33078 22.1691 8.8674 21.2754 9.34088 20.3504C8.44126 20.0211 7.58898 19.5978 6.78405 19.1118C7.00502 18.955 7.21019 18.7826 7.41537 18.6258C12.3554 20.9148 17.7058 20.9148 22.5827 18.6258C22.7879 18.7982 22.9931 18.955 23.214 19.1118C22.4091 19.5978 21.541 20.0055 20.6572 20.3504C21.1307 21.2754 21.6673 22.1691 22.2828 23C24.7608 22.2318 27.286 21.0716 29.8744 19.1432C30.4899 12.6053 28.817 6.94545 25.4236 1.92842H25.3921ZM10.0038 15.6939C8.52017 15.6939 7.30489 14.3299 7.30489 12.6524C7.30489 10.9748 8.48861 9.6108 10.0038 9.6108C11.5189 9.6108 12.7184 10.9748 12.7026 12.6524C12.7026 14.3143 11.5189 15.6939 10.0038 15.6939ZM19.9628 15.6939C18.4792 15.6939 17.2639 14.3299 17.2639 12.6524C17.2639 10.9748 18.4476 9.6108 19.9628 9.6108C21.4779 9.6108 22.6774 10.9748 22.6616 12.6524C22.6616 14.3143 21.4779 15.6939 19.9628 15.6939Z" fill="#00002F"/>
</svg>
