<svg width="10" height="13" viewBox="0 0 10 13" fill="none" xmlns="http://www.w3.org/2000/svg">
<path d="M5.5 1C5.5 0.723858 5.27614 0.5 5 0.5C4.72386 0.5 4.5 0.723858 4.5 1L5.5 1ZM4.64645 11.3536C4.84171 11.5488 5.15829 11.5488 5.35355 11.3536L8.53553 8.17157C8.7308 7.97631 8.7308 7.65973 8.53553 7.46447C8.34027 7.2692 8.02369 7.2692 7.82843 7.46447L5 10.2929L2.17157 7.46447C1.97631 7.2692 1.65973 7.2692 1.46447 7.46447C1.2692 7.65973 1.2692 7.97631 1.46447 8.17157L4.64645 11.3536ZM4.5 1L4.5 11L5.5 11L5.5 1L4.5 1Z" fill="white"/>
<path d="M1 12.5H9" stroke="white" stroke-linecap="round"/>
</svg>
