<svg width="27" height="27" viewBox="0 0 27 27" fill="none" xmlns="http://www.w3.org/2000/svg">
<path d="M13.0177 23.844C19.0036 23.844 23.8562 18.9914 23.8562 13.0055C23.8562 7.01955 19.0036 2.16699 13.0177 2.16699C7.03176 2.16699 2.1792 7.01955 2.1792 13.0055C2.1792 18.9914 7.03176 23.844 13.0177 23.844Z" stroke="#00002F" stroke-width="1.62577"/>
<path d="M9.67188 17.2696C11.0357 17.6115 12.583 17.6117 14.14 17.1944C15.6971 16.7772 17.037 16.0033 18.0472 15.0254" stroke="#00002F" stroke-width="1.62577" stroke-linecap="round"/>
<path d="M16.159 12.1635C16.7372 12.0085 17.0175 11.1799 16.7851 10.3126C16.5527 9.44526 15.8956 8.86777 15.3174 9.0227C14.7392 9.17763 14.4589 10.0063 14.6913 10.8736C14.9237 11.7409 15.5808 12.3184 16.159 12.1635Z" fill="#00002F"/>
<path d="M9.87725 13.848C10.4554 13.6931 10.7358 12.8644 10.5034 11.9971C10.271 11.1298 9.61389 10.5523 9.03569 10.7073C8.45749 10.8622 8.17716 11.6909 8.40955 12.5582C8.64194 13.4255 9.29905 14.003 9.87725 13.848Z" fill="#00002F"/>
<path d="M14.1021 17.3419L14.6201 18.3974C15.0117 19.1953 15.9716 19.5306 16.7749 19.1503C17.5945 18.7624 17.9382 17.7788 17.5387 16.9647L17.0409 15.9507" stroke="#00002F" stroke-width="1.62577"/>
</svg>
