<svg width="19" height="21" viewBox="0 0 19 21" fill="none" xmlns="http://www.w3.org/2000/svg">
<path d="M11.625 3.11111C11.625 1.94514 10.6736 1 9.5 1C8.32636 1 7.375 1.94514 7.375 3.11111C7.375 4.27708 8.32636 5.22222 9.5 5.22222C10.6736 5.22222 11.625 4.27708 11.625 3.11111ZM11.625 3.11111H18M13.75 10.5C13.75 11.666 14.7014 12.6111 15.875 12.6111C17.0486 12.6111 18 11.666 18 10.5C18 9.33403 17.0486 8.38889 15.875 8.38889C14.7014 8.38889 13.75 9.33403 13.75 10.5ZM13.75 10.5H7.375M18 17.8889H8.4375M1 10.5H4.1875M1 3.11111H4.1875M3.125 15.7778C4.29861 15.7778 5.25 16.723 5.25 17.8889C5.25 19.0548 4.29861 20 3.125 20C1.95139 20 1 19.0548 1 17.8889C1 16.723 1.95139 15.7778 3.125 15.7778Z" stroke="#00002F" stroke-width="1.2" stroke-linecap="round"/>
</svg>
