<svg width="23" height="24" viewBox="0 0 23 24" fill="none" xmlns="http://www.w3.org/2000/svg">
<g filter="url(#filter0_d_377_1412)">
<path d="M19.2226 0.916504H16.5276C15.3634 0.916504 14.6667 1.61317 14.6667 2.77734V5.47234C14.6667 6.6365 15.3634 7.33317 16.5276 7.33317H19.2226C20.3867 7.33317 21.0834 6.6365 21.0834 5.47234V2.77734C21.0834 1.61317 20.3867 0.916504 19.2226 0.916504ZM19.4242 3.95067C19.3142 4.06067 19.1676 4.11567 19.0209 4.11567C18.8742 4.11567 18.7276 4.06067 18.6176 3.95067L18.4526 3.78567V5.839C18.4526 6.15984 18.1959 6.4165 17.8751 6.4165C17.5542 6.4165 17.2976 6.15984 17.2976 5.839V3.78567L17.1326 3.95067C16.9126 4.17067 16.5459 4.17067 16.3259 3.95067C16.1059 3.73067 16.1059 3.364 16.3259 3.144L17.4717 1.99817C17.5176 1.95234 17.5817 1.91567 17.6459 1.88817C17.6642 1.879 17.6826 1.879 17.7009 1.86984C17.7467 1.8515 17.7926 1.84234 17.8476 1.84234C17.8659 1.84234 17.8842 1.84234 17.9026 1.84234C17.9667 1.84234 18.0217 1.8515 18.0859 1.879C18.0951 1.879 18.0951 1.879 18.1042 1.879C18.1684 1.9065 18.2234 1.94317 18.2692 1.989C18.2784 1.99817 18.2784 1.99817 18.2876 1.99817L19.4334 3.144C19.6534 3.364 19.6534 3.73067 19.4242 3.95067Z" fill="#FF4E00"/>
<path d="M8.251 9.51617C9.45588 9.51617 10.4327 8.5394 10.4327 7.3345C10.4327 6.1296 9.45588 5.15283 8.251 5.15283C7.04611 5.15283 6.06934 6.1296 6.06934 7.3345C6.06934 8.5394 7.04611 9.51617 8.251 9.51617Z" fill="#292D32"/>
<path d="M19.2225 7.3335H18.7917V11.5593L18.6725 11.4585C17.9575 10.8443 16.8025 10.8443 16.0875 11.4585L12.2742 14.731C11.5592 15.3452 10.4042 15.3452 9.68921 14.731L9.37754 14.4743C8.72671 13.906 7.69087 13.851 6.95754 14.346L3.52921 16.6468C3.32754 16.1335 3.20837 15.5377 3.20837 14.841V7.15933C3.20837 4.57433 4.57421 3.2085 7.15921 3.2085H14.6667V2.77766C14.6667 2.411 14.7309 2.09933 14.8775 1.8335H7.15921C3.82254 1.8335 1.83337 3.82266 1.83337 7.15933V14.841C1.83337 15.8402 2.00754 16.711 2.34671 17.4443C3.13504 19.186 4.82171 20.1668 7.15921 20.1668H14.8409C18.1775 20.1668 20.1667 18.1777 20.1667 14.841V7.12266C19.9009 7.26933 19.5892 7.3335 19.2225 7.3335Z" fill="#00002F"/>
</g>
<defs>
<filter id="filter0_d_377_1412" x="-1.53333" y="0" width="25.0667" height="25.0667" filterUnits="userSpaceOnUse" color-interpolation-filters="sRGB">
<feFlood flood-opacity="0" result="BackgroundImageFix"/>
<feColorMatrix in="SourceAlpha" type="matrix" values="0 0 0 0 0 0 0 0 0 0 0 0 0 0 0 0 0 0 127 0" result="hardAlpha"/>
<feOffset dy="1.53333"/>
<feGaussianBlur stdDeviation="0.766667"/>
<feComposite in2="hardAlpha" operator="out"/>
<feColorMatrix type="matrix" values="0 0 0 0 0 0 0 0 0 0 0 0 0 0 0 0 0 0 0.25 0"/>
<feBlend mode="normal" in2="BackgroundImageFix" result="effect1_dropShadow_377_1412"/>
<feBlend mode="normal" in="SourceGraphic" in2="effect1_dropShadow_377_1412" result="shape"/>
</filter>
</defs>
</svg>
