<svg width="27" height="27" viewBox="0 0 27 27" fill="none" xmlns="http://www.w3.org/2000/svg">
<path fill-rule="evenodd" clip-rule="evenodd" d="M18.4498 5.41943H7.61128C5.2169 5.41943 3.27588 7.36046 3.27588 9.75483V16.2579C3.27588 18.6523 5.2169 20.5933 7.61128 20.5933H18.4498C20.8441 20.5933 22.7852 18.6523 22.7852 16.2579V9.75483C22.7852 7.36046 20.8441 5.41943 18.4498 5.41943Z" stroke="#00002F" stroke-width="1.62577" stroke-linecap="round" stroke-linejoin="round"/>
<path d="M10.2448 10.6643C10.6731 10.7987 11.1294 10.5605 11.2639 10.1322C11.3983 9.70389 11.1602 9.24763 10.7318 9.11314L10.2448 10.6643ZM9.60819 9.7543L9.60723 8.94141C9.60005 8.94142 9.59286 8.94153 9.58568 8.94172L9.60819 9.7543ZM6.52789 13.0058L7.34049 13.0273C7.34087 13.013 7.34087 12.9987 7.34049 12.9844L6.52789 13.0058ZM9.60819 16.2574L9.58568 17.07C9.59286 17.0702 9.60005 17.0703 9.60723 17.0703L9.60819 16.2574ZM10.4883 16.123L10.7318 16.8986C10.7373 16.8969 10.7428 16.895 10.7482 16.8932L10.4883 16.123ZM12.6885 13.0058L13.5013 12.9928C13.4942 12.549 13.1323 12.193 12.6885 12.193V13.0058ZM9.60819 12.193C9.15925 12.193 8.7953 12.5569 8.7953 13.0058C8.7953 13.4548 9.15925 13.8187 9.60819 13.8187V12.193ZM13.9295 16.2574C13.9295 16.7063 14.2935 17.0703 14.7424 17.0703C15.1913 17.0703 15.5553 16.7063 15.5553 16.2574H13.9295ZM15.5553 9.7543C15.5553 9.30535 15.1913 8.94141 14.7424 8.94141C14.2935 8.94141 13.9295 9.30535 13.9295 9.7543H15.5553ZM17.3523 16.2574C17.3523 16.7063 17.7163 17.0703 18.1652 17.0703C18.6141 17.0703 18.9781 16.7063 18.9781 16.2574H17.3523ZM18.9781 12.6449C18.9781 12.196 18.6141 11.832 18.1652 11.832C17.7163 11.832 17.3523 12.196 17.3523 12.6449H18.9781ZM17.3523 12.6449C17.3523 13.0939 17.7163 13.4578 18.1652 13.4578C18.6141 13.4578 18.9781 13.0939 18.9781 12.6449H17.3523ZM18.1652 11.1991H18.9781C18.9781 11.1921 18.978 11.1851 18.9779 11.1781L18.1652 11.1991ZM19.557 10.5669C20.0057 10.5542 20.3593 10.1802 20.3466 9.73143C20.3341 9.28267 19.96 8.92911 19.5112 8.94173L19.557 10.5669ZM18.1652 13.4578C18.6141 13.4578 18.9781 13.0939 18.9781 12.6449C18.9781 12.196 18.6141 11.832 18.1652 11.832V13.4578ZM16.7963 11.832C16.3473 11.832 15.9834 12.196 15.9834 12.6449C15.9834 13.0939 16.3473 13.4578 16.7963 13.4578V11.832ZM18.1652 11.832C17.7163 11.832 17.3523 12.196 17.3523 12.6449C17.3523 13.0939 17.7163 13.4578 18.1652 13.4578V11.832ZM19.5341 13.4578C19.983 13.4578 20.347 13.0939 20.347 12.6449C20.347 12.196 19.983 11.832 19.5341 11.832V13.4578ZM10.7318 9.11314C10.3679 8.99887 9.98865 8.94096 9.60723 8.94141L9.60914 10.5672C9.82472 10.5669 10.0391 10.5997 10.2448 10.6643L10.7318 9.11314ZM9.58568 8.94172C7.38934 9.00257 5.65733 10.8309 5.71528 13.0273L7.34049 12.9844C7.3062 11.6847 8.33108 10.6029 9.6307 10.5669L9.58568 8.94172ZM5.71528 12.9844C5.65733 15.1808 7.38934 17.0092 9.58568 17.07L9.6307 15.4448C8.33108 15.4088 7.3062 14.327 7.34049 13.0273L5.71528 12.9844ZM9.60723 17.0703C9.98865 17.0707 10.3679 17.0128 10.7318 16.8986L10.2448 15.3474C10.0391 15.412 9.82472 15.4447 9.60914 15.4445L9.60723 17.0703ZM10.7482 16.8932C12.4164 16.3301 13.5294 14.7533 13.5013 12.9928L11.8757 13.0189C11.8925 14.0724 11.2266 15.0158 10.2283 15.3528L10.7482 16.8932ZM12.6885 12.193H9.60819V13.8187H12.6885V12.193ZM15.5553 16.2574V9.7543H13.9295V16.2574H15.5553ZM18.9781 16.2574V12.6449H17.3523V16.2574H18.9781ZM18.9781 12.6449V11.1991H17.3523V12.6449H18.9781ZM18.9779 11.1781C18.9693 10.8495 19.2284 10.5761 19.557 10.5669L19.5112 8.94173C18.2866 8.97619 17.321 9.99536 17.3525 11.22L18.9779 11.1781ZM18.1652 11.832H16.7963V13.4578H18.1652V11.832ZM18.1652 13.4578H19.5341V11.832H18.1652V13.4578Z" fill="#00002F"/>
</svg>
