<svg width="27" height="27" viewBox="0 0 27 27" fill="none" xmlns="http://www.w3.org/2000/svg">
<g clip-path="url(#clip0_1995_14782)">
<path d="M21.9481 5.69003V4.87714C21.9462 4.23094 21.6887 3.61175 21.2317 3.15482C20.7748 2.69789 20.1556 2.44035 19.5094 2.43848H3.25165C2.60545 2.44035 1.98626 2.69789 1.52933 3.15482C1.0724 3.61175 0.814865 4.23094 0.812988 4.87714V17.8833C0.814865 18.5295 1.0724 19.1487 1.52933 19.6057C1.98626 20.0626 2.60545 20.3201 3.25165 20.322H4.06454" stroke="#00002F" stroke-width="1.62577" stroke-linejoin="round"/>
<path d="M22.8631 6.50293H7.21398C5.92355 6.50293 4.87744 7.54904 4.87744 8.83947V21.237C4.87744 22.5275 5.92355 23.5736 7.21398 23.5736H22.8631C24.1535 23.5736 25.1996 22.5275 25.1996 21.237V8.83947C25.1996 7.54904 24.1535 6.50293 22.8631 6.50293Z" stroke="#00002F" stroke-width="1.62577" stroke-linejoin="round"/>
<path d="M18.9461 12.7107C19.8095 12.7107 20.5094 12.0158 20.5094 11.1586C20.5094 10.3013 19.8095 9.60645 18.9461 9.60645C18.0827 9.60645 17.3828 10.3013 17.3828 11.1586C17.3828 12.0158 18.0827 12.7107 18.9461 12.7107Z" stroke="#00002F" stroke-width="1.62577" stroke-miterlimit="10"/>
<path d="M17.3832 18.9081L12.9555 14.519C12.6725 14.2394 12.2939 14.0775 11.8961 14.0661C11.4984 14.0547 11.1111 14.1946 10.8125 14.4575L4.87744 19.6941" stroke="#00002F" stroke-width="1.62577" stroke-linecap="round" stroke-linejoin="round"/>
<path d="M13.4756 23.5731L19.5006 17.5918C19.7779 17.3184 20.1466 17.1573 20.5356 17.1398C20.9246 17.1222 21.3063 17.2494 21.607 17.4968L25.2 20.4694" stroke="#00002F" stroke-width="1.62577" stroke-linecap="round" stroke-linejoin="round"/>
</g>
<defs>
<clipPath id="clip0_1995_14782">
<rect width="26.0124" height="26.0124" fill="white"/>
</clipPath>
</defs>
</svg>
