<svg width="21" height="21" viewBox="0 0 21 21" fill="none" xmlns="http://www.w3.org/2000/svg">
<path d="M3.27066 7.57415H1.89354C0.848305 7.57553 0.00137712 8.42246 0 9.46769V10.8448C0.00137712 11.89 0.848305 12.737 1.89354 12.7383H3.27066C4.31589 12.737 5.16282 11.89 5.16419 10.8448V9.46769C5.16282 8.42246 4.31589 7.57553 3.27066 7.57415ZM4.13136 10.8448C4.13067 11.3199 3.74576 11.7048 3.27066 11.7055H1.89354C1.41843 11.7048 1.03353 11.3199 1.03284 10.8448V9.46769C1.03353 8.99258 1.41843 8.60768 1.89354 8.60699H3.27066C3.74576 8.60768 4.13067 8.99258 4.13136 9.46769V10.8448ZM19.7961 9.63983H8.09057C7.80551 9.63983 7.57415 9.87119 7.57415 10.1562C7.57415 10.4413 7.80551 10.6727 8.09057 10.6727H19.7961C20.0811 10.6727 20.3125 10.4413 20.3125 10.1562C20.3125 9.87119 20.0811 9.63983 19.7961 9.63983ZM3.27066 0H1.89354C0.848305 0.00137712 0.00137712 0.848305 0 1.89354V3.27066C0.00137712 4.31589 0.848305 5.16282 1.89354 5.16419H3.27066C4.31589 5.16282 5.16282 4.31589 5.16419 3.27066V1.89354C5.16282 0.848305 4.31589 0.00137712 3.27066 0ZM4.13136 3.27066C4.13067 3.74576 3.74576 4.13067 3.27066 4.13136H1.89354C1.41843 4.13067 1.03353 3.74576 1.03284 3.27066V1.89354C1.03353 1.41843 1.41843 1.03353 1.89354 1.03284H3.27066C3.74576 1.03353 4.13067 1.41843 4.13136 1.89354V3.27066ZM8.09057 3.09852H19.7961C20.0811 3.09852 20.3125 2.86716 20.3125 2.5821C20.3125 2.29703 20.0811 2.06568 19.7961 2.06568H8.09057C7.80551 2.06568 7.57415 2.29703 7.57415 2.5821C7.57415 2.86716 7.80551 3.09852 8.09057 3.09852ZM3.27066 15.1483H1.89354C0.848305 15.1497 0.00137712 15.9966 0 17.0418V18.419C0.00137712 19.4642 0.848305 20.3111 1.89354 20.3125H3.27066C4.31589 20.3111 5.16282 19.4642 5.16419 18.419V17.0418C5.16282 15.9966 4.31589 15.1497 3.27066 15.1483ZM4.13136 18.419C4.13067 18.8941 3.74576 19.279 3.27066 19.2797H1.89354C1.41843 19.279 1.03353 18.8941 1.03284 18.419V17.0418C1.03353 16.5667 1.41843 16.1818 1.89354 16.1811H3.27066C3.74576 16.1818 4.13067 16.5667 4.13136 17.0418V18.419ZM19.7961 17.214H8.09057C7.80551 17.214 7.57415 17.4453 7.57415 17.7304C7.57415 18.0155 7.80551 18.2468 8.09057 18.2468H19.7961C20.0811 18.2468 20.3125 18.0155 20.3125 17.7304C20.3125 17.4453 20.0811 17.214 19.7961 17.214Z" fill="#00002F"/>
</svg>
