<svg width="99" height="45" viewBox="0 0 99 45" fill="none" xmlns="http://www.w3.org/2000/svg">
<path fill-rule="evenodd" clip-rule="evenodd" d="M12.3251 6.97158C12.5781 7.44969 14.8103 8.65194 15.3507 8.92172C17.0856 9.78774 18.8841 10.4258 20.7818 10.9269L22.8236 11.4004C22.9848 11.4389 23.1611 11.4754 23.3234 11.5021L24.9658 11.7735C26.0454 11.931 26.9472 12.0256 27.9418 12.3518L28.9665 12.7489C29.2894 12.8929 29.5344 12.9993 29.8234 13.1497C30.3669 13.4322 30.8496 13.7891 31.3379 14.1503L32.5 15.1753C32.5697 15.2426 32.5914 15.2445 32.677 15.3263L33.5547 16.3077C34.0497 16.8617 34.4547 17.521 34.7982 18.1808C35.2599 19.0679 35.5836 19.9114 35.8371 20.9147C36.1923 22.3205 36.165 23.5588 36.165 25.0156L36.0426 26.2602C35.8813 27.3755 35.4886 28.4976 35.0276 29.5101L34.5566 30.4059C34.0145 31.2808 33.4014 32.0725 32.6793 32.7935C31.7423 33.7293 30.6525 34.6237 29.4246 35.1707C26.8141 36.3334 25.9874 36.334 22.933 36.334C22.5148 36.334 22.1944 36.2774 21.8361 36.228L20.7816 36.0249C20.4053 35.9317 20.1355 35.838 19.8093 35.7394C19.1879 35.552 18.6283 35.2863 18.0583 34.9751C17.9214 34.9003 17.7956 34.8216 17.6739 34.758L15.904 33.466L14.6134 32.1866C13.6424 30.9806 12.8068 29.6907 12.3104 28.2016C12.2108 27.9028 12.0964 27.5393 12.0291 27.2251C11.8664 26.466 11.7272 25.8556 11.7262 25.0675C11.7258 24.7821 11.4135 23.3259 11.3483 22.9303L10.911 20.8524C10.6475 19.8833 10.4206 18.896 10.1046 17.9406C9.69627 16.7059 9.22774 15.5421 8.64422 14.3705L8.1809 13.5762C7.94278 13.1926 7.64821 12.8741 7.36572 12.5322C6.85219 11.9102 6.95239 12.2933 6.3497 13.1347C5.82493 13.867 5.31557 14.9074 4.96641 15.743C4.38539 17.1344 3.90665 18.5698 3.66229 20.0708C3.58125 20.568 3.46708 20.9728 3.46708 21.5159C3.46708 22.8382 3.35667 26.3616 3.58124 27.471C3.64707 27.7955 3.68395 28.1009 3.76187 28.4386C3.83874 28.7722 3.87541 29.0259 3.96561 29.3284C4.00519 29.4615 4.03269 29.6019 4.08123 29.7596C4.1056 29.8386 4.11977 29.8611 4.14998 29.9642C4.50851 31.1906 4.97787 32.3175 5.53577 33.4447C5.90305 34.1868 6.3495 34.8803 6.8024 35.5682C7.57925 36.7484 9.16566 38.5229 10.234 39.4637C10.9287 40.0756 11.6818 40.663 12.4593 41.1751L15.0021 42.6238C15.6609 42.9146 16.3325 43.2176 17.021 43.4484L17.896 43.7217C18.4762 43.9084 19.032 44.0227 19.6935 44.1661C20.1637 44.2681 21.244 44.4809 21.6753 44.4809H26.2683C26.7555 44.4809 28.6278 44.0927 29.1417 43.9642C31.8746 43.2807 33.742 42.2926 36.1003 40.6978C37.2184 39.9418 38.1535 38.9575 39.1043 38.0152C39.3212 37.8004 39.4372 37.6288 39.6518 37.4144L40.1741 36.7884C41.3993 35.2726 42.3913 33.5664 43.1173 31.7485C43.2246 31.4798 43.335 31.2019 43.4302 30.9133C43.9611 29.3057 44.0104 28.8872 44.3269 27.217C44.3867 26.9012 44.4765 26.6383 44.4765 26.2183V21.7893C44.4765 21.3297 44.2673 20.3274 44.1713 19.8526C43.8173 18.1044 43.2425 16.3675 42.4715 14.8268C42.159 14.2022 41.8676 13.5926 41.4778 13.032L40.7814 12.0333C39.8481 10.7433 38.7608 9.57045 37.5735 8.51548C35.928 7.05303 34.0864 5.93077 32.0825 5.03913L30.45 4.42977C29.4153 4.0902 28.3265 3.85375 27.2601 3.68272C27.0499 3.64897 27.0028 3.58105 26.7603 3.58105H21.183C20.7122 3.58105 19.0687 3.96791 18.6175 4.0777L16.3036 4.82581C15.5617 5.08788 14.8928 5.40913 14.2068 5.79099C14.0203 5.89474 13.8997 5.96036 13.7153 6.06494L13.2314 6.34638C12.9343 6.5295 12.5133 6.69033 12.3251 6.97116V6.97158Z" fill="white"/>
<path fill-rule="evenodd" clip-rule="evenodd" d="M73.4565 38.6848C73.4565 38.8108 73.4947 38.8488 73.6205 38.8488H78.7603C78.8864 38.8488 78.9243 38.8106 78.9243 38.6848V28.8426H86.5247C87.7444 28.8426 89.0023 29.372 89.7825 29.8499C91.5885 30.9567 92.882 32.7212 93.3718 34.8451C93.5828 35.7605 93.5272 37.3967 93.5191 38.4708C93.5176 38.6746 93.477 38.849 93.6878 38.849H98.8276C98.9537 38.849 98.9916 38.8108 98.9916 38.685C98.9916 36.6045 99.0895 35.0845 98.5062 33.101C97.9927 31.3546 96.9973 29.4355 95.7527 28.0901C95.443 27.7553 95.1198 27.462 94.7955 27.1337C94.518 26.8531 93.8326 26.3525 93.7426 26.2181C93.9203 26.1706 94.0615 26.0027 94.2824 25.8283L95.2873 24.9196C95.9644 24.2463 96.9585 22.9547 97.3704 22.1361C97.8504 21.182 98.2239 20.5256 98.5116 19.395C99.1012 17.0765 98.992 16.0132 98.992 13.642C98.992 13.516 98.9539 13.4781 98.8281 13.4781H93.6882C93.4274 13.4781 93.5241 13.9214 93.5243 14.4076C93.5245 16.8698 93.6459 18.3985 92.0245 20.5631C90.7352 22.284 88.7175 23.6484 86.3611 23.6484H78.9249V12.4391C78.9249 11.5269 78.788 10.8198 78.5351 10.1496C78.0937 8.98008 77.0614 7.93615 75.9898 7.33638C75.219 6.90493 74.4309 6.75244 73.457 6.75244V38.685L73.4565 38.6848Z" fill="white"/>
<path fill-rule="evenodd" clip-rule="evenodd" d="M51.2023 26.3277C51.2023 24.9742 51.3092 23.8686 51.8761 22.7363C52.6565 21.1778 53.8073 19.8268 55.3941 19.0368C57.8357 17.8213 60.9639 18.0488 63.177 19.7114C64.9636 21.0537 66.2937 23.3142 66.2937 25.6169V33.6547H58.3652C54.5947 33.6547 51.2023 30.119 51.2023 26.3279V26.3277ZM45.7344 25.9996C45.7344 28.0882 46.1558 29.6667 46.9525 31.4523C47.292 32.2135 47.7418 32.8856 48.2183 33.5218L49.7936 35.282C52.5775 37.8569 55.5291 38.849 59.6227 38.849H71.6521C71.7782 38.849 71.8161 38.8108 71.8161 38.685V25.8354C71.8161 24.118 71.3726 22.0474 70.6503 20.6037C70.4628 20.2289 70.3107 19.9239 70.0986 19.5698C69.9886 19.3858 69.8913 19.2575 69.7711 19.0771C69.2339 18.2713 69.2326 18.3598 68.731 17.7113C68.2691 17.1142 66.7723 15.8076 66.174 15.402C64.4576 14.2382 62.462 13.3856 60.3352 13.2031C59.0069 13.0891 58.6738 13.0404 57.3163 13.1947C56.7869 13.2549 56.3361 13.3062 55.893 13.4118C55.0435 13.6143 54.185 13.8697 53.4619 14.2068C52.4919 14.6587 52.2808 14.7974 51.4094 15.3803C49.929 16.3707 48.396 18.0288 47.4602 19.5781C47.3437 19.7706 47.2783 19.9208 47.1666 20.1047C46.7106 20.8547 46.2889 22.1907 46.0729 23.0574C45.8733 23.8582 45.7344 25.0271 45.7344 25.9996Z" fill="white"/>
<path fill-rule="evenodd" clip-rule="evenodd" d="M0.0225356 2.59679C0.0225356 3.69405 -0.158499 4.3184 0.505647 5.28504C0.716266 5.59149 0.98584 5.86086 1.30416 6.07231C1.78248 6.38959 2.37372 6.57813 2.95578 6.71729C3.08869 6.74916 3.15411 6.74125 3.28681 6.76895C4.35845 6.99207 5.9636 7.70246 6.84149 8.35411L7.77126 9.00992C8.73873 9.72573 9.57433 10.6028 10.3726 11.4938L11.6555 12.9448C11.9257 13.2283 12.1138 13.5115 12.3484 13.8375L13.0046 14.767C13.1201 14.9354 13.1771 15.0716 13.2857 15.2516L13.8709 16.2522C13.93 16.3703 13.9311 16.3889 13.9973 16.5084L16.0166 20.7773C16.4122 21.6622 16.6158 22.5987 16.8039 23.5441C16.9712 24.3855 17.1162 25.2871 17.337 26.1275C17.4485 26.5517 17.5853 26.9252 17.7568 27.2935C17.928 27.6616 18.1207 27.9868 18.3476 28.2885L18.6466 28.6456C18.6574 28.6572 18.6891 28.6899 18.6999 28.7016C18.7901 28.8012 18.7855 28.8141 18.8738 28.9106L19.0757 29.0916C19.0845 29.0989 19.097 29.1089 19.1057 29.1162L19.1949 29.191C19.2578 29.2456 19.2532 29.2435 19.3097 29.2949C20.1025 30.017 21.0021 30.5749 22.0229 30.9013L23.2612 31.2488H25.1749C25.4186 31.2488 25.1586 31.2547 25.2909 31.2009C25.4128 31.1515 25.2716 31.1976 25.4489 31.1403C26.2684 30.8753 26.3451 31.0407 27.4361 30.4482L29.1664 29.0618C29.3837 28.7774 29.6383 28.5425 29.8527 28.2173C30.3739 27.4264 30.8866 26.4877 31.0412 25.5234C31.0472 25.4857 31.0806 25.2784 31.1058 25.2053C31.1737 25.0076 31.2443 25.0546 31.2443 24.9063V23.5395L31.0485 22.9697C31.001 22.6783 30.9606 22.5693 30.881 22.317C30.8154 22.1091 30.7583 21.9547 30.6714 21.7612L29.8406 20.186C29.0102 18.8305 27.6573 17.9911 26.1663 17.5176C25.6732 17.3609 25.117 17.2157 24.5755 17.1399L22.9446 16.8026C20.7517 16.2868 18.6549 15.4104 16.7229 14.2756C16.3695 14.0681 16.0939 13.8781 15.7473 13.6656L13.4267 12.0492C11.6374 10.7101 9.80828 9.28533 8.53082 7.43101C7.7998 6.37 7.17482 5.23837 6.8417 3.98028C6.8067 3.8482 6.78816 3.82299 6.74316 3.64133C6.53359 2.79303 6.38547 1.99327 5.9184 1.29474C5.7859 1.09683 5.72486 1.03933 5.54591 0.901629C5.25529 0.678303 4.93114 0.441849 4.57677 0.284979C3.65305 -0.123758 4.19908 0.0272764 2.64746 0.0272764C2.45954 0.0272764 1.9181 0.30144 1.75457 0.392062C1.50041 0.533308 1.20083 0.744343 0.973549 0.923296C0.605227 1.21308 0.0229526 2.15805 0.0229526 2.59721L0.0225356 2.59679Z" fill="white"/>
</svg>
