<svg width="18" height="19" viewBox="0 0 18 19" fill="none" xmlns="http://www.w3.org/2000/svg">
<path fill-rule="evenodd" clip-rule="evenodd" d="M8.77406 7.11782C10.3102 7.70942 11.5693 9.11511 11.6339 10.8568C11.7259 13.3464 9.1786 15.2552 7.13011 17.2802C6.32719 18.0535 5.22789 18.4938 4.11165 18.4869C0.910364 18.4272 -1.51572 14.0123 1.1236 11.2737C2.6336 9.74482 4.05276 7.82336 5.71596 7.11051C5.84567 7.0547 5.97808 7.00735 6.11164 6.96771C6.1178 7.46154 6.15937 8.09087 6.30217 8.6155C6.03274 8.72443 5.78023 8.88109 5.55814 9.08971C3.83683 10.7491 1.35878 12.3433 1.51506 14.4365C1.61398 15.7648 2.82182 16.9045 4.19749 16.8961C4.87377 16.8833 5.53274 16.6097 6.01888 16.1416C7.97691 14.2059 10.8249 12.2102 9.81793 9.93882C9.6197 9.49155 9.28445 9.13051 8.87683 8.87378C8.76944 8.40842 8.67937 7.76678 8.77406 7.11782ZM9.22594 11.3691C7.68977 10.7775 6.43073 9.37185 6.36607 7.62975C6.27407 5.14054 8.8214 3.23178 10.8699 1.20639C11.6728 0.433488 12.7721 -0.00684782 13.8883 8.05464e-05C17.0896 0.0593566 19.5157 4.47426 16.8764 7.21289C15.3664 8.74175 13.9472 10.6632 12.284 11.3761C12.1543 11.4319 12.0219 11.4792 11.8884 11.5189C11.8822 11.025 11.8406 10.3957 11.6978 9.87146C11.9673 9.76253 12.2198 9.60549 12.4419 9.39687C14.1632 7.73752 16.6412 6.14323 16.4849 4.05009C16.386 2.72216 15.1782 1.58206 13.8025 1.59091C13.1262 1.60323 12.4673 1.87728 11.9811 2.34533C10.0231 4.28065 7.17515 6.27641 8.18207 8.54776C8.3803 8.99541 8.71555 9.35607 9.12317 9.61319C9.23056 10.0782 9.32063 10.7202 9.22594 11.3691Z" fill="#00002F"/>
</svg>
