<svg width="601" height="275" viewBox="0 0 601 275" fill="none" xmlns="http://www.w3.org/2000/svg">
<path fill-rule="evenodd" clip-rule="evenodd" d="M60.9648 207.06C60.21 207.139 60.1088 207.173 59.47 206.89L49.1534 200.319C49.1183 200.296 49.0684 200.271 49.0325 200.249C48.9966 200.227 48.9459 200.203 48.91 200.181L48.6719 200.041C47.7051 199.372 47.0441 198.574 46.0338 197.999C44.9275 197.37 44.248 196.183 43.0657 195.499C42.1122 194.948 40.1445 192.756 39.2136 191.84C38.5972 191.234 37.9278 190.63 37.3261 189.977C36.6326 189.225 36.8 189.071 35.7248 188.004L33.2643 184.824C31.5563 182.777 31.5714 182.847 30.0596 180.522L29.7006 179.936C29.6598 179.877 29.3906 179.534 29.3797 179.517C29.1189 179.128 29.0373 178.782 28.7289 178.29C27.0148 175.551 25.7619 172.494 24.3567 169.684C24.1303 169.231 24.009 168.735 23.8661 168.309L22.5157 164.028C22.4533 163.786 22.1241 162.868 22.0466 162.63C21.8902 162.146 21.7919 161.546 21.6694 161.121C20.8629 158.317 20.5685 155.812 19.9981 153.541L19.7249 151.934C19.6618 150.908 19.5057 151.281 19.4051 150.43C19.3318 149.814 19.4633 149.196 19.3341 148.594C19.1712 147.835 19.0268 148.315 19.0034 147.064C18.9663 145.1 19.0423 145.56 18.6787 143.813C18.3767 142.362 18.6213 139.925 18.6209 138.408C18.6205 136.214 18.4531 133.255 18.7067 131.112L42.8012 131.134C42.9849 132.896 42.7845 135.214 42.5143 136.737C42.2365 138.304 42.7524 141.204 42.4338 142.686C42.238 143.596 42.2066 142.54 42.111 143.849L42.1156 148.373C42.1084 149.815 42.4504 149.76 42.4799 150.983C42.5033 151.967 42.4867 153.014 42.4814 154.003C42.4708 155.942 42.6496 155.498 42.8144 156.648C42.9395 157.522 42.7275 158.739 42.9017 159.609C43.0737 160.469 43.1319 159.666 43.2139 160.766C43.2581 161.358 43.1322 161.605 43.2853 162.221C43.3764 162.589 43.5563 162.788 43.5858 163.389C43.6126 163.945 43.5193 164.296 43.661 164.837L44.4464 168.548C44.6225 169.171 44.6032 169.029 44.7053 169.781L45.5988 173.765C45.6184 173.823 45.6849 173.973 45.7054 174.03C45.756 174.171 45.7998 174.296 45.8482 174.455C46.7742 177.488 47.608 180.549 48.76 183.609L52.911 192.993L56.7684 199.653C57.0118 199.983 57.166 200.229 57.3459 200.573L59.7017 204.198C60.2905 205.109 61.2868 205.703 60.9648 207.06ZM81.2254 233.083L81.3739 233.324C81.68 233.759 81.9896 233.971 82.3827 234.358C82.8313 234.799 83.029 235.057 83.4916 235.489C83.5747 235.566 83.7418 235.714 83.7996 235.757C84.633 236.375 85.9286 236.48 86.8134 236.091L88.0742 235.105C88.4613 234.71 88.8029 234.436 89.1525 233.926L93.2408 229.334L97.6172 226.059C97.9388 225.83 97.6636 226.015 97.9652 225.831C98.0144 225.801 98.1629 225.72 98.2121 225.692C99.677 224.827 101.059 224.101 102.647 223.542C102.691 223.526 102.739 223.506 102.783 223.49L108.518 221.353C110.325 220.511 112.152 219.968 113.949 219.079L115.149 218.565C115.508 218.432 115.242 218.543 115.553 218.407L122.017 215.067C122.054 215.048 122.103 215.025 122.139 215.005L124.449 213.612C124.52 213.563 124.748 213.389 124.767 213.376C124.8 213.354 124.848 213.324 124.882 213.303L127.516 211.61C127.552 211.586 127.599 211.558 127.634 211.535L129.339 210.376C129.534 210.257 129.519 210.286 129.695 210.171L135.273 205.839C135.701 205.41 135.906 205.192 136.416 204.875C137.479 204.213 143.044 198.766 143.64 197.853L150.593 188.839C150.615 188.805 150.642 188.756 150.664 188.722L154.623 182.311C154.759 182.068 154.696 182.158 154.804 181.931L155.961 179.704C156.045 179.534 156.223 179.186 156.33 178.969L159.304 172.378C159.321 172.338 159.343 172.289 159.359 172.249L161.11 167.081C161.126 167.037 161.145 166.988 161.16 166.945L161.966 164.457C162.038 164.199 162.015 164.218 162.069 163.989L163.229 159.715C163.388 159.095 163.427 158.738 163.574 158.004L163.844 157.153C164.242 155.496 164.393 153.387 164.842 151.972C164.896 151.802 164.905 151.916 164.966 151.537C165.021 151.194 164.976 150.951 165.005 150.627C165.097 149.601 165.353 149.699 165.369 148.751C165.398 147.111 165.723 146.375 165.723 144.793L165.957 142.96C166.102 142.473 166.417 129.417 166.003 127.783C165.819 127.059 165.888 128.028 165.752 126.939C165.723 126.704 165.739 126.264 165.741 126.012C165.751 124.824 165.49 124.023 165.336 123.027C165.28 122.668 165.342 122.915 165.229 122.576C164.944 121.724 164.246 121.245 163.83 120.591L163.02 119.86C160.585 118.324 159.408 118.149 156.152 118.149H16.558C13.2445 118.149 12.1243 117.773 9.45554 119.073L7.58201 120.239C7.38699 120.472 7.48829 120.365 7.34996 120.578L6.7407 121.473C6.40923 121.96 6.26485 122.456 6.06681 123.056C5.31959 125.317 5.66541 127.427 5.28141 128.637C5.24702 128.746 5.23417 128.602 5.14876 129.052C4.9269 130.222 5.12457 131.588 5.11399 132.772C5.10378 133.939 4.95638 140.828 5.11965 141.414C5.30561 142.081 5.29352 141.074 5.44924 142.172C5.48439 142.419 5.46851 143.011 5.46738 143.288C5.46209 145.105 5.81585 145.617 5.81698 147.433L6.34309 151.247C6.4818 151.672 6.4973 151.11 6.56571 152.127L8.72571 162.094C8.83418 162.606 8.78391 162.5 8.93207 162.984C8.94605 163.03 8.9676 163.076 8.98158 163.123L9.06699 163.423C9.0806 163.478 9.08703 163.527 9.09988 163.583L13.6516 175.862C13.6705 175.902 13.6943 175.949 13.7128 175.991C13.7313 176.033 13.7536 176.081 13.7714 176.124L22.7988 192.067C22.8298 192.114 23.0104 192.348 23.0531 192.398L25.4497 195.461C25.6621 195.745 26.3062 196.352 26.5605 196.609L27.4733 197.742C27.6264 197.976 27.5228 197.854 27.7091 198.082L29.5853 199.941C30.3707 200.706 31.0238 201.387 31.7782 202.129C32.1535 202.497 32.5466 202.868 32.9086 203.227C33.2303 203.547 33.7401 204.086 34.0501 204.318C34.0826 204.342 34.129 204.372 34.1623 204.395C34.1959 204.418 34.2443 204.446 34.2787 204.468C35.9084 205.521 37.1462 207.096 38.8776 208.155L43.9675 211.918C44.1164 212.018 44.5144 212.209 44.7053 212.306C44.7185 212.312 45.0681 212.497 45.0696 212.498L46.061 213.181C46.2813 213.308 46.1525 213.211 46.4219 213.381C46.4684 213.411 46.5947 213.504 46.6393 213.535L52.3807 216.651C52.4193 216.671 52.4692 216.693 52.5074 216.713C52.5448 216.733 52.5947 216.756 52.6317 216.777L62.6792 221.363C63.9896 221.965 65.4065 222.252 66.6738 222.821L71.3151 224.724C71.8023 224.993 71.5271 224.86 72.0108 225.18L75.358 227.274C76.538 227.985 80.4082 231.785 81.2254 233.083Z" fill="#00002E"/>
<path fill-rule="evenodd" clip-rule="evenodd" d="M5.47695 78.475C5.01849 79.432 4.52526 80.0617 4.15978 81.1211L3.08867 83.7951C2.64495 84.7861 2.38755 85.3681 2.06969 86.5016C1.7507 87.6393 1.59498 88.5524 1.2964 89.5536C1.00953 90.5143 0.813763 91.8867 0.692818 92.9249C0.595684 93.7606 0.430892 93.4537 0.357569 94.4341C0.311837 95.043 0.409352 95.6326 0.266108 96.2252C0.015147 97.2638 -0.003383 98.4733 0.000396531 99.705C0.0102233 102.803 -0.094452 103.46 1.48312 105.917C2.59128 107.642 4.5502 108.026 6.43543 108.548C7.60104 108.871 8.60715 108.775 9.98328 108.777L146.383 108.779C151.34 108.779 158.844 108.988 163.493 108.781C164.485 108.737 164.365 108.6 165.046 108.457L166.546 108.073C168.09 107.7 169.02 107.184 170.002 105.837C171.411 103.905 171.264 101.689 171.208 99.3293L171.065 95.8643C170.775 94.8268 170.802 93.6143 170.54 92.4778C170.284 91.3651 170.224 90.3465 169.932 89.334L169.361 87.0999C168.907 84.8915 167.882 82.9677 167.096 80.8342L166.479 79.6342C166.189 79.1228 166.203 78.6364 165.763 78.4161C164.388 77.9081 147.051 82.433 144.463 83.1227C127.089 87.7557 113.514 93.2065 98.8301 102.876C96.6611 104.305 92.7338 108.099 91.5084 108.512C91.99 106.024 95.4369 101.772 96.6996 100.371C103.039 93.338 111.535 88.5838 120.624 84.4728C131.169 79.7038 148.997 73.8644 160.9 71.5464C160.414 70.3944 158.702 69.1464 157.745 68.2344C157.397 67.9026 157.093 67.5462 156.717 67.2336C153.374 66.9191 139.801 71.1265 136.366 72.2188C119.8 77.4848 108.562 83.9591 94.8968 93.8759C93.6423 94.786 92.5569 95.6961 91.3081 96.6704C90.1694 97.5586 89.122 98.7942 87.9723 99.5637C88.3382 97.2332 91.2268 93.5191 92.448 91.9876C94.3019 89.6617 96.209 87.9057 98.1997 85.9018C99.323 84.771 100.135 84.0528 101.343 83.0343L107.824 77.6787C108.994 76.7081 109.952 76.0701 111.128 75.157C115.277 71.9349 120.513 68.5107 125.49 65.8537C129.227 63.8581 137.347 59.385 141.337 57.9991C140.798 57.5811 140.636 57.5127 139.892 57.1683C139.276 56.8826 138.815 56.6717 138.276 56.4899C133.881 55.0061 136.768 54.5215 131.614 57.3127C130.404 57.9684 129.335 58.4666 128.09 59.0551C125.701 60.1844 123.422 61.2075 121.124 62.4211C111.513 67.497 100.025 77.2822 92.7538 85.7192C91.0273 87.7228 89.4788 89.2202 87.7731 91.0106C87.871 84.8492 97.2855 72.4089 101.187 68.0386C101.904 67.2358 102.559 66.4191 103.364 65.5203C106.542 61.9683 115.976 52.9836 120.047 50.4162C118.906 49.7737 115.036 48.7944 113.486 48.4384C111.86 48.0653 111.544 47.4776 110.386 48.4864C108.04 50.5296 105.801 52.7928 103.836 54.9014C100.12 58.891 96.1119 65.0853 93.2621 69.8819C91.9771 72.0449 88.3348 79.426 87.0652 80.722C86.9824 72.4539 96.1459 54.4652 100.526 47.6466C102.808 44.0946 102.472 45.0625 100.623 43.6429L98.7217 41.7883C97.9786 40.8895 97.4026 39.6476 96.7287 38.688C95.901 37.5106 95.2725 35.9391 95.0525 34.5361C94.91 33.626 94.9138 34.2863 94.7758 33.5244C94.4485 31.7174 96.443 26.392 96.8871 24.1315C97.07 23.2002 97.2469 22.4292 97.3115 21.5459C97.3924 20.4344 97.6793 20.4483 97.6732 19.1138C97.6645 17.2331 97.6865 15.3497 97.6891 13.4683C97.6925 11.1367 98.16 7.30842 97.0576 5.29507C96.6906 4.62458 96.3357 4.28708 95.7774 3.75454L94.0713 2.46308C92.8581 1.64557 91.4279 1.13381 90.0514 0.684043C88.2705 0.102374 86.897 -0.0102592 84.9445 0.000701395C81.8729 0.0180872 78.2223 1.36019 75.8846 3.28586C73.7296 5.06111 73.5005 5.63712 73.4842 8.58364C73.4718 10.7735 73.2752 18.5846 73.5561 20.194C73.6929 20.9786 73.7447 20.2718 73.8524 21.3618C73.9174 22.0191 73.8282 22.0777 74.0123 22.7176C74.2111 23.4081 74.1336 23.1968 74.2511 23.9761L75.1442 27.4C75.3544 28.1075 75.5758 28.9394 75.7138 29.6292C76.1038 31.5779 76.5914 32.3418 76.1511 34.3683L75.4677 36.6905C75.1642 37.5276 75.0762 37.8542 74.5595 38.5923C73.4328 40.202 72.6236 41.9376 71.0714 43.1641L69.1227 44.6566C69.1869 45.4461 73.0677 51.5342 73.7866 52.8124C77.1009 58.7009 84.5919 74.5583 84.1531 80.7238C83.5053 80.0995 81.4209 76.5339 80.8029 75.4805C79.7541 73.6936 78.5897 71.9746 77.497 70.1423C72.9687 62.5481 69.5021 56.3221 62.8721 50.3848C62.055 49.6531 60.607 47.6141 59.3258 47.9452L54.4989 49.3251C54.4543 49.3398 54.4075 49.3598 54.3625 49.3738C53.2169 49.7268 52.1674 49.7839 51.278 50.4933C52.4686 51.0557 55.1354 53.5389 56.442 54.5635C61.9696 58.8997 69.9799 67.3972 74.2866 73.1663C77.4218 77.3657 83.0653 85.5961 83.5514 91.0049C83.1542 90.8454 78.3047 86.1463 77.5994 85.446C65.497 73.426 61.5149 68.1097 45.3638 60.0075C42.8107 58.7266 40.3284 57.6271 37.7288 56.1728C35.7581 55.0707 35.8152 55.2291 33.4247 56.1165L31.5496 57.0326C30.903 57.332 30.3062 57.6982 29.7699 57.9204C35.2592 60.2864 40.5173 63.0848 45.7376 65.8235C55.1535 70.7622 65.362 78.7627 73.1376 85.9627C75.385 88.0437 82.5544 95.2932 83.2377 99.5334L79.4767 96.342C75.837 93.1362 71.6542 90.4781 67.6222 87.7213C62.1389 83.972 56.0376 80.9174 50.03 78.0661C39.648 73.138 27.617 69.829 16.0732 67.4641C14.6385 67.1705 14.6907 66.9127 13.7088 67.9264C12.6588 69.01 11.3209 70.2213 10.3699 71.3212C24.8841 74.4665 38.137 78.9906 50.5123 84.5355C61.4253 89.4255 75.8623 98.9574 79.7526 108.464C78.697 108.007 77.0593 106.51 75.9432 105.703C74.6351 104.757 73.4166 103.856 72.1728 102.899C59.7075 93.3093 42.0303 87.2296 26.7704 83.1352C23.6334 82.2935 7.71329 78.1893 5.47695 78.475Z" fill="#FF5001"/>
<path fill-rule="evenodd" clip-rule="evenodd" d="M60.9644 207.06C61.2864 205.703 60.2901 205.109 59.7013 204.198L57.3455 200.573C57.1656 200.229 57.0114 199.982 56.768 199.653L52.9106 192.993L48.7595 183.609C47.6075 180.549 46.7738 177.488 45.8478 174.455C45.7994 174.296 45.7556 174.171 45.7049 174.03C45.6845 173.973 45.618 173.823 45.5984 173.765L44.7049 169.781C44.6028 169.029 44.6221 169.171 44.446 168.548L43.6606 164.837C43.5189 164.296 43.6122 163.945 43.5854 163.389C43.5559 162.788 43.376 162.589 43.2849 162.221C43.1318 161.605 43.2577 161.358 43.2135 160.766C43.1315 159.666 43.0732 160.469 42.9013 159.609C42.727 158.739 42.9391 157.522 42.814 156.648C42.6492 155.498 42.4704 155.942 42.481 154.003C42.4863 153.014 42.5029 151.967 42.4795 150.983C42.45 149.76 42.108 149.815 42.1151 148.373L42.1106 143.849C42.2062 142.54 42.2376 143.596 42.4334 142.686C42.752 141.204 42.2361 138.304 42.5139 136.737C42.7841 135.214 42.9844 132.896 42.8007 131.134L18.7063 131.112C18.4527 133.255 18.6201 136.214 18.6205 138.408C18.6208 139.925 18.3763 142.362 18.6783 143.813C19.0419 145.56 18.9659 145.1 19.0029 147.064C19.0264 148.315 19.1707 147.834 19.3336 148.594C19.4629 149.196 19.3314 149.814 19.4047 150.43C19.5052 151.281 19.6613 150.908 19.7245 151.934L19.9977 153.541C20.5681 155.812 20.8625 158.317 21.669 161.121C21.7915 161.546 21.8897 162.146 22.0462 162.63C22.1237 162.868 22.4529 163.786 22.5153 164.028L23.8657 168.309C24.0085 168.734 24.1299 169.231 24.3563 169.684C25.7615 172.494 27.0144 175.551 28.7284 178.29C29.0368 178.782 29.1185 179.128 29.3793 179.517C29.3902 179.534 29.6593 179.877 29.7001 179.936L30.0592 180.522C31.571 182.846 31.5559 182.777 33.2639 184.824L35.7243 188.004C36.7996 189.071 36.6322 189.225 37.3257 189.977C37.9274 190.63 38.5968 191.234 39.2132 191.84C40.1441 192.756 42.1117 194.948 43.0653 195.499C44.2475 196.183 44.9271 197.37 46.0334 197.999C47.0436 198.573 47.7047 199.372 48.6715 200.041L48.9096 200.181C48.9455 200.203 48.9961 200.227 49.032 200.249C49.0679 200.271 49.1178 200.296 49.153 200.319L59.4696 206.89C60.1083 207.173 60.2096 207.139 60.9644 207.06Z" fill="#FF5001"/>
<path d="M275.719 213.282C231.102 213.282 201.569 184.387 201.569 139.982C201.569 95.5771 231.102 66.682 275.719 66.682C320.761 66.682 350.081 95.5771 350.081 139.982C350.081 184.387 320.761 213.282 275.719 213.282ZM275.719 191.186C309.501 191.186 325.86 175.463 325.86 139.982C325.86 104.501 309.501 88.5658 275.719 88.5658C241.937 88.5658 225.79 104.501 225.79 139.982C225.79 175.463 241.937 191.186 275.719 191.186ZM398.053 213.282C376.169 213.282 362.359 203.084 362.359 185.662C362.359 169.302 375.532 160.803 396.353 158.466L444.37 153.367V147.206C444.37 129.784 436.722 123.622 416.537 123.622C396.991 123.622 387.43 129.996 387.43 145.506V146.356H364.696V145.506C364.696 121.498 384.668 103.438 418.237 103.438C451.806 103.438 466.891 121.71 466.891 146.993V211.157H445.857V184.812H444.37C438.846 202.659 422.062 213.282 398.053 213.282ZM385.305 184.174C385.305 192.673 391.042 196.71 404.215 196.71C428.223 196.71 444.37 187.786 444.37 166.965L402.94 171.639C391.042 173.126 385.305 175.888 385.305 184.174ZM510.32 211.157H487.374V68.8067H510.32V147.418H540.49L572.147 105.563H598.917L559.187 156.342L598.705 211.157H571.722L540.49 168.027H510.32V211.157Z" fill="#00002E"/>
</svg>
