<svg width="83" height="38" viewBox="0 0 83 38" fill="none" xmlns="http://www.w3.org/2000/svg">
<path fill-rule="evenodd" clip-rule="evenodd" d="M8.35951 28.4652C8.25601 28.476 8.24213 28.4807 8.15454 28.4418L6.73991 27.5408C6.73509 27.5377 6.72825 27.5342 6.72333 27.5312C6.7184 27.5282 6.71146 27.5249 6.70653 27.5219L6.67388 27.5028C6.54131 27.411 6.45067 27.3015 6.31214 27.2227C6.16045 27.1364 6.06727 26.9737 5.90516 26.8799C5.7744 26.8043 5.5046 26.5037 5.37695 26.3781C5.29242 26.295 5.20064 26.2123 5.11813 26.1227C5.02303 26.0196 5.04599 25.9985 4.89855 25.8522L4.56116 25.4161C4.32697 25.1355 4.32904 25.145 4.12174 24.8262L4.0725 24.7459C4.0669 24.7378 4.03 24.6907 4.0285 24.6884C3.99274 24.635 3.98155 24.5877 3.93926 24.5201C3.70423 24.1446 3.53243 23.7255 3.33974 23.34C3.3087 23.2779 3.29206 23.2099 3.27247 23.1516L3.0873 22.5646C3.07875 22.5313 3.0336 22.4055 3.02298 22.3728C3.00152 22.3065 2.98805 22.2242 2.97126 22.1659C2.86066 21.7815 2.82029 21.4379 2.74209 21.1266L2.70462 20.9062C2.69596 20.7655 2.67456 20.8166 2.66077 20.7C2.65072 20.6155 2.66875 20.5307 2.65103 20.4482C2.62869 20.344 2.60889 20.4099 2.60568 20.2384C2.6006 19.9691 2.61102 20.0322 2.56116 19.7926C2.51975 19.5937 2.55329 19.2594 2.55324 19.0515C2.55318 18.7506 2.53022 18.3449 2.565 18.0511L5.86888 18.054C5.89407 18.2956 5.8666 18.6135 5.82954 18.8223C5.79145 19.0372 5.86219 19.4349 5.8185 19.638C5.79166 19.7629 5.78736 19.618 5.77424 19.7975L5.77487 20.4179C5.77388 20.6156 5.82079 20.608 5.82483 20.7757C5.82804 20.9106 5.82576 21.0543 5.82503 21.1899C5.82358 21.4558 5.8481 21.3949 5.87069 21.5526C5.88785 21.6724 5.85877 21.8393 5.88266 21.9586C5.90624 22.0765 5.91423 21.9663 5.92547 22.1172C5.93154 22.1985 5.91428 22.2322 5.93527 22.3168C5.94776 22.3672 5.97243 22.3945 5.97647 22.4769C5.98015 22.5531 5.96735 22.6012 5.98678 22.6755L6.09447 23.1843C6.11863 23.2697 6.11598 23.2503 6.12998 23.3534L6.25249 23.8997C6.25519 23.9077 6.26431 23.9282 6.26711 23.936C6.27405 23.9553 6.28006 23.9725 6.2867 23.9943C6.41367 24.4102 6.528 24.83 6.68596 25.2495L7.25516 26.5363L7.78409 27.4495C7.81747 27.4947 7.83861 27.5285 7.86328 27.5756L8.18631 28.0727C8.26705 28.1977 8.40367 28.2791 8.35951 28.4652ZM11.1377 32.0334L11.158 32.0665C11.2 32.1262 11.2425 32.1553 11.2964 32.2083C11.3579 32.2687 11.385 32.3042 11.4484 32.3634C11.4598 32.374 11.4827 32.3942 11.4907 32.4001C11.6049 32.4849 11.7826 32.4993 11.9039 32.4459L12.0768 32.3107C12.1299 32.2565 12.1767 32.2189 12.2247 32.1491L12.7853 31.5193L13.3853 31.0703C13.4294 31.039 13.3917 31.0643 13.4331 31.039C13.4398 31.0349 13.4602 31.0239 13.4669 31.0199C13.6678 30.9014 13.8573 30.8018 14.075 30.7252C14.0811 30.723 14.0877 30.7203 14.0938 30.7181L14.88 30.425C15.1279 30.3096 15.3784 30.2351 15.6248 30.1132L15.7893 30.0427C15.8386 30.0244 15.8021 30.0397 15.8447 30.0211L16.7311 29.5631C16.7361 29.5604 16.7429 29.5573 16.7478 29.5545L17.0646 29.3636C17.0743 29.3568 17.1056 29.3329 17.1082 29.3312C17.1127 29.3282 17.1192 29.3241 17.1239 29.3212L17.4851 29.089C17.49 29.0858 17.4966 29.0819 17.5013 29.0787L17.7352 28.9198C17.7619 28.9035 17.7598 28.9074 17.7839 28.8917L18.5487 28.2977C18.6074 28.2389 18.6355 28.209 18.7054 28.1655C18.8513 28.0747 19.6144 27.3278 19.6961 27.2026L20.6495 25.9666C20.6525 25.962 20.6563 25.9553 20.6592 25.9506L21.202 25.0716C21.2208 25.0381 21.212 25.0506 21.2269 25.0194L21.3856 24.714C21.3971 24.6908 21.4214 24.643 21.4362 24.6133L21.844 23.7094C21.8463 23.704 21.8492 23.6973 21.8515 23.6918L22.0916 22.9831C22.0938 22.9771 22.0964 22.9704 22.0985 22.9644L22.2089 22.6233C22.2189 22.588 22.2156 22.5906 22.2231 22.5591L22.3821 21.9731C22.404 21.8881 22.4093 21.8392 22.4295 21.7385L22.4664 21.6217C22.521 21.3945 22.5418 21.1054 22.6033 20.9114C22.6107 20.8881 22.612 20.9037 22.6203 20.8517C22.6278 20.8047 22.6217 20.7714 22.6257 20.727C22.6383 20.5863 22.6734 20.5996 22.6756 20.4697C22.6796 20.2448 22.7242 20.1439 22.7241 19.927L22.7562 19.6756C22.7761 19.6088 22.8193 17.8186 22.7625 17.5946C22.7374 17.4952 22.7467 17.6281 22.7281 17.4788C22.7241 17.4465 22.7263 17.3863 22.7266 17.3517C22.728 17.1888 22.6922 17.079 22.671 16.9424C22.6634 16.8931 22.6719 16.927 22.6564 16.8805C22.6173 16.7638 22.5216 16.698 22.4646 16.6083L22.3534 16.5082C22.0196 16.2975 21.8582 16.2735 21.4118 16.2736H2.27037C1.81602 16.2736 1.66241 16.2219 1.29647 16.4002L1.03956 16.5602C1.01282 16.592 1.02671 16.5774 1.00775 16.6065L0.924202 16.7294C0.878751 16.7961 0.858953 16.8642 0.831797 16.9463C0.729338 17.2564 0.776757 17.5457 0.724102 17.7116C0.719386 17.7266 0.717625 17.7069 0.705912 17.7686C0.675491 17.929 0.702596 18.1163 0.701145 18.2786C0.699745 18.4387 0.679533 19.3832 0.701922 19.4637C0.72742 19.5551 0.725762 19.4171 0.747115 19.5675C0.751934 19.6015 0.749758 19.6827 0.749602 19.7207C0.748876 19.9698 0.797385 20.04 0.797541 20.289L0.869681 20.8119C0.888701 20.8702 0.890827 20.7932 0.900207 20.9326L1.19639 22.2994C1.21126 22.3695 1.20437 22.355 1.22469 22.4214C1.2266 22.4277 1.22956 22.434 1.23148 22.4404L1.24319 22.4815C1.24505 22.489 1.24593 22.4959 1.2477 22.5035L1.87183 24.1872C1.87442 24.1927 1.87769 24.1992 1.88023 24.2049C1.88277 24.2106 1.88583 24.2173 1.88826 24.2232L3.12612 26.4093C3.13037 26.4157 3.15514 26.4478 3.16099 26.4547L3.48962 26.8747C3.51874 26.9137 3.60706 26.9968 3.64193 27.0321L3.76709 27.1875C3.78808 27.2196 3.77388 27.2028 3.79943 27.2341L4.05669 27.4889C4.16439 27.5939 4.25394 27.6873 4.35739 27.7889C4.40885 27.8395 4.46275 27.8903 4.5124 27.9396C4.5565 27.9834 4.62641 28.0574 4.66891 28.0892C4.67337 28.0924 4.67974 28.0966 4.6843 28.0997C4.68891 28.1029 4.69555 28.1067 4.70026 28.1097C4.92374 28.2541 5.09347 28.4701 5.33088 28.6152L6.02881 29.1312C6.04923 29.1451 6.1038 29.1712 6.12998 29.1844C6.13179 29.1854 6.17973 29.2106 6.17994 29.2108L6.31587 29.3045C6.34609 29.3218 6.32841 29.3086 6.36536 29.3319C6.37174 29.336 6.38905 29.3487 6.39516 29.353L7.18245 29.7803C7.18773 29.783 7.19458 29.7861 7.19981 29.7888C7.20494 29.7916 7.21178 29.7947 7.21686 29.7975L8.59459 30.4264C8.77427 30.5089 8.96856 30.5482 9.14233 30.6263L9.77876 30.8873C9.84556 30.9241 9.80783 30.9059 9.87416 30.9498L10.3331 31.2369C10.4949 31.3344 11.0256 31.8554 11.1377 32.0334Z" fill="white"/>
<path fill-rule="evenodd" clip-rule="evenodd" d="M0.751009 10.8329C0.688145 10.9641 0.620512 11.0505 0.570396 11.1957L0.423523 11.5624C0.36268 11.6983 0.327385 11.7781 0.283799 11.9335C0.240059 12.0895 0.218707 12.2147 0.177764 12.352C0.138429 12.4838 0.111585 12.6719 0.0950004 12.8143C0.0816813 12.9289 0.0590847 12.8868 0.0490305 13.0212C0.0427597 13.1047 0.0561311 13.1856 0.0364892 13.2668C0.00207699 13.4093 -0.000463883 13.5751 5.43731e-05 13.744C0.00140184 14.1688 -0.0129514 14.2589 0.203368 14.5958C0.355321 14.8324 0.623932 14.8849 0.882438 14.9566C1.04227 15.0009 1.18023 14.9877 1.36893 14.988L20.0724 14.9882C20.752 14.9882 21.781 15.0168 22.4185 14.9885C22.5544 14.9825 22.5381 14.9637 22.6313 14.9441L22.8371 14.8914C23.0488 14.8403 23.1763 14.7696 23.311 14.5849C23.5042 14.3199 23.4841 14.016 23.4764 13.6925L23.4568 13.2173C23.417 13.0751 23.4207 12.9088 23.3848 12.753C23.3496 12.6004 23.3414 12.4607 23.3015 12.3219L23.2231 12.0156C23.1608 11.7127 23.0203 11.449 22.9126 11.1564L22.8279 10.9919C22.7882 10.9217 22.7901 10.855 22.7297 10.8248C22.5411 10.7552 20.1639 11.3756 19.8091 11.4702C17.4267 12.1055 15.5652 12.8529 13.5518 14.1789C13.2543 14.3748 12.7158 14.8949 12.5478 14.9516C12.6138 14.6105 13.0865 14.0274 13.2596 13.8353C14.1289 12.8709 15.2939 12.219 16.5402 11.6553C17.9861 11.0014 20.4308 10.2007 22.0629 9.88284C21.9963 9.72488 21.7615 9.55375 21.6303 9.42869C21.5825 9.38319 21.5409 9.33432 21.4893 9.29146C21.0309 9.24834 19.1698 9.82526 18.6988 9.97504C16.4272 10.6971 14.8862 11.5849 13.0124 12.9447C12.8404 13.0695 12.6916 13.1943 12.5203 13.3279C12.3642 13.4497 12.2206 13.6191 12.0629 13.7246C12.1131 13.4051 12.5092 12.8958 12.6766 12.6858C12.9308 12.3668 13.1924 12.1261 13.4653 11.8513C13.6193 11.6962 13.7307 11.5977 13.8963 11.4581L14.7851 10.7237C14.9454 10.5906 15.0768 10.5031 15.2381 10.3779C15.807 9.93611 16.5249 9.46658 17.2074 9.10224C17.7199 8.8286 18.8333 8.21525 19.3804 8.0252C19.3065 7.96788 19.2842 7.95851 19.1823 7.91129C19.0977 7.87211 19.0345 7.84319 18.9606 7.81826C18.3581 7.6148 18.7539 7.54835 18.0472 7.93109C17.8812 8.021 17.7347 8.08931 17.5639 8.17C17.2364 8.32486 16.9239 8.46515 16.6087 8.63156C15.2908 9.32758 13.7156 10.6693 12.7186 11.8262C12.4818 12.101 12.2695 12.3063 12.0356 12.5518C12.049 11.7069 13.34 10.0011 13.875 9.40184C13.9732 9.29177 14.0631 9.17977 14.1734 9.05653C14.6093 8.56947 15.9028 7.33748 16.4611 6.98543C16.3046 6.89732 15.774 6.76304 15.5614 6.71422C15.3385 6.66307 15.2951 6.58248 15.1363 6.72081C14.8146 7.00098 14.5076 7.31131 14.2382 7.60044C13.7286 8.14751 13.179 8.99688 12.7883 9.6546C12.6121 9.9512 12.1126 10.9633 11.9385 11.141C11.9272 10.0073 13.1837 7.54063 13.7844 6.60565C14.0973 6.11859 14.0512 6.25132 13.7976 6.05666L13.5369 5.80235C13.435 5.67911 13.356 5.50881 13.2636 5.37723C13.1501 5.21579 13.0639 5.0003 13.0338 4.80792C13.0142 4.68313 13.0148 4.77367 12.9958 4.66919C12.951 4.42141 13.2244 3.69119 13.2853 3.38122C13.3104 3.25352 13.3347 3.1478 13.3435 3.02668C13.3546 2.87426 13.394 2.87618 13.3931 2.69318C13.3919 2.4353 13.3949 2.17705 13.3953 1.91906C13.3958 1.59935 13.4599 1.07441 13.3087 0.798335C13.2584 0.706396 13.2097 0.660117 13.1332 0.587095L12.8992 0.410007C12.7329 0.297909 12.5368 0.227735 12.348 0.166063C12.1038 0.0863033 11.9155 0.0708589 11.6477 0.0723618C11.2266 0.0747458 10.726 0.258778 10.4054 0.522829C10.1099 0.766254 10.0785 0.845238 10.0763 1.24927C10.0746 1.54955 10.0476 2.62063 10.0861 2.8413C10.1049 2.94889 10.112 2.85197 10.1268 3.00144C10.1357 3.09156 10.1235 3.0996 10.1487 3.18734C10.176 3.28202 10.1653 3.25305 10.1814 3.35992L10.3039 3.8294C10.3327 3.92642 10.3631 4.04049 10.382 4.13507C10.4355 4.40228 10.5024 4.50703 10.442 4.78491L10.3483 5.10333C10.3067 5.21812 10.2946 5.2629 10.2237 5.36412C10.0692 5.58484 9.95829 5.82282 9.74544 5.991L9.47823 6.19566C9.48704 6.30392 10.0192 7.13873 10.1178 7.314C10.5722 8.12144 11.5994 10.2958 11.5392 11.1413C11.4504 11.0556 11.1646 10.5667 11.0798 10.4223C10.936 10.1773 10.7764 9.94156 10.6265 9.69031C10.0056 8.64897 9.53026 7.79525 8.62114 6.98112C8.50909 6.88079 8.31054 6.60119 8.13486 6.64659L7.47299 6.83581C7.46688 6.83783 7.46045 6.84057 7.45428 6.84249C7.2972 6.8909 7.15328 6.89872 7.03134 6.996C7.19459 7.07312 7.56027 7.41361 7.73943 7.55411C8.49738 8.14871 9.59577 9.3139 10.1863 10.105C10.6162 10.6808 11.3901 11.8094 11.4567 12.551C11.4023 12.5292 10.7373 11.8848 10.6406 11.7888C8.98107 10.1406 8.43503 9.41159 6.22037 8.3006C5.87029 8.12496 5.5299 7.9742 5.17344 7.77478C4.90322 7.62366 4.91105 7.64537 4.58325 7.76706L4.32614 7.89268C4.23747 7.93373 4.15564 7.98395 4.0821 8.01442C4.83481 8.33885 5.55581 8.72257 6.27162 9.0981C7.56275 9.7753 8.96256 10.8723 10.0288 11.8596C10.3369 12.145 11.32 13.139 11.4137 13.7205L10.898 13.2829C10.3989 12.8433 9.82535 12.4788 9.27248 12.1008C8.52059 11.5867 7.68397 11.1678 6.86021 10.7768C5.43661 10.1011 3.7869 9.64734 2.20399 9.32307C2.00726 9.2828 2.01441 9.24746 1.87977 9.38645C1.7358 9.53504 1.55234 9.70114 1.42194 9.85195C3.41215 10.2832 5.22941 10.9036 6.92633 11.6639C8.42275 12.3344 10.4024 13.6415 10.9358 14.9451C10.7911 14.8824 10.5665 14.6772 10.4135 14.5665C10.2341 14.4368 10.067 14.3133 9.89646 14.182C8.1872 12.867 5.76327 12.0333 3.67081 11.4719C3.24066 11.3565 1.05766 10.7937 0.751009 10.8329Z" fill="#FF5001"/>
<path fill-rule="evenodd" clip-rule="evenodd" d="M8.35811 28.4649C8.40226 28.2788 8.26565 28.1974 8.18491 28.0724L7.86188 27.5753C7.83721 27.5282 7.81606 27.4944 7.78269 27.4492L7.25376 26.536L6.68456 25.2492C6.52659 24.8297 6.41226 24.4099 6.28529 23.994C6.27866 23.9722 6.27265 23.9551 6.2657 23.9357C6.2629 23.9279 6.25378 23.9074 6.25109 23.8995L6.12857 23.3531C6.11458 23.25 6.11722 23.2695 6.09307 23.184L5.98538 22.6752C5.96594 22.601 5.97874 22.5528 5.97506 22.4766C5.97102 22.3942 5.94635 22.3669 5.93386 22.3165C5.91287 22.232 5.93013 22.1982 5.92407 22.1169C5.91282 21.966 5.90484 22.0762 5.88126 21.9583C5.85737 21.839 5.88644 21.6721 5.86929 21.5523C5.84669 21.3946 5.82218 21.4555 5.82363 21.1896C5.82435 21.054 5.82664 20.9104 5.82342 20.7755C5.81938 20.6078 5.77248 20.6153 5.77346 20.4176L5.77284 19.7972C5.78595 19.6177 5.79025 19.7626 5.8171 19.6377C5.86079 19.4346 5.79005 19.0369 5.82814 18.8221C5.86519 18.6132 5.89266 18.2953 5.86748 18.0537L2.5636 18.0508C2.52882 18.3446 2.55178 18.7503 2.55183 19.0512C2.55188 19.2591 2.51835 19.5934 2.55976 19.7923C2.60962 20.0319 2.5992 19.9688 2.60428 20.2381C2.60749 20.4096 2.62729 20.3438 2.64962 20.4479C2.66735 20.5304 2.64931 20.6152 2.65937 20.6997C2.67315 20.8163 2.69456 20.7652 2.70321 20.9059L2.74068 21.1263C2.81889 21.4376 2.85926 21.7812 2.96985 22.1656C2.98665 22.2239 3.00012 22.3062 3.02158 22.3725C3.0322 22.4052 3.07734 22.5311 3.08589 22.5643L3.27107 23.1513C3.29066 23.2096 3.30729 23.2776 3.33833 23.3397C3.53102 23.7252 3.70282 24.1443 3.93785 24.5199C3.98014 24.5874 3.99134 24.6348 4.0271 24.6881C4.0286 24.6904 4.0655 24.7375 4.0711 24.7456L4.12033 24.8259C4.32763 25.1447 4.32556 25.1352 4.55976 25.4158L4.89715 25.8519C5.04459 25.9982 5.02163 26.0193 5.11673 26.1225C5.19923 26.212 5.29102 26.2947 5.37554 26.3779C5.50319 26.5034 5.773 26.804 5.90375 26.8796C6.06586 26.9734 6.15904 27.1362 6.31074 27.2225C6.44927 27.3012 6.53991 27.4107 6.67248 27.5025L6.70513 27.5216C6.71005 27.5246 6.717 27.5279 6.72192 27.5309C6.72684 27.5339 6.73369 27.5374 6.73851 27.5406L8.15314 28.4415C8.24072 28.4804 8.25461 28.4757 8.35811 28.4649Z" fill="#FF5001"/>
<path d="M37.8072 29.1673C31.6892 29.1673 27.6396 25.2052 27.6396 19.1163C27.6396 13.0274 31.6892 9.06528 37.8072 9.06528C43.9835 9.06528 48.0039 13.0274 48.0039 19.1163C48.0039 25.2052 43.9835 29.1673 37.8072 29.1673ZM37.8072 26.1374C42.4394 26.1374 44.6827 23.9816 44.6827 19.1163C44.6827 14.251 42.4394 12.066 37.8072 12.066C33.175 12.066 30.9608 14.251 30.9608 19.1163C30.9608 23.9816 33.175 26.1374 37.8072 26.1374ZM54.5819 29.1673C51.5811 29.1673 49.6874 27.7689 49.6874 25.38C49.6874 23.1367 51.4937 21.9714 54.3488 21.6509L60.9329 20.9517V20.1068C60.9329 17.7179 59.8841 16.873 57.1165 16.873C54.4362 16.873 53.1252 17.747 53.1252 19.8738V19.9903H50.0079V19.8738C50.0079 16.5817 52.7465 14.1054 57.3495 14.1054C61.9526 14.1054 64.0211 16.6108 64.0211 20.0777V28.876H61.1369V25.2634H60.9329C60.1755 27.7106 57.8739 29.1673 54.5819 29.1673ZM52.8339 25.176C52.8339 26.3414 53.6205 26.8949 55.4267 26.8949C58.7188 26.8949 60.9329 25.6713 60.9329 22.8162L55.2519 23.4572C53.6205 23.6611 52.8339 24.0398 52.8339 25.176ZM69.9761 28.876H66.8297V9.35661H69.9761V20.136H74.1131L78.4539 14.3967H82.1247L76.6768 21.3596L82.0956 28.876H78.3957L74.1131 22.9619H69.9761V28.876Z" fill="white"/>
</svg>
