<svg width="22" height="23" viewBox="0 0 22 23" fill="none" xmlns="http://www.w3.org/2000/svg">
<path d="M8.77778 7.66667C8.77778 7.22716 8.90811 6.79751 9.15233 6.43207C9.39644 6.06662 9.74356 5.7818 10.1496 5.6136C10.5557 5.44541 11.0024 5.4014 11.4336 5.48714C11.8646 5.57289 12.2606 5.78453 12.5713 6.09532C12.8821 6.4061 13.0938 6.80207 13.1796 7.23313C13.2652 7.6642 13.2212 8.11102 13.0531 8.51708C12.8849 8.92311 12.6 9.27022 12.2346 9.51433C11.8691 9.75856 11.4396 9.88889 11 9.88889V11M13.5 18.7778L11.8889 20.9259C11.4444 21.5186 10.5556 21.5186 10.1111 20.9259L8.5 18.7778H5.44444C2.98984 18.7778 1 16.7879 1 14.3333V5.44444C1 2.98984 2.98984 1 5.44444 1H16.5556C19.0101 1 21 2.98984 21 5.44444V14.3333C21 16.7879 19.0101 18.7778 16.5556 18.7778H13.5Z" stroke="white" stroke-width="1.5" stroke-linecap="round" stroke-linejoin="round"/>
<path d="M11 15.4444C11.6137 15.4444 12.1111 14.9469 12.1111 14.3333C12.1111 13.7196 11.6137 13.2222 11 13.2222C10.3864 13.2222 9.88892 13.7196 9.88892 14.3333C9.88892 14.9469 10.3864 15.4444 11 15.4444Z" fill="white"/>
</svg>
