<svg width="27" height="27" viewBox="0 0 27 27" fill="none" xmlns="http://www.w3.org/2000/svg">
<path d="M21.0346 13.5007C21.0346 17.6621 17.6611 21.0356 13.4997 21.0356C9.33832 21.0356 5.96484 17.6621 5.96484 13.5007C5.96484 9.3393 9.33832 5.96582 13.4997 5.96582C17.6611 5.96582 21.0346 9.3393 21.0346 13.5007Z" fill="white"/>
<path fill-rule="evenodd" clip-rule="evenodd" d="M13.5 0C14.0202 0 14.4419 0.42169 14.4419 0.94186V2.19767C14.4419 2.71785 14.0202 3.13953 13.5 3.13953C12.9798 3.13953 12.5581 2.71785 12.5581 2.19767V0.94186C12.5581 0.42169 12.9798 0 13.5 0ZM3.95407 3.95407C4.32188 3.58625 4.91824 3.58625 5.28606 3.95407L5.77939 4.4474C6.14721 4.81522 6.14721 5.41157 5.77939 5.77939C5.41157 6.14721 4.81522 6.14721 4.4474 5.77939L3.95407 5.28606C3.58625 4.91824 3.58625 4.32188 3.95407 3.95407ZM23.0456 3.95439C23.4134 4.32221 23.4134 4.91857 23.0456 5.28639L22.5523 5.77972C22.1845 6.14754 21.5881 6.14754 21.2202 5.77972C20.8524 5.41189 20.8524 4.81554 21.2202 4.44773L21.7137 3.95439C22.0815 3.58658 22.6777 3.58658 23.0456 3.95439ZM0 13.5C0 12.9798 0.42169 12.5581 0.94186 12.5581H2.19767C2.71785 12.5581 3.13953 12.9798 3.13953 13.5C3.13953 14.0202 2.71785 14.4419 2.19767 14.4419H0.94186C0.42169 14.4419 0 14.0202 0 13.5ZM23.8605 13.5C23.8605 12.9798 24.2822 12.5581 24.8023 12.5581H26.0581C26.5783 12.5581 27 12.9798 27 13.5C27 14.0202 26.5783 14.4419 26.0581 14.4419H24.8023C24.2822 14.4419 23.8605 14.0202 23.8605 13.5ZM21.2202 21.2202C21.5881 20.8524 22.1845 20.8524 22.5523 21.2202L23.0456 21.7137C23.4134 22.0815 23.4134 22.6777 23.0456 23.0456C22.6777 23.4134 22.0815 23.4134 21.7137 23.0456L21.2202 22.5523C20.8524 22.1845 20.8524 21.5881 21.2202 21.2202ZM5.77939 21.2206C6.14721 21.5884 6.14721 22.1848 5.77939 22.5527L5.28606 23.0459C4.91824 23.4138 4.32188 23.4138 3.95407 23.0459C3.58625 22.6781 3.58625 22.0817 3.95407 21.7139L4.4474 21.2206C4.81522 20.8528 5.41157 20.8528 5.77939 21.2206ZM13.5 23.8605C14.0202 23.8605 14.4419 24.2822 14.4419 24.8023V26.0581C14.4419 26.5783 14.0202 27 13.5 27C12.9798 27 12.5581 26.5783 12.5581 26.0581V24.8023C12.5581 24.2822 12.9798 23.8605 13.5 23.8605Z" fill="white"/>
</svg>
