<svg width="54" height="74" viewBox="0 0 54 74" fill="none" xmlns="http://www.w3.org/2000/svg">
<path fill-rule="evenodd" clip-rule="evenodd" d="M19.3506 64.2415C19.1164 64.266 19.085 64.2765 18.8868 64.1887L15.686 62.1501C15.6751 62.143 15.6596 62.1351 15.6485 62.1282C15.6374 62.1214 15.6217 62.114 15.6105 62.1072L15.5366 62.0639C15.2367 61.8562 15.0316 61.6085 14.7182 61.4303C14.3749 61.2351 14.1641 60.8668 13.7973 60.6547C13.5014 60.4836 12.891 59.8035 12.6022 59.5193C12.4109 59.3312 12.2032 59.1441 12.0165 58.9415C11.8014 58.7081 11.8533 58.6603 11.5197 58.3294L10.7563 57.3425C10.2264 56.7076 10.2311 56.7291 9.76206 56.0078L9.65067 55.8261C9.638 55.8077 9.55451 55.7013 9.55111 55.6961C9.4702 55.5753 9.44487 55.4682 9.34918 55.3154C8.8174 54.4656 8.42867 53.5173 7.99269 52.6452C7.92245 52.5047 7.88481 52.3507 7.84049 52.2188L7.42151 50.8906C7.40216 50.8154 7.30002 50.5307 7.27598 50.4567C7.22744 50.3067 7.19695 50.1205 7.15896 49.9886C6.90872 49.1188 6.81738 48.3413 6.64043 47.6369L6.55565 47.1383C6.53606 46.8201 6.48763 46.9357 6.45644 46.6717C6.43369 46.4806 6.4745 46.2887 6.43439 46.1019C6.38385 45.8664 6.33906 46.0154 6.33179 45.6273C6.3203 45.018 6.34387 45.1608 6.23106 44.6187C6.13737 44.1685 6.21324 43.4123 6.21312 42.9417C6.21301 42.2609 6.16106 41.3431 6.23974 40.6782L13.7152 40.6849C13.7722 41.2316 13.71 41.9507 13.6262 42.4233C13.54 42.9095 13.7001 43.8094 13.6012 44.2689C13.5405 44.5514 13.5308 44.2236 13.5011 44.6297L13.5025 46.0335C13.5003 46.4807 13.6064 46.4637 13.6155 46.8432C13.6228 47.1484 13.6176 47.4734 13.616 47.7802C13.6127 48.3818 13.6682 48.244 13.7193 48.6008C13.7581 48.8719 13.6923 49.2496 13.7464 49.5196C13.7998 49.7863 13.8178 49.537 13.8433 49.8784C13.857 50.0622 13.8179 50.1387 13.8654 50.33C13.8937 50.4439 13.9495 50.5057 13.9586 50.6922C13.967 50.8647 13.938 50.9736 13.982 51.1415L14.2256 52.2928C14.2803 52.4862 14.2743 52.4422 14.306 52.6754L14.5832 53.9116C14.5893 53.9296 14.6099 53.976 14.6163 53.9936C14.632 54.0374 14.6456 54.0763 14.6606 54.1255C14.9479 55.0665 15.2065 56.0163 15.564 56.9656L16.8519 59.8772L18.0486 61.9434C18.1241 62.0456 18.172 62.1221 18.2278 62.2288L18.9587 63.3536C19.1414 63.6363 19.4505 63.8205 19.3506 64.2415ZM25.6366 72.3152L25.6826 72.3899C25.7776 72.525 25.8737 72.5909 25.9956 72.7107C26.1348 72.8476 26.1961 72.9278 26.3397 73.0617C26.3655 73.0857 26.4173 73.1315 26.4352 73.1447C26.6938 73.3367 27.0958 73.3692 27.3703 73.2484L27.7615 72.9424C27.8815 72.8199 27.9875 72.7349 28.096 72.5768L29.3644 71.152L30.7222 70.136C30.822 70.0651 30.7366 70.1224 30.8302 70.0652C30.8455 70.0559 30.8915 70.0309 30.9068 70.022C31.3613 69.7537 31.79 69.5285 32.2826 69.355C32.2963 69.3502 32.3114 69.344 32.3251 69.3391L34.1042 68.676C34.6649 68.4148 35.2316 68.2461 35.7893 67.9704L36.1615 67.8109C36.2729 67.7695 36.1904 67.8041 36.2869 67.7619L38.2923 66.7257C38.3038 66.7197 38.3192 66.7125 38.3303 66.7063L39.047 66.2742C39.0689 66.259 39.1398 66.2049 39.1457 66.2009C39.156 66.1941 39.1706 66.185 39.1812 66.1783L39.9985 65.653C40.0096 65.6458 40.0244 65.637 40.0352 65.6297L40.5643 65.2702C40.6247 65.2333 40.6201 65.2422 40.6746 65.2067L42.4051 63.8626C42.5379 63.7295 42.6015 63.662 42.7596 63.5635C43.0896 63.358 44.8162 61.6682 45.0011 61.3848L47.1584 58.5883C47.1652 58.5777 47.1736 58.5626 47.1802 58.552L48.4085 56.563C48.4509 56.4874 48.4312 56.5155 48.4647 56.4451L48.8239 55.754C48.8499 55.7014 48.9049 55.5934 48.9383 55.5261L49.8609 53.481C49.8662 53.4688 49.8729 53.4535 49.8779 53.441L50.4213 51.8376C50.4261 51.824 50.4321 51.8089 50.4369 51.7954L50.6867 51.0236C50.7093 50.9436 50.7019 50.9495 50.7188 50.8783L51.0786 49.5524C51.1281 49.3601 51.14 49.2493 51.1858 49.0215L51.2694 48.7574C51.3928 48.2433 51.44 47.5891 51.5791 47.1502C51.5958 47.0974 51.5988 47.1327 51.6175 47.015C51.6345 46.9087 51.6207 46.8333 51.6297 46.7328C51.6582 46.4145 51.7376 46.4447 51.7428 46.1506C51.7518 45.6418 51.8526 45.4136 51.8524 44.9228L51.9251 44.354C51.9701 44.2029 52.0677 40.1522 51.9393 39.6454C51.8824 39.4206 51.9035 39.7211 51.8614 39.3833C51.8524 39.3104 51.8574 39.1741 51.8581 39.0958C51.8612 38.7273 51.7803 38.4788 51.7323 38.1697C51.7151 38.0582 51.7343 38.1348 51.6993 38.0297C51.6108 37.7655 51.3941 37.6167 51.2653 37.4139L51.0137 37.1872C50.2584 36.7105 49.8932 36.6562 48.8831 36.6564H5.57311C4.54507 36.6564 4.1975 36.5394 3.36952 36.9429L2.78824 37.3048C2.72774 37.3769 2.75917 37.3438 2.71625 37.4098L2.52722 37.6877C2.42438 37.8386 2.37959 37.9927 2.31814 38.1785C2.08631 38.8801 2.1936 39.5348 2.07447 39.9101C2.0638 39.944 2.05981 39.8995 2.03331 40.039C1.96448 40.4019 2.02581 40.8259 2.02252 41.193C2.01936 41.5552 1.97362 43.6924 2.02428 43.8744C2.08197 44.0813 2.07822 43.769 2.12654 44.1094C2.13744 44.1862 2.13252 44.37 2.13216 44.4559C2.13052 45.0196 2.24028 45.1784 2.24063 45.7417L2.40386 46.925C2.44689 47.0569 2.4517 46.8826 2.47293 47.198L3.14308 50.2906C3.17674 50.4493 3.16114 50.4165 3.20711 50.5666C3.21144 50.5809 3.21813 50.5951 3.22247 50.6096L3.24897 50.7027C3.25319 50.7197 3.25518 50.7352 3.25917 50.7524L4.67136 54.5619C4.67722 54.5744 4.68461 54.5892 4.69035 54.6021C4.6961 54.6151 4.70302 54.6301 4.70853 54.6434L7.50934 59.5899C7.51896 59.6043 7.57501 59.6769 7.58826 59.6925L8.33181 60.6428C8.39772 60.731 8.59753 60.9192 8.67645 60.9989L8.95964 61.3506C9.00713 61.4232 8.975 61.3852 9.03281 61.456L9.6149 62.0326C9.85857 62.2702 10.0612 62.4814 10.2953 62.7114C10.4117 62.8258 10.5336 62.9408 10.646 63.0523C10.7458 63.1514 10.904 63.3189 11.0001 63.3907C11.0102 63.3981 11.0246 63.4075 11.0349 63.4147C11.0454 63.4218 11.0604 63.4304 11.0711 63.4372C11.5767 63.7639 11.9607 64.2526 12.4979 64.5811L14.0771 65.7485C14.1233 65.7798 14.2468 65.8391 14.306 65.869C14.3101 65.8711 14.4185 65.9282 14.419 65.9285L14.7266 66.1407C14.795 66.1798 14.755 66.1498 14.8386 66.2026C14.853 66.2118 14.8922 66.2407 14.906 66.2503L16.6873 67.2171C16.6993 67.2232 16.7148 67.2303 16.7266 67.2365C16.7382 67.2427 16.7537 67.2498 16.7652 67.2562L19.8825 68.6791C20.289 68.8657 20.7287 68.9547 21.1218 69.1314L22.5618 69.7218C22.713 69.8052 22.6276 69.7641 22.7777 69.8634L23.8162 70.513C24.1823 70.7336 25.383 71.9124 25.6366 72.3152Z" fill="#00002E"/>
<path fill-rule="evenodd" clip-rule="evenodd" d="M2.1348 24.3474C1.99256 24.6443 1.83954 24.8396 1.72614 25.1683L1.39382 25.998C1.25616 26.3054 1.1763 26.486 1.07768 26.8377C0.978711 27.1906 0.9304 27.4739 0.837762 27.7846C0.74876 28.0826 0.688022 28.5084 0.650498 28.8305C0.620362 29.0898 0.569234 28.9946 0.546485 29.2988C0.532296 29.4877 0.562551 29.6706 0.518108 29.8545C0.440246 30.1767 0.434497 30.5519 0.43567 30.9341C0.438719 31.8952 0.406243 32.0992 0.895695 32.8613C1.23951 33.3967 1.84728 33.5156 2.43218 33.6778C2.79382 33.778 3.10597 33.748 3.53292 33.7489L45.8519 33.7492C47.3897 33.7492 49.718 33.8141 51.1604 33.75C51.4679 33.7364 51.4309 33.6938 51.642 33.6494L52.1075 33.5303C52.5864 33.4147 52.875 33.2546 53.1797 32.8367C53.617 32.2371 53.5714 31.5496 53.554 30.8176L53.5096 29.7425C53.4197 29.4206 53.4279 29.0444 53.3467 28.6918C53.2672 28.3466 53.2485 28.0306 53.1582 27.7164L52.981 27.0233C52.8399 26.3381 52.5221 25.7413 52.2782 25.0793L52.0866 24.707C51.9968 24.5484 52.0011 24.3974 51.8645 24.3291C51.4378 24.1715 46.059 25.5753 45.2562 25.7894C39.8658 27.2267 35.6539 28.9179 31.0982 31.9181C30.4252 32.3613 29.2068 33.5383 28.8266 33.6664C28.976 32.8946 30.0454 31.5754 30.4372 31.1407C32.404 28.9587 35.04 27.4837 37.86 26.2082C41.1314 24.7286 46.6629 22.9169 50.3557 22.1977C50.205 21.8403 49.6738 21.4531 49.3769 21.1702C49.2688 21.0672 49.1748 20.9566 49.058 20.8596C48.0207 20.7621 43.8098 22.0674 42.744 22.4063C37.6042 24.0401 34.1175 26.0488 29.8779 29.1256C29.4887 29.4079 29.1519 29.6903 28.7645 29.9926C28.4112 30.2682 28.0862 30.6515 27.7295 30.8903C27.843 30.1672 28.7392 29.0149 29.1181 28.5397C29.6933 27.8181 30.285 27.2733 30.9026 26.6516C31.2511 26.3007 31.5031 26.0779 31.8778 25.7619L33.8887 24.1003C34.2515 23.7992 34.5488 23.6012 34.9137 23.3179C36.201 22.3183 37.8254 21.2559 39.3695 20.4315C40.5291 19.8124 43.0484 18.4246 44.2862 17.9946C44.1191 17.8649 44.0687 17.8437 43.8381 17.7368C43.6467 17.6482 43.5036 17.5828 43.3365 17.5263C41.9731 17.066 42.8688 16.9156 41.2697 17.7816C40.8941 17.9851 40.5627 18.1396 40.1763 18.3222C39.4351 18.6726 38.728 18.99 38.0149 19.3665C35.0331 20.9414 31.4689 23.9773 29.213 26.5949C28.6773 27.2165 28.1969 27.6811 27.6677 28.2366C27.6981 26.325 30.619 22.4653 31.8295 21.1094C32.0518 20.8603 32.2552 20.6069 32.5048 20.3281C33.491 19.2261 36.4177 16.4385 37.6809 15.6419C37.327 15.4426 36.1263 15.1388 35.6452 15.0283C35.1409 14.9126 35.0428 14.7302 34.6834 15.0432C33.9555 15.6771 33.2609 16.3793 32.6514 17.0335C31.4983 18.2713 30.2549 20.1931 29.3707 21.6813C28.972 22.3524 27.842 24.6424 27.4481 25.0445C27.4224 22.4793 30.2654 16.8982 31.6245 14.7826C32.3325 13.6806 32.2283 13.9809 31.6544 13.5405L31.0646 12.9651C30.834 12.6862 30.6553 12.3009 30.4462 12.0032C30.1894 11.6379 29.9944 11.1503 29.9262 10.7151C29.882 10.4327 29.8832 10.6375 29.8403 10.4011C29.7388 9.84052 30.3576 8.18829 30.4954 7.48694C30.5521 7.19801 30.607 6.9588 30.6271 6.68475C30.6522 6.33989 30.7411 6.34422 30.7393 5.93017C30.7366 5.34667 30.7434 4.76235 30.7442 4.17862C30.7453 3.45523 30.8903 2.26748 30.5483 1.64283C30.4344 1.4348 30.3243 1.33009 30.1511 1.16487L29.6218 0.764185C29.2454 0.510547 28.8016 0.351771 28.3746 0.212229C27.822 0.0317621 27.3959 -0.00318299 26.7901 0.000217612C25.8371 0.00561167 24.7045 0.422009 23.9792 1.01946C23.3106 1.57024 23.2395 1.74895 23.2345 2.66313C23.2306 3.34255 23.1696 5.766 23.2568 6.26531C23.2992 6.50874 23.3153 6.28946 23.3487 6.62765C23.3689 6.83156 23.3412 6.84974 23.3983 7.04827C23.46 7.2625 23.4359 7.19695 23.4724 7.43875L23.7495 8.50102C23.8147 8.72054 23.8834 8.97863 23.9262 9.19264C24.0472 9.79724 24.1985 10.0342 24.0619 10.663L23.8499 11.3834C23.7557 11.6432 23.7284 11.7445 23.5681 11.9735C23.2185 12.4729 22.9675 13.0114 22.4859 13.3919L21.8813 13.855C21.9012 14.0999 23.1053 15.9888 23.3283 16.3854C24.3566 18.2123 26.6807 23.1322 26.5446 25.0451C26.3436 24.8514 25.6969 23.7451 25.5052 23.4183C25.1798 22.8639 24.8185 22.3306 24.4795 21.7621C23.0746 19.4059 21.999 17.4743 19.942 15.6322C19.6885 15.4052 19.2393 14.7726 18.8417 14.8753L17.3442 15.3034C17.3303 15.308 17.3158 15.3142 17.3018 15.3185C16.9464 15.4281 16.6208 15.4458 16.3449 15.6659C16.7143 15.8404 17.5417 16.6108 17.947 16.9287C19.662 18.274 22.1472 20.9104 23.4834 22.7003C24.4561 24.0032 26.2071 26.5567 26.3579 28.2348C26.2346 28.1854 24.7301 26.7274 24.5113 26.5102C20.7564 22.7809 19.5209 21.1315 14.51 18.6177C13.7178 18.2203 12.9477 17.8792 12.1411 17.428C11.5297 17.086 11.5474 17.1352 10.8058 17.4105L10.224 17.6947C10.0234 17.7876 9.83823 17.9012 9.67183 17.9702C11.3749 18.7042 13.0063 19.5725 14.6259 20.4221C17.5473 21.9544 20.7145 24.4366 23.127 26.6705C23.8242 27.3161 26.0486 29.5653 26.2606 30.8809L25.0937 29.8907C23.9645 28.8961 22.6667 28.0714 21.4158 27.2161C19.7145 26.0528 17.8216 25.1051 15.9577 24.2205C12.7366 22.6915 9.00391 21.6649 5.42237 20.9312C4.97724 20.8401 4.99342 20.7601 4.68877 21.0746C4.36302 21.4108 3.94791 21.7866 3.65288 22.1278C8.15598 23.1037 12.2678 24.5073 16.1073 26.2277C19.4931 27.7448 23.9723 30.7022 25.1793 33.6517C24.8518 33.5099 24.3437 33.0455 23.9974 32.7952C23.5916 32.5017 23.2135 32.2221 22.8276 31.9252C18.9602 28.9498 13.4757 27.0635 8.74124 25.7932C7.76796 25.5321 2.82864 24.2587 2.1348 24.3474Z" fill="#FF5001"/>
<path fill-rule="evenodd" clip-rule="evenodd" d="M19.3504 64.2415C19.4503 63.8205 19.1412 63.6363 18.9586 63.3536L18.2277 62.2288C18.1718 62.1221 18.124 62.0456 18.0485 61.9434L16.8517 59.8772L15.5638 56.9656C15.2064 56.0164 14.9477 55.0665 14.6604 54.1255C14.6454 54.0763 14.6318 54.0374 14.6161 53.9936C14.6098 53.976 14.5891 53.9296 14.583 53.9116L14.3058 52.6754C14.2742 52.4422 14.2801 52.4862 14.2255 52.2928L13.9818 51.1415C13.9379 50.9736 13.9668 50.8647 13.9585 50.6922C13.9493 50.5057 13.8935 50.4439 13.8653 50.33C13.8178 50.1387 13.8568 50.0622 13.8431 49.8784C13.8177 49.537 13.7996 49.7863 13.7462 49.5196C13.6922 49.2496 13.758 48.8719 13.7192 48.6008C13.668 48.244 13.6126 48.3818 13.6158 47.7802C13.6175 47.4735 13.6227 47.1484 13.6154 46.8432C13.6062 46.4637 13.5001 46.4807 13.5023 46.0335L13.5009 44.6297C13.5306 44.2237 13.5403 44.5514 13.6011 44.2689C13.6999 43.8094 13.5399 42.9095 13.6261 42.4233C13.7099 41.9508 13.772 41.2316 13.7151 40.6849L6.23959 40.6782C6.16091 41.3431 6.21286 42.2609 6.21297 42.9417C6.21309 43.4123 6.13722 44.1685 6.23091 44.6187C6.34372 45.1608 6.32015 45.018 6.33164 45.6273C6.33891 46.0154 6.3837 45.8664 6.43424 46.102C6.47435 46.2888 6.43354 46.4806 6.45629 46.6717C6.48748 46.9357 6.53591 46.8201 6.5555 47.1383L6.64028 47.6369C6.81722 48.3413 6.90857 49.1188 7.15881 49.9886C7.1968 50.1205 7.22729 50.3067 7.27583 50.4567C7.29987 50.5307 7.40201 50.8154 7.42136 50.8906L7.84034 52.2188C7.88466 52.3507 7.9223 52.5047 7.99254 52.6452C8.42852 53.5173 8.81725 54.4656 9.34903 55.3154C9.44472 55.4682 9.47004 55.5753 9.55095 55.6961C9.55436 55.7013 9.63785 55.8077 9.65051 55.8262L9.76191 56.0078C10.231 56.7291 10.2263 56.7076 10.7562 57.3425L11.5196 58.3294C11.8532 58.6603 11.8012 58.7081 12.0164 58.9415C12.2031 59.1441 12.4107 59.3312 12.602 59.5193C12.8908 59.8035 13.5013 60.4836 13.7971 60.6547C14.1639 60.8668 14.3748 61.2351 14.718 61.4303C15.0314 61.6085 15.2365 61.8562 15.5365 62.0639L15.6104 62.1072C15.6215 62.114 15.6372 62.1214 15.6484 62.1282C15.6595 62.1351 15.675 62.143 15.6859 62.1501L18.8867 64.1887C19.0848 64.2765 19.1163 64.266 19.3504 64.2415Z" fill="#FF5001"/>
</svg>
