<svg width="60" height="83" viewBox="0 0 60 83" fill="none" xmlns="http://www.w3.org/2000/svg">
<path fill-rule="evenodd" clip-rule="evenodd" d="M6.53167 45.9615L14.9876 45.9614C14.9877 46.1725 14.9991 47.6539 14.9819 47.7329H14.8594L14.8596 50.1345L14.7329 50.1389L14.7328 52.542L14.8593 52.548L14.8594 54.696H14.9829L14.9929 56.0865L15.1164 56.0878L15.1196 56.9721L15.2451 56.9736V57.8582L15.3734 57.8592L15.3777 58.4915L15.5022 58.4939V59.1262L15.6275 59.1286L15.6357 59.7575L15.7569 59.7593L15.7623 60.264L15.8858 60.2654V60.8944L16.0138 60.898L16.0144 61.2745L16.1418 61.2776L16.143 61.7819L16.2678 61.7847L16.2768 62.1622L16.3978 62.1694L16.4012 62.5414L16.5267 62.55V62.9224H16.6522L16.6603 63.3007L16.7834 63.3021L16.7878 63.6797L16.9103 63.6817V64.0622L17.0389 64.0632V64.4425L17.166 64.4438L17.1716 64.6949L17.296 64.701V65.0755L17.4106 65.0869C17.4133 65.0826 17.4201 65.0898 17.4242 65.0919L17.4276 65.3262L17.551 65.3284L17.5532 65.7061L17.6798 65.7081L17.6797 65.9585L17.8067 65.9612L17.8114 66.2137L17.937 66.2142V66.4671L18.0648 66.4684L18.0655 66.8463L18.1905 66.8499L18.1922 67.0983L18.3207 67.1081V67.353L18.4387 67.3527C18.4609 67.4051 18.4492 67.54 18.4492 67.603L18.5778 67.606L18.5777 67.8558L18.6978 67.8589C18.7161 67.9118 18.7063 68.0483 18.7063 68.111L18.8338 68.1122L18.8433 68.364L18.9614 68.3712V68.4929L19.0884 68.4978L19.093 68.7468H19.2179L19.2236 68.9985L19.347 68.9998L19.3481 69.2503L19.4747 69.2529L19.4807 69.3779L19.6022 69.3794V69.632L19.7292 69.6345L19.738 69.8843L19.8594 69.8916V70.0113L19.9864 70.0161L19.991 70.2633L20.1166 70.2743V70.5181L20.2389 70.5178L20.2429 70.6421L20.3703 70.6447L20.3767 70.8973L20.5001 70.8977V71.0242L20.6269 71.0253L20.6308 71.2763L20.7558 71.2825L20.7654 71.4039H20.8839L20.8836 71.6525L21.0106 71.657L21.0134 71.7811L21.1401 71.7836L21.1461 71.9086L21.2697 71.9101V72.162L21.3986 72.1632L21.3902 72.545C20.8419 72.545 20.8839 72.5963 20.8837 72.4164L20.6324 72.4165L20.6288 72.2907L20.3731 72.2878L20.3696 72.1644L20.2446 72.1581L20.2349 72.0375L19.9897 72.0297L19.988 71.9102L19.7344 71.9104L19.7308 71.7849L19.4773 71.7798L19.4726 71.6573H19.3475L19.3453 71.5332L19.0919 71.5237L19.09 71.4042L18.9656 71.4043L18.9614 71.2795L18.7077 71.2755L18.7043 71.1521L18.5793 71.1459L18.5695 71.0246C18.5063 71.0247 18.3727 71.038 18.3206 71.0133V70.8993L18.193 70.892L18.1921 70.7716L17.9386 70.7715L17.9351 70.6454L17.8099 70.6428L17.8013 70.5185L17.5513 70.5184C17.5513 70.3754 17.5679 70.3918 17.4249 70.3918L17.425 70.2689L17.2983 70.2653L17.2941 70.1401L17.0403 70.1388L17.033 70.0128L16.9105 70.0092V69.8865L16.7858 69.8817L16.7838 69.7592H16.5287L16.5259 69.6352L16.3992 69.6326L16.3932 69.5076L16.2697 69.5061V69.3826L16.0171 69.3766L16.0146 69.254L15.8871 69.2479L15.883 69.1265L15.7582 69.1264L15.7546 69.0033L15.6308 68.9929L15.6289 68.8734L15.5061 68.8736L15.5025 68.748L15.3754 68.7468L15.3718 68.6207L15.2466 68.6183L15.2382 68.4939L14.9888 68.4937L14.9852 68.3677C14.9254 68.3664 14.8983 68.373 14.8595 68.3529V68.2386H14.7358L14.7332 68.1141L14.6051 68.1121L14.6014 67.986L14.4775 67.9854L14.4677 67.8596L14.3473 67.8559V67.733L14.2202 67.7295L14.2186 67.6076L14.0931 67.5978L14.0859 67.4794H13.9645L13.9585 67.3543L13.835 67.3529L13.8351 67.229L13.7085 67.2264L13.7064 67.1009L13.5787 67.0998L13.5738 66.9743L13.4514 66.9682V66.8474L13.3251 66.8438L13.3227 66.7215L13.1952 66.7141L13.1942 66.5937H13.0661L13.0637 66.4692L12.9371 66.4673V66.2169L12.8126 66.2143L12.8106 66.0881L12.6828 66.0856L12.678 65.9621L12.5535 65.956V65.8353L12.4272 65.8316L12.4248 65.7093L12.2972 65.702L12.2963 65.5816H12.1684L12.1626 65.33L12.0412 65.3286V65.2031L11.9147 65.2021L11.9126 65.0759L11.7845 65.0735L11.7797 64.8257L11.6555 64.8164V64.6968L11.5279 64.6919L11.5268 64.5694H11.4007L11.3984 64.4449L11.2718 64.443L11.2719 64.1925L11.1453 64.1899L11.1433 64.0644L11.0158 64.0633L11.0065 63.8108L10.8861 63.8072V63.6824L10.7611 63.6776L10.7564 63.4285H10.6315L10.628 63.3043L10.5023 63.302L10.5025 63.0526L10.3759 63.049L10.3718 62.9245L10.2453 62.9225V62.6713L10.1204 62.6685L10.1166 62.4174L9.99015 62.4113V62.2903L9.86325 62.2879L9.86152 62.0369H9.73609L9.73003 61.7861L9.60434 61.7838L9.60451 61.5343L9.47917 61.5307L9.47276 61.2782L9.34932 61.2777V61.025L9.22233 61.0226L9.21368 60.7727L9.09231 60.7655V60.5196L8.96403 60.5135L8.96368 60.2662L8.83626 60.2626L8.8321 59.8861H8.70866L8.70875 59.6362L8.58245 59.6331L8.57804 59.381L8.45148 59.38V58.9986L8.32389 58.9974L8.31861 58.622L8.19439 58.6127L8.18911 58.2412L8.06775 58.2291V57.8597H7.9392L7.93928 57.3566L7.81065 57.3536L7.81074 56.9766L7.6828 56.974L7.6821 56.469L7.55416 56.4679L7.55347 55.9623L7.42743 55.9587L7.42691 55.4565L7.29863 55.4515L7.29828 54.9507L7.17008 54.9434L7.16973 54.3152H7.04162L7.04023 53.6847L6.91264 53.6822L6.91281 52.9261L6.78669 52.923L6.78617 51.9109L6.65814 51.9098L6.65044 50.5201L6.52899 50.5128L6.53202 45.9618L6.53167 45.9615ZM3.9777 41.4839C3.9777 41.5705 3.77903 41.5329 3.58582 41.5329V41.6472L3.32492 41.6669L3.32457 41.7778H3.06332V41.9085C2.95477 41.9085 2.92196 41.9248 2.81843 41.9248V42.0391H2.68781V42.1697H2.55719C2.55719 42.2782 2.54083 42.3111 2.54083 42.4146H2.42656V42.5452H2.29594V42.7901C2.10835 42.7901 2.16531 42.7895 2.16531 43.1819H2.05105C2.05105 43.2854 2.03469 43.3182 2.03469 43.4269V43.8024H1.92042L1.90406 45.0758H1.7898V46.4472C1.7898 46.7855 1.77344 47.089 1.77344 47.4105C1.77344 47.7391 1.7898 48.0457 1.7898 48.3901V49.631H1.90406L1.92042 51.035H2.03469V51.6554C2.03469 51.8457 2.05105 51.9731 2.05105 52.1615H2.16531V52.7983C2.16531 52.9069 2.18167 52.9396 2.18167 53.0431H2.29594V53.8105H2.42656V54.4472H2.54083C2.54083 54.5507 2.55719 54.5835 2.55719 54.6921V55.0677H2.67145C2.67145 55.1923 2.68781 55.2497 2.68781 55.3779V55.7044H2.80207L2.81843 56.2104H2.9327C2.9327 56.6028 2.87565 56.6023 3.06332 56.6023V57.0594C3.06332 57.1283 3.14461 57.1084 3.19395 57.1084V57.5982H3.32457V57.99H3.4552V58.3655H3.56946L3.58582 58.7574H3.70009L3.71645 59.1329H3.83071L3.84707 59.5084H3.96134L3.9777 59.8839H4.09196V60.1452H4.20622L4.22258 60.5207H4.33685C4.33685 60.6259 4.35321 60.6678 4.35321 60.7819H4.46747L4.48383 61.1412H4.5981C4.5981 61.2554 4.61446 61.2973 4.61446 61.4023H4.72872V61.6636H4.85935L4.87571 62.0227H4.98997V62.284C5.17695 62.284 5.1206 62.3072 5.1206 62.5452H5.25122V62.7901H5.36549L5.38522 63.051L5.49611 63.0514C5.49611 63.1599 5.51247 63.1927 5.51247 63.2963H5.62673C5.62673 63.5343 5.57038 63.5574 5.75736 63.5574V63.8023H5.88798V63.9492H6.00225C6.00225 64.0527 6.01861 64.0856 6.01861 64.1942H6.13287C6.13287 64.3027 6.14923 64.3356 6.14923 64.4391H6.2635L6.28323 64.7L6.39412 64.7003C6.39412 64.9384 6.33777 64.9615 6.52475 64.9615V65.2064H6.65537V65.4513H6.786V65.5819H6.90026C6.90026 65.6905 6.91662 65.7233 6.91662 65.8268C7.06568 65.8268 7.04725 65.8276 7.04725 65.9738H7.16151C7.16151 66.0773 7.17787 66.11 7.17787 66.2186H7.29213V66.3492H7.42276V66.5941H7.55338V66.7247H7.66765C7.66765 66.8282 7.68401 66.861 7.68401 66.9696H7.81463V67.1002H7.9289C7.9289 67.2088 7.94526 67.2415 7.94526 67.3451C8.07709 67.3451 8.07588 67.3438 8.07588 67.4757H8.19015V67.6064H8.32077V67.8513H8.4514V67.9819H8.58202V68.1125H8.69629C8.69629 68.2443 8.69507 68.2431 8.82691 68.2431C8.82691 68.3517 8.84327 68.3845 8.84327 68.488C8.97511 68.488 8.97389 68.4867 8.97389 68.6186H9.08816C9.08816 68.7505 9.08686 68.7493 9.21878 68.7493C9.21878 68.8811 9.21757 68.8799 9.34941 68.8799V69.0105H9.48003V69.1411H9.5943L9.61386 69.3694C9.74405 69.3699 9.7412 69.3708 9.7412 69.5003C9.87303 69.5003 9.87182 69.499 9.87182 69.6309H9.98608C9.98608 69.7628 9.98487 69.7615 10.1167 69.7615V69.8758C10.2485 69.8758 10.2473 69.8746 10.2473 70.0064C10.3792 70.0064 10.378 70.0052 10.378 70.1371H10.5086V70.2677H10.6392V70.3983H10.7535V70.5126H10.8841V70.6432H11.0147V70.7738H11.1453V70.9044H11.276V71.0187C11.4078 71.0187 11.4066 71.0174 11.4066 71.1493C11.5385 71.1493 11.5372 71.1481 11.5372 71.28H11.6515V71.3942H11.7821V71.5248H11.9127V71.6555C12.0214 71.6555 12.0541 71.6718 12.1576 71.6718V71.7861H12.2882C12.2882 71.918 12.2869 71.9167 12.4189 71.9167V72.031H12.5495V72.1616H12.6801V72.2922H12.8107V72.4065C12.9143 72.4065 12.947 72.4229 13.0556 72.4229C13.0556 72.5547 13.0543 72.5535 13.1863 72.5535V72.6677H13.3169C13.3169 72.8168 13.3177 72.7984 13.4638 72.7984V72.9126C13.5673 72.9126 13.6001 72.9289 13.7087 72.9289V73.0432C13.8405 73.0432 13.8393 73.0419 13.8393 73.1738C13.9711 73.1738 13.9699 73.1725 13.9699 73.3044H14.2148V73.435H14.3454V73.5493H14.4761V73.6799C14.5846 73.6799 14.6174 73.6963 14.7209 73.6963V73.8106H14.8678V73.9412H15.1127V74.0718H15.2434V74.1861H15.374V74.3167H15.6352V74.4473H15.8801V74.5779H16.0107V74.6922L16.2717 74.7119L16.272 74.8228H16.4026V74.9371C16.5062 74.9371 16.539 74.9535 16.6475 74.9535V75.0677L16.9084 75.0875L16.9088 75.1983H17.0394V75.329H17.3006V75.4596H17.5455V75.5739L17.8064 75.5936L17.8067 75.7045L18.0677 75.7242L18.068 75.8351H18.3129V75.9657H18.5741V76.0964H18.7047V76.2106C18.9427 76.2106 18.9659 76.1543 18.9659 76.3413H19.2272V76.4719H19.4721V76.5861L19.733 76.6058L19.7333 76.7168C19.9714 76.7168 19.9946 76.6604 19.9946 76.8474H20.3701V76.978H20.6313V77.0923L20.8922 77.112L20.8926 77.2229L21.2681 77.2393V77.3535H21.5294V77.4841H21.9049V77.5984L22.1658 77.6182L22.1661 77.729L22.5416 77.7454V77.8597L22.9335 77.876V77.9903H23.309C23.309 78.1772 23.3288 78.1209 23.5865 78.1209V78.2352L23.9621 78.2515V78.3658C24.2001 78.3658 24.2233 78.3094 24.2233 78.4964H24.5988V78.6271H24.8601V78.7413C24.9686 78.7413 25.0014 78.7577 25.105 78.7577V78.8719H25.2519V78.9862C25.3555 78.9862 25.3882 79.0026 25.4968 79.0026V79.1168L25.7577 79.1366L25.758 79.2475C25.8899 79.2475 25.8886 79.2462 25.8886 79.3781H26.1335V79.5087H26.2641V79.623L26.525 79.6427L26.5253 79.77H26.6559V79.8842H26.7865V80.0148H26.9172V80.1291C27.049 80.1291 27.0478 80.1278 27.0478 80.2597C27.1796 80.2597 27.1784 80.2584 27.1784 80.3904C27.2976 80.3904 27.309 80.3814 27.309 80.5046H27.4233V80.6352H27.5539V80.7659C27.6858 80.7659 27.6846 80.7647 27.6846 80.8965H27.8152V81.0271H27.9294C27.9294 81.159 27.9281 81.1577 28.0601 81.1577V81.272H28.1907V81.4026H28.3213V81.5333H28.4356C28.4356 81.6368 28.4519 81.6696 28.4519 81.7781H28.5826V81.9088H28.7132V82.0394H28.8438V82.1537H28.9581V82.2843H29.0887V82.4149H29.2193V82.5455H29.35V82.6762H29.5948V82.7904L30.101 82.8068C30.2192 82.8068 30.2645 82.7904 30.3785 82.7904V82.6762H30.6234V82.5455H30.754V82.4149H30.8846V82.2843H31.0153V82.1537H31.1295C31.1295 82.0217 31.1282 82.023 31.2602 82.023L31.2798 81.7948L31.3908 81.7944V81.6638H31.5214V81.5332H31.652V81.4025H31.7827V81.2719H31.9133V81.1413H32.0275V81.027H32.1582V80.8964H32.2888V80.7658H32.4194C32.4194 80.6571 32.4358 80.6244 32.4358 80.5209H32.55V80.4066H32.6807V80.276C32.7892 80.276 32.8219 80.2596 32.9256 80.2596C32.9256 80.1278 32.9243 80.129 33.0562 80.129V80.0148H33.1868V79.8841H33.3174C33.3174 79.7523 33.3161 79.7535 33.4481 79.7535V79.6392C33.5566 79.6392 33.5893 79.6229 33.6929 79.6229V79.5086H33.8399V79.378H34.0848C34.0848 79.2462 34.0835 79.2474 34.2154 79.2474V79.1331C34.3241 79.1331 34.3568 79.1167 34.4603 79.1167V79.0025H34.6073V78.8882C34.7124 78.8882 34.7543 78.8719 34.8686 78.8719V78.7577C34.9721 78.7577 35.0048 78.7413 35.1135 78.7413V78.6271H35.3747V78.4964H35.636V78.3822L36.0115 78.3658V78.2515L36.387 78.2352V78.1209L36.7788 78.1045V77.9903H37.04V77.876L37.4155 77.8597V77.7454L37.8073 77.729V77.6148L38.0682 77.595L38.0686 77.4841L38.4441 77.4678V77.3535H38.7053V77.2393L38.9662 77.2196L38.9666 77.1086L39.3421 77.0924V76.9781H39.6033V76.8475H39.8646V76.7332C39.9697 76.7332 40.0116 76.7169 40.1258 76.7169V76.6027L40.485 76.5864V76.4721C40.5992 76.4721 40.6411 76.4558 40.7462 76.4558V76.3415H41.0075C41.0075 76.1545 41.0307 76.2109 41.2687 76.2109V76.0966C41.3773 76.0966 41.4101 76.0803 41.5136 76.0803V75.966C41.6278 75.966 41.6697 75.9496 41.7749 75.9496V75.8354H41.9055V75.7211L42.1664 75.7014L42.1668 75.5905L42.4277 75.5707L42.428 75.4598H42.6729V75.3292H42.9341V75.1985H43.0648V75.0843C43.1733 75.0843 43.2061 75.068 43.3097 75.068V74.9537C43.4238 74.9537 43.4657 74.9374 43.5709 74.9374V74.8231H43.7015V74.7088C43.8101 74.7088 43.8429 74.6926 43.9464 74.6926V74.5783C44.0926 74.5783 44.0934 74.5967 44.0934 74.4477H44.3383V74.317H44.4689V74.2028L44.7298 74.183L44.7302 74.0722C44.862 74.0722 44.8608 74.0734 44.8608 73.9415C44.9694 73.9415 45.0021 73.9252 45.1057 73.9252V73.8109H45.2363V73.6966L45.4972 73.6769L45.4976 73.5497H45.6282V73.4354H45.7588V73.3048H46.0037V73.1741H46.1343C46.1343 73.0423 46.1331 73.0435 46.2649 73.0435V72.9293C46.3735 72.9293 46.4063 72.913 46.5098 72.913V72.7987H46.6405C46.6405 72.6497 46.6412 72.6681 46.7874 72.6681V72.5538C46.9193 72.5538 46.9181 72.5551 46.9181 72.4232C47.0216 72.4232 47.0544 72.4068 47.163 72.4068V72.2926H47.2936V72.1619H47.4242V72.0313H47.5548V71.9171C47.6867 71.9171 47.6855 71.9183 47.6855 71.7864C47.794 71.7864 47.8268 71.7702 47.9303 71.7702V71.6559H48.061V71.5253H48.1916V71.3947H48.3059V71.2804H48.4365V71.1498H48.5671C48.5671 71.0178 48.5658 71.0191 48.6977 71.0191V70.9049H48.8284V70.7743H48.959V70.6436H49.0896V70.513H49.2202V70.3987H49.3345V70.2681H49.4651V70.1375H49.5957C49.5957 70.0057 49.5945 70.0069 49.7264 70.0069V69.8762H49.857V69.762C49.9888 69.762 49.9876 69.7633 49.9876 69.6313H50.1019C50.1019 69.4995 50.1007 69.5007 50.2325 69.5007C50.2325 69.3689 50.2312 69.3701 50.3631 69.3701C50.3631 69.2666 50.3795 69.2338 50.3795 69.1252H50.4938V69.0109H50.6244V68.8803C50.7562 68.8803 50.755 68.8816 50.755 68.7497H50.8856V68.6191H50.9999C50.9999 68.5155 51.0163 68.4827 51.0163 68.3742C51.1481 68.3742 51.1469 68.3754 51.1469 68.2436H51.2611V68.1129H51.3918V67.9823H51.5224V67.7374H51.653V67.6068H51.7836V67.4762H51.8979C51.8979 67.3726 51.9143 67.3399 51.9143 67.2313C52.0461 67.2313 52.0449 67.2326 52.0449 67.1007H52.1591V66.97H52.2898V66.7251H52.4204V66.5945H52.551V66.3496C52.6829 66.3496 52.6817 66.3508 52.6817 66.219H52.7959C52.7959 66.1105 52.8123 66.0777 52.8123 65.9742H52.9265C52.9265 65.828 52.9081 65.8272 53.0572 65.8272V65.5823H53.1878V65.4517H53.3184V65.2068H53.449V64.9619C53.5981 64.9619 53.5797 64.9612 53.5797 64.815H53.6939C53.6939 64.7115 53.7103 64.6787 53.7103 64.5701H53.8246C53.8246 64.4616 53.8409 64.4288 53.8409 64.3253H53.9552L53.9749 64.0643L54.0858 64.0639V63.9333H54.2164V63.6721H54.3307C54.3307 63.5686 54.347 63.5358 54.347 63.4272H54.4613C54.4613 63.3237 54.4777 63.2909 54.4777 63.1824H54.5919L54.6117 62.9214L54.7226 62.9211C54.7226 62.8126 54.7389 62.7797 54.7389 62.6762H54.8532V62.415H54.9838V62.1537H55.0981L55.1144 61.7946C55.3014 61.7946 55.2451 61.7714 55.2451 61.5334H55.3593L55.3791 61.2725L55.49 61.2721C55.49 61.1686 55.5063 61.1358 55.5063 61.0273H55.6206L55.6369 60.6517H55.7512V60.3905H55.8818V60.0149H56.0124V59.6394C56.1997 59.6394 56.1431 59.6377 56.1431 59.2639H56.2573L56.2737 58.8721H56.388L56.4043 58.4965H56.5186L56.5349 58.121H56.6492V57.7292H56.7798V57.2394C56.9674 57.2394 56.9105 57.2399 56.9105 56.8475H57.0247L57.0411 56.3414H57.1553C57.1553 56.153 57.1717 56.0255 57.1717 55.8353H57.286L57.3023 55.2149H57.4166L57.433 54.6924H57.5472V53.9414H57.6778V53.2884H57.7921C57.7921 53.1848 57.8085 53.152 57.8085 53.0435V52.5374H57.9227C57.9227 52.349 57.9391 52.2215 57.9391 52.0313V51.5252H58.0534L58.0697 50.1375H58.184C58.184 49.6136 58.2003 49.1434 58.2003 48.619V45.9742C58.2003 45.5257 58.184 45.1323 58.184 44.6844H58.0697V44.0803C58.0697 43.8795 58.0534 43.7407 58.0534 43.5416H57.9391V43.1988C57.9391 43.0805 57.9227 43.0352 57.9227 42.9212H57.8085C57.8085 42.6831 57.8648 42.66 57.6778 42.66V42.5457H57.5472V42.4151H57.4166V42.1702H57.286V42.0396C57.1774 42.0396 57.1446 42.0232 57.0411 42.0232V41.909H56.9105C56.9105 41.722 56.8873 41.7783 56.6492 41.7783V41.6641L56.3883 41.6443L56.388 41.5335C56.0106 41.5335 55.9961 41.587 55.9961 41.4192C55.8926 41.4192 55.8598 41.4028 55.7512 41.4028H3.97986V41.4845L3.9777 41.4839Z" fill="#FF4E00"/>
<path fill-rule="evenodd" clip-rule="evenodd" d="M29.0945 0.0152353V0.1295L28.5721 0.14586V0.260124H28.1966V0.390749H27.8211V0.505013L27.5602 0.524663L27.5598 0.635637L27.2989 0.655374L27.2986 0.766263C27.19 0.766263 27.1572 0.782537 27.0537 0.782537V0.896801H26.9068V1.01106C26.8032 1.01106 26.7704 1.02734 26.6619 1.02734C26.6619 1.15926 26.6632 1.15796 26.5313 1.15796V1.27223H26.4006V1.40285H26.27V1.53348H26.1557C26.1557 1.66531 26.157 1.6641 26.0251 1.6641C26.0251 1.79594 26.0263 1.79473 25.8945 1.79473C25.8945 2.01373 25.9506 2.03961 25.7639 2.03961C25.7639 2.40076 25.7475 2.70624 25.7475 3.06816L25.7639 7.23145H25.8781C25.8781 7.50594 25.8945 7.72313 25.8945 7.99875H26.0088V8.34163C26.0088 8.45979 26.0251 8.50515 26.0251 8.61915H26.1394V8.8804C26.1394 8.98895 26.1557 9.02176 26.1557 9.12538H26.27V9.38663C26.27 9.49518 26.2864 9.52798 26.2864 9.63151H26.4006V9.89268C26.4006 10.0013 26.417 10.034 26.417 10.1376H26.5313V10.6436H26.6455C26.6455 10.7577 26.6619 10.803 26.6619 10.9212V11.2804H26.7761V11.9008H26.6619V12.3742C26.6619 12.4432 26.5806 12.4232 26.5313 12.4232V12.7988H26.4006V13.1743H26.27V13.4192C26.121 13.4192 26.1394 13.42 26.1394 13.5661H26.0251C26.0251 13.6697 26.0088 13.7023 26.0088 13.811H25.8945C25.8945 13.9196 25.8781 13.9523 25.8781 14.0559H25.7639V14.1865H25.6332V14.4314C25.4842 14.4314 25.5026 14.4322 25.5026 14.5783H25.3884V14.6925H25.2577V14.8232H25.1271C25.1271 14.9318 25.1108 14.9645 25.1108 15.0681C25.0022 15.0681 24.9694 15.0844 24.8659 15.0844V15.1987C24.734 15.1987 24.7352 15.1975 24.7352 15.3293H24.6046V15.4599H24.474V15.5742H24.2291V15.7048H23.9679V15.8354H23.7066V15.9497L23.3311 15.9661V16.0803H23.0698V16.211H22.6781V16.3252L22.2863 16.3415V16.4558L21.7967 16.4758L21.7965 16.5863H21.4047V16.7169H20.8823V16.8476H20.3925V16.9618L19.9844 16.9782V17.0924L19.4782 17.1088V17.2231C19.0858 17.2231 19.0863 17.166 19.0863 17.3537H18.5802V17.468L18.1884 17.4843V17.5986L17.6823 17.6149V17.7291C17.2899 17.7291 17.2905 17.6721 17.2905 17.8597H16.8007V17.974L16.4088 17.9903V18.1045L16.0171 18.1209V18.2352C15.6247 18.2352 15.6252 18.1782 15.6252 18.3658H15.2497V18.4801L14.8578 18.4964V18.6107L14.4823 18.627V18.7413C14.0899 18.7413 14.0905 18.6843 14.0905 18.8719H13.715V18.9862L13.3395 19.0026V19.1168C13.2212 19.1168 13.176 19.1332 13.0619 19.1332V19.2474H12.6864V19.3781H12.4252V19.4923L12.0497 19.5087V19.623L11.6742 19.6393V19.7536H11.4129V19.8842H11.1517V19.9985L10.8908 20.0182L10.8904 20.1291C10.6524 20.1291 10.6292 20.0727 10.6292 20.2597H10.2536V20.3903H9.9924V20.5046C9.88887 20.5046 9.85615 20.521 9.74751 20.521V20.6352C9.63333 20.6352 9.59143 20.6516 9.48626 20.6516V20.7659C9.24821 20.7659 9.22501 20.7096 9.22501 20.8965H8.98012C8.98012 21.0834 8.95692 21.0271 8.71887 21.0271V21.1414H8.58825V21.272H8.327V21.4026H8.08211C8.08211 21.5895 8.05891 21.5332 7.82086 21.5332C7.82086 21.6652 7.82207 21.6639 7.69023 21.6639V21.7781L7.42933 21.7979L7.42899 21.9088H7.29836V22.023C7.19483 22.023 7.16202 22.0393 7.05347 22.0393C7.05347 22.1884 7.05269 22.1699 6.90649 22.1699V22.2842C6.80296 22.2842 6.77024 22.3005 6.6616 22.3005V22.4148H6.53097V22.5454H6.28608C6.28608 22.6773 6.28738 22.6761 6.15546 22.6761V22.7903H6.02484V22.9209C5.78679 22.9209 5.76359 22.8646 5.76359 23.0516H5.63296V23.1822H5.50234V23.2965C5.3705 23.2965 5.37171 23.2952 5.37171 23.4271H5.12682V23.5577H4.9962V23.6883H4.86557V23.8026C4.73374 23.8026 4.73495 23.8013 4.73495 23.9332H4.62068C4.62068 24.0651 4.6219 24.0639 4.49006 24.0639C4.49006 24.1958 4.49136 24.1945 4.35944 24.1945V24.3087H4.22881V24.4394H4.09819V24.57H3.96756V24.7006H3.83694V24.8149H3.72267V24.9455H3.59205V25.0761H3.46142V25.2068H3.3308V25.4516H3.20017V25.5823H3.06955V25.7129H2.95529C2.95529 25.8164 2.93893 25.8492 2.93893 25.9578H2.8083V26.219H2.69404C2.69404 26.3226 2.67768 26.3554 2.67768 26.464H2.56341V26.5946H2.43279V26.8395H2.30216V26.9701C2.11527 26.9701 2.17154 26.9933 2.17154 27.2314H2.04091V27.4763C1.90908 27.4763 1.91029 27.475 1.91029 27.6069H1.79602C1.79602 27.845 1.85238 27.8681 1.6654 27.8681V28.113H1.53477V28.3742H1.42051L1.40415 28.7334C1.21717 28.7334 1.27353 28.7566 1.27353 28.9947H1.15926L1.1429 29.3702H1.02864L1.0089 29.6311L0.898012 29.6315L0.881651 30.007H0.767388V30.3988H0.653123C0.653123 30.5024 0.636763 30.5351 0.636763 30.6437V30.9049H0.522499C0.522499 31.0085 0.506138 31.0411 0.506138 31.1498V31.411H0.391874C0.391874 31.5146 0.375513 31.5473 0.375513 31.6559V32.0314H0.261249C0.261249 32.1455 0.244889 32.1908 0.244889 32.309V32.7988H0.130625L0.114264 33.8111H0V36.0968H0.114264L0.13426 36.5864L0.244889 36.5866L0.264539 36.8475L0.375427 36.8478V36.9785H0.506051V37.2234H0.636676V37.354H0.767301V37.4846H1.01219C1.01219 37.6165 1.01098 37.6152 1.14281 37.6152V37.7295C1.25699 37.7295 1.29889 37.7458 1.40406 37.7458V37.8601H1.77958C1.77958 38.0476 1.75361 37.9907 2.30199 37.9907V38.105C2.50109 38.105 2.63993 38.1214 2.84076 38.1214H57.1428C57.3436 38.1214 57.4825 38.105 57.6816 38.105V37.9907H58.155C58.224 37.9907 58.204 37.9095 58.204 37.8601H58.7101V37.7458C58.8136 37.7458 58.8464 37.7295 58.955 37.7295V37.6152C59.1012 37.6152 59.102 37.6337 59.102 37.4846C59.2055 37.4846 59.2383 37.4683 59.3469 37.4683V37.3541H59.4611C59.4611 37.2505 59.4775 37.2178 59.4775 37.1092H59.6081V36.9785H59.7224L59.7421 36.7176L59.853 36.7174L59.8694 36.3419H59.9836C59.9836 35.9198 60 35.5533 60 35.1337C60 34.9163 59.9836 34.7602 59.9836 34.5459V33.55H59.8694L59.8492 32.5378H59.7388L59.7224 31.9011H59.6081V31.2807H59.4775V30.8072C59.4775 30.7383 59.3962 30.7583 59.3469 30.7583V30.2685H59.2163V29.8766H59.102L59.0856 29.5011H58.9714L58.955 29.1256H58.8407L58.821 28.8647L58.7101 28.8643V28.6194H58.5795V28.2439H58.4489V27.9827H58.3182V27.7378C58.1315 27.7378 58.1876 27.7119 58.1876 27.4929C58.0386 27.4929 58.057 27.4921 58.057 27.346H57.9427C57.9427 27.2374 57.9264 27.2046 57.9264 27.1011H57.8121C57.8121 26.9925 57.7957 26.9598 57.7957 26.8562H57.6815V26.7093H57.5508V26.4644H57.4202V26.3338H57.306C57.306 26.2303 57.2896 26.1976 57.2896 26.089H57.159V25.9584H57.0447C57.0447 25.8498 57.0284 25.817 57.0284 25.7135H56.9141V25.5829H56.7835V25.4522H56.6528V25.3216H56.5386C56.5386 25.2181 56.5222 25.1853 56.5222 25.0767H56.3916V24.9461H56.261V24.8318C56.1291 24.8318 56.1303 24.8331 56.1303 24.7012H56.0161V24.5706H55.8855V24.44H55.7548V24.3093H55.6242V24.1951C55.4924 24.1951 55.4936 24.1964 55.4936 24.0645C55.3617 24.0645 55.363 24.0658 55.363 23.9338H55.2323V23.8196H55.1181V23.6889H54.9874V23.5583C54.8789 23.5583 54.8462 23.542 54.7426 23.542V23.4277H54.6119C54.6119 23.2786 54.6111 23.2971 54.465 23.2971V23.1828C54.3332 23.1828 54.3344 23.184 54.3344 23.0522C54.2152 23.0522 54.2038 23.0611 54.2038 22.9379C54.1002 22.9379 54.0674 22.9216 53.9589 22.9216V22.7909H53.8283V22.6767C53.6964 22.6767 53.6976 22.6779 53.6976 22.546H53.4528V22.4154H53.3221V22.3012L53.0612 22.2815L53.0609 22.1706C52.929 22.1706 52.9303 22.1719 52.9303 22.04H52.6854V21.9094H52.5384V21.7951C52.4348 21.7951 52.4021 21.7788 52.2935 21.7788V21.6646C52.1849 21.6646 52.1521 21.6483 52.0486 21.6483V21.534C51.9024 21.534 51.9017 21.5525 51.9017 21.4034H51.6568V21.2728H51.3956V21.1585C51.292 21.1585 51.2592 21.1422 51.1507 21.1422V21.0279C51.0045 21.0279 51.0037 21.0463 51.0037 20.8973H50.7588C50.7588 20.7103 50.7356 20.7666 50.4976 20.7666V20.6524L50.2367 20.6326L50.2363 20.5217H49.9914V20.3911H49.7302V20.2769L49.3547 20.2605C49.3547 20.0736 49.3315 20.1299 49.0934 20.1299V20.0156L48.8325 19.996L48.8322 19.8851H48.571V19.7708L48.1955 19.7545V19.6403L47.9346 19.6205L47.9342 19.5096L47.5587 19.4933V19.379H47.2975V19.2648L46.922 19.2484V19.1341L46.5302 19.1178V19.0035L46.2693 18.9838L46.2689 18.8729H45.8934C45.8934 18.6853 45.894 18.7423 45.5016 18.7423V18.628L45.1261 18.6116V18.4974L44.7343 18.481V18.3667H44.3588C44.3588 18.1792 44.3594 18.2361 43.9669 18.2361V18.1219L43.5751 18.1055V17.9912L43.1833 17.975V17.8607H42.6935C42.6935 17.6738 42.6992 17.7301 42.2853 17.7301V17.6158L41.7956 17.5995V17.4853L41.4038 17.4689V17.3546H40.8976V17.224H40.5059V17.1098L39.9997 17.0934V16.9791L39.4775 16.9591L39.4773 16.8486C39.0849 16.8486 39.0855 16.9056 39.0855 16.718H38.5794V16.5873H38.1875V16.4731C37.9991 16.4731 37.8716 16.4568 37.6814 16.4568V16.3425L37.3059 16.3263V16.212H36.914V16.0814H36.6528V15.9671L36.2773 15.9508V15.8365H36.016V15.7059H35.7548V15.5916C35.6513 15.5916 35.6185 15.5752 35.5099 15.5752V15.461H35.3793V15.3303C35.2537 15.3303 35.2323 15.3487 35.2323 15.2161L35.004 15.1964C35.0035 15.0662 35.0026 15.0691 34.8731 15.0691C34.8731 14.9373 34.8743 14.9385 34.7424 14.9385L34.7229 14.7103C34.5927 14.7098 34.5955 14.7089 34.5955 14.5793H34.4813C34.4813 14.4331 34.4997 14.4324 34.3507 14.4324C34.3507 14.3278 34.3343 14.2976 34.3343 14.2038C34.2016 14.2038 34.22 14.1825 34.22 14.0569H34.1058C34.1058 13.9534 34.0894 13.9207 34.0894 13.812H33.9751C33.9751 13.7034 33.9588 13.6707 33.9588 13.5671H33.8445C33.8445 13.4209 33.8629 13.4202 33.7139 13.4202L33.6975 13.0611H33.5833V12.7998H33.4526V12.5386H33.3384C33.3384 12.4351 33.322 12.4023 33.322 12.2937V11.9182H33.2077V11.2814H33.322V10.7753C33.322 10.6667 33.3384 10.6339 33.3384 10.5304H33.4526V10.0243C33.6402 10.0243 33.5833 10.0249 33.5833 9.63255H33.6975L33.7139 9.12641H33.8282L33.8445 8.62028H33.9588L33.9751 7.9836H34.0894C34.0894 7.70902 34.1058 7.49183 34.1058 7.21621H34.22L34.2364 3.21619C34.2364 2.84345 34.22 2.52688 34.22 2.155H34.1058C34.1058 2.05147 34.0894 2.01867 34.0894 1.91011H33.9751C33.9751 1.80148 33.9588 1.76876 33.9588 1.66523C33.8269 1.66523 33.8282 1.66644 33.8282 1.5346H33.7139V1.40398H33.5833V1.27335H33.4526V1.15909H33.322V1.02846C33.2135 1.02846 33.1807 1.01219 33.0771 1.01219V0.897926H32.9301V0.783661C32.8266 0.783661 32.7939 0.767388 32.6852 0.767388V0.653123L32.4243 0.633387L32.424 0.522499L32.1631 0.502762L32.1628 0.391875H31.7872V0.261249H31.4117V0.146986L30.8893 0.130625V0.0163607C30.5693 0.0163607 30.305 0 29.9913 0C29.6776 0 29.4134 0.0163607 29.0934 0.0163607L29.0945 0.0152353Z" fill="#FF4E00"/>
<path fill-rule="evenodd" clip-rule="evenodd" d="M6.54234 50.5129L6.66379 50.5201L6.67149 51.9098L6.79952 51.9109L6.80004 52.9231L6.92616 52.9262L6.92599 53.6822L7.05358 53.6847L7.05497 54.3153H7.18308L7.18343 54.9434L7.31163 54.9507L7.31198 55.4516L7.44026 55.4565L7.44078 55.9588L7.56682 55.9624L7.56751 56.4679L7.69545 56.469L7.69615 56.9741L7.82409 56.9767L7.824 57.3536L7.95263 57.3567L7.95255 57.8598H8.0811V58.2291L8.20246 58.2413L8.20774 58.6128L8.33196 58.6221L8.33724 58.9975L8.46483 58.9986V59.38L8.59139 59.3811L8.5958 59.6331L8.7221 59.6362L8.72201 59.8862H8.84545L8.84961 60.2627L8.97703 60.2662L8.97738 60.5136L9.10566 60.5196V60.7656L9.22703 60.7727L9.23568 61.0226L9.36267 61.0251V61.2777L9.48611 61.2783L9.49252 61.5308L9.61786 61.5344L9.61769 61.7839L9.74338 61.7861L9.74944 62.0369H9.87487L9.8766 62.2879L10.0035 62.2904V62.4114L10.13 62.4174L10.1338 62.6686L10.2586 62.6713V62.9225L10.3852 62.9245L10.3892 63.0491L10.5159 63.0527L10.5157 63.302L10.6413 63.3044L10.6449 63.4286H10.7698L10.7744 63.6776L10.8994 63.6825V63.8072L11.0198 63.8109L11.0291 64.0634L11.1566 64.0644L11.1587 64.1899L11.2853 64.1925L11.2852 64.443L11.4117 64.4449L11.4141 64.5695H11.5402L11.5412 64.692L11.6688 64.6968V64.8165L11.793 64.8257L11.7979 65.0736L11.926 65.076L11.9281 65.2021L12.0545 65.2032V65.3287L12.176 65.3301L12.1817 65.5817H12.3096L12.3106 65.7021L12.4381 65.7094L12.4405 65.8317L12.5668 65.8353V65.9561L12.6913 65.9621L12.6962 66.0857L12.8239 66.0882L12.826 66.2144L12.9505 66.217V66.4673L13.077 66.4692L13.0795 66.5938H13.2076L13.2085 66.7142L13.336 66.7216L13.3385 66.8439L13.4648 66.8474V66.9683L13.5872 66.9743L13.592 67.0999L13.7198 67.101L13.7218 67.2265L13.8484 67.2291L13.8483 67.353L13.9718 67.3543L13.9778 67.4794H14.0993L14.1065 67.5979L14.232 67.6076L14.2335 67.7295L14.3606 67.7331V67.856L14.481 67.8596L14.4909 67.9855L14.6148 67.9861L14.6185 68.1121L14.7465 68.1142L14.7491 68.2387H14.8729V68.3529C14.9117 68.373 14.9388 68.3665 14.9986 68.3678L15.0021 68.4938L15.2515 68.494L15.26 68.6184L15.3852 68.6208L15.3887 68.7469L15.5159 68.748L15.5194 68.8736L15.6423 68.8735L15.6442 68.993L15.768 69.0034L15.7715 69.1265L15.8963 69.1266L15.9005 69.2479L16.028 69.2541L16.0304 69.3766L16.2831 69.3826V69.5061L16.4065 69.5076L16.4126 69.6327L16.5392 69.6352L16.542 69.7593H16.7972L16.7992 69.8817L16.9238 69.8866V70.0093L17.0463 70.0129L17.0537 70.1388L17.3075 70.1401L17.3116 70.2654L17.4384 70.2689L17.4382 70.3919C17.5812 70.3919 17.5647 70.3754 17.5647 70.5184L17.8147 70.5185L17.8232 70.6429L17.9484 70.6454L17.952 70.7715L18.2054 70.7716L18.2064 70.892L18.334 70.8993V71.0134C18.3861 71.0381 18.5196 71.0247 18.5828 71.0246L18.5926 71.1459L18.7176 71.1522L18.7211 71.2756L18.9748 71.2796L18.9789 71.4044L19.1033 71.4042L19.1052 71.5238L19.3586 71.5332L19.3609 71.6573H19.486L19.4906 71.7798L19.7442 71.7849L19.7477 71.9105L20.0014 71.9103L20.0031 72.0297L20.2482 72.0375L20.2579 72.1582L20.3829 72.1644L20.3865 72.2879L20.6422 72.2907L20.6457 72.4165L20.897 72.4164C20.8972 72.5964 20.8552 72.5451 21.4035 72.5451L21.412 72.1632L21.283 72.1621V71.9101L21.1595 71.9086L21.1534 71.7836L21.0268 71.7811L21.0239 71.6571L20.8969 71.6526L20.8972 71.404H20.7788L20.7692 71.2826L20.6442 71.2764L20.6403 71.0253L20.5135 71.0242V70.8977L20.39 70.8973L20.3836 70.6447L20.2563 70.6421L20.2522 70.5179L20.1299 70.5182V70.2743L20.0044 70.2633L19.9997 70.0162L19.8727 70.0113V69.8917L19.7514 69.8843L19.7425 69.6345L19.6155 69.6321V69.3794L19.4941 69.378L19.488 69.253L19.3615 69.2504L19.3603 68.9998L19.237 68.9985L19.2313 68.7468H19.1064L19.1018 68.4979L18.9748 68.493V68.3713L18.8566 68.364L18.8472 68.1122L18.7197 68.1111C18.7197 68.0482 18.7295 67.9118 18.7111 67.8589L18.5911 67.8559L18.5911 67.6061L18.4625 67.6031C18.4625 67.54 18.4743 67.4051 18.452 67.3528L18.334 67.3531V67.1082L18.2055 67.0984L18.2039 66.8499L18.0789 66.8463L18.0782 66.4685L17.9503 66.4672V66.2143L17.8247 66.2138L17.82 65.9613L17.693 65.9586L17.6931 65.7082L17.5666 65.7062L17.5643 65.3285L17.441 65.3262L17.4375 65.0919L17.4239 65.087L17.3094 65.0756V64.7011L17.1849 64.6949L17.1794 64.4438L17.0522 64.4426V64.0633L16.9237 64.0622V63.6817L16.8012 63.6798L16.7968 63.3021L16.6737 63.3007L16.6655 62.9225H16.54V62.5501L16.4146 62.5415L16.4111 62.1694L16.2901 62.1623L16.2812 61.7848L16.1564 61.782L16.1552 61.2777L16.0277 61.2745L16.0271 60.8981L15.8992 60.8944V60.2655L15.7757 60.2641L15.7702 59.7593L15.649 59.7575L15.6409 59.1286L15.5155 59.1262V58.4939L15.3911 58.4915L15.3867 57.8593L15.2584 57.8583V56.9736L15.1329 56.9722L15.1297 56.0879L15.0063 56.0865L14.9962 54.696H14.8728L14.8726 52.5481L14.7462 52.5421L14.7462 50.139L14.873 50.1346L14.8728 47.733H14.9952C15.0124 47.6539 15.0011 46.1726 15.001 45.9614L6.54502 45.9615L6.54234 50.5129Z" fill="white"/>
</svg>
