<svg width="140" height="140" viewBox="0 0 140 140" fill="none" xmlns="http://www.w3.org/2000/svg">
<g filter="url(#filter0_d_2848_9656)">
<circle cx="70" cy="55" r="50" fill="#FF4E00"/>
</g>
<path fill-rule="evenodd" clip-rule="evenodd" d="M70.6893 45.4604L67.5686 48.4854C66.9711 49.08 66.7375 49.5159 66.1267 50.1163C62.5606 53.6216 56.7484 61.9914 54.2746 66.1006C53.1361 67.9918 50 72.344 50 74.6375C52.8107 69.996 51.8469 73.7067 55.1192 69.5632C55.5284 69.1316 54.1993 70.6664 54.9601 69.8047C56.8182 66.9682 55.9213 68.8136 60.5672 66.9705C61.721 66.5127 67.642 64.2519 67.978 62.9937C66.9398 62.9073 65.9148 62.4617 65.0202 61.9747C64.9958 61.9614 64.9414 61.9344 64.9051 61.9091C66.3645 61.9091 69.1028 61.0465 70.2533 60.5693C73.2504 59.3264 75.2922 56.4765 76.8444 53.7845C78.0246 51.7377 78.2844 50.6165 79.004 49.2563C77.698 49.2563 76.5142 49.6178 75.2082 49.6178C76.6245 48.3867 77.2153 48.3569 78.7812 46.6836C80.9784 44.3357 81.6758 39.2933 81.2518 36.344C80.5853 31.7075 80.8131 34.1101 80.0886 31C78.4915 32.0694 78.1932 34.8363 67.7712 39.108C67.0787 39.3918 66.7081 39.6012 66.015 39.8823C63.4058 40.9406 60.0903 43.002 59.0112 45.7122C58.5938 46.7604 58.0364 48.6428 58.0364 49.9793C57.306 49.4442 57.0123 47.9417 56.7712 46.9065C56.1166 47.386 54.6087 49.7028 54.0925 50.5543C52.0634 53.9011 50.2701 58.949 50.7721 63.0278C50.8976 64.0484 50.8977 65.0616 51.5292 65.5243C51.7129 64.8363 52.8746 63.0772 53.3014 62.4161L57.3367 56.6906C59.1665 54.3777 61.1536 52.494 63.3206 50.5638C64.7384 49.3009 69.2635 45.7926 70.6893 45.4604Z" fill="white"/>
<path d="M72.8906 68.7285L88.9993 68.7285" stroke="white" stroke-width="3" stroke-linecap="round"/>
<path d="M80.9453 76.7822V60.6735" stroke="white" stroke-width="3" stroke-linecap="round"/>
<defs>
<filter id="filter0_d_2848_9656" x="0" y="0" width="140" height="140" filterUnits="userSpaceOnUse" color-interpolation-filters="sRGB">
<feFlood flood-opacity="0" result="BackgroundImageFix"/>
<feColorMatrix in="SourceAlpha" type="matrix" values="0 0 0 0 0 0 0 0 0 0 0 0 0 0 0 0 0 0 127 0" result="hardAlpha"/>
<feOffset dy="15"/>
<feGaussianBlur stdDeviation="10"/>
<feComposite in2="hardAlpha" operator="out"/>
<feColorMatrix type="matrix" values="0 0 0 0 0 0 0 0 0 0 0 0 0 0 0 0 0 0 0.25 0"/>
<feBlend mode="normal" in2="BackgroundImageFix" result="effect1_dropShadow_2848_9656"/>
<feBlend mode="normal" in="SourceGraphic" in2="effect1_dropShadow_2848_9656" result="shape"/>
</filter>
</defs>
</svg>
