<svg width="41" height="31" viewBox="0 0 41 31" fill="none" xmlns="http://www.w3.org/2000/svg">
<path d="M16.9962 7.58545H32.2927" stroke="#00002F" stroke-width="2.52852" stroke-linecap="round"/>
<path d="M16.9962 22.7563H32.2927" stroke="#00002F" stroke-width="2.52852" stroke-linecap="round"/>
<path d="M16.9962 15.1709H32.2927" stroke="#00002F" stroke-width="2.52852" stroke-linecap="round"/>
<path d="M8.92573 7.17574L8.11672 7.59042L7.35529 6.71049L9.0617 5.90137H10.5574V9.48175H8.92573V7.17574Z" fill="#FF4E00"/>
<path d="M9.32015 14.9994C9.39719 14.9556 9.46066 14.9068 9.51051 14.8528C9.56036 14.7988 9.58529 14.7432 9.58529 14.6859C9.58529 14.6185 9.55584 14.5595 9.49691 14.5089C9.44252 14.4583 9.35414 14.433 9.23177 14.433C9.10034 14.433 8.99156 14.4718 8.90544 14.5493C8.81932 14.6268 8.77173 14.7314 8.76268 14.8629L7.21942 14.7314C7.25115 14.4988 7.33274 14.2981 7.46417 14.1296C7.5956 13.9611 7.75876 13.8211 7.95366 13.7099C8.15307 13.5986 8.3729 13.5177 8.61311 13.4671C8.85785 13.4132 9.1094 13.3862 9.36774 13.3862C9.60343 13.3862 9.83684 13.4081 10.068 13.452C10.3037 13.4958 10.5121 13.5649 10.6934 13.6593C10.8747 13.7503 11.022 13.8701 11.1353 14.0184C11.2487 14.1667 11.3053 14.3454 11.3053 14.5544C11.3053 14.7027 11.2781 14.8342 11.2237 14.9489C11.1739 15.0601 11.1036 15.1596 11.013 15.2472C10.9269 15.3348 10.8272 15.4141 10.7138 15.4849C10.6051 15.5557 10.4895 15.6231 10.3671 15.6872L9.66007 16.0614H11.3189V17.0677H7.41658V16.1322L9.32015 14.9994Z" fill="#FF4E00"/>
<path d="M10.5914 22.777C10.7138 22.8074 10.8248 22.8495 10.9246 22.9035C11.0288 22.9574 11.1172 23.0198 11.1897 23.0906C11.2622 23.1614 11.3166 23.2389 11.3529 23.3232C11.3937 23.4041 11.4141 23.4867 11.4141 23.571C11.4141 23.78 11.3551 23.9604 11.2373 24.1121C11.1195 24.2604 10.9654 24.3835 10.775 24.4813C10.5846 24.5757 10.3693 24.6447 10.1291 24.6886C9.88893 24.7325 9.64645 24.7543 9.4017 24.7543C9.15696 24.7543 8.91448 24.7325 8.67427 24.6886C8.43858 24.6481 8.22103 24.5824 8.02161 24.4914C7.82672 24.4003 7.6545 24.2857 7.50493 24.1475C7.3599 24.0093 7.25565 23.8441 7.1922 23.6519L8.70146 23.3889C8.72866 23.4766 8.79438 23.5575 8.89862 23.6317C9.00739 23.7059 9.14562 23.7429 9.31332 23.7429C9.35865 23.7429 9.40624 23.7395 9.45609 23.7328C9.50594 23.7227 9.55127 23.7092 9.59206 23.6924C9.63285 23.6721 9.66685 23.6469 9.69404 23.6165C9.72123 23.5862 9.73483 23.5474 9.73483 23.5002C9.73483 23.3924 9.67138 23.3216 9.54447 23.2878C9.41756 23.254 9.2476 23.2372 9.03459 23.2372H8.57229V22.4079H9.08897C9.2612 22.4079 9.39944 22.3911 9.50368 22.3573C9.60792 22.3203 9.66005 22.2511 9.66005 22.15C9.66005 22.0725 9.61926 22.0185 9.53767 21.9881C9.45609 21.9578 9.36997 21.9426 9.27933 21.9426C9.16602 21.9426 9.06178 21.9696 8.9666 22.0235C8.87142 22.0741 8.8125 22.15 8.78984 22.2511L7.28738 22.0134C7.36896 21.8178 7.48453 21.6544 7.6341 21.5229C7.78367 21.388 7.95363 21.2802 8.14399 21.1992C8.33888 21.1183 8.5451 21.0611 8.76265 21.0273C8.98474 20.9903 9.20229 20.9717 9.4153 20.9717C9.62831 20.9717 9.84814 20.9919 10.0748 21.0324C10.3014 21.0694 10.5076 21.1319 10.6934 21.2195C10.8792 21.3038 11.0311 21.4133 11.1489 21.5482C11.2667 21.6797 11.3257 21.8398 11.3257 22.0286C11.3257 22.2309 11.2532 22.3927 11.1081 22.5141C10.9676 22.632 10.7954 22.7129 10.5914 22.7568V22.777Z" fill="#FF4E00"/>
</svg>
