<svg width="209" height="42" viewBox="0 0 209 42" fill="none" xmlns="http://www.w3.org/2000/svg">
<path d="M12.7245 17.4853L20.8054 9.40471L28.8906 17.4896L33.5926 12.7875L20.8054 0L8.02246 12.7833L12.7245 17.4853Z" fill="#4D4D4D"/>
<path d="M9.4041 20.805L4.70215 16.103L-3.07179e-05 20.8052L4.70192 25.5072L9.4041 20.805Z" fill="#4D4D4D"/>
<path d="M12.7246 24.1255L20.8055 32.2061L28.8903 24.1216L33.595 28.821L33.5927 28.8236L20.8055 41.6108L8.0222 28.8279L8.01562 28.8213L12.7246 24.1255Z" fill="#4D4D4D"/>
<path d="M36.9091 25.5093L41.6113 20.8071L36.9094 16.1052L32.2072 20.8074L36.9091 25.5093Z" fill="#4D4D4D"/>
<path d="M25.5753 20.8031H25.5773L20.8059 16.0317L17.2798 19.5578H17.2795L16.8746 19.9631L16.0388 20.7988L16.0322 20.8054L16.0388 20.8123L20.8059 25.5794L25.5773 20.808L25.5796 20.8054L25.5753 20.8031Z" fill="#4D4D4D"/>
<path d="M48.9424 10.083H59.1691C61.7072 10.083 63.6266 10.7344 64.9274 12.0372C65.934 13.0461 66.4372 14.2967 66.4372 15.7884V15.8515C66.4372 16.4819 66.3593 17.0389 66.2025 17.5221C66.0461 18.0058 65.8371 18.4413 65.5758 18.8301C65.3152 19.2192 65.0122 19.5607 64.6677 19.8545C64.323 20.149 63.9526 20.4014 63.5559 20.6111C64.8317 21.0948 65.8361 21.7511 66.5683 22.5813C67.3002 23.4118 67.6667 24.5624 67.6667 26.0332V26.0959C67.6667 27.1049 67.4728 27.9873 67.0847 28.7442C66.6965 29.5004 66.1404 30.1311 65.4164 30.6356C64.6924 31.1401 63.8218 31.518 62.8043 31.7704C61.7868 32.0225 60.6592 32.1484 59.4218 32.1484H48.9424V10.083ZM58.1466 19.0036C59.2187 19.0036 60.0699 18.8202 60.6999 18.4521C61.3303 18.0844 61.6455 17.4905 61.6455 16.6712V16.6081C61.6455 15.8729 61.372 15.3109 60.8258 14.9218C60.2792 14.533 59.4911 14.3384 58.4618 14.3384H53.6704V19.0036H58.1466ZM59.4392 27.8933C60.5109 27.8933 61.351 27.6994 61.961 27.3103C62.5703 26.9215 62.8753 26.3171 62.8753 25.4975V25.4347C62.8753 24.6992 62.5913 24.1161 62.0241 23.6849C61.4565 23.2547 60.5425 23.0391 59.2815 23.0391H53.6704V27.8937L59.4392 27.8933Z" fill="#4D4D4D"/>
<path d="M73.7568 10.083H78.6117V32.1491H73.7568V10.083Z" fill="#4D4D4D"/>
<path d="M85.9648 10.083H90.4404L100.78 23.6695V10.083H105.572V32.1491H101.442L90.7559 18.1215V32.1491H85.9648V10.083Z" fill="#4D4D4D"/>
<path d="M120.268 9.92529H124.744L134.201 32.1488H129.126L127.108 27.1999H117.778L115.76 32.1488H110.811L120.268 9.92529ZM125.375 22.9123L122.443 15.7569L119.512 22.9123H125.375Z" fill="#4D4D4D"/>
<path d="M139.442 10.083H143.919L154.258 23.6695V10.083H159.049V32.1491H154.92L144.234 18.1215V32.1491H139.442V10.083Z" fill="#4D4D4D"/>
<path d="M176.52 32.5269C174.901 32.5269 173.399 32.2324 172.012 31.6444C170.625 31.0565 169.427 30.2523 168.418 29.2328C167.409 28.2136 166.621 27.0104 166.054 25.6235C165.487 24.2363 165.203 22.7547 165.203 21.1785V21.1157C165.203 19.5395 165.487 18.0635 166.054 16.6868C166.621 15.3104 167.409 14.102 168.418 13.0618C169.427 12.0216 170.635 11.2016 172.043 10.6028C173.451 10.004 175.007 9.70459 176.709 9.70459C177.738 9.70459 178.678 9.78905 179.529 9.95667C180.381 10.1253 181.153 10.356 181.847 10.6501C182.541 10.9446 183.181 11.3018 183.77 11.7219C184.357 12.1425 184.904 12.6046 185.409 13.1091L182.32 16.671C181.457 15.8938 180.58 15.2838 179.687 14.8427C178.794 14.4017 177.791 14.1808 176.677 14.1808C175.752 14.1808 174.896 14.3596 174.108 14.7169C173.32 15.0741 172.642 15.5677 172.075 16.1981C171.508 16.8285 171.066 17.5591 170.75 18.3889C170.436 19.2194 170.278 20.1071 170.278 21.0526V21.1154C170.278 22.0609 170.436 22.9545 170.75 23.7946C171.066 24.6356 171.501 25.3708 172.059 26.0011C172.616 26.6315 173.288 27.131 174.076 27.4988C174.865 27.8669 175.731 28.0503 176.677 28.0503C177.938 28.0503 179.004 27.8192 179.876 27.3568C180.748 26.8951 181.616 26.2644 182.477 25.4654L185.566 28.5863C184.999 29.196 184.41 29.7425 183.801 30.2253C183.192 30.7091 182.524 31.1238 181.799 31.4709C181.074 31.8173 180.28 32.0806 179.42 32.2587C178.557 32.4371 177.591 32.5269 176.52 32.5269Z" fill="#4D4D4D"/>
<path d="M191.28 10.083H207.893V14.4018H196.072V18.8781H206.475V23.1966H196.072V27.8306H208.051V32.1491H191.28V10.083Z" fill="#4D4D4D"/>
</svg>
