<svg width="212" height="49" viewBox="0 0 212 49" fill="none" xmlns="http://www.w3.org/2000/svg">
<path d="M48.5126 24.2563C48.5126 37.6519 37.6519 48.5126 24.2563 48.5126C10.8607 48.5126 0 37.6519 0 24.2563C0 10.8607 10.8607 0 24.2563 0C37.6547 0 48.5126 10.8607 48.5126 24.2563Z" fill="#4D4D4D"/>
<path d="M11.9673 25.0712L12.0719 24.9067L18.3819 15.0355C18.4742 14.8909 18.691 14.9059 18.7607 15.0629C19.8149 17.4254 20.7245 20.3636 20.2984 22.1928C20.1165 22.9454 19.618 23.9647 19.0573 24.9067C18.9851 25.0438 18.9053 25.1784 18.8206 25.308C18.7807 25.3678 18.7134 25.4026 18.6411 25.4026H12.1517C11.9772 25.4026 11.8751 25.2133 11.9673 25.0712Z" fill="white"/>
<path d="M40.093 26.9057V28.4682C40.093 28.5579 40.0382 28.6377 39.9585 28.6726C39.47 28.8819 37.7978 29.6495 37.1025 30.6164C35.3281 33.0861 33.9724 36.6174 30.942 36.6174H18.2995C13.8188 36.6174 10.1877 32.974 10.1877 28.4782V28.3336C10.1877 28.214 10.2849 28.1168 10.4045 28.1168H17.4523C17.5918 28.1168 17.6939 28.2464 17.6815 28.3835C17.6317 28.842 17.7164 29.3105 17.9332 29.7367C18.3519 30.5865 19.2191 31.1173 20.1562 31.1173H23.6451V28.3935H20.196C20.0191 28.3935 19.9145 28.1891 20.0166 28.0446C20.054 27.9872 20.0964 27.9275 20.1412 27.8602C20.4677 27.3966 20.9337 26.6764 21.3973 25.8565C21.7137 25.3033 22.0203 24.7126 22.267 24.1195C22.3169 24.0123 22.3567 23.9027 22.3966 23.7955C22.4639 23.6061 22.5337 23.4292 22.5835 23.2522C22.6334 23.1027 22.6732 22.9457 22.7131 22.7987C22.8302 22.2952 22.88 21.7619 22.88 21.2087C22.88 20.9919 22.8701 20.7651 22.8502 20.5483C22.8402 20.3116 22.8103 20.0748 22.7803 19.838C22.7604 19.6287 22.7231 19.4218 22.6832 19.205C22.6334 18.8885 22.5635 18.5746 22.4838 18.258L22.4564 18.1384C22.3966 17.9216 22.3467 17.7148 22.277 17.498C22.0801 16.8176 21.8533 16.1547 21.6141 15.5342C21.5268 15.2875 21.4271 15.0507 21.3274 14.814C21.1805 14.4576 21.0309 14.1336 20.8938 13.8271C20.8241 13.6875 20.7643 13.5604 20.7044 13.4308C20.6372 13.2838 20.5674 13.1367 20.4976 12.9972C20.4478 12.8901 20.3904 12.7904 20.3505 12.6907L19.9244 11.9032C19.8646 11.796 19.9643 11.6689 20.0814 11.7013L22.748 12.424H22.7555C22.7604 12.424 22.7629 12.4265 22.7654 12.4265L23.1168 12.5237L23.5031 12.6334L23.6451 12.6732V11.0883C23.6451 10.3232 24.2582 9.70264 25.0158 9.70264C25.3946 9.70264 25.7385 9.85715 25.9852 10.1088C26.2319 10.3606 26.3864 10.7045 26.3864 11.0883V13.4408L26.6706 13.5205C26.693 13.528 26.7154 13.538 26.7353 13.5529C26.8051 13.6053 26.9048 13.6825 27.0319 13.7773C27.1316 13.857 27.2387 13.9542 27.3683 14.0539C27.625 14.2607 27.9316 14.5274 28.268 14.8339C28.3577 14.9111 28.4449 14.9909 28.5247 15.0707C28.9583 15.4744 29.4443 15.9479 29.9078 16.4712C30.0374 16.6183 30.1645 16.7678 30.2941 16.9248C30.4236 17.0843 30.5607 17.2412 30.6803 17.3983C30.8374 17.6076 31.0068 17.8244 31.1539 18.0512C31.2236 18.1584 31.3034 18.268 31.3707 18.3752C31.5601 18.6617 31.727 18.9584 31.8865 19.2549C31.9538 19.392 32.0236 19.5415 32.0834 19.6885C32.2603 20.0848 32.3999 20.4885 32.4896 20.8922C32.517 20.9794 32.537 21.0741 32.5469 21.1589V21.1788C32.5768 21.2984 32.5868 21.4255 32.5968 21.5551C32.6366 21.9688 32.6167 22.3825 32.527 22.7987C32.4896 22.9756 32.4398 23.1426 32.38 23.3195C32.3201 23.489 32.2603 23.6659 32.1831 23.8329C32.0336 24.1793 31.8566 24.5257 31.6473 24.8497C31.58 24.9693 31.5002 25.0964 31.4205 25.216C31.3333 25.3431 31.2436 25.4627 31.1638 25.5799C31.0542 25.7294 30.9371 25.8864 30.8174 26.026C30.7103 26.173 30.6006 26.32 30.481 26.4496C30.314 26.6465 30.1545 26.8334 29.9875 27.0128C29.8879 27.13 29.7807 27.2496 29.671 27.3568C29.5639 27.4763 29.4542 27.5835 29.3545 27.6832C29.1876 27.8502 29.048 27.9797 28.9309 28.0869L28.6568 28.3386C28.6169 28.3735 28.5645 28.3935 28.5097 28.3935H26.3864V31.1173H29.058C29.6561 31.1173 30.2243 30.9055 30.6828 30.5167C30.8398 30.3797 31.5252 29.7865 32.3351 28.8919C32.3625 28.8619 32.3974 28.8395 32.4373 28.8296L39.8164 26.6963C39.9535 26.6565 40.093 26.7611 40.093 26.9057Z" fill="white"/>
<path d="M72.149 35.8978C69.9563 35.8978 67.9406 35.4064 66.1024 34.4236C64.2861 33.4408 62.8351 32.0735 61.7499 30.3216C60.687 28.5483 60.1553 26.5614 60.1553 24.3609C60.1553 22.1603 60.687 20.184 61.7499 18.4321C62.8351 16.6803 64.2861 15.3129 66.1024 14.3301C67.9406 13.3473 69.9563 12.856 72.149 12.856C74.3418 12.856 76.3463 13.3473 78.1627 14.3301C80.0013 15.3129 81.4407 16.6803 82.4817 18.4321C83.5451 20.184 84.0763 22.1603 84.0763 24.3609C84.0763 26.5614 83.5451 28.5483 82.4817 30.3216C81.4188 32.0735 79.979 33.4408 78.1627 34.4236C76.3463 35.4064 74.3418 35.8978 72.149 35.8978ZM72.149 30.8984C74.0095 30.8984 75.4935 30.3002 76.601 29.1038C77.7309 27.9074 78.2956 26.3264 78.2956 24.3609C78.2956 22.3739 77.7309 20.793 76.601 19.6179C75.4935 18.4215 74.0095 17.8233 72.149 17.8233C70.2663 17.8233 68.7604 18.4108 67.6306 19.5858C66.523 20.7609 65.9695 22.3525 65.9695 24.3609C65.9695 26.3477 66.523 27.9394 67.6306 29.1359C68.7604 30.3109 70.2663 30.8984 72.149 30.8984Z" fill="#4D4D4D"/>
<path d="M92.9186 20.3228C93.4721 19.4896 94.2362 18.8166 95.2108 18.3038C96.1855 17.7911 97.326 17.5347 98.6329 17.5347C100.161 17.5347 101.546 17.9086 102.786 18.6563C104.026 19.4041 105.001 20.4723 105.709 21.861C106.441 23.2497 106.806 24.8628 106.806 26.7001C106.806 28.5375 106.441 30.1612 105.709 31.5713C105.001 32.96 104.026 34.0389 102.786 34.8081C101.546 35.5558 100.161 35.9297 98.6329 35.9297C97.3483 35.9297 96.2078 35.6733 95.2108 35.1605C94.2362 34.6478 93.4721 33.9855 92.9186 33.1736V40.9931H87.2373V17.7911H92.9186V20.3228ZM101.025 26.7001C101.025 25.3328 100.626 24.2646 99.8287 23.4955C99.0535 22.7049 98.0901 22.3097 96.9384 22.3097C95.809 22.3097 94.8455 22.7049 94.048 23.4955C93.2728 24.2859 92.8851 25.3648 92.8851 26.7322C92.8851 28.0995 93.2728 29.1785 94.048 29.9689C94.8455 30.7594 95.809 31.1547 96.9384 31.1547C98.0682 31.1547 99.0317 30.7594 99.8287 29.9689C100.626 29.1571 101.025 28.0675 101.025 26.7001Z" fill="#4D4D4D"/>
<path d="M127.262 26.4438C127.262 26.9565 127.229 27.4906 127.163 28.0461H114.305C114.394 29.1571 114.759 30.0117 115.401 30.6099C116.066 31.1867 116.874 31.4751 117.827 31.4751C119.245 31.4751 120.23 30.8983 120.784 29.7446H126.831C126.521 30.9197 125.956 31.9772 125.136 32.9173C124.339 33.8573 123.331 34.5944 122.113 35.1285C120.895 35.6626 119.532 35.9297 118.026 35.9297C116.21 35.9297 114.593 35.5558 113.176 34.8081C111.758 34.0603 110.651 32.992 109.853 31.6033C109.056 30.2146 108.657 28.5909 108.657 26.7322C108.657 24.8735 109.045 23.2497 109.82 21.861C110.617 20.4723 111.725 19.4041 113.142 18.6563C114.56 17.9086 116.188 17.5347 118.026 17.5347C119.82 17.5347 121.415 17.8979 122.81 18.6243C124.206 19.3507 125.291 20.3869 126.066 21.7328C126.864 23.0788 127.262 24.6491 127.262 26.4438ZM121.449 25.0016C121.449 24.0616 121.116 23.3138 120.452 22.7584C119.787 22.2029 118.956 21.9252 117.96 21.9252C117.007 21.9252 116.199 22.1922 115.534 22.7263C114.892 23.2604 114.493 24.0189 114.339 25.0016H121.449Z" fill="#4D4D4D"/>
<path d="M141.556 17.5991C143.726 17.5991 145.454 18.2828 146.739 19.6501C148.045 20.9961 148.699 22.8548 148.699 25.2263V35.6736H143.051V25.9634C143.051 24.767 142.729 23.8376 142.087 23.1753C141.445 22.513 140.581 22.1818 139.496 22.1818C138.41 22.1818 137.547 22.513 136.905 23.1753C136.262 23.8376 135.941 24.767 135.941 25.9634V35.6736H130.26V17.7914H135.941V20.1629C136.517 19.3724 137.292 18.7528 138.267 18.3042C139.241 17.8341 140.337 17.5991 141.556 17.5991Z" fill="#4D4D4D"/>
<path d="M161.086 35.8978C159.381 35.8978 157.852 35.6307 156.501 35.0966C155.15 34.5625 154.065 33.772 153.245 32.7251C152.448 31.6783 152.027 30.4178 151.983 28.9436H158.029C158.118 29.7768 158.417 30.4178 158.927 30.8664C159.436 31.2937 160.1 31.5073 160.92 31.5073C161.762 31.5073 162.426 31.3257 162.914 30.9625C163.401 30.578 163.645 30.0545 163.645 29.3922C163.645 28.8367 163.445 28.3774 163.046 28.0142C162.67 27.651 162.194 27.3519 161.618 27.1169C161.064 26.8819 160.267 26.6148 159.226 26.3157C157.719 25.867 156.49 25.4184 155.538 24.9697C154.585 24.5211 153.766 23.8588 153.079 22.9828C152.393 22.1069 152.049 20.9639 152.049 19.5538C152.049 17.46 152.836 15.8257 154.408 14.6506C155.981 13.4542 158.029 12.856 160.554 12.856C163.124 12.856 165.195 13.4542 166.767 14.6506C168.34 15.8257 169.182 17.4707 169.292 19.5858H163.146C163.102 18.8594 162.825 18.2932 162.315 17.8873C161.806 17.46 161.153 17.2464 160.355 17.2464C159.669 17.2464 159.115 17.428 158.694 17.7912C158.273 18.133 158.063 18.6351 158.063 19.2974C158.063 20.0238 158.417 20.59 159.126 20.9959C159.835 21.4018 160.942 21.8398 162.448 22.3098C163.955 22.8012 165.173 23.2712 166.103 23.7199C167.056 24.1686 167.875 24.8202 168.561 25.6748C169.248 26.5294 169.591 27.6296 169.591 28.9756C169.591 30.2575 169.248 31.4219 168.561 32.4687C167.897 33.5156 166.923 34.3488 165.638 34.9684C164.353 35.588 162.836 35.8978 161.086 35.8978Z" fill="#4D4D4D"/>
<path d="M190.564 26.4438C190.564 26.9565 190.53 27.4906 190.464 28.0461H177.606C177.695 29.1571 178.06 30.0117 178.702 30.6099C179.367 31.1867 180.176 31.4751 181.128 31.4751C182.546 31.4751 183.531 30.8983 184.085 29.7446H190.132C189.822 30.9197 189.257 31.9772 188.437 32.9173C187.64 33.8573 186.632 34.5944 185.414 35.1285C184.196 35.6626 182.833 35.9297 181.327 35.9297C179.511 35.9297 177.894 35.5558 176.477 34.8081C175.059 34.0603 173.952 32.992 173.154 31.6033C172.357 30.2146 171.958 28.5909 171.958 26.7322C171.958 24.8735 172.346 23.2497 173.121 21.861C173.918 20.4723 175.026 19.4041 176.443 18.6563C177.861 17.9086 179.489 17.5347 181.327 17.5347C183.121 17.5347 184.716 17.8979 186.112 18.6243C187.507 19.3507 188.592 20.3869 189.367 21.7328C190.165 23.0788 190.564 24.6491 190.564 26.4438ZM184.75 25.0016C184.75 24.0616 184.417 23.3138 183.753 22.7584C183.088 22.2029 182.257 21.9252 181.261 21.9252C180.309 21.9252 179.5 22.1922 178.835 22.7263C178.193 23.2604 177.794 24.0189 177.64 25.0016H184.75Z" fill="#4D4D4D"/>
<path d="M192.431 26.7001C192.431 24.8628 192.785 23.2497 193.494 21.861C194.225 20.4723 195.21 19.4041 196.451 18.6563C197.691 17.9086 199.075 17.5347 200.604 17.5347C201.911 17.5347 203.052 17.7911 204.026 18.3038C205.023 18.8166 205.787 19.4896 206.318 20.3228V17.7911H212V35.6733H206.318V33.1416C205.765 33.9748 204.99 34.6478 203.993 35.1605C203.018 35.6733 201.878 35.9297 200.571 35.9297C199.064 35.9297 197.691 35.5558 196.451 34.8081C195.21 34.0389 194.225 32.96 193.494 31.5713C192.785 30.1612 192.431 28.5375 192.431 26.7001ZM206.318 26.7322C206.318 25.3648 205.92 24.2859 205.123 23.4955C204.347 22.7049 203.395 22.3097 202.265 22.3097C201.135 22.3097 200.172 22.7049 199.375 23.4955C198.6 24.2646 198.212 25.3328 198.212 26.7001C198.212 28.0675 198.6 29.1571 199.375 29.9689C200.172 30.7594 201.135 31.1547 202.265 31.1547C203.395 31.1547 204.347 30.7594 205.123 29.9689C205.92 29.1785 206.318 28.0995 206.318 26.7322Z" fill="#4D4D4D"/>
</svg>
