<svg width="13" height="18" viewBox="0 0 13 18" fill="none" xmlns="http://www.w3.org/2000/svg">
<path d="M3.1875 3.4C3.1875 1.90419 4.33832 0.75 5.6875 0.75H7.3125C8.66165 0.75 9.8125 1.9042 9.8125 3.4V8.5C9.8125 9.99577 8.66165 11.15 7.3125 11.15H5.6875C4.33832 11.15 3.1875 9.99578 3.1875 8.5V3.4Z" stroke="white" stroke-width="1.5"/>
<path fill-rule="evenodd" clip-rule="evenodd" d="M0.8125 7C1.26123 7 1.625 7.38054 1.625 7.85V8.7C1.625 11.0472 3.44385 12.95 5.6875 12.95H6.5H7.3125C9.55614 12.95 11.375 11.0472 11.375 8.7V7.85C11.375 7.38054 11.7388 7 12.1875 7C12.6362 7 13 7.38054 13 7.85V8.7C13 11.9861 10.4536 14.65 7.3125 14.65V16.35C7.3125 16.8195 6.94874 17.2 6.5 17.2C6.05126 17.2 5.6875 16.8195 5.6875 16.35V14.65C2.54638 14.65 0 11.9861 0 8.7V7.85C0 7.38054 0.363772 7 0.8125 7Z" fill="white"/>
</svg>
