<svg width="28" height="25" viewBox="0 0 28 25" fill="none" xmlns="http://www.w3.org/2000/svg">
<path fill-rule="evenodd" clip-rule="evenodd" d="M18.2406 16.1968C17.1738 16.1968 16.2792 15.3209 16.2792 14.2403C16.2792 13.1584 17.1738 12.2538 18.2406 12.2538C19.306 12.2538 20.1698 13.1584 20.1698 14.2403C20.1698 15.3209 19.3074 16.1968 18.2406 16.1968ZM18.5122 19.8116C17.57 20.7658 16.093 21.2301 13.9986 21.2301C11.9028 21.2301 10.4272 20.7658 9.4864 19.8116C9.282 19.6043 9.282 19.2691 9.4864 19.0604C9.6894 18.8531 10.0212 18.8531 10.2256 19.0604C10.9606 19.8058 12.194 20.1691 13.9986 20.1691C15.8018 20.1691 17.0366 19.8058 17.773 19.0604C17.976 18.8531 18.3078 18.8531 18.5122 19.0604C18.7166 19.2691 18.7166 19.6043 18.5122 19.8116ZM7.8288 14.2403C7.8288 13.1598 8.722 12.2538 9.7874 12.2538C10.8528 12.2538 11.7166 13.1598 11.7166 14.2403C11.7166 15.3209 10.8528 16.1968 9.7874 16.1968C8.722 16.1968 7.8288 15.3209 7.8288 14.2403ZM28 12.0891C28 10.3156 26.5776 8.87275 24.829 8.87275C24.0226 8.87275 23.2624 9.17785 22.68 9.72451C20.587 8.34296 17.7842 7.44994 14.6804 7.32783L16.3926 2.02793L20.8894 3.10117C20.8908 4.56081 22.0612 5.74668 23.5004 5.74668C24.9396 5.74668 26.1114 4.55808 26.1114 3.09844C26.1114 1.6388 24.9396 0.450195 23.5004 0.450195C22.4224 0.450195 21.497 1.11437 21.098 2.06143C20.1292 1.82998 16.6656 1.00223 15.6968 0.770801L13.5828 7.31689C10.3614 7.37795 7.4424 8.26655 5.271 9.68076C4.6956 9.1625 3.9508 8.87275 3.1696 8.87275C1.4224 8.87275 0 10.3156 0 12.0891C0 13.215 0.5796 14.2469 1.5064 14.8262C0.6622 19.8838 6.538 24.2502 13.9412 24.2502C21.3136 24.2502 27.1698 19.9225 26.3886 14.8904C27.3798 14.3267 28 13.2704 28 12.0891Z" fill="#00002F"/>
</svg>
