<svg width="13" height="10" viewBox="0 0 13 10" fill="none" xmlns="http://www.w3.org/2000/svg">
<path d="M0 4.56124C0 4.88692 0.138534 5.1366 0.415601 5.31029L5.98465 8.94156C6.12873 9.03926 6.28389 9.09354 6.45013 9.1044C6.61637 9.11525 6.77707 9.07726 6.93223 8.99041C7.08738 8.90356 7.20929 8.78958 7.29795 8.64845C7.38662 8.50733 7.43095 8.35535 7.43095 8.19251V6.36874C8.62788 6.36874 9.7029 6.70527 10.656 7.37832C11.6091 8.05138 12.2796 8.92528 12.6675 10C12.8892 9.39208 13 8.78958 13 8.19251C13 7.20463 12.7506 6.29274 12.2519 5.45685C11.7532 4.62095 11.0772 3.95875 10.2238 3.47024C9.37042 2.98173 8.43947 2.73747 7.43095 2.73747V0.913696C7.43095 0.750859 7.38662 0.598878 7.29795 0.457753C7.20929 0.316627 7.08738 0.202642 6.93223 0.115795C6.77707 0.0289488 6.61637 -0.0090465 6.45013 0.0018093C6.28389 0.0126651 6.12873 0.0669439 5.98465 0.164646L0.415601 3.79591C0.138534 3.9696 0 4.22471 0 4.56124Z" fill="#FF4E00"/>
</svg>
