<svg width="401" height="1277" viewBox="0 0 401 1277" fill="none" xmlns="http://www.w3.org/2000/svg">
<path d="M228.404 401.032H223.736V392.992H228.236C229.772 392.992 230.696 393.7 230.696 394.972C230.696 395.92 230.168 396.628 228.944 396.772V396.856C230.312 397.012 230.984 397.756 230.984 398.812C230.984 400.192 230.06 401.032 228.404 401.032ZM225.02 394.156V396.364H228.056C228.956 396.364 229.412 396.016 229.412 395.26C229.412 394.504 228.992 394.156 228.092 394.156H225.02ZM225.02 397.432V399.868H228.26C229.22 399.868 229.688 399.508 229.688 398.632C229.688 397.792 229.208 397.432 228.26 397.432H225.02ZM234.823 401.152C232.867 401.152 231.583 400.048 231.583 398.056C231.583 396.196 232.855 394.948 234.799 394.948C236.647 394.948 237.907 395.968 237.907 397.78C237.907 397.996 237.895 398.164 237.859 398.344H232.795C232.843 399.496 233.407 400.108 234.787 400.108C236.035 400.108 236.551 399.7 236.551 398.992V398.896H237.847V399.004C237.847 400.276 236.599 401.152 234.823 401.152ZM234.775 395.968C233.455 395.968 232.879 396.556 232.807 397.624H236.683V397.6C236.683 396.496 236.047 395.968 234.775 395.968ZM242.79 401.032H241.422C240.138 401.032 239.346 400.468 239.346 399.016V396.148H238.338V395.068H239.346V393.76H240.63V395.068H242.79V396.148H240.63V398.944C240.63 399.676 240.966 399.868 241.71 399.868H242.79V401.032ZM245.353 401.152C244.117 401.152 243.337 400.576 243.337 399.592C243.337 398.668 244.081 398.188 245.257 398.056L247.969 397.768V397.42C247.969 396.436 247.537 396.088 246.397 396.088C245.293 396.088 244.753 396.448 244.753 397.324V397.372H243.469V397.324C243.469 395.968 244.597 394.948 246.493 394.948C248.389 394.948 249.241 395.98 249.241 397.408V401.032H248.053V399.544H247.969C247.657 400.552 246.709 401.152 245.353 401.152ZM244.633 399.508C244.633 399.988 244.957 400.216 245.701 400.216C247.057 400.216 247.969 399.712 247.969 398.536L245.629 398.8C244.957 398.884 244.633 399.04 244.633 399.508ZM256.444 401.032H255.16V394.156H251.992V392.992H259.6V394.156H256.444V401.032ZM263.358 401.152C261.402 401.152 260.118 400.048 260.118 398.056C260.118 396.196 261.39 394.948 263.334 394.948C265.182 394.948 266.442 395.968 266.442 397.78C266.442 397.996 266.43 398.164 266.394 398.344H261.33C261.378 399.496 261.942 400.108 263.322 400.108C264.57 400.108 265.086 399.7 265.086 398.992V398.896H266.382V399.004C266.382 400.276 265.134 401.152 263.358 401.152ZM263.31 395.968C261.99 395.968 261.414 396.556 261.342 397.624H265.218V397.6C265.218 396.496 264.582 395.968 263.31 395.968ZM270.233 401.152C268.313 401.152 267.221 400.396 267.221 399.016V398.98H268.517V399.076C268.517 399.856 268.985 400.108 270.233 400.108C271.397 400.108 271.745 399.868 271.745 399.34C271.745 398.848 271.457 398.692 270.605 398.572L268.973 398.356C267.845 398.212 267.161 397.732 267.161 396.736C267.161 395.692 268.109 394.948 269.945 394.948C271.769 394.948 272.873 395.68 272.873 397.096V397.132H271.589V397.06C271.589 396.352 271.229 395.98 269.909 395.98C268.817 395.98 268.433 396.22 268.433 396.784C268.433 397.252 268.673 397.42 269.573 397.54L270.953 397.732C272.369 397.912 273.017 398.392 273.017 399.376C273.017 400.492 271.913 401.152 270.233 401.152ZM277.864 401.032H276.496C275.212 401.032 274.42 400.468 274.42 399.016V396.148H273.412V395.068H274.42V393.76H275.704V395.068H277.864V396.148H275.704V398.944C275.704 399.676 276.04 399.868 276.784 399.868H277.864V401.032ZM284.098 401.152C281.698 401.152 280.474 400.096 280.474 398.404V398.332H281.77V398.524C281.77 399.484 282.334 399.964 284.098 399.964C285.634 399.964 286.174 399.628 286.174 398.872C286.174 398.176 285.766 397.912 284.746 397.72L282.778 397.396C281.422 397.156 280.462 396.532 280.462 395.212C280.462 394.048 281.422 392.872 283.918 392.872C286.27 392.872 287.338 394.048 287.338 395.62V395.692H286.054V395.536C286.054 394.552 285.466 394.06 283.798 394.06C282.334 394.06 281.758 394.42 281.758 395.14C281.758 395.836 282.166 396.064 283.114 396.268L285.07 396.604C286.678 396.892 287.47 397.624 287.47 398.8C287.47 400.024 286.474 401.152 284.098 401.152ZM292.302 401.032H290.934C289.65 401.032 288.858 400.468 288.858 399.016V396.148H287.85V395.068H288.858V393.76H290.142V395.068H292.302V396.148H290.142V398.944C290.142 399.676 290.478 399.868 291.222 399.868H292.302V401.032ZM294.864 401.152C293.628 401.152 292.848 400.576 292.848 399.592C292.848 398.668 293.592 398.188 294.768 398.056L297.48 397.768V397.42C297.48 396.436 297.048 396.088 295.908 396.088C294.804 396.088 294.264 396.448 294.264 397.324V397.372H292.98V397.324C292.98 395.968 294.108 394.948 296.004 394.948C297.9 394.948 298.752 395.98 298.752 397.408V401.032H297.564V399.544H297.48C297.168 400.552 296.22 401.152 294.864 401.152ZM294.144 399.508C294.144 399.988 294.468 400.216 295.212 400.216C296.568 400.216 297.48 399.712 297.48 398.536L295.14 398.8C294.468 398.884 294.144 399.04 294.144 399.508ZM302.501 400.492C300.725 400.492 299.669 399.376 299.669 397.72C299.669 396.064 300.773 394.948 302.585 394.948C303.833 394.948 304.769 395.512 304.985 396.556H305.057V395.068H306.245V400.336C306.245 402.34 304.997 403.192 303.041 403.192C301.277 403.192 300.053 402.364 300.053 400.924H301.337C301.337 401.788 301.841 402.112 303.113 402.112C304.469 402.112 304.961 401.74 304.961 400.408V398.944H304.877C304.661 399.844 303.857 400.492 302.501 400.492ZM300.977 397.72C300.977 398.944 301.697 399.376 302.921 399.376C304.241 399.376 304.961 398.824 304.961 397.768V397.6C304.961 396.592 304.217 396.076 302.957 396.076C301.709 396.076 300.977 396.496 300.977 397.72ZM310.444 401.152C308.488 401.152 307.204 400.048 307.204 398.056C307.204 396.196 308.476 394.948 310.42 394.948C312.268 394.948 313.528 395.968 313.528 397.78C313.528 397.996 313.516 398.164 313.48 398.344H308.416C308.464 399.496 309.028 400.108 310.408 400.108C311.656 400.108 312.172 399.7 312.172 398.992V398.896H313.468V399.004C313.468 400.276 312.22 401.152 310.444 401.152ZM310.396 395.968C309.076 395.968 308.5 396.556 308.428 397.624H312.304V397.6C312.304 396.496 311.668 395.968 310.396 395.968Z" fill="#00002F"/>
<path d="M227.168 375.794C224.768 375.794 223.544 374.738 223.544 373.046V372.974H224.84V373.166C224.84 374.126 225.404 374.606 227.168 374.606C228.704 374.606 229.244 374.27 229.244 373.514C229.244 372.818 228.836 372.554 227.816 372.362L225.848 372.038C224.492 371.798 223.532 371.174 223.532 369.854C223.532 368.69 224.492 367.514 226.988 367.514C229.34 367.514 230.408 368.69 230.408 370.262V370.334H229.124V370.178C229.124 369.194 228.536 368.702 226.868 368.702C225.404 368.702 224.828 369.062 224.828 369.782C224.828 370.478 225.236 370.706 226.184 370.91L228.14 371.246C229.748 371.534 230.54 372.266 230.54 373.442C230.54 374.666 229.544 375.794 227.168 375.794ZM235.372 375.674H234.004C232.72 375.674 231.928 375.11 231.928 373.658V370.79H230.92V369.71H231.928V368.402H233.212V369.71H235.372V370.79H233.212V373.586C233.212 374.318 233.548 374.51 234.292 374.51H235.372V375.674ZM237.479 375.674H236.183V369.71H237.371V371.318H237.455C237.635 370.358 238.283 369.59 239.507 369.59C240.863 369.59 241.451 370.562 241.451 371.69V372.47H240.167V371.942C240.167 371.09 239.807 370.694 238.919 370.694C237.899 370.694 237.479 371.258 237.479 372.326V375.674ZM244.017 375.794C242.781 375.794 242.001 375.218 242.001 374.234C242.001 373.31 242.745 372.83 243.921 372.698L246.633 372.41V372.062C246.633 371.078 246.201 370.73 245.061 370.73C243.957 370.73 243.417 371.09 243.417 371.966V372.014H242.133V371.966C242.133 370.61 243.261 369.59 245.157 369.59C247.053 369.59 247.905 370.622 247.905 372.05V375.674H246.717V374.186H246.633C246.321 375.194 245.373 375.794 244.017 375.794ZM243.297 374.15C243.297 374.63 243.621 374.858 244.365 374.858C245.721 374.858 246.633 374.354 246.633 373.178L244.293 373.442C243.621 373.526 243.297 373.682 243.297 374.15ZM252.974 375.674H251.606C250.322 375.674 249.53 375.11 249.53 373.658V370.79H248.522V369.71H249.53V368.402H250.814V369.71H252.974V370.79H250.814V373.586C250.814 374.318 251.15 374.51 251.894 374.51H252.974V375.674ZM256.784 375.794C254.828 375.794 253.544 374.69 253.544 372.698C253.544 370.838 254.816 369.59 256.76 369.59C258.608 369.59 259.868 370.61 259.868 372.422C259.868 372.638 259.856 372.806 259.82 372.986H254.756C254.804 374.138 255.368 374.75 256.748 374.75C257.996 374.75 258.512 374.342 258.512 373.634V373.538H259.808V373.646C259.808 374.918 258.56 375.794 256.784 375.794ZM256.736 370.61C255.416 370.61 254.84 371.198 254.768 372.266H258.644V372.242C258.644 371.138 258.008 370.61 256.736 370.61ZM263.431 375.134C261.655 375.134 260.599 374.018 260.599 372.362C260.599 370.706 261.703 369.59 263.515 369.59C264.763 369.59 265.699 370.154 265.915 371.198H265.987V369.71H267.175V374.978C267.175 376.982 265.927 377.834 263.971 377.834C262.207 377.834 260.983 377.006 260.983 375.566H262.267C262.267 376.43 262.771 376.754 264.043 376.754C265.399 376.754 265.891 376.382 265.891 375.05V373.586H265.807C265.591 374.486 264.787 375.134 263.431 375.134ZM261.907 372.362C261.907 373.586 262.627 374.018 263.851 374.018C265.171 374.018 265.891 373.466 265.891 372.41V372.242C265.891 371.234 265.147 370.718 263.887 370.718C262.639 370.718 261.907 371.138 261.907 372.362ZM269.67 369.014H268.374V367.634H269.67V369.014ZM269.67 375.674H268.374V369.71H269.67V375.674ZM273.882 375.794C271.914 375.794 270.63 374.534 270.63 372.698C270.63 370.838 271.914 369.59 273.882 369.59C275.67 369.59 276.978 370.598 276.978 372.086V372.206H275.694V372.134C275.694 371.21 275.022 370.754 273.858 370.754C272.514 370.754 271.914 371.39 271.914 372.698C271.914 373.982 272.514 374.63 273.858 374.63C275.022 374.63 275.694 374.174 275.694 373.25V373.166H276.978V373.298C276.978 374.786 275.67 375.794 273.882 375.794ZM281.283 375.674H279.987V367.634H283.923C285.711 367.634 286.935 368.654 286.935 370.442C286.935 372.218 285.711 373.25 283.923 373.25H281.283V375.674ZM283.803 368.798H281.283V372.086H283.803C285.015 372.086 285.639 371.63 285.639 370.442C285.639 369.254 285.015 368.798 283.803 368.798ZM289.462 375.794C288.226 375.794 287.446 375.218 287.446 374.234C287.446 373.31 288.19 372.83 289.366 372.698L292.078 372.41V372.062C292.078 371.078 291.646 370.73 290.506 370.73C289.402 370.73 288.862 371.09 288.862 371.966V372.014H287.578V371.966C287.578 370.61 288.706 369.59 290.602 369.59C292.498 369.59 293.35 370.622 293.35 372.05V375.674H292.162V374.186H292.078C291.766 375.194 290.818 375.794 289.462 375.794ZM288.742 374.15C288.742 374.63 289.066 374.858 289.81 374.858C291.166 374.858 292.078 374.354 292.078 373.178L289.738 373.442C289.066 373.526 288.742 373.682 288.742 374.15ZM295.803 375.674H294.507V369.71H295.695V371.318H295.779C295.959 370.358 296.607 369.59 297.831 369.59C299.187 369.59 299.775 370.562 299.775 371.69V372.47H298.491V371.942C298.491 371.09 298.131 370.694 297.243 370.694C296.223 370.694 295.803 371.258 295.803 372.326V375.674ZM304.501 375.674H303.133C301.849 375.674 301.057 375.11 301.057 373.658V370.79H300.049V369.71H301.057V368.402H302.341V369.71H304.501V370.79H302.341V373.586C302.341 374.318 302.677 374.51 303.421 374.51H304.501V375.674ZM306.608 375.674H305.312V369.71H306.5V371.558H306.584C306.764 370.55 307.556 369.59 309.068 369.59C310.724 369.59 311.54 370.706 311.54 372.086V375.674H310.244V372.434C310.244 371.318 309.74 370.754 308.504 370.754C307.196 370.754 306.608 371.426 306.608 372.722V375.674ZM315.694 375.794C313.738 375.794 312.454 374.69 312.454 372.698C312.454 370.838 313.726 369.59 315.67 369.59C317.518 369.59 318.778 370.61 318.778 372.422C318.778 372.638 318.766 372.806 318.73 372.986H313.666C313.714 374.138 314.278 374.75 315.658 374.75C316.906 374.75 317.422 374.342 317.422 373.634V373.538H318.718V373.646C318.718 374.918 317.47 375.794 315.694 375.794ZM315.646 370.61C314.326 370.61 313.75 371.198 313.678 372.266H317.554V372.242C317.554 371.138 316.918 370.61 315.646 370.61ZM321.045 375.674H319.749V369.71H320.937V371.318H321.021C321.201 370.358 321.849 369.59 323.073 369.59C324.429 369.59 325.017 370.562 325.017 371.69V372.47H323.733V371.942C323.733 371.09 323.373 370.694 322.485 370.694C321.465 370.694 321.045 371.258 321.045 372.326V375.674ZM328.651 375.794C326.731 375.794 325.639 375.038 325.639 373.658V373.622H326.935V373.718C326.935 374.498 327.403 374.75 328.651 374.75C329.815 374.75 330.163 374.51 330.163 373.982C330.163 373.49 329.875 373.334 329.023 373.214L327.391 372.998C326.263 372.854 325.579 372.374 325.579 371.378C325.579 370.334 326.527 369.59 328.363 369.59C330.187 369.59 331.291 370.322 331.291 371.738V371.774H330.007V371.702C330.007 370.994 329.647 370.622 328.327 370.622C327.235 370.622 326.851 370.862 326.851 371.426C326.851 371.894 327.091 372.062 327.991 372.182L329.371 372.374C330.787 372.554 331.435 373.034 331.435 374.018C331.435 375.134 330.331 375.794 328.651 375.794ZM333.666 375.674H332.37V367.634H333.666V371.534H333.738C333.942 370.526 334.674 369.59 336.198 369.59C337.842 369.59 338.646 370.67 338.646 372.122V375.674H337.362V372.434C337.362 371.234 336.822 370.754 335.586 370.754C334.17 370.754 333.666 371.522 333.666 372.782V375.674ZM341.108 369.014H339.812V367.634H341.108V369.014ZM341.108 375.674H339.812V369.71H341.108V375.674ZM343.604 377.714H342.308V369.71H343.496V371.366H343.604C343.844 370.262 344.684 369.59 346.088 369.59C347.936 369.59 348.98 370.85 348.98 372.698C348.98 374.546 347.96 375.794 346.1 375.794C344.756 375.794 343.892 375.086 343.652 373.994H343.604V377.714ZM343.604 372.794C343.604 374.018 344.384 374.618 345.656 374.618C346.94 374.618 347.684 374.126 347.684 372.698C347.684 371.258 346.928 370.778 345.68 370.778C344.348 370.778 343.604 371.402 343.604 372.686V372.794ZM352.698 375.794C350.778 375.794 349.686 375.038 349.686 373.658V373.622H350.982V373.718C350.982 374.498 351.45 374.75 352.698 374.75C353.862 374.75 354.21 374.51 354.21 373.982C354.21 373.49 353.922 373.334 353.07 373.214L351.438 372.998C350.31 372.854 349.626 372.374 349.626 371.378C349.626 370.334 350.574 369.59 352.41 369.59C354.234 369.59 355.338 370.322 355.338 371.738V371.774H354.054V371.702C354.054 370.994 353.694 370.622 352.374 370.622C351.282 370.622 350.898 370.862 350.898 371.426C350.898 371.894 351.138 372.062 352.038 372.182L353.418 372.374C354.834 372.554 355.482 373.034 355.482 374.018C355.482 375.134 354.378 375.794 352.698 375.794Z" fill="#00002F"/>
<path d="M227.528 350.317H223.868V342.277H227.528C230.024 342.277 231.596 343.813 231.596 346.297C231.596 348.781 230.024 350.317 227.528 350.317ZM227.528 343.441H225.152V349.153H227.528C229.388 349.153 230.228 348.361 230.228 346.297C230.228 344.233 229.388 343.441 227.528 343.441ZM235.562 350.437C233.606 350.437 232.322 349.333 232.322 347.341C232.322 345.481 233.594 344.233 235.538 344.233C237.386 344.233 238.646 345.253 238.646 347.065C238.646 347.281 238.634 347.449 238.598 347.629H233.534C233.582 348.781 234.146 349.393 235.526 349.393C236.774 349.393 237.29 348.985 237.29 348.277V348.181H238.586V348.289C238.586 349.561 237.338 350.437 235.562 350.437ZM235.514 345.253C234.194 345.253 233.618 345.841 233.546 346.909H237.422V346.885C237.422 345.781 236.786 345.253 235.514 345.253ZM243.444 350.317H241.86L239.076 344.353H240.504L242.628 349.057H242.724L244.848 344.353H246.252L243.444 350.317ZM249.917 350.437C247.961 350.437 246.677 349.333 246.677 347.341C246.677 345.481 247.949 344.233 249.893 344.233C251.741 344.233 253.001 345.253 253.001 347.065C253.001 347.281 252.989 347.449 252.953 347.629H247.889C247.937 348.781 248.501 349.393 249.881 349.393C251.129 349.393 251.645 348.985 251.645 348.277V348.181H252.941V348.289C252.941 349.561 251.693 350.437 249.917 350.437ZM249.869 345.253C248.549 345.253 247.973 345.841 247.901 346.909H251.777V346.885C251.777 345.781 251.141 345.253 249.869 345.253ZM255.268 350.317H253.972V342.277H255.268V350.317ZM259.516 350.437C257.536 350.437 256.204 349.177 256.204 347.341C256.204 345.481 257.536 344.233 259.516 344.233C261.508 344.233 262.84 345.481 262.84 347.341C262.84 349.177 261.508 350.437 259.516 350.437ZM259.516 349.285C260.968 349.285 261.568 348.601 261.568 347.341C261.568 346.069 260.968 345.373 259.516 345.373C258.076 345.373 257.476 346.069 257.476 347.341C257.476 348.601 258.076 349.285 259.516 349.285ZM265.076 352.357H263.78V344.353H264.968V346.009H265.076C265.316 344.905 266.156 344.233 267.56 344.233C269.408 344.233 270.452 345.493 270.452 347.341C270.452 349.189 269.432 350.437 267.572 350.437C266.228 350.437 265.364 349.729 265.124 348.637H265.076V352.357ZM265.076 347.437C265.076 348.661 265.856 349.261 267.128 349.261C268.412 349.261 269.156 348.769 269.156 347.341C269.156 345.901 268.4 345.421 267.152 345.421C265.82 345.421 265.076 346.045 265.076 347.329V347.437ZM272.647 350.317H271.351V344.353H272.539V346.153H272.611C272.767 345.157 273.415 344.233 274.903 344.233C276.259 344.233 276.991 345.061 277.159 346.201H277.231C277.387 345.181 278.059 344.233 279.571 344.233C281.119 344.233 281.899 345.289 281.899 346.729V350.317H280.615V347.077C280.615 345.901 280.147 345.397 278.995 345.397C277.723 345.397 277.267 346.045 277.267 347.365V350.317H275.983V347.077C275.983 345.901 275.527 345.397 274.375 345.397C273.091 345.397 272.647 346.045 272.647 347.365V350.317ZM286.058 350.437C284.102 350.437 282.818 349.333 282.818 347.341C282.818 345.481 284.09 344.233 286.034 344.233C287.882 344.233 289.142 345.253 289.142 347.065C289.142 347.281 289.13 347.449 289.094 347.629H284.03C284.078 348.781 284.642 349.393 286.022 349.393C287.27 349.393 287.786 348.985 287.786 348.277V348.181H289.082V348.289C289.082 349.561 287.834 350.437 286.058 350.437ZM286.01 345.253C284.69 345.253 284.114 345.841 284.042 346.909H287.918V346.885C287.918 345.781 287.282 345.253 286.01 345.253ZM291.408 350.317H290.112V344.353H291.3V346.201H291.384C291.564 345.193 292.356 344.233 293.868 344.233C295.524 344.233 296.34 345.349 296.34 346.729V350.317H295.044V347.077C295.044 345.961 294.54 345.397 293.304 345.397C291.996 345.397 291.408 346.069 291.408 347.365V350.317ZM301.407 350.317H300.039C298.755 350.317 297.963 349.753 297.963 348.301V345.433H296.955V344.353H297.963V343.045H299.247V344.353H301.407V345.433H299.247V348.229C299.247 348.961 299.583 349.153 300.327 349.153H301.407V350.317Z" fill="#00002F"/>
<circle cx="212.297" cy="396.778" r="6" fill="#FF4E00" fill-opacity="0.2"/>
<circle cx="212.296" cy="396.777" r="3.6" fill="#FF4E00"/>
<circle cx="212.297" cy="371.42" r="6" fill="#FF4E00" fill-opacity="0.2"/>
<circle cx="212.296" cy="371.42" r="3.6" fill="#FF4E00"/>
<circle cx="212.297" cy="346.063" r="6" fill="#FF4E00" fill-opacity="0.2"/>
<circle cx="212.296" cy="346.062" r="3.6" fill="#FF4E00"/>
<path d="M182.598 413H109.668V403.77C109.668 387.65 116.038 379.59 133.978 373.48L154.778 366.33C165.178 362.56 168.818 359.05 168.818 351.38C168.818 342.15 162.838 337.47 147.238 337.47C129.818 337.47 123.318 343.58 123.318 355.02V356.58H109.538V355.28C109.538 339.16 120.588 324.6 147.758 324.6C172.458 324.6 182.858 336.3 182.858 351.64C182.858 365.94 173.628 373.48 158.288 378.16L139.958 383.75C128.258 387.78 124.228 391.94 124.228 401.82L145.288 400.39H182.598V413Z" fill="#EAEAEA"/>
<path d="M349 343.62L350.837 345.902C351.159 346.302 351.776 346.271 352.056 345.841L355.863 340" stroke="#569B00" stroke-width="0.754187" stroke-linecap="round"/>
<path d="M130.264 697.369H128.968V689.329H130.264V697.369ZM135.376 697.369H134.008C132.724 697.369 131.932 696.805 131.932 695.353V692.485H130.924V691.405H131.932V690.097H133.216V691.405H135.376V692.485H133.216V695.281C133.216 696.013 133.552 696.205 134.296 696.205H135.376V697.369ZM139.187 697.489C137.231 697.489 135.947 696.385 135.947 694.393C135.947 692.533 137.219 691.285 139.163 691.285C141.011 691.285 142.271 692.305 142.271 694.117C142.271 694.333 142.259 694.501 142.223 694.681H137.159C137.207 695.833 137.771 696.445 139.151 696.445C140.399 696.445 140.915 696.037 140.915 695.329V695.233H142.211V695.341C142.211 696.613 140.963 697.489 139.187 697.489ZM139.139 692.305C137.819 692.305 137.243 692.893 137.171 693.961H141.047V693.937C141.047 692.833 140.411 692.305 139.139 692.305ZM144.537 697.369H143.241V691.405H144.429V693.013H144.513C144.693 692.053 145.341 691.285 146.565 691.285C147.921 691.285 148.509 692.257 148.509 693.385V694.165H147.225V693.637C147.225 692.785 146.865 692.389 145.977 692.389C144.957 692.389 144.537 692.953 144.537 694.021V697.369ZM151.076 697.489C149.84 697.489 149.06 696.913 149.06 695.929C149.06 695.005 149.804 694.525 150.98 694.393L153.692 694.105V693.757C153.692 692.773 153.26 692.425 152.12 692.425C151.016 692.425 150.476 692.785 150.476 693.661V693.709H149.192V693.661C149.192 692.305 150.32 691.285 152.216 691.285C154.112 691.285 154.964 692.317 154.964 693.745V697.369H153.776V695.881H153.692C153.38 696.889 152.432 697.489 151.076 697.489ZM150.356 695.845C150.356 696.325 150.68 696.553 151.424 696.553C152.78 696.553 153.692 696.049 153.692 694.873L151.352 695.137C150.68 695.221 150.356 695.377 150.356 695.845ZM160.032 697.369H158.664C157.38 697.369 156.588 696.805 156.588 695.353V692.485H155.58V691.405H156.588V690.097H157.872V691.405H160.032V692.485H157.872V695.281C157.872 696.013 158.208 696.205 158.952 696.205H160.032V697.369ZM162.139 690.709H160.843V689.329H162.139V690.709ZM162.139 697.369H160.843V691.405H162.139V697.369ZM166.387 697.489C164.407 697.489 163.075 696.229 163.075 694.393C163.075 692.533 164.407 691.285 166.387 691.285C168.379 691.285 169.711 692.533 169.711 694.393C169.711 696.229 168.379 697.489 166.387 697.489ZM166.387 696.337C167.839 696.337 168.439 695.653 168.439 694.393C168.439 693.121 167.839 692.425 166.387 692.425C164.947 692.425 164.347 693.121 164.347 694.393C164.347 695.653 164.947 696.337 166.387 696.337ZM171.948 697.369H170.652V691.405H171.84V693.253H171.924C172.104 692.245 172.896 691.285 174.408 691.285C176.064 691.285 176.88 692.401 176.88 693.781V697.369H175.584V694.129C175.584 693.013 175.08 692.449 173.844 692.449C172.536 692.449 171.948 693.121 171.948 694.417V697.369ZM180.854 697.489C178.934 697.489 177.842 696.733 177.842 695.353V695.317H179.138V695.413C179.138 696.193 179.606 696.445 180.854 696.445C182.018 696.445 182.366 696.205 182.366 695.677C182.366 695.185 182.078 695.029 181.226 694.909L179.594 694.693C178.466 694.549 177.782 694.069 177.782 693.073C177.782 692.029 178.73 691.285 180.566 691.285C182.39 691.285 183.494 692.017 183.494 693.433V693.469H182.21V693.397C182.21 692.689 181.85 692.317 180.53 692.317C179.438 692.317 179.054 692.557 179.054 693.121C179.054 693.589 179.294 693.757 180.194 693.877L181.574 694.069C182.99 694.249 183.638 694.729 183.638 695.713C183.638 696.829 182.534 697.489 180.854 697.489Z" fill="#00002F"/>
<path d="M132.916 668.419C130.396 668.419 128.728 666.787 128.728 664.279C128.728 661.771 130.396 660.139 132.916 660.139C135.46 660.139 137.116 661.771 137.116 664.279C137.116 666.787 135.46 668.419 132.916 668.419ZM132.916 667.171C134.824 667.171 135.748 666.283 135.748 664.279C135.748 662.275 134.824 661.375 132.916 661.375C131.008 661.375 130.096 662.275 130.096 664.279C130.096 666.283 131.008 667.171 132.916 667.171ZM139.37 668.299H138.074V662.335H139.262V664.183H139.346C139.526 663.175 140.318 662.215 141.83 662.215C143.486 662.215 144.302 663.331 144.302 664.711V668.299H143.006V665.059C143.006 663.943 142.502 663.379 141.266 663.379C139.958 663.379 139.37 664.051 139.37 665.347V668.299ZM146.644 668.299H145.456V660.259H146.752V663.955H146.824C147.064 662.947 147.856 662.215 149.284 662.215C151.12 662.215 152.128 663.463 152.128 665.323C152.128 667.159 151.108 668.419 149.212 668.419C147.856 668.419 146.98 667.771 146.728 666.583H146.644V668.299ZM146.752 665.383C146.752 666.631 147.52 667.231 148.804 667.231C150.112 667.231 150.832 666.751 150.832 665.323C150.832 663.883 150.1 663.391 148.828 663.391C147.484 663.391 146.752 664.015 146.752 665.287V665.383ZM156.075 668.419C154.095 668.419 152.763 667.159 152.763 665.323C152.763 663.463 154.095 662.215 156.075 662.215C158.067 662.215 159.399 663.463 159.399 665.323C159.399 667.159 158.067 668.419 156.075 668.419ZM156.075 667.267C157.527 667.267 158.127 666.583 158.127 665.323C158.127 664.051 157.527 663.355 156.075 663.355C154.635 663.355 154.035 664.051 154.035 665.323C154.035 666.583 154.635 667.267 156.075 667.267ZM162.091 668.419C160.855 668.419 160.075 667.843 160.075 666.859C160.075 665.935 160.819 665.455 161.995 665.323L164.707 665.035V664.687C164.707 663.703 164.275 663.355 163.135 663.355C162.031 663.355 161.491 663.715 161.491 664.591V664.639H160.207V664.591C160.207 663.235 161.335 662.215 163.231 662.215C165.127 662.215 165.979 663.247 165.979 664.675V668.299H164.791V666.811H164.707C164.395 667.819 163.447 668.419 162.091 668.419ZM161.371 666.775C161.371 667.255 161.695 667.483 162.439 667.483C163.795 667.483 164.707 666.979 164.707 665.803L162.367 666.067C161.695 666.151 161.371 666.307 161.371 666.775ZM168.432 668.299H167.136V662.335H168.324V663.943H168.408C168.588 662.983 169.236 662.215 170.46 662.215C171.816 662.215 172.404 663.187 172.404 664.315V665.095H171.12V664.567C171.12 663.715 170.76 663.319 169.872 663.319C168.852 663.319 168.432 663.883 168.432 664.951V668.299ZM175.846 668.419C173.962 668.419 172.918 667.159 172.918 665.323C172.918 663.463 173.95 662.215 175.762 662.215C177.178 662.215 177.982 662.947 178.222 663.955H178.294V660.259H179.59V668.299H178.402V666.583H178.318C178.066 667.771 177.19 668.419 175.846 668.419ZM174.226 665.323C174.226 666.751 174.958 667.231 176.242 667.231C177.514 667.231 178.294 666.631 178.294 665.383V665.287C178.294 664.015 177.55 663.391 176.218 663.391C174.97 663.391 174.226 663.883 174.226 665.323ZM182.084 661.639H180.788V660.259H182.084V661.639ZM182.084 668.299H180.788V662.335H182.084V668.299ZM184.58 668.299H183.284V662.335H184.472V664.183H184.556C184.736 663.175 185.528 662.215 187.04 662.215C188.696 662.215 189.512 663.331 189.512 664.711V668.299H188.216V665.059C188.216 663.943 187.712 663.379 186.476 663.379C185.168 663.379 184.58 664.051 184.58 665.347V668.299ZM193.259 667.759C191.483 667.759 190.427 666.643 190.427 664.987C190.427 663.331 191.531 662.215 193.343 662.215C194.591 662.215 195.527 662.779 195.743 663.823H195.815V662.335H197.003V667.603C197.003 669.607 195.755 670.459 193.799 670.459C192.035 670.459 190.811 669.631 190.811 668.191H192.095C192.095 669.055 192.599 669.379 193.871 669.379C195.227 669.379 195.719 669.007 195.719 667.675V666.211H195.635C195.419 667.111 194.615 667.759 193.259 667.759ZM191.735 664.987C191.735 666.211 192.455 666.643 193.679 666.643C194.999 666.643 195.719 666.091 195.719 665.035V664.867C195.719 663.859 194.975 663.343 193.715 663.343C192.467 663.343 191.735 663.763 191.735 664.987Z" fill="#00002F"/>
<path d="M132.916 639.348C130.396 639.348 128.728 637.716 128.728 635.208C128.728 632.7 130.396 631.068 132.916 631.068C135.46 631.068 137.116 632.7 137.116 635.208C137.116 637.716 135.46 639.348 132.916 639.348ZM132.916 638.1C134.824 638.1 135.748 637.212 135.748 635.208C135.748 633.204 134.824 632.304 132.916 632.304C131.008 632.304 130.096 633.204 130.096 635.208C130.096 637.212 131.008 638.1 132.916 638.1ZM139.826 639.228H138.53V634.344H137.63V633.264H138.542C138.686 631.956 139.682 631.188 141.374 631.188H141.962V632.148H141.17C140.222 632.148 139.73 632.4 139.802 633.264H141.962V634.344H139.826V639.228ZM144.23 639.228H142.946V634.344H142.034V633.264H142.958C143.102 631.956 144.086 631.188 145.778 631.188H146.366V632.148H145.574C144.626 632.148 144.146 632.4 144.206 633.264H146.366V634.344H144.23V639.228ZM148.382 632.568H147.098V631.188H148.382V632.568ZM148.382 639.228H147.098V633.264H148.382V639.228ZM152.605 639.348C150.637 639.348 149.353 638.088 149.353 636.252C149.353 634.392 150.637 633.144 152.605 633.144C154.393 633.144 155.701 634.152 155.701 635.64V635.76H154.417V635.688C154.417 634.764 153.745 634.308 152.581 634.308C151.237 634.308 150.637 634.944 150.637 636.252C150.637 637.536 151.237 638.184 152.581 638.184C153.745 638.184 154.417 637.728 154.417 636.804V636.72H155.701V636.852C155.701 638.34 154.393 639.348 152.605 639.348ZM157.955 632.568H156.659V631.188H157.955V632.568ZM157.955 639.228H156.659V633.264H157.955V639.228ZM160.908 639.348C159.672 639.348 158.892 638.772 158.892 637.788C158.892 636.864 159.636 636.384 160.812 636.252L163.524 635.964V635.616C163.524 634.632 163.092 634.284 161.952 634.284C160.848 634.284 160.308 634.644 160.308 635.52V635.568H159.024V635.52C159.024 634.164 160.152 633.144 162.048 633.144C163.944 633.144 164.796 634.176 164.796 635.604V639.228H163.608V637.74H163.524C163.212 638.748 162.264 639.348 160.908 639.348ZM160.188 637.704C160.188 638.184 160.512 638.412 161.256 638.412C162.612 638.412 163.524 637.908 163.524 636.732L161.184 636.996C160.512 637.08 160.188 637.236 160.188 637.704ZM167.248 639.228H165.952V631.188H167.248V639.228ZM176.751 639.228H170.499V631.188H171.795V638.064H176.751V639.228ZM179.341 639.348C178.105 639.348 177.325 638.772 177.325 637.788C177.325 636.864 178.069 636.384 179.245 636.252L181.957 635.964V635.616C181.957 634.632 181.525 634.284 180.385 634.284C179.281 634.284 178.741 634.644 178.741 635.52V635.568H177.457V635.52C177.457 634.164 178.585 633.144 180.481 633.144C182.377 633.144 183.229 634.176 183.229 635.604V639.228H182.041V637.74H181.957C181.645 638.748 180.697 639.348 179.341 639.348ZM178.621 637.704C178.621 638.184 178.945 638.412 179.689 638.412C181.045 638.412 181.957 637.908 181.957 636.732L179.617 636.996C178.945 637.08 178.621 637.236 178.621 637.704ZM186.87 639.348C185.19 639.348 184.374 638.232 184.374 636.852V633.264H185.658V636.504C185.658 637.62 186.174 638.184 187.434 638.184C188.754 638.184 189.366 637.512 189.366 636.216V633.264H190.65V639.228H189.462V637.38H189.39C189.198 638.388 188.406 639.348 186.87 639.348ZM193.123 639.228H191.827V633.264H193.015V635.112H193.099C193.279 634.104 194.071 633.144 195.583 633.144C197.239 633.144 198.055 634.26 198.055 635.64V639.228H196.759V635.988C196.759 634.872 196.255 634.308 195.019 634.308C193.711 634.308 193.123 634.98 193.123 636.276V639.228ZM202.222 639.348C200.254 639.348 198.97 638.088 198.97 636.252C198.97 634.392 200.254 633.144 202.222 633.144C204.01 633.144 205.318 634.152 205.318 635.64V635.76H204.034V635.688C204.034 634.764 203.362 634.308 202.198 634.308C200.854 634.308 200.254 634.944 200.254 636.252C200.254 637.536 200.854 638.184 202.198 638.184C203.362 638.184 204.034 637.728 204.034 636.804V636.72H205.318V636.852C205.318 638.34 204.01 639.348 202.222 639.348ZM207.573 639.228H206.277V631.188H207.573V635.088H207.645C207.849 634.08 208.581 633.144 210.105 633.144C211.749 633.144 212.553 634.224 212.553 635.676V639.228H211.269V635.988C211.269 634.788 210.729 634.308 209.493 634.308C208.077 634.308 207.573 635.076 207.573 636.336V639.228Z" fill="#00002F"/>
<circle cx="118" cy="693.141" r="6" fill="#FF4E00" fill-opacity="0.2"/>
<circle cx="118" cy="693.141" r="3.6" fill="#FF4E00"/>
<circle cx="118" cy="664.071" r="6" fill="#FF4E00" fill-opacity="0.2"/>
<circle cx="118" cy="664.07" r="3.6" fill="#FF4E00"/>
<circle cx="118" cy="635" r="6" fill="#FF4E00" fill-opacity="0.2"/>
<circle cx="118" cy="634.999" r="3.6" fill="#FF4E00"/>
<path d="M43.3211 707.3C16.0211 707.3 4.06113 695.21 4.06113 677.53V675.45H18.8811V677.27C18.8811 688.71 23.5611 694.04 42.8011 694.04C60.8711 694.04 67.3711 689.88 67.3711 679.61C67.3711 670.77 61.3911 666.74 50.4711 666.74H26.1611V655.04H48.5211C59.0511 655.04 64.5111 651.14 64.5111 643.34C64.5111 634.89 59.3111 630.86 42.4111 630.86C24.6011 630.86 18.8811 636.19 18.8811 647.63V648.54H4.06113V647.37C4.06113 630.34 16.5411 617.6 43.5811 617.6C65.8111 617.6 78.4211 625.79 78.4211 640.61C78.4211 650.49 72.5711 657.51 61.3911 659.33V660.37C74.0011 662.58 81.5411 669.6 81.5411 681.69C81.5411 698.2 67.1111 707.3 43.3211 707.3Z" fill="#EAEAEA"/>
<path d="M39.2729 1208.3C13.7929 1208.3 0.0128906 1198.29 0.0128906 1180.74V1179.31H14.3129V1180.74C14.3129 1191.01 22.1129 1195.56 39.5329 1195.56C55.1329 1195.56 62.2829 1190.88 62.2829 1178.66C62.2829 1166.7 55.3929 1162.15 39.5329 1162.15C27.0529 1162.15 19.7729 1164.23 14.8329 1168.65L13.9229 1168.39V1168.65L0.922891 1167.74L5.60289 1119.9H72.8129V1132.51H17.8229L14.7029 1160.98L15.7429 1161.11C20.1629 1156.3 30.3029 1150.97 44.7329 1150.97C65.0129 1150.97 76.9729 1160.72 76.9729 1178.66C76.9729 1196.73 63.8429 1208.3 39.2729 1208.3Z" fill="#EAEAEA"/>
<path d="M108.784 1194.09C106.264 1194.09 104.596 1192.46 104.596 1189.95C104.596 1187.44 106.264 1185.81 108.784 1185.81C111.328 1185.81 112.984 1187.44 112.984 1189.95C112.984 1192.46 111.328 1194.09 108.784 1194.09ZM108.784 1192.84C110.692 1192.84 111.616 1191.96 111.616 1189.95C111.616 1187.95 110.692 1187.05 108.784 1187.05C106.876 1187.05 105.964 1187.95 105.964 1189.95C105.964 1191.96 106.876 1192.84 108.784 1192.84ZM115.694 1194.09C114.458 1194.09 113.678 1193.52 113.678 1192.53C113.678 1191.61 114.422 1191.13 115.598 1191L118.31 1190.71V1190.36C118.31 1189.38 117.878 1189.03 116.738 1189.03C115.634 1189.03 115.094 1189.39 115.094 1190.26V1190.31H113.81V1190.26C113.81 1188.91 114.938 1187.89 116.834 1187.89C118.73 1187.89 119.582 1188.92 119.582 1190.35V1193.97H118.394V1192.48H118.31C117.998 1193.49 117.05 1194.09 115.694 1194.09ZM114.974 1192.45C114.974 1192.93 115.298 1193.16 116.042 1193.16C117.398 1193.16 118.31 1192.65 118.31 1191.48L115.97 1191.74C115.298 1191.82 114.974 1191.98 114.974 1192.45ZM122.035 1193.97H120.739V1185.93H122.035V1190.37H123.739L125.527 1188.01H127.039L124.795 1190.88L127.027 1193.97H125.503L123.739 1191.54H122.035V1193.97ZM133.639 1194.09C131.143 1194.09 129.487 1192.46 129.487 1189.95C129.487 1187.44 131.143 1185.81 133.639 1185.81C135.907 1185.81 137.491 1187.01 137.491 1188.93V1189.1H136.063V1188.93C136.063 1187.71 135.283 1187.05 133.651 1187.05C131.767 1187.05 130.855 1187.95 130.855 1189.95C130.855 1191.96 131.767 1192.84 133.651 1192.84C135.283 1192.84 136.063 1192.2 136.063 1190.96V1190.8H137.491V1190.96C137.491 1192.89 135.919 1194.09 133.639 1194.09ZM139.742 1193.97H138.446V1185.93H139.742V1193.97ZM143.426 1194.09C141.746 1194.09 140.93 1192.98 140.93 1191.6V1188.01H142.214V1191.25C142.214 1192.36 142.73 1192.93 143.99 1192.93C145.31 1192.93 145.922 1192.26 145.922 1190.96V1188.01H147.206V1193.97H146.018V1192.12H145.946C145.754 1193.13 144.962 1194.09 143.426 1194.09ZM149.571 1193.97H148.383V1185.93H149.679V1189.63H149.751C149.991 1188.62 150.783 1187.89 152.211 1187.89C154.047 1187.89 155.055 1189.14 155.055 1191C155.055 1192.83 154.035 1194.09 152.139 1194.09C150.783 1194.09 149.907 1193.44 149.655 1192.26H149.571V1193.97ZM149.679 1191.06C149.679 1192.3 150.447 1192.9 151.731 1192.9C153.039 1192.9 153.759 1192.42 153.759 1191C153.759 1189.56 153.027 1189.06 151.755 1189.06C150.411 1189.06 149.679 1189.69 149.679 1190.96V1191.06ZM159.3 1193.97H158.004V1185.93H159.3V1193.97ZM161.796 1193.97H160.5V1185.93H164.676C166.5 1185.93 167.628 1186.8 167.628 1188.3C167.628 1189.63 166.752 1190.44 165.24 1190.53V1190.61C165.864 1190.78 166.152 1191.14 166.44 1191.64L167.784 1193.97H166.296L165.012 1191.75C164.652 1191.12 164.28 1190.85 163.272 1190.85H161.796V1193.97ZM161.796 1187.1V1189.86H164.664C165.744 1189.86 166.284 1189.48 166.284 1188.48C166.284 1187.49 165.744 1187.1 164.664 1187.1H161.796ZM174.815 1193.97H168.563V1185.93H169.859V1192.81H174.815V1193.97Z" fill="#00002F"/>
<path d="M108.436 1172.32H106.528L104.404 1164.28H105.844L107.152 1169.37L107.512 1171.08H107.608L108.04 1169.37L109.66 1164.28H111.544L113.272 1169.37L113.728 1171.08H113.824L114.16 1169.37L115.36 1164.28H116.776L114.76 1172.32H112.852L111.232 1167.64L110.644 1165.58H110.536L109.96 1167.64L108.436 1172.32ZM118.835 1172.32H117.539V1166.36H118.727V1167.97H118.811C118.991 1167.01 119.639 1166.24 120.863 1166.24C122.219 1166.24 122.807 1167.21 122.807 1168.34V1169.12H121.523V1168.59C121.523 1167.74 121.163 1167.34 120.275 1167.34C119.255 1167.34 118.835 1167.91 118.835 1168.98V1172.32ZM124.917 1165.66H123.621V1164.28H124.917V1165.66ZM124.917 1172.32H123.621V1166.36H124.917V1172.32ZM130.029 1172.32H128.661C127.377 1172.32 126.585 1171.76 126.585 1170.31V1167.44H125.577V1166.36H126.585V1165.05H127.869V1166.36H130.029V1167.44H127.869V1170.24C127.869 1170.97 128.205 1171.16 128.949 1171.16H130.029V1172.32ZM133.84 1172.44C131.884 1172.44 130.6 1171.34 130.6 1169.35C130.6 1167.49 131.872 1166.24 133.816 1166.24C135.664 1166.24 136.924 1167.26 136.924 1169.07C136.924 1169.29 136.912 1169.46 136.876 1169.64H131.812C131.86 1170.79 132.424 1171.4 133.804 1171.4C135.052 1171.4 135.568 1170.99 135.568 1170.28V1170.19H136.864V1170.3C136.864 1171.57 135.616 1172.44 133.84 1172.44ZM133.792 1167.26C132.472 1167.26 131.896 1167.85 131.824 1168.92H135.7V1168.89C135.7 1167.79 135.064 1167.26 133.792 1167.26ZM139.191 1172.32H137.895V1166.36H139.083V1167.97H139.167C139.347 1167.01 139.995 1166.24 141.219 1166.24C142.575 1166.24 143.163 1167.21 143.163 1168.34V1169.12H141.879V1168.59C141.879 1167.74 141.519 1167.34 140.631 1167.34C139.611 1167.34 139.191 1167.91 139.191 1168.98V1172.32ZM146.797 1172.44C144.877 1172.44 143.785 1171.69 143.785 1170.31V1170.27H145.081V1170.37C145.081 1171.15 145.549 1171.4 146.797 1171.4C147.961 1171.4 148.309 1171.16 148.309 1170.63C148.309 1170.14 148.021 1169.98 147.169 1169.86L145.537 1169.65C144.409 1169.5 143.725 1169.02 143.725 1168.03C143.725 1166.98 144.673 1166.24 146.509 1166.24C148.333 1166.24 149.437 1166.97 149.437 1168.39V1168.42H148.153V1168.35C148.153 1167.64 147.793 1167.27 146.473 1167.27C145.381 1167.27 144.997 1167.51 144.997 1168.08C144.997 1168.54 145.237 1168.71 146.137 1168.83L147.517 1169.02C148.933 1169.2 149.581 1169.68 149.581 1170.67C149.581 1171.78 148.477 1172.44 146.797 1172.44ZM156.299 1172.32H152.639V1164.28H156.299C158.795 1164.28 160.367 1165.82 160.367 1168.3C160.367 1170.79 158.795 1172.32 156.299 1172.32ZM156.299 1165.45H153.923V1171.16H156.299C158.159 1171.16 158.999 1170.37 158.999 1168.3C158.999 1166.24 158.159 1165.45 156.299 1165.45ZM162.172 1172.32H160.732L164.32 1164.28H166.144L169.732 1172.32H168.268L167.344 1170.24H163.096L162.172 1172.32ZM164.704 1166.62L163.612 1169.07H166.828L165.736 1166.62L165.268 1165.48H165.172L164.704 1166.62ZM174.28 1172.44C171.76 1172.44 170.092 1170.81 170.092 1168.3C170.092 1165.8 171.76 1164.16 174.28 1164.16C176.824 1164.16 178.48 1165.8 178.48 1168.3C178.48 1170.81 176.824 1172.44 174.28 1172.44ZM174.28 1171.2C176.188 1171.2 177.112 1170.31 177.112 1168.3C177.112 1166.3 176.188 1165.4 174.28 1165.4C172.372 1165.4 171.46 1166.3 171.46 1168.3C171.46 1170.31 172.372 1171.2 174.28 1171.2Z" fill="#00002F"/>
<path d="M106.132 1150.68H104.836V1142.64H106.228L109.828 1147.34L110.872 1148.84H110.968L110.908 1147.39V1142.64H112.204V1150.68H110.812L107.188 1145.98L106.18 1144.57H106.084L106.132 1145.96V1150.68ZM116.403 1150.8C114.447 1150.8 113.163 1149.69 113.163 1147.7C113.163 1145.84 114.435 1144.59 116.379 1144.59C118.227 1144.59 119.487 1145.61 119.487 1147.42C119.487 1147.64 119.475 1147.81 119.439 1147.99H114.375C114.423 1149.14 114.987 1149.75 116.367 1149.75C117.615 1149.75 118.131 1149.34 118.131 1148.64V1148.54H119.427V1148.65C119.427 1149.92 118.179 1150.8 116.403 1150.8ZM116.355 1145.61C115.035 1145.61 114.459 1146.2 114.387 1147.27H118.263V1147.24C118.263 1146.14 117.627 1145.61 116.355 1145.61ZM123.277 1150.8C121.357 1150.8 120.265 1150.04 120.265 1148.66V1148.62H121.561V1148.72C121.561 1149.5 122.029 1149.75 123.277 1149.75C124.441 1149.75 124.789 1149.51 124.789 1148.98C124.789 1148.49 124.501 1148.34 123.649 1148.22L122.017 1148C120.889 1147.86 120.205 1147.38 120.205 1146.38C120.205 1145.34 121.153 1144.59 122.989 1144.59C124.813 1144.59 125.917 1145.32 125.917 1146.74V1146.78H124.633V1146.7C124.633 1146 124.273 1145.62 122.953 1145.62C121.861 1145.62 121.477 1145.86 121.477 1146.43C121.477 1146.9 121.717 1147.06 122.617 1147.18L123.997 1147.38C125.413 1147.56 126.061 1148.04 126.061 1149.02C126.061 1150.14 124.957 1150.8 123.277 1150.8ZM130.908 1150.68H129.54C128.256 1150.68 127.464 1150.11 127.464 1148.66V1145.79H126.456V1144.71H127.464V1143.4H128.748V1144.71H130.908V1145.79H128.748V1148.59C128.748 1149.32 129.084 1149.51 129.828 1149.51H130.908V1150.68ZM136.626 1150.68H135.018L133.23 1144.71H134.574L135.57 1148.1L135.846 1149.63H135.942L136.386 1147.98L137.634 1144.71H139.29L140.55 1147.98L140.994 1149.63H141.09L141.366 1148.1L142.362 1144.71H143.682L141.87 1150.68H140.262L138.954 1147.24L138.498 1145.78H138.402L137.946 1147.24L136.626 1150.68ZM145.636 1150.68H144.34V1144.71H145.528V1146.32H145.612C145.792 1145.36 146.44 1144.59 147.664 1144.59C149.02 1144.59 149.608 1145.56 149.608 1146.69V1147.47H148.324V1146.94C148.324 1146.09 147.964 1145.7 147.076 1145.7C146.056 1145.7 145.636 1146.26 145.636 1147.33V1150.68ZM151.718 1144.02H150.422V1142.64H151.718V1144.02ZM151.718 1150.68H150.422V1144.71H151.718V1150.68ZM156.83 1150.68H155.462C154.178 1150.68 153.386 1150.11 153.386 1148.66V1145.79H152.378V1144.71H153.386V1143.4H154.67V1144.71H156.83V1145.79H154.67V1148.59C154.67 1149.32 155.006 1149.51 155.75 1149.51H156.83V1150.68ZM160.641 1150.8C158.685 1150.8 157.401 1149.69 157.401 1147.7C157.401 1145.84 158.673 1144.59 160.617 1144.59C162.465 1144.59 163.725 1145.61 163.725 1147.42C163.725 1147.64 163.713 1147.81 163.677 1147.99H158.613C158.661 1149.14 159.225 1149.75 160.605 1149.75C161.853 1149.75 162.369 1149.34 162.369 1148.64V1148.54H163.665V1148.65C163.665 1149.92 162.417 1150.8 160.641 1150.8ZM160.593 1145.61C159.273 1145.61 158.697 1146.2 158.625 1147.27H162.501V1147.24C162.501 1146.14 161.865 1145.61 160.593 1145.61ZM165.992 1150.68H164.696V1144.71H165.884V1146.32H165.968C166.148 1145.36 166.796 1144.59 168.02 1144.59C169.376 1144.59 169.964 1145.56 169.964 1146.69V1147.47H168.68V1146.94C168.68 1146.09 168.32 1145.7 167.432 1145.7C166.412 1145.7 165.992 1146.26 165.992 1147.33V1150.68ZM173.598 1150.8C171.678 1150.8 170.586 1150.04 170.586 1148.66V1148.62H171.882V1148.72C171.882 1149.5 172.35 1149.75 173.598 1149.75C174.762 1149.75 175.11 1149.51 175.11 1148.98C175.11 1148.49 174.822 1148.34 173.97 1148.22L172.338 1148C171.21 1147.86 170.526 1147.38 170.526 1146.38C170.526 1145.34 171.474 1144.59 173.31 1144.59C175.134 1144.59 176.238 1145.32 176.238 1146.74V1146.78H174.954V1146.7C174.954 1146 174.594 1145.62 173.274 1145.62C172.182 1145.62 171.798 1145.86 171.798 1146.43C171.798 1146.9 172.038 1147.06 172.938 1147.18L174.318 1147.38C175.734 1147.56 176.382 1148.04 176.382 1149.02C176.382 1150.14 175.278 1150.8 173.598 1150.8ZM182.379 1150.8C180.411 1150.8 179.127 1149.54 179.127 1147.7C179.127 1145.84 180.411 1144.59 182.379 1144.59C184.167 1144.59 185.475 1145.6 185.475 1147.09V1147.21H184.191V1147.14C184.191 1146.21 183.519 1145.76 182.355 1145.76C181.011 1145.76 180.411 1146.39 180.411 1147.7C180.411 1148.98 181.011 1149.63 182.355 1149.63C183.519 1149.63 184.191 1149.18 184.191 1148.25V1148.17H185.475V1148.3C185.475 1149.79 184.167 1150.8 182.379 1150.8ZM189.482 1150.8C187.502 1150.8 186.17 1149.54 186.17 1147.7C186.17 1145.84 187.502 1144.59 189.482 1144.59C191.474 1144.59 192.806 1145.84 192.806 1147.7C192.806 1149.54 191.474 1150.8 189.482 1150.8ZM189.482 1149.64C190.934 1149.64 191.534 1148.96 191.534 1147.7C191.534 1146.43 190.934 1145.73 189.482 1145.73C188.042 1145.73 187.442 1146.43 187.442 1147.7C187.442 1148.96 188.042 1149.64 189.482 1149.64ZM195.042 1150.68H193.746V1142.64H195.042V1150.68ZM197.538 1150.68H196.242V1142.64H197.538V1150.68ZM201.739 1150.8C199.783 1150.8 198.499 1149.69 198.499 1147.7C198.499 1145.84 199.771 1144.59 201.715 1144.59C203.563 1144.59 204.823 1145.61 204.823 1147.42C204.823 1147.64 204.811 1147.81 204.775 1147.99H199.711C199.759 1149.14 200.323 1149.75 201.703 1149.75C202.951 1149.75 203.467 1149.34 203.467 1148.64V1148.54H204.763V1148.65C204.763 1149.92 203.515 1150.8 201.739 1150.8ZM201.691 1145.61C200.371 1145.61 199.795 1146.2 199.723 1147.27H203.599V1147.24C203.599 1146.14 202.963 1145.61 201.691 1145.61ZM208.805 1150.8C206.837 1150.8 205.553 1149.54 205.553 1147.7C205.553 1145.84 206.837 1144.59 208.805 1144.59C210.593 1144.59 211.901 1145.6 211.901 1147.09V1147.21H210.617V1147.14C210.617 1146.21 209.945 1145.76 208.781 1145.76C207.437 1145.76 206.837 1146.39 206.837 1147.7C206.837 1148.98 207.437 1149.63 208.781 1149.63C209.945 1149.63 210.617 1149.18 210.617 1148.25V1148.17H211.901V1148.3C211.901 1149.79 210.593 1150.8 208.805 1150.8ZM216.772 1150.68H215.404C214.12 1150.68 213.328 1150.11 213.328 1148.66V1145.79H212.32V1144.71H213.328V1143.4H214.612V1144.71H216.772V1145.79H214.612V1148.59C214.612 1149.32 214.948 1149.51 215.692 1149.51H216.772V1150.68ZM218.878 1144.02H217.582V1142.64H218.878V1144.02ZM218.878 1150.68H217.582V1144.71H218.878V1150.68ZM223.126 1150.8C221.146 1150.8 219.814 1149.54 219.814 1147.7C219.814 1145.84 221.146 1144.59 223.126 1144.59C225.118 1144.59 226.45 1145.84 226.45 1147.7C226.45 1149.54 225.118 1150.8 223.126 1150.8ZM223.126 1149.64C224.578 1149.64 225.178 1148.96 225.178 1147.7C225.178 1146.43 224.578 1145.73 223.126 1145.73C221.686 1145.73 221.086 1146.43 221.086 1147.7C221.086 1148.96 221.686 1149.64 223.126 1149.64ZM228.687 1150.68H227.391V1144.71H228.579V1146.56H228.663C228.843 1145.55 229.635 1144.59 231.147 1144.59C232.803 1144.59 233.619 1145.71 233.619 1147.09V1150.68H232.323V1147.44C232.323 1146.32 231.819 1145.76 230.583 1145.76C229.275 1145.76 228.687 1146.43 228.687 1147.72V1150.68Z" fill="#00002F"/>
<circle cx="94" cy="1189.3" r="6" fill="#FF4E00" fill-opacity="0.2"/>
<circle cx="93.9999" cy="1189.3" r="3.6" fill="#FF4E00"/>
<circle cx="94" cy="1167.65" r="6" fill="#FF4E00" fill-opacity="0.2"/>
<circle cx="93.9999" cy="1167.65" r="3.6" fill="#FF4E00"/>
<circle cx="94" cy="1146" r="6" fill="#FF4E00" fill-opacity="0.2"/>
<circle cx="93.9999" cy="1146" r="3.6" fill="#FF4E00"/>
<path d="M126 1274.5C200 1281 384.819 1178.6 177.649 1050.21C-16.2728 930.039 85.9697 816.651 190.468 793.041C294.445 769.548 407.503 618.195 182.867 542.097C-14.0906 475.377 7.21953 296.695 179.883 237.141C332.132 184.628 310.082 58.3408 179.883 2.00072" stroke="#00002F" stroke-width="3.23935" stroke-linecap="round"/>
<circle cx="284.651" cy="122.651" r="19.4361" transform="rotate(-59.1673 284.651 122.651)" fill="#FF4E00" fill-opacity="0.2"/>
<circle cx="284.652" cy="122.651" r="11.6617" transform="rotate(-59.1673 284.652 122.651)" fill="#FF4E00"/>
<circle cx="68.6508" cy="909.651" r="19.4361" transform="rotate(-59.1673 68.6508 909.651)" fill="#FF4E00" fill-opacity="0.2"/>
<circle cx="68.6506" cy="909.651" r="11.6617" transform="rotate(-59.1673 68.6506 909.651)" fill="#FF4E00"/>
<circle cx="311.651" cy="666.651" r="19.4361" transform="rotate(-59.1673 311.651 666.651)" fill="#FF4E00" fill-opacity="0.2"/>
<circle cx="311.649" cy="666.65" r="11.6617" transform="rotate(-59.1673 311.649 666.65)" fill="#FF4E00"/>
<circle cx="269.651" cy="1174.65" r="19.4361" transform="rotate(-59.1673 269.651 1174.65)" fill="#FF4E00" fill-opacity="0.2"/>
<circle cx="269.651" cy="1174.65" r="11.6617" transform="rotate(-59.1673 269.651 1174.65)" fill="#FF4E00"/>
<path d="M97.8963 137.663H96.6003V129.623H100.536C102.324 129.623 103.548 130.643 103.548 132.431C103.548 134.207 102.324 135.239 100.536 135.239H97.8963V137.663ZM100.416 130.787H97.8963V134.075H100.416C101.628 134.075 102.252 133.619 102.252 132.431C102.252 131.243 101.628 130.787 100.416 130.787ZM105.619 137.663H104.323V131.699H105.511V133.307H105.595C105.775 132.347 106.423 131.579 107.647 131.579C109.003 131.579 109.591 132.551 109.591 133.679V134.459H108.307V133.931C108.307 133.079 107.947 132.683 107.059 132.683C106.039 132.683 105.619 133.247 105.619 134.315V137.663ZM113.453 137.783C111.473 137.783 110.141 136.523 110.141 134.687C110.141 132.827 111.473 131.579 113.453 131.579C115.445 131.579 116.777 132.827 116.777 134.687C116.777 136.523 115.445 137.783 113.453 137.783ZM113.453 136.631C114.905 136.631 115.505 135.947 115.505 134.687C115.505 133.415 114.905 132.719 113.453 132.719C112.013 132.719 111.413 133.415 111.413 134.687C111.413 135.947 112.013 136.631 113.453 136.631ZM121.629 137.663H120.261C118.977 137.663 118.185 137.099 118.185 135.647V132.779H117.177V131.699H118.185V130.391H119.469V131.699H121.629V132.779H119.469V135.575C119.469 136.307 119.805 136.499 120.549 136.499H121.629V137.663ZM125.488 137.783C123.508 137.783 122.176 136.523 122.176 134.687C122.176 132.827 123.508 131.579 125.488 131.579C127.48 131.579 128.812 132.827 128.812 134.687C128.812 136.523 127.48 137.783 125.488 137.783ZM125.488 136.631C126.94 136.631 127.54 135.947 127.54 134.687C127.54 133.415 126.94 132.719 125.488 132.719C124.048 132.719 123.448 133.415 123.448 134.687C123.448 135.947 124.048 136.631 125.488 136.631ZM133.665 137.663H132.297C131.013 137.663 130.221 137.099 130.221 135.647V132.779H129.213V131.699H130.221V130.391H131.505V131.699H133.665V132.779H131.505V135.575C131.505 136.307 131.841 136.499 132.585 136.499H133.665V137.663ZM135.435 139.703H134.583V138.527H135.747C136.275 138.527 136.491 138.383 136.671 137.975L136.815 137.663L133.875 131.699H135.327L136.851 134.867L137.439 136.295H137.535L138.099 134.855L139.503 131.699H140.931L137.823 138.311C137.331 139.379 136.659 139.703 135.435 139.703ZM142.861 139.703H141.565V131.699H142.753V133.355H142.861C143.101 132.251 143.941 131.579 145.345 131.579C147.193 131.579 148.237 132.839 148.237 134.687C148.237 136.535 147.217 137.783 145.357 137.783C144.013 137.783 143.149 137.075 142.909 135.983H142.861V139.703ZM142.861 134.783C142.861 136.007 143.641 136.607 144.913 136.607C146.197 136.607 146.941 136.115 146.941 134.687C146.941 133.247 146.185 132.767 144.937 132.767C143.605 132.767 142.861 133.391 142.861 134.675V134.783ZM152.135 137.783C150.179 137.783 148.895 136.679 148.895 134.687C148.895 132.827 150.167 131.579 152.111 131.579C153.959 131.579 155.219 132.599 155.219 134.411C155.219 134.627 155.207 134.795 155.171 134.975H150.107C150.155 136.127 150.719 136.739 152.099 136.739C153.347 136.739 153.863 136.331 153.863 135.623V135.527H155.159V135.635C155.159 136.907 153.911 137.783 152.135 137.783ZM152.087 132.599C150.767 132.599 150.191 133.187 150.119 134.255H153.995V134.231C153.995 133.127 153.359 132.599 152.087 132.599Z" fill="#00002F"/>
<path d="M103.032 164.273H96.6003V156.233H103.032V157.397H97.8963V159.653H102.852V160.805H97.8963V163.109H103.032V164.273ZM106.67 164.393C104.786 164.393 103.742 163.133 103.742 161.297C103.742 159.437 104.774 158.189 106.586 158.189C108.002 158.189 108.806 158.921 109.046 159.929H109.118V156.233H110.414V164.273H109.226V162.557H109.142C108.89 163.745 108.014 164.393 106.67 164.393ZM105.05 161.297C105.05 162.725 105.782 163.205 107.066 163.205C108.338 163.205 109.118 162.605 109.118 161.357V161.261C109.118 159.989 108.374 159.365 107.042 159.365C105.794 159.365 105.05 159.857 105.05 161.297ZM114.096 164.393C112.416 164.393 111.6 163.277 111.6 161.897V158.309H112.884V161.549C112.884 162.665 113.4 163.229 114.66 163.229C115.98 163.229 116.592 162.557 116.592 161.261V158.309H117.876V164.273H116.688V162.425H116.616C116.424 163.433 115.632 164.393 114.096 164.393ZM122.065 164.393C120.097 164.393 118.813 163.133 118.813 161.297C118.813 159.437 120.097 158.189 122.065 158.189C123.853 158.189 125.161 159.197 125.161 160.685V160.805H123.877V160.733C123.877 159.809 123.205 159.353 122.041 159.353C120.697 159.353 120.097 159.989 120.097 161.297C120.097 162.581 120.697 163.229 122.041 163.229C123.205 163.229 123.877 162.773 123.877 161.849V161.765H125.161V161.897C125.161 163.385 123.853 164.393 122.065 164.393ZM127.872 164.393C126.636 164.393 125.856 163.817 125.856 162.833C125.856 161.909 126.6 161.429 127.776 161.297L130.488 161.009V160.661C130.488 159.677 130.056 159.329 128.916 159.329C127.812 159.329 127.272 159.689 127.272 160.565V160.613H125.988V160.565C125.988 159.209 127.116 158.189 129.012 158.189C130.908 158.189 131.76 159.221 131.76 160.649V164.273H130.572V162.785H130.488C130.176 163.793 129.228 164.393 127.872 164.393ZM127.152 162.749C127.152 163.229 127.476 163.457 128.22 163.457C129.576 163.457 130.488 162.953 130.488 161.777L128.148 162.041C127.476 162.125 127.152 162.281 127.152 162.749ZM136.829 164.273H135.461C134.177 164.273 133.385 163.709 133.385 162.257V159.389H132.377V158.309H133.385V157.001H134.669V158.309H136.829V159.389H134.669V162.185C134.669 162.917 135.005 163.109 135.749 163.109H136.829V164.273ZM138.935 157.613H137.639V156.233H138.935V157.613ZM138.935 164.273H137.639V158.309H138.935V164.273ZM143.183 164.393C141.203 164.393 139.871 163.133 139.871 161.297C139.871 159.437 141.203 158.189 143.183 158.189C145.175 158.189 146.507 159.437 146.507 161.297C146.507 163.133 145.175 164.393 143.183 164.393ZM143.183 163.241C144.635 163.241 145.235 162.557 145.235 161.297C145.235 160.025 144.635 159.329 143.183 159.329C141.743 159.329 141.143 160.025 141.143 161.297C141.143 162.557 141.743 163.241 143.183 163.241ZM148.744 164.273H147.448V158.309H148.636V160.157H148.72C148.9 159.149 149.692 158.189 151.204 158.189C152.86 158.189 153.676 159.305 153.676 160.685V164.273H152.38V161.033C152.38 159.917 151.876 159.353 150.64 159.353C149.332 159.353 148.744 160.025 148.744 161.321V164.273Z" fill="#00002F"/>
<path d="M97.8963 111.053H96.6003V103.013H97.8963V111.053ZM101.724 111.173C99.8404 111.173 98.7964 109.913 98.7964 108.077C98.7964 106.217 99.8284 104.969 101.64 104.969C103.056 104.969 103.86 105.701 104.1 106.709H104.172V103.013H105.468V111.053H104.28V109.337H104.196C103.944 110.525 103.068 111.173 101.724 111.173ZM100.104 108.077C100.104 109.505 100.836 109.985 102.12 109.985C103.392 109.985 104.172 109.385 104.172 108.137V108.041C104.172 106.769 103.428 106.145 102.096 106.145C100.848 106.145 100.104 106.637 100.104 108.077ZM109.667 111.173C107.711 111.173 106.427 110.069 106.427 108.077C106.427 106.217 107.699 104.969 109.643 104.969C111.491 104.969 112.751 105.989 112.751 107.801C112.751 108.017 112.739 108.185 112.703 108.365H107.639C107.687 109.517 108.251 110.129 109.631 110.129C110.879 110.129 111.395 109.721 111.395 109.013V108.917H112.691V109.025C112.691 110.297 111.443 111.173 109.667 111.173ZM109.619 105.989C108.299 105.989 107.723 106.577 107.651 107.645H111.527V107.621C111.527 106.517 110.891 105.989 109.619 105.989ZM115.473 111.173C114.237 111.173 113.457 110.597 113.457 109.613C113.457 108.689 114.201 108.209 115.377 108.077L118.089 107.789V107.441C118.089 106.457 117.657 106.109 116.517 106.109C115.413 106.109 114.873 106.469 114.873 107.345V107.393H113.589V107.345C113.589 105.989 114.717 104.969 116.613 104.969C118.509 104.969 119.361 106.001 119.361 107.429V111.053H118.173V109.565H118.089C117.777 110.573 116.829 111.173 115.473 111.173ZM114.753 109.529C114.753 110.009 115.077 110.237 115.821 110.237C117.177 110.237 118.089 109.733 118.089 108.557L115.749 108.821C115.077 108.905 114.753 109.061 114.753 109.529ZM124.43 111.053H123.062C121.778 111.053 120.986 110.489 120.986 109.037V106.169H119.978V105.089H120.986V103.781H122.27V105.089H124.43V106.169H122.27V108.965C122.27 109.697 122.606 109.889 123.35 109.889H124.43V111.053ZM126.537 104.393H125.241V103.013H126.537V104.393ZM126.537 111.053H125.241V105.089H126.537V111.053ZM130.785 111.173C128.805 111.173 127.473 109.913 127.473 108.077C127.473 106.217 128.805 104.969 130.785 104.969C132.777 104.969 134.109 106.217 134.109 108.077C134.109 109.913 132.777 111.173 130.785 111.173ZM130.785 110.021C132.237 110.021 132.837 109.337 132.837 108.077C132.837 106.805 132.237 106.109 130.785 106.109C129.345 106.109 128.745 106.805 128.745 108.077C128.745 109.337 129.345 110.021 130.785 110.021ZM136.346 111.053H135.05V105.089H136.238V106.937H136.322C136.502 105.929 137.294 104.969 138.806 104.969C140.462 104.969 141.278 106.085 141.278 107.465V111.053H139.982V107.813C139.982 106.697 139.478 106.133 138.242 106.133C136.934 106.133 136.346 106.805 136.346 108.101V111.053Z" fill="#00002F"/>
<path d="M97.8963 84.4429H96.6003V76.4029H98.3643L100.68 81.0589L101.412 82.7269H101.508L102.216 81.0589L104.508 76.4029H106.272V84.4429H104.976V79.5109L105.024 78.3469H104.928L104.436 79.5109L102.216 83.9629H100.656L98.4363 79.5109L97.9443 78.3469H97.8483L97.8963 79.5109V84.4429ZM109.227 84.5629C107.991 84.5629 107.211 83.9869 107.211 83.0029C107.211 82.0789 107.955 81.5989 109.131 81.4669L111.843 81.1789V80.8309C111.843 79.8469 111.411 79.4989 110.271 79.4989C109.167 79.4989 108.627 79.8589 108.627 80.7349V80.7829H107.343V80.7349C107.343 79.3789 108.471 78.3589 110.367 78.3589C112.263 78.3589 113.115 79.3909 113.115 80.8189V84.4429H111.927V82.9549H111.843C111.531 83.9629 110.583 84.5629 109.227 84.5629ZM108.507 82.9189C108.507 83.3989 108.831 83.6269 109.575 83.6269C110.931 83.6269 111.843 83.1229 111.843 81.9469L109.503 82.2109C108.831 82.2949 108.507 82.4509 108.507 82.9189ZM115.568 84.4429H114.272V78.4789H115.46V80.0869H115.544C115.724 79.1269 116.372 78.3589 117.596 78.3589C118.952 78.3589 119.54 79.3309 119.54 80.4589V81.2389H118.256V80.7109C118.256 79.8589 117.896 79.4629 117.008 79.4629C115.988 79.4629 115.568 80.0269 115.568 81.0949V84.4429ZM121.65 84.4429H120.354V76.4029H121.65V80.8429H123.354L125.142 78.4789H126.654L124.41 81.3469L126.642 84.4429H125.118L123.354 82.0069H121.65V84.4429ZM130.292 84.5629C128.336 84.5629 127.052 83.4589 127.052 81.4669C127.052 79.6069 128.324 78.3589 130.268 78.3589C132.116 78.3589 133.376 79.3789 133.376 81.1909C133.376 81.4069 133.364 81.5749 133.328 81.7549H128.264C128.312 82.9069 128.876 83.5189 130.256 83.5189C131.504 83.5189 132.02 83.1109 132.02 82.4029V82.3069H133.316V82.4149C133.316 83.6869 132.068 84.5629 130.292 84.5629ZM130.244 79.3789C128.924 79.3789 128.348 79.9669 128.276 81.0349H132.152V81.0109C132.152 79.9069 131.516 79.3789 130.244 79.3789ZM138.258 84.4429H136.89C135.606 84.4429 134.814 83.8789 134.814 82.4269V79.5589H133.806V78.4789H134.814V77.1709H136.098V78.4789H138.258V79.5589H136.098V82.3549C136.098 83.0869 136.434 83.2789 137.178 83.2789H138.258V84.4429ZM142.416 84.4429H141.12V76.4029H145.296C147.12 76.4029 148.248 77.2669 148.248 78.7669C148.248 80.0989 147.372 80.9149 145.86 80.9989V81.0829C146.484 81.2509 146.772 81.6109 147.06 82.1149L148.404 84.4429H146.916L145.632 82.2229C145.272 81.5869 144.9 81.3229 143.892 81.3229H142.416V84.4429ZM142.416 77.5669V80.3269H145.284C146.364 80.3269 146.904 79.9549 146.904 78.9469C146.904 77.9629 146.364 77.5669 145.284 77.5669H142.416ZM152.182 84.5629C150.226 84.5629 148.942 83.4589 148.942 81.4669C148.942 79.6069 150.214 78.3589 152.158 78.3589C154.006 78.3589 155.266 79.3789 155.266 81.1909C155.266 81.4069 155.254 81.5749 155.218 81.7549H150.154C150.202 82.9069 150.766 83.5189 152.146 83.5189C153.394 83.5189 153.91 83.1109 153.91 82.4029V82.3069H155.206V82.4149C155.206 83.6869 153.958 84.5629 152.182 84.5629ZM152.134 79.3789C150.814 79.3789 150.238 79.9669 150.166 81.0349H154.042V81.0109C154.042 79.9069 153.406 79.3789 152.134 79.3789ZM159.057 84.5629C157.137 84.5629 156.045 83.8069 156.045 82.4269V82.3909H157.341V82.4869C157.341 83.2669 157.809 83.5189 159.057 83.5189C160.221 83.5189 160.569 83.2789 160.569 82.7509C160.569 82.2589 160.281 82.1029 159.429 81.9829L157.797 81.7669C156.669 81.6229 155.985 81.1429 155.985 80.1469C155.985 79.1029 156.933 78.3589 158.769 78.3589C160.593 78.3589 161.697 79.0909 161.697 80.5069V80.5429H160.413V80.4709C160.413 79.7629 160.053 79.3909 158.733 79.3909C157.641 79.3909 157.257 79.6309 157.257 80.1949C157.257 80.6629 157.497 80.8309 158.397 80.9509L159.777 81.1429C161.193 81.3229 161.841 81.8029 161.841 82.7869C161.841 83.9029 160.737 84.5629 159.057 84.5629ZM165.776 84.5629C163.82 84.5629 162.536 83.4589 162.536 81.4669C162.536 79.6069 163.808 78.3589 165.752 78.3589C167.6 78.3589 168.86 79.3789 168.86 81.1909C168.86 81.4069 168.848 81.5749 168.812 81.7549H163.748C163.796 82.9069 164.36 83.5189 165.74 83.5189C166.988 83.5189 167.504 83.1109 167.504 82.4029V82.3069H168.8V82.4149C168.8 83.6869 167.552 84.5629 165.776 84.5629ZM165.728 79.3789C164.408 79.3789 163.832 79.9669 163.76 81.0349H167.636V81.0109C167.636 79.9069 167 79.3789 165.728 79.3789ZM171.583 84.5629C170.347 84.5629 169.567 83.9869 169.567 83.0029C169.567 82.0789 170.311 81.5989 171.487 81.4669L174.199 81.1789V80.8309C174.199 79.8469 173.767 79.4989 172.627 79.4989C171.523 79.4989 170.983 79.8589 170.983 80.7349V80.7829H169.699V80.7349C169.699 79.3789 170.827 78.3589 172.723 78.3589C174.619 78.3589 175.471 79.3909 175.471 80.8189V84.4429H174.283V82.9549H174.199C173.887 83.9629 172.939 84.5629 171.583 84.5629ZM170.863 82.9189C170.863 83.3989 171.187 83.6269 171.931 83.6269C173.287 83.6269 174.199 83.1229 174.199 81.9469L171.859 82.2109C171.187 82.2949 170.863 82.4509 170.863 82.9189ZM177.924 84.4429H176.628V78.4789H177.816V80.0869H177.9C178.08 79.1269 178.728 78.3589 179.952 78.3589C181.308 78.3589 181.896 79.3309 181.896 80.4589V81.2389H180.612V80.7109C180.612 79.8589 180.252 79.4629 179.364 79.4629C178.344 79.4629 177.924 80.0269 177.924 81.0949V84.4429ZM185.722 84.5629C183.754 84.5629 182.47 83.3029 182.47 81.4669C182.47 79.6069 183.754 78.3589 185.722 78.3589C187.51 78.3589 188.818 79.3669 188.818 80.8549V80.9749H187.534V80.9029C187.534 79.9789 186.862 79.5229 185.698 79.5229C184.354 79.5229 183.754 80.1589 183.754 81.4669C183.754 82.7509 184.354 83.3989 185.698 83.3989C186.862 83.3989 187.534 82.9429 187.534 82.0189V81.9349H188.818V82.0669C188.818 83.5549 187.51 84.5629 185.722 84.5629ZM191.072 84.4429H189.776V76.4029H191.072V80.3029H191.144C191.348 79.2949 192.08 78.3589 193.604 78.3589C195.248 78.3589 196.052 79.4389 196.052 80.8909V84.4429H194.768V81.2029C194.768 80.0029 194.228 79.5229 192.992 79.5229C191.576 79.5229 191.072 80.2909 191.072 81.5509V84.4429Z" fill="#00002F"/>
<circle cx="85.4779" cy="133.707" r="6.2612" fill="#FF4E00" fill-opacity="0.2"/>
<circle cx="85.4778" cy="133.706" r="3.75672" fill="#FF4E00"/>
<circle cx="85.4779" cy="160.317" r="6.2612" fill="#FF4E00" fill-opacity="0.2"/>
<circle cx="85.4778" cy="160.316" r="3.75672" fill="#FF4E00"/>
<circle cx="85.4779" cy="107.097" r="6.2612" fill="#FF4E00" fill-opacity="0.2"/>
<circle cx="85.4778" cy="107.096" r="3.75672" fill="#FF4E00"/>
<circle cx="85.4779" cy="80.4868" r="6.2612" fill="#FF4E00" fill-opacity="0.2"/>
<circle cx="85.4778" cy="80.4862" r="3.75672" fill="#FF4E00"/>
<path d="M50.66 164H36.62V97.7H15.3V87.69H19.46C29.08 87.69 34.54 85.22 38.31 76.9H50.66V164Z" fill="#EAEAEA"/>
<path d="M162.665 160.985L164.593 163.38C164.931 163.799 165.579 163.767 165.873 163.316L169.868 157.186" stroke="#569B00" stroke-width="0.791443" stroke-linecap="round"/>
<path d="M162.665 134.375L164.593 136.77C164.931 137.189 165.579 137.157 165.873 136.706L169.868 130.576" stroke="#569B00" stroke-width="0.791443" stroke-linecap="round"/>
<path d="M162.665 107.765L164.593 110.16C164.931 110.579 165.579 110.547 165.873 110.096L169.868 103.966" stroke="#569B00" stroke-width="0.791443" stroke-linecap="round"/>
<path d="M201.798 81.1549L203.726 83.55C204.063 83.9692 204.711 83.9367 205.005 83.4859L209 77.356" stroke="#569B00" stroke-width="0.791443" stroke-linecap="round"/>
<path d="M210.965 941.33C208.601 941.33 207.029 939.698 207.029 937.19C207.029 934.682 208.721 933.05 211.289 933.05C213.569 933.05 215.153 934.202 215.153 936.062V936.158H213.725V936.062C213.725 934.91 212.921 934.286 211.253 934.286C209.321 934.286 208.397 935.186 208.397 937.19C208.397 939.194 209.309 940.082 211.193 940.082C213.113 940.082 213.869 939.554 213.869 938.198V938.09H210.893V937.106H215.153V941.21H213.977V939.47H213.893C213.557 940.646 212.537 941.33 210.965 941.33ZM219.246 941.33C217.29 941.33 216.006 940.226 216.006 938.234C216.006 936.374 217.278 935.126 219.222 935.126C221.07 935.126 222.33 936.146 222.33 937.958C222.33 938.174 222.318 938.342 222.282 938.522H217.218C217.266 939.674 217.83 940.286 219.21 940.286C220.458 940.286 220.974 939.878 220.974 939.17V939.074H222.27V939.182C222.27 940.454 221.022 941.33 219.246 941.33ZM219.198 936.146C217.878 936.146 217.302 936.734 217.23 937.802H221.106V937.778C221.106 936.674 220.47 936.146 219.198 936.146ZM227.212 941.21H225.844C224.56 941.21 223.768 940.646 223.768 939.194V936.326H222.76V935.246H223.768V933.938H225.052V935.246H227.212V936.326H225.052V939.122C225.052 939.854 225.388 940.046 226.132 940.046H227.212V941.21ZM232.558 941.33C230.878 941.33 230.062 940.214 230.062 938.834V935.246H231.346V938.486C231.346 939.602 231.862 940.166 233.122 940.166C234.442 940.166 235.054 939.494 235.054 938.198V935.246H236.338V941.21H235.15V939.362H235.078C234.886 940.37 234.094 941.33 232.558 941.33ZM238.811 943.25H237.515V935.246H238.703V936.902H238.811C239.051 935.798 239.891 935.126 241.295 935.126C243.143 935.126 244.187 936.386 244.187 938.234C244.187 940.082 243.167 941.33 241.307 941.33C239.963 941.33 239.099 940.622 238.859 939.53H238.811V943.25ZM238.811 938.33C238.811 939.554 239.591 940.154 240.863 940.154C242.147 940.154 242.891 939.662 242.891 938.234C242.891 936.794 242.135 936.314 240.887 936.314C239.555 936.314 238.811 936.938 238.811 938.222V938.33ZM247.714 941.33C245.83 941.33 244.786 940.07 244.786 938.234C244.786 936.374 245.818 935.126 247.63 935.126C249.046 935.126 249.85 935.858 250.09 936.866H250.162V933.17H251.458V941.21H250.27V939.494H250.186C249.934 940.682 249.058 941.33 247.714 941.33ZM246.094 938.234C246.094 939.662 246.826 940.142 248.11 940.142C249.382 940.142 250.162 939.542 250.162 938.294V938.198C250.162 936.926 249.418 936.302 248.086 936.302C246.838 936.302 246.094 936.794 246.094 938.234ZM254.408 941.33C253.172 941.33 252.392 940.754 252.392 939.77C252.392 938.846 253.136 938.366 254.312 938.234L257.024 937.946V937.598C257.024 936.614 256.592 936.266 255.452 936.266C254.348 936.266 253.808 936.626 253.808 937.502V937.55H252.524V937.502C252.524 936.146 253.652 935.126 255.548 935.126C257.444 935.126 258.296 936.158 258.296 937.586V941.21H257.108V939.722H257.024C256.712 940.73 255.764 941.33 254.408 941.33ZM253.688 939.686C253.688 940.166 254.012 940.394 254.756 940.394C256.112 940.394 257.024 939.89 257.024 938.714L254.684 938.978C254.012 939.062 253.688 939.218 253.688 939.686ZM263.365 941.21H261.997C260.713 941.21 259.921 940.646 259.921 939.194V936.326H258.913V935.246H259.921V933.938H261.205V935.246H263.365V936.326H261.205V939.122C261.205 939.854 261.541 940.046 262.285 940.046H263.365V941.21ZM267.175 941.33C265.219 941.33 263.935 940.226 263.935 938.234C263.935 936.374 265.207 935.126 267.151 935.126C268.999 935.126 270.259 936.146 270.259 937.958C270.259 938.174 270.247 938.342 270.211 938.522H265.147C265.195 939.674 265.759 940.286 267.139 940.286C268.387 940.286 268.903 939.878 268.903 939.17V939.074H270.199V939.182C270.199 940.454 268.951 941.33 267.175 941.33ZM267.127 936.146C265.807 936.146 265.231 936.734 265.159 937.802H269.035V937.778C269.035 936.674 268.399 936.146 267.127 936.146ZM274.05 941.33C272.13 941.33 271.038 940.574 271.038 939.194V939.158H272.334V939.254C272.334 940.034 272.802 940.286 274.05 940.286C275.214 940.286 275.562 940.046 275.562 939.518C275.562 939.026 275.274 938.87 274.422 938.75L272.79 938.534C271.662 938.39 270.978 937.91 270.978 936.914C270.978 935.87 271.926 935.126 273.762 935.126C275.586 935.126 276.69 935.858 276.69 937.274V937.31H275.406V937.238C275.406 936.53 275.046 936.158 273.726 936.158C272.634 936.158 272.25 936.398 272.25 936.962C272.25 937.43 272.49 937.598 273.39 937.718L274.77 937.91C276.186 938.09 276.834 938.57 276.834 939.554C276.834 940.67 275.73 941.33 274.05 941.33ZM282.868 941.33C280.888 941.33 279.556 940.07 279.556 938.234C279.556 936.374 280.888 935.126 282.868 935.126C284.86 935.126 286.192 936.374 286.192 938.234C286.192 940.07 284.86 941.33 282.868 941.33ZM282.868 940.178C284.32 940.178 284.92 939.494 284.92 938.234C284.92 936.962 284.32 936.266 282.868 936.266C281.428 936.266 280.828 936.962 280.828 938.234C280.828 939.494 281.428 940.178 282.868 940.178ZM288.428 941.21H287.132V935.246H288.32V937.094H288.404C288.584 936.086 289.376 935.126 290.888 935.126C292.544 935.126 293.36 936.242 293.36 937.622V941.21H292.064V937.97C292.064 936.854 291.56 936.29 290.324 936.29C289.016 936.29 288.428 936.962 288.428 938.258V941.21ZM297.862 941.21H296.566V933.17H297.862V941.21ZM300.814 941.33C299.578 941.33 298.798 940.754 298.798 939.77C298.798 938.846 299.542 938.366 300.718 938.234L303.43 937.946V937.598C303.43 936.614 302.998 936.266 301.858 936.266C300.754 936.266 300.214 936.626 300.214 937.502V937.55H298.93V937.502C298.93 936.146 300.058 935.126 301.954 935.126C303.85 935.126 304.702 936.158 304.702 937.586V941.21H303.514V939.722H303.43C303.118 940.73 302.17 941.33 300.814 941.33ZM300.094 939.686C300.094 940.166 300.418 940.394 301.162 940.394C302.518 940.394 303.43 939.89 303.43 938.714L301.09 938.978C300.418 939.062 300.094 939.218 300.094 939.686ZM309.771 941.21H308.403C307.119 941.21 306.327 940.646 306.327 939.194V936.326H305.319V935.246H306.327V933.938H307.611V935.246H309.771V936.326H307.611V939.122C307.611 939.854 307.947 940.046 308.691 940.046H309.771V941.21ZM313.582 941.33C311.626 941.33 310.342 940.226 310.342 938.234C310.342 936.374 311.614 935.126 313.558 935.126C315.406 935.126 316.666 936.146 316.666 937.958C316.666 938.174 316.654 938.342 316.618 938.522H311.554C311.602 939.674 312.166 940.286 313.546 940.286C314.794 940.286 315.31 939.878 315.31 939.17V939.074H316.606V939.182C316.606 940.454 315.358 941.33 313.582 941.33ZM313.534 936.146C312.214 936.146 311.638 936.734 311.566 937.802H315.442V937.778C315.442 936.674 314.806 936.146 313.534 936.146ZM320.456 941.33C318.536 941.33 317.444 940.574 317.444 939.194V939.158H318.74V939.254C318.74 940.034 319.208 940.286 320.456 940.286C321.62 940.286 321.968 940.046 321.968 939.518C321.968 939.026 321.68 938.87 320.828 938.75L319.196 938.534C318.068 938.39 317.384 937.91 317.384 936.914C317.384 935.87 318.332 935.126 320.168 935.126C321.992 935.126 323.096 935.858 323.096 937.274V937.31H321.812V937.238C321.812 936.53 321.452 936.158 320.132 936.158C319.04 936.158 318.656 936.398 318.656 936.962C318.656 937.43 318.896 937.598 319.796 937.718L321.176 937.91C322.592 938.09 323.24 938.57 323.24 939.554C323.24 940.67 322.136 941.33 320.456 941.33ZM328.087 941.21H326.719C325.435 941.21 324.643 940.646 324.643 939.194V936.326H323.635V935.246H324.643V933.938H325.927V935.246H328.087V936.326H325.927V939.122C325.927 939.854 326.263 940.046 327.007 940.046H328.087V941.21ZM334.549 941.21H332.641L330.517 933.17H331.957L333.265 938.258L333.625 939.962H333.721L334.153 938.258L335.773 933.17H337.657L339.385 938.258L339.841 939.962H339.937L340.273 938.258L341.473 933.17H342.889L340.873 941.21H338.965L337.345 936.53L336.757 934.466H336.649L336.073 936.53L334.549 941.21ZM346.652 941.33C344.696 941.33 343.412 940.226 343.412 938.234C343.412 936.374 344.684 935.126 346.628 935.126C348.476 935.126 349.736 936.146 349.736 937.958C349.736 938.174 349.724 938.342 349.688 938.522H344.624C344.672 939.674 345.236 940.286 346.616 940.286C347.864 940.286 348.38 939.878 348.38 939.17V939.074H349.676V939.182C349.676 940.454 348.428 941.33 346.652 941.33ZM346.604 936.146C345.284 936.146 344.708 936.734 344.636 937.802H348.512V937.778C348.512 936.674 347.876 936.146 346.604 936.146ZM351.895 941.21H350.707V933.17H352.003V936.866H352.075C352.315 935.858 353.107 935.126 354.535 935.126C356.371 935.126 357.379 936.374 357.379 938.234C357.379 940.07 356.359 941.33 354.463 941.33C353.107 941.33 352.231 940.682 351.979 939.494H351.895V941.21ZM352.003 938.294C352.003 939.542 352.771 940.142 354.055 940.142C355.363 940.142 356.083 939.662 356.083 938.234C356.083 936.794 355.351 936.302 354.079 936.302C352.735 936.302 352.003 936.926 352.003 938.198V938.294ZM361.661 941.33C359.141 941.33 358.037 940.214 358.037 938.582V938.39H359.405V938.558C359.405 939.614 359.837 940.106 361.613 940.106C363.281 940.106 363.881 939.722 363.881 938.774C363.881 937.958 363.329 937.586 362.321 937.586H360.077V936.506H362.141C363.113 936.506 363.617 936.146 363.617 935.426C363.617 934.646 363.137 934.274 361.577 934.274C359.933 934.274 359.405 934.766 359.405 935.822V935.906H358.037V935.798C358.037 934.226 359.189 933.05 361.685 933.05C363.737 933.05 364.901 933.806 364.901 935.174C364.901 936.086 364.361 936.734 363.329 936.902V936.998C364.493 937.202 365.189 937.85 365.189 938.966C365.189 940.49 363.857 941.33 361.661 941.33ZM369.44 941.21H368.144V933.17H369.536L373.136 937.874L374.18 939.374H374.276L374.216 937.922V933.17H375.512V941.21H374.12L370.496 936.518L369.488 935.102H369.392L369.44 936.494V941.21ZM379.711 941.33C377.755 941.33 376.471 940.226 376.471 938.234C376.471 936.374 377.743 935.126 379.687 935.126C381.535 935.126 382.795 936.146 382.795 937.958C382.795 938.174 382.783 938.342 382.747 938.522H377.683C377.731 939.674 378.295 940.286 379.675 940.286C380.923 940.286 381.439 939.878 381.439 939.17V939.074H382.735V939.182C382.735 940.454 381.487 941.33 379.711 941.33ZM379.663 936.146C378.343 936.146 377.767 936.734 377.695 937.802H381.571V937.778C381.571 936.674 380.935 936.146 379.663 936.146ZM386.621 941.21H385.013L383.225 935.246H384.569L385.565 938.63L385.841 940.166H385.937L386.381 938.51L387.629 935.246H389.285L390.545 938.51L390.989 940.166H391.085L391.361 938.63L392.357 935.246H393.677L391.865 941.21H390.257L388.949 937.778L388.493 936.314H388.397L387.941 937.778L386.621 941.21ZM397.156 941.33C395.236 941.33 394.144 940.574 394.144 939.194V939.158H395.44V939.254C395.44 940.034 395.908 940.286 397.156 940.286C398.32 940.286 398.668 940.046 398.668 939.518C398.668 939.026 398.38 938.87 397.528 938.75L395.896 938.534C394.768 938.39 394.084 937.91 394.084 936.914C394.084 935.87 395.032 935.126 396.868 935.126C398.692 935.126 399.796 935.858 399.796 937.274V937.31H398.512V937.238C398.512 936.53 398.152 936.158 396.832 936.158C395.74 936.158 395.356 936.398 395.356 936.962C395.356 937.43 395.596 937.598 396.496 937.718L397.876 937.91C399.292 938.09 399.94 938.57 399.94 939.554C399.94 940.67 398.836 941.33 397.156 941.33Z" fill="#00002F"/>
<path d="M208.133 912.15H206.837V904.11H208.133V912.15ZM210.629 912.15H209.333V906.186H210.521V908.034H210.605C210.785 907.026 211.577 906.066 213.089 906.066C214.745 906.066 215.561 907.182 215.561 908.562V912.15H214.265V908.91C214.265 907.794 213.761 907.23 212.525 907.23C211.217 907.23 210.629 907.902 210.629 909.198V912.15ZM220.627 912.15H219.259C217.975 912.15 217.183 911.586 217.183 910.134V907.266H216.175V906.186H217.183V904.878H218.467V906.186H220.627V907.266H218.467V910.062C218.467 910.794 218.803 910.986 219.547 910.986H220.627V912.15ZM224.438 912.27C222.482 912.27 221.198 911.166 221.198 909.174C221.198 907.314 222.47 906.066 224.414 906.066C226.262 906.066 227.522 907.086 227.522 908.898C227.522 909.114 227.51 909.282 227.474 909.462H222.41C222.458 910.614 223.022 911.226 224.402 911.226C225.65 911.226 226.166 910.818 226.166 910.11V910.014H227.462V910.122C227.462 911.394 226.214 912.27 224.438 912.27ZM224.39 907.086C223.07 907.086 222.494 907.674 222.422 908.742H226.298V908.718C226.298 907.614 225.662 907.086 224.39 907.086ZM231.085 911.61C229.309 911.61 228.253 910.494 228.253 908.838C228.253 907.182 229.357 906.066 231.169 906.066C232.417 906.066 233.353 906.63 233.569 907.674H233.641V906.186H234.829V911.454C234.829 913.458 233.581 914.31 231.625 914.31C229.861 914.31 228.637 913.482 228.637 912.042H229.921C229.921 912.906 230.425 913.23 231.697 913.23C233.053 913.23 233.545 912.858 233.545 911.526V910.062H233.461C233.245 910.962 232.441 911.61 231.085 911.61ZM229.561 908.838C229.561 910.062 230.281 910.494 231.505 910.494C232.825 910.494 233.545 909.942 233.545 908.886V908.718C233.545 907.71 232.801 907.194 231.541 907.194C230.293 907.194 229.561 907.614 229.561 908.838ZM237.324 912.15H236.028V906.186H237.216V907.794H237.3C237.48 906.834 238.128 906.066 239.352 906.066C240.708 906.066 241.296 907.038 241.296 908.166V908.946H240.012V908.418C240.012 907.566 239.652 907.17 238.764 907.17C237.744 907.17 237.324 907.734 237.324 908.802V912.15ZM243.862 912.27C242.626 912.27 241.846 911.694 241.846 910.71C241.846 909.786 242.59 909.306 243.766 909.174L246.478 908.886V908.538C246.478 907.554 246.046 907.206 244.906 907.206C243.802 907.206 243.262 907.566 243.262 908.442V908.49H241.978V908.442C241.978 907.086 243.106 906.066 245.002 906.066C246.898 906.066 247.75 907.098 247.75 908.526V912.15H246.562V910.662H246.478C246.166 911.67 245.218 912.27 243.862 912.27ZM243.142 910.626C243.142 911.106 243.466 911.334 244.21 911.334C245.566 911.334 246.478 910.83 246.478 909.654L244.138 909.918C243.466 910.002 243.142 910.158 243.142 910.626ZM252.819 912.15H251.451C250.167 912.15 249.375 911.586 249.375 910.134V907.266H248.367V906.186H249.375V904.878H250.659V906.186H252.819V907.266H250.659V910.062C250.659 910.794 250.995 910.986 251.739 910.986H252.819V912.15ZM255.382 912.27C254.146 912.27 253.366 911.694 253.366 910.71C253.366 909.786 254.11 909.306 255.286 909.174L257.998 908.886V908.538C257.998 907.554 257.566 907.206 256.426 907.206C255.322 907.206 254.782 907.566 254.782 908.442V908.49H253.498V908.442C253.498 907.086 254.626 906.066 256.522 906.066C258.418 906.066 259.27 907.098 259.27 908.526V912.15H258.082V910.662H257.998C257.686 911.67 256.738 912.27 255.382 912.27ZM254.662 910.626C254.662 911.106 254.986 911.334 255.73 911.334C257.086 911.334 257.998 910.83 257.998 909.654L255.658 909.918C254.986 910.002 254.662 910.158 254.662 910.626ZM264.338 912.15H262.97C261.686 912.15 260.894 911.586 260.894 910.134V907.266H259.886V906.186H260.894V904.878H262.178V906.186H264.338V907.266H262.178V910.062C262.178 910.794 262.514 910.986 263.258 910.986H264.338V912.15ZM266.445 905.49H265.149V904.11H266.445V905.49ZM266.445 912.15H265.149V906.186H266.445V912.15ZM270.693 912.27C268.713 912.27 267.381 911.01 267.381 909.174C267.381 907.314 268.713 906.066 270.693 906.066C272.685 906.066 274.017 907.314 274.017 909.174C274.017 911.01 272.685 912.27 270.693 912.27ZM270.693 911.118C272.145 911.118 272.745 910.434 272.745 909.174C272.745 907.902 272.145 907.206 270.693 907.206C269.253 907.206 268.653 907.902 268.653 909.174C268.653 910.434 269.253 911.118 270.693 911.118ZM276.254 912.15H274.958V906.186H276.146V908.034H276.23C276.41 907.026 277.202 906.066 278.714 906.066C280.37 906.066 281.186 907.182 281.186 908.562V912.15H279.89V908.91C279.89 907.794 279.386 907.23 278.15 907.23C276.842 907.23 276.254 907.902 276.254 909.198V912.15ZM285.16 912.27C283.24 912.27 282.148 911.514 282.148 910.134V910.098H283.444V910.194C283.444 910.974 283.912 911.226 285.16 911.226C286.324 911.226 286.672 910.986 286.672 910.458C286.672 909.966 286.384 909.81 285.532 909.69L283.9 909.474C282.772 909.33 282.088 908.85 282.088 907.854C282.088 906.81 283.036 906.066 284.872 906.066C286.696 906.066 287.8 906.798 287.8 908.214V908.25H286.516V908.178C286.516 907.47 286.156 907.098 284.836 907.098C283.744 907.098 283.36 907.338 283.36 907.902C283.36 908.37 283.6 908.538 284.5 908.658L285.88 908.85C287.296 909.03 287.944 909.51 287.944 910.494C287.944 911.61 286.84 912.27 285.16 912.27Z" fill="#00002F"/>
<path d="M207.896 885H206.6V876.96H207.992L211.592 881.664L212.636 883.164H212.732L212.672 881.712V876.96H213.968V885H212.576L208.952 880.308L207.944 878.892H207.848L207.896 880.284V885ZM218.166 885.12C216.21 885.12 214.926 884.016 214.926 882.024C214.926 880.164 216.198 878.916 218.142 878.916C219.99 878.916 221.25 879.936 221.25 881.748C221.25 881.964 221.238 882.132 221.202 882.312H216.138C216.186 883.464 216.75 884.076 218.13 884.076C219.378 884.076 219.894 883.668 219.894 882.96V882.864H221.19V882.972C221.19 884.244 219.942 885.12 218.166 885.12ZM218.118 879.936C216.798 879.936 216.222 880.524 216.15 881.592H220.026V881.568C220.026 880.464 219.39 879.936 218.118 879.936ZM225.077 885H223.469L221.681 879.036H223.025L224.021 882.42L224.297 883.956H224.393L224.837 882.3L226.085 879.036H227.741L229.001 882.3L229.445 883.956H229.541L229.817 882.42L230.813 879.036H232.133L230.321 885H228.713L227.405 881.568L226.949 880.104H226.853L226.397 881.568L225.077 885ZM236.138 885H234.842V876.96H241.238V878.124H236.138V880.62H241.058V881.772H236.138V885ZM245.202 885.12C243.246 885.12 241.962 884.016 241.962 882.024C241.962 880.164 243.234 878.916 245.178 878.916C247.026 878.916 248.286 879.936 248.286 881.748C248.286 881.964 248.274 882.132 248.238 882.312H243.174C243.222 883.464 243.786 884.076 245.166 884.076C246.414 884.076 246.93 883.668 246.93 882.96V882.864H248.226V882.972C248.226 884.244 246.978 885.12 245.202 885.12ZM245.154 879.936C243.834 879.936 243.258 880.524 243.186 881.592H247.062V881.568C247.062 880.464 246.426 879.936 245.154 879.936ZM251.008 885.12C249.772 885.12 248.992 884.544 248.992 883.56C248.992 882.636 249.736 882.156 250.912 882.024L253.624 881.736V881.388C253.624 880.404 253.192 880.056 252.052 880.056C250.948 880.056 250.408 880.416 250.408 881.292V881.34H249.124V881.292C249.124 879.936 250.252 878.916 252.148 878.916C254.044 878.916 254.896 879.948 254.896 881.376V885H253.708V883.512H253.624C253.312 884.52 252.364 885.12 251.008 885.12ZM250.288 883.476C250.288 883.956 250.612 884.184 251.356 884.184C252.712 884.184 253.624 883.68 253.624 882.504L251.284 882.768C250.612 882.852 250.288 883.008 250.288 883.476ZM259.965 885H258.597C257.313 885 256.521 884.436 256.521 882.984V880.116H255.513V879.036H256.521V877.728H257.805V879.036H259.965V880.116H257.805V882.912C257.805 883.644 258.141 883.836 258.885 883.836H259.965V885ZM263.26 885.12C261.58 885.12 260.764 884.004 260.764 882.624V879.036H262.048V882.276C262.048 883.392 262.564 883.956 263.824 883.956C265.144 883.956 265.756 883.284 265.756 881.988V879.036H267.04V885H265.852V883.152H265.78C265.588 884.16 264.796 885.12 263.26 885.12ZM269.513 885H268.217V879.036H269.405V880.644H269.489C269.669 879.684 270.317 878.916 271.541 878.916C272.897 878.916 273.485 879.888 273.485 881.016V881.796H272.201V881.268C272.201 880.416 271.841 880.02 270.953 880.02C269.933 880.02 269.513 880.584 269.513 881.652V885ZM277.299 885.12C275.343 885.12 274.059 884.016 274.059 882.024C274.059 880.164 275.331 878.916 277.275 878.916C279.123 878.916 280.383 879.936 280.383 881.748C280.383 881.964 280.371 882.132 280.335 882.312H275.271C275.319 883.464 275.883 884.076 277.263 884.076C278.511 884.076 279.027 883.668 279.027 882.96V882.864H280.323V882.972C280.323 884.244 279.075 885.12 277.299 885.12ZM277.251 879.936C275.931 879.936 275.355 880.524 275.283 881.592H279.159V881.568C279.159 880.464 278.523 879.936 277.251 879.936ZM284.174 885.12C282.254 885.12 281.162 884.364 281.162 882.984V882.948H282.458V883.044C282.458 883.824 282.926 884.076 284.174 884.076C285.338 884.076 285.686 883.836 285.686 883.308C285.686 882.816 285.398 882.66 284.546 882.54L282.914 882.324C281.786 882.18 281.102 881.7 281.102 880.704C281.102 879.66 282.05 878.916 283.886 878.916C285.71 878.916 286.814 879.648 286.814 881.064V881.1H285.53V881.028C285.53 880.32 285.17 879.948 283.85 879.948C282.758 879.948 282.374 880.188 282.374 880.752C282.374 881.22 282.614 881.388 283.514 881.508L284.894 881.7C286.31 881.88 286.958 882.36 286.958 883.344C286.958 884.46 285.854 885.12 284.174 885.12Z" fill="#00002F"/>
<circle cx="196" cy="936" r="6" fill="#FF4E00" fill-opacity="0.2"/>
<circle cx="196" cy="935.999" r="3.6" fill="#FF4E00"/>
<circle cx="195.783" cy="908.474" r="6" fill="#FF4E00" fill-opacity="0.2"/>
<circle cx="195.783" cy="908.473" r="3.6" fill="#FF4E00"/>
<circle cx="195.783" cy="881.707" r="6" fill="#FF4E00" fill-opacity="0.2"/>
<circle cx="195.783" cy="881.706" r="3.6" fill="#FF4E00"/>
<path d="M160.272 951H146.362V933.32H90.7221V923.57L144.022 863.9H160.272V920.71H175.222V933.32H160.272V951ZM110.092 920.71H146.362V880.28H145.322L110.092 919.67V920.71Z" fill="#EAEAEA"/>
</svg>
