<svg width="1348" height="245" viewBox="0 0 1348 245" fill="none" xmlns="http://www.w3.org/2000/svg">
<mask id="path-1-outside-1_3417_15398" maskUnits="userSpaceOnUse" x="-1" y="-1" width="1350" height="247" fill="black">
<rect fill="white" x="-1" y="-1" width="1350" height="247"/>
<path d="M44.1463 195H0.609757V0.536585H108C155.89 0.536585 183.173 21.7244 183.173 58.8756C183.173 90.5122 164.888 109.378 128.317 112.861V115.183C145.732 119.827 152.407 129.115 159.663 142.756L187.817 195H137.315L110.612 144.498C102.776 129.405 95.5195 124.471 72.8805 124.471H44.1463V195ZM44.1463 39.7195V91.6732H107.71C128.317 91.6732 137.605 85.8683 137.605 65.5512C137.605 46.3951 128.317 39.7195 107.71 39.7195H44.1463ZM279.065 197.902C229.433 197.902 196.055 168.298 196.055 122.439C196.055 76 229.433 46.6854 279.065 46.6854C328.696 46.6854 362.075 76 362.075 122.439C362.075 168.298 328.696 197.902 279.065 197.902ZM279.065 159.3C308.379 159.3 318.828 147.98 318.828 122.439C318.828 96.8976 308.379 84.9976 279.065 84.9976C249.46 84.9976 239.301 96.8976 239.301 122.439C239.301 147.98 249.46 159.3 279.065 159.3ZM424.552 197.902C393.205 197.902 374.34 183.39 374.34 159.01C374.34 137.532 390.303 124.18 421.359 120.988L483.762 114.602V109.088C483.762 90.2219 475.344 84.9976 452.125 84.9976C430.066 84.9976 421.069 90.8024 421.069 107.346V108.507H377.242V107.637C377.242 71.6463 407.427 46.6854 455.318 46.6854C503.788 46.6854 526.718 71.6463 526.718 109.668V195H486.083V161.622H483.762C477.086 184.261 456.769 197.902 424.552 197.902ZM418.166 156.107C418.166 163.944 424.262 167.137 437.032 167.137C466.637 167.137 482.601 160.171 483.762 139.563L433.259 145.368C422.81 146.239 418.166 149.141 418.166 156.107ZM613.8 197.902C568.522 197.902 543.561 168.298 543.561 122.439C543.561 76 568.232 46.6854 611.478 46.6854C646.017 46.6854 663.722 63.8098 668.656 88.1902H671.268V0.536585H714.805V195H674.171V154.656H671.849C666.334 183.39 647.178 197.902 613.8 197.902ZM587.678 122.439C587.678 148.851 600.739 158.139 628.602 158.139C656.175 158.139 671.268 148.561 671.268 123.31V120.988C671.268 95.7366 656.466 86.4488 628.602 86.4488C600.739 86.4488 587.678 95.7366 587.678 122.439ZM781.377 195H737.841V0.536585H796.76L842.328 96.3171L860.614 141.885H863.806L881.511 96.3171L925.628 0.536585H984.838V195H941.302V96.3171L942.753 65.8415H939.56L928.241 96.3171L887.606 183.39H834.782L794.148 96.3171L782.828 65.8415H779.636L781.377 96.3171V195ZM1052.37 197.902C1021.03 197.902 1002.16 183.39 1002.16 159.01C1002.16 137.532 1018.13 124.18 1049.18 120.988L1111.58 114.602V109.088C1111.58 90.2219 1103.17 84.9976 1079.95 84.9976C1057.89 84.9976 1048.89 90.8024 1048.89 107.346V108.507H1005.06V107.637C1005.06 71.6463 1035.25 46.6854 1083.14 46.6854C1131.61 46.6854 1154.54 71.6463 1154.54 109.668V195H1113.91V161.622H1111.58C1104.91 184.261 1084.59 197.902 1052.37 197.902ZM1045.99 156.107C1045.99 163.944 1052.08 167.137 1064.85 167.137C1094.46 167.137 1110.42 160.171 1111.58 139.563L1061.08 145.368C1050.63 146.239 1045.99 149.141 1045.99 156.107ZM1220.14 244.341H1176.61V49.5878H1216.95V89.3512H1219.85C1225.08 61.4878 1243.65 46.6854 1277.9 46.6854C1322.6 46.6854 1347.56 76.2902 1347.56 122.439C1347.56 168.588 1323.18 197.902 1279.35 197.902C1245.69 197.902 1227.11 181.359 1222.18 155.817H1220.14V244.341ZM1220.14 124.471C1220.14 149.432 1235.24 158.139 1262.52 158.139C1290.38 158.139 1303.44 148.851 1303.44 122.439C1303.44 95.7366 1290.38 86.739 1262.81 86.739C1234.66 86.739 1220.14 96.3171 1220.14 122.149V124.471Z"/>
</mask>
<path d="M44.1463 195V196H45.1463V195H44.1463ZM0.609756 195H-0.390244V196H0.609756V195ZM0.609756 0.536583V-0.463417H-0.390244V0.536583H0.609756ZM128.317 112.861L128.222 111.865L127.317 111.952V112.861H128.317ZM128.317 115.183H127.317V115.951L128.059 116.149L128.317 115.183ZM159.663 142.756L158.781 143.226L158.783 143.23L159.663 142.756ZM187.817 195V196H189.492L188.697 194.526L187.817 195ZM137.315 195L136.431 195.467L136.712 196H137.315V195ZM110.612 144.498L109.725 144.958L109.728 144.965L110.612 144.498ZM44.1463 124.471V123.471H43.1463V124.471H44.1463ZM44.1463 39.7195V38.7195H43.1463V39.7195H44.1463ZM44.1463 91.6732H43.1463V92.6732H44.1463V91.6732ZM44.1463 194H0.609756V196H44.1463V194ZM1.60976 195V0.536583H-0.390244V195H1.60976ZM0.609756 1.53658H108V-0.463417H0.609756V1.53658ZM108 1.53658C131.816 1.53658 150.362 6.80729 162.932 16.5643C175.466 26.2932 182.173 40.5701 182.173 58.8756H184.173C184.173 40.0299 177.239 25.1373 164.159 14.9844C151.115 4.85979 132.074 -0.463417 108 -0.463417V1.53658ZM182.173 58.8756C182.173 74.4952 177.665 86.8413 168.753 95.7174C159.828 104.607 146.364 110.138 128.222 111.865L128.412 113.856C146.841 112.101 160.805 106.457 170.165 97.1344C179.539 87.7977 184.173 74.8926 184.173 58.8756H182.173ZM127.317 112.861V115.183H129.317V112.861H127.317ZM128.059 116.149C136.624 118.433 142.489 121.84 147.104 126.313C151.738 130.806 155.161 136.421 158.781 143.226L160.546 142.286C156.91 135.45 153.367 129.6 148.496 124.877C143.605 120.136 137.424 116.577 128.575 114.217L128.059 116.149ZM158.783 143.23L186.937 195.474L188.697 194.526L160.544 142.282L158.783 143.23ZM187.817 194H137.315V196H187.817V194ZM138.199 194.533L111.496 144.03L109.728 144.965L136.431 195.467L138.199 194.533ZM111.5 144.037C107.55 136.429 103.663 131.213 97.7824 127.95C91.9293 124.702 84.243 123.471 72.8805 123.471V125.471C84.157 125.471 91.4183 126.706 96.8121 129.699C102.178 132.676 105.838 137.473 109.725 144.958L111.5 144.037ZM72.8805 123.471H44.1463V125.471H72.8805V123.471ZM43.1463 124.471V195H45.1463V124.471H43.1463ZM43.1463 39.7195V91.6732H45.1463V39.7195H43.1463ZM44.1463 92.6732H107.71V90.6732H44.1463V92.6732ZM107.71 92.6732C118.051 92.6732 125.833 91.2298 131.017 87.0063C136.255 82.7377 138.605 75.8363 138.605 65.5512H136.605C136.605 75.5832 134.31 81.7428 129.753 85.4559C125.141 89.2141 117.976 90.6732 107.71 90.6732V92.6732ZM138.605 65.5512C138.605 55.8281 136.246 49.0152 131.024 44.6822C125.848 40.3885 118.075 38.7195 107.71 38.7195V40.7195C117.951 40.7195 125.126 42.3883 129.747 46.2214C134.32 50.0153 136.605 56.1183 136.605 65.5512H138.605ZM107.71 38.7195H44.1463V40.7195H107.71V38.7195ZM279.065 196.902C254.445 196.902 233.948 189.561 219.618 176.625C205.299 163.699 197.055 145.112 197.055 122.439H195.055C195.055 145.625 203.501 164.77 218.278 178.11C233.045 191.441 254.053 198.902 279.065 198.902V196.902ZM197.055 122.439C197.055 99.4728 205.301 80.8147 219.618 67.8898C233.946 54.9552 254.442 47.6854 279.065 47.6854V45.6854C254.055 45.6854 233.047 53.0729 218.278 66.4053C203.498 79.7475 195.055 98.9662 195.055 122.439H197.055ZM279.065 47.6854C303.687 47.6854 324.183 54.9552 338.511 67.8898C352.829 80.8147 361.075 99.4728 361.075 122.439H363.075C363.075 98.9662 354.631 79.7475 339.852 66.4053C325.083 53.0729 304.074 45.6854 279.065 45.6854V47.6854ZM361.075 122.439C361.075 145.112 352.831 163.699 338.511 176.625C324.182 189.561 303.685 196.902 279.065 196.902V198.902C304.077 198.902 325.084 191.441 339.852 178.11C354.629 164.77 363.075 145.625 363.075 122.439H361.075ZM279.065 160.3C293.812 160.3 304.076 157.46 310.632 151.169C317.2 144.867 319.828 135.314 319.828 122.439H317.828C317.828 135.105 315.232 143.983 309.247 149.726C303.25 155.48 293.632 158.3 279.065 158.3V160.3ZM319.828 122.439C319.828 109.563 317.199 99.8723 310.64 93.427C304.087 86.9873 293.823 83.9976 279.065 83.9976V85.9976C293.621 85.9976 303.239 88.9579 309.239 94.8535C315.233 100.744 317.828 109.774 317.828 122.439H319.828ZM279.065 83.9976C264.164 83.9976 253.897 86.986 247.378 93.429C240.855 99.8766 238.301 109.569 238.301 122.439H240.301C240.301 109.767 242.827 100.739 248.784 94.8515C254.746 88.9591 264.361 85.9976 279.065 85.9976V83.9976ZM238.301 122.439C238.301 135.308 240.854 144.863 247.387 151.167C253.908 157.461 264.175 160.3 279.065 160.3V158.3C264.35 158.3 254.735 155.479 248.776 149.728C242.827 143.987 240.301 135.111 240.301 122.439H238.301ZM421.359 120.988L421.257 119.993L421.257 119.993L421.359 120.988ZM483.762 114.602L483.863 115.597L484.762 115.505V114.602H483.762ZM421.069 108.507V109.507H422.069V108.507H421.069ZM377.242 108.507H376.242V109.507H377.242V108.507ZM526.718 195V196H527.718V195H526.718ZM486.083 195H485.083V196H486.083V195ZM486.083 161.622H487.083V160.622H486.083V161.622ZM483.762 161.622V160.622H483.014L482.802 161.339L483.762 161.622ZM483.762 139.563L484.76 139.62L484.827 138.434L483.647 138.57L483.762 139.563ZM433.259 145.368L433.342 146.365L433.358 146.364L433.373 146.362L433.259 145.368ZM424.552 196.902C409.017 196.902 396.706 193.305 388.302 186.808C379.931 180.335 375.34 170.914 375.34 159.01H373.34C373.34 171.486 378.181 181.511 387.079 188.39C395.945 195.244 408.74 198.902 424.552 198.902V196.902ZM375.34 159.01C375.34 148.551 379.21 140.136 386.835 133.917C394.499 127.665 406.038 123.568 421.461 121.983L421.257 119.993C405.624 121.6 393.653 125.775 385.571 132.367C377.45 138.991 373.34 147.99 373.34 159.01H375.34ZM421.461 121.983L483.863 115.597L483.66 113.608L421.257 119.993L421.461 121.983ZM484.762 114.602V109.088H482.762V114.602H484.762ZM484.762 109.088C484.762 99.5328 482.631 93.1057 477.241 89.161C471.949 85.2879 463.739 83.9976 452.125 83.9976V85.9976C463.73 85.9976 471.339 87.3194 476.06 90.7749C480.684 94.159 482.762 99.7769 482.762 109.088H484.762ZM452.125 83.9976C441.062 83.9976 433.025 85.4417 427.75 89.1499C422.379 92.9249 420.069 98.8896 420.069 107.346H422.069C422.069 99.2592 424.257 94.0495 428.9 90.7861C433.638 87.4559 441.129 85.9976 452.125 85.9976V83.9976ZM420.069 107.346V108.507H422.069V107.346H420.069ZM421.069 107.507H377.242V109.507H421.069V107.507ZM378.242 108.507V107.637H376.242V108.507H378.242ZM378.242 107.637C378.242 89.9471 385.649 74.9976 398.943 64.448C412.256 53.8829 431.537 47.6854 455.318 47.6854V45.6854C431.208 45.6854 411.451 51.9683 397.699 62.8813C383.928 73.8097 376.242 89.3358 376.242 107.637H378.242ZM455.318 47.6854C479.391 47.6854 496.963 53.8829 508.512 64.65C520.052 75.4083 525.718 90.86 525.718 109.668H527.718C527.718 90.4546 521.919 74.4148 509.876 63.1872C497.843 51.9683 479.715 45.6854 455.318 45.6854V47.6854ZM525.718 109.668V195H527.718V109.668H525.718ZM526.718 194H486.083V196H526.718V194ZM487.083 195V161.622H485.083V195H487.083ZM486.083 160.622H483.762V162.622H486.083V160.622ZM482.802 161.339C479.531 172.432 472.931 181.298 463.203 187.405C453.461 193.52 440.525 196.902 424.552 196.902V198.902C440.796 198.902 454.127 195.464 464.266 189.099C474.42 182.725 481.316 173.451 484.721 161.905L482.802 161.339ZM417.166 156.107C417.166 158.197 417.573 160.039 418.442 161.619C419.314 163.203 420.617 164.462 422.315 165.43C425.67 167.341 430.605 168.137 437.032 168.137V166.137C430.689 166.137 426.191 165.336 423.305 163.692C421.883 162.882 420.865 161.873 420.194 160.655C419.521 159.431 419.166 157.936 419.166 156.107H417.166ZM437.032 168.137C451.873 168.137 463.479 166.398 471.546 161.954C479.714 157.453 484.162 150.231 484.76 139.62L482.763 139.507C482.2 149.503 478.086 156.067 470.581 160.202C462.975 164.392 451.796 166.137 437.032 166.137V168.137ZM483.647 138.57L433.145 144.375L433.373 146.362L483.876 140.557L483.647 138.57ZM433.176 144.372C427.914 144.81 423.918 145.769 421.226 147.63C418.44 149.555 417.166 152.36 417.166 156.107H419.166C419.166 152.889 420.215 150.759 422.363 149.275C424.605 147.725 428.156 146.797 433.342 146.365L433.176 144.372ZM668.656 88.1902L667.676 88.3886L667.838 89.1902H668.656V88.1902ZM671.268 88.1902V89.1902H672.268V88.1902H671.268ZM671.268 0.536583V-0.463417H670.268V0.536583H671.268ZM714.805 0.536583H715.805V-0.463417H714.805V0.536583ZM714.805 195V196H715.805V195H714.805ZM674.171 195H673.171V196H674.171V195ZM674.171 154.656H675.171V153.656H674.171V154.656ZM671.849 154.656V153.656H671.022L670.867 154.468L671.849 154.656ZM613.8 196.902C591.389 196.902 574.119 189.583 562.442 176.696C550.753 163.795 544.561 145.195 544.561 122.439H542.561C542.561 145.542 548.849 164.673 560.96 178.039C573.083 191.419 590.933 198.902 613.8 198.902V196.902ZM544.561 122.439C544.561 99.3877 550.683 80.7101 562.052 67.8087C573.406 54.9243 590.094 47.6854 611.478 47.6854V45.6854C589.616 45.6854 572.345 53.1037 560.552 66.4864C548.774 79.8521 542.561 99.0513 542.561 122.439H544.561ZM611.478 47.6854C628.583 47.6854 641.409 51.924 650.552 59.0825C659.692 66.238 665.247 76.3861 667.676 88.3886L669.636 87.9919C667.131 75.6139 661.367 65.0096 651.785 57.5077C642.208 50.0089 628.912 45.6854 611.478 45.6854V47.6854ZM668.656 89.1902H671.268V87.1902H668.656V89.1902ZM672.268 88.1902V0.536583H670.268V88.1902H672.268ZM671.268 1.53658H714.805V-0.463417H671.268V1.53658ZM713.805 0.536583V195H715.805V0.536583H713.805ZM714.805 194H674.171V196H714.805V194ZM675.171 195V154.656H673.171V195H675.171ZM674.171 153.656H671.849V155.656H674.171V153.656ZM670.867 154.468C668.145 168.648 662.083 179.215 652.674 186.254C643.251 193.304 630.353 196.902 613.8 196.902V198.902C630.625 198.902 643.994 195.245 653.872 187.855C663.765 180.455 670.037 169.399 672.831 154.845L670.867 154.468ZM586.678 122.439C586.678 135.796 589.982 145.071 597.051 150.962C604.075 156.815 614.603 159.139 628.602 159.139V157.139C614.738 157.139 604.804 154.819 598.332 149.425C591.904 144.069 588.678 135.495 588.678 122.439H586.678ZM628.602 159.139C642.469 159.139 653.405 156.737 660.885 150.986C668.422 145.192 672.268 136.144 672.268 123.31H670.268C670.268 135.727 666.568 144.094 659.666 149.401C652.706 154.752 642.309 157.139 628.602 157.139V159.139ZM672.268 123.31V120.988H670.268V123.31H672.268ZM672.268 120.988C672.268 108.159 668.497 99.179 660.99 93.4539C653.544 87.7752 642.607 85.4488 628.602 85.4488V87.4488C642.461 87.4488 652.857 89.7663 659.778 95.0442C666.638 100.276 670.268 108.565 670.268 120.988H672.268ZM628.602 85.4488C614.603 85.4488 604.073 87.7727 597.049 93.6643C589.981 99.5923 586.678 108.941 586.678 122.439H588.678C588.678 109.235 591.906 100.588 598.334 95.1967C604.806 89.7688 614.738 87.4488 628.602 87.4488V85.4488ZM781.377 195V196H782.377V195H781.377ZM737.841 195H736.841V196H737.841V195ZM737.841 0.536583V-0.463417H736.841V0.536583H737.841ZM796.76 0.536583L797.663 0.106972L797.392 -0.463417H796.76V0.536583ZM842.328 96.3171L843.256 95.9447L843.245 95.9157L843.231 95.8875L842.328 96.3171ZM860.614 141.885L859.686 142.258L859.938 142.885H860.614V141.885ZM863.806 141.885V142.885H864.491L864.739 142.248L863.806 141.885ZM881.511 96.3171L880.603 95.8987L880.59 95.9265L880.579 95.9549L881.511 96.3171ZM925.628 0.536583V-0.463417H924.988L924.72 0.118225L925.628 0.536583ZM984.838 0.536583H985.838V-0.463417H984.838V0.536583ZM984.838 195V196H985.838V195H984.838ZM941.302 195H940.302V196H941.302V195ZM941.302 96.3171L940.303 96.2695L940.302 96.2933V96.3171H941.302ZM942.753 65.8415L943.752 65.889L943.802 64.8415H942.753V65.8415ZM939.56 65.8415V64.8415H938.865L938.623 65.4933L939.56 65.8415ZM928.241 96.3171L929.147 96.74L929.164 96.7032L929.178 96.6653L928.241 96.3171ZM887.606 183.39V184.39H888.243L888.513 183.813L887.606 183.39ZM834.782 183.39L833.876 183.813L834.145 184.39H834.782V183.39ZM794.148 96.3171L793.211 96.6653L793.225 96.7032L793.242 96.74L794.148 96.3171ZM782.828 65.8415L783.766 65.4933L783.524 64.8415H782.828V65.8415ZM779.636 65.8415V64.8415H778.577L778.637 65.8985L779.636 65.8415ZM781.377 96.3171H782.377V96.2885L782.376 96.26L781.377 96.3171ZM781.377 194H737.841V196H781.377V194ZM738.841 195V0.536583H736.841V195H738.841ZM737.841 1.53658H796.76V-0.463417H737.841V1.53658ZM795.857 0.966202L841.425 96.7467L843.231 95.8875L797.663 0.106972L795.857 0.966202ZM841.4 96.6895L859.686 142.258L861.542 141.513L843.256 95.9447L841.4 96.6895ZM860.614 142.885H863.806V140.885H860.614V142.885ZM864.739 142.248L882.443 96.6792L880.579 95.9549L862.874 141.523L864.739 142.248ZM882.42 96.7354L926.537 0.954941L924.72 0.118225L880.603 95.8987L882.42 96.7354ZM925.628 1.53658H984.838V-0.463417H925.628V1.53658ZM983.838 0.536583V195H985.838V0.536583H983.838ZM984.838 194H941.302V196H984.838V194ZM942.302 195V96.3171H940.302V195H942.302ZM942.3 96.3646L943.752 65.889L941.754 65.7939L940.303 96.2695L942.3 96.3646ZM942.753 64.8415H939.56V66.8415H942.753V64.8415ZM938.623 65.4933L927.303 95.9689L929.178 96.6653L940.498 66.1897L938.623 65.4933ZM927.334 95.8942L886.7 182.967L888.513 183.813L929.147 96.74L927.334 95.8942ZM887.606 182.39H834.782V184.39H887.606V182.39ZM835.688 182.967L795.054 95.8942L793.242 96.74L833.876 183.813L835.688 182.967ZM795.085 95.9689L783.766 65.4933L781.891 66.1897L793.211 96.6653L795.085 95.9689ZM782.828 64.8415H779.636V66.8415H782.828V64.8415ZM778.637 65.8985L780.379 96.3741L782.376 96.26L780.634 65.7844L778.637 65.8985ZM780.377 96.3171V195H782.377V96.3171H780.377ZM1049.18 120.988L1049.08 119.993L1049.08 119.993L1049.18 120.988ZM1111.58 114.602L1111.69 115.597L1112.58 115.505V114.602H1111.58ZM1048.89 108.507V109.507H1049.89V108.507H1048.89ZM1005.06 108.507H1004.06V109.507H1005.06V108.507ZM1154.54 195V196H1155.54V195H1154.54ZM1113.91 195H1112.91V196H1113.91V195ZM1113.91 161.622H1114.91V160.622H1113.91V161.622ZM1111.58 161.622V160.622H1110.84L1110.62 161.339L1111.58 161.622ZM1111.58 139.563L1112.58 139.62L1112.65 138.434L1111.47 138.57L1111.58 139.563ZM1061.08 145.368L1061.16 146.365L1061.18 146.364L1061.2 146.362L1061.08 145.368ZM1052.37 196.902C1036.84 196.902 1024.53 193.305 1016.12 186.808C1007.75 180.335 1003.16 170.914 1003.16 159.01H1001.16C1001.16 171.486 1006 181.511 1014.9 188.39C1023.77 195.244 1036.56 198.902 1052.37 198.902V196.902ZM1003.16 159.01C1003.16 148.551 1007.03 140.136 1014.66 133.917C1022.32 127.665 1033.86 123.568 1049.28 121.983L1049.08 119.993C1033.45 121.6 1021.48 125.775 1013.39 132.367C1005.27 138.991 1001.16 147.99 1001.16 159.01H1003.16ZM1049.28 121.983L1111.69 115.597L1111.48 113.608L1049.08 119.993L1049.28 121.983ZM1112.58 114.602V109.088H1110.58V114.602H1112.58ZM1112.58 109.088C1112.58 99.5328 1110.45 93.1057 1105.06 89.161C1099.77 85.2879 1091.56 83.9976 1079.95 83.9976V85.9976C1091.55 85.9976 1099.16 87.3194 1103.88 90.7749C1108.51 94.159 1110.58 99.7769 1110.58 109.088H1112.58ZM1079.95 83.9976C1068.88 83.9976 1060.85 85.4417 1055.57 89.1499C1050.2 92.9249 1047.89 98.8896 1047.89 107.346H1049.89C1049.89 99.2592 1052.08 94.0495 1056.72 90.7861C1061.46 87.4559 1068.95 85.9976 1079.95 85.9976V83.9976ZM1047.89 107.346V108.507H1049.89V107.346H1047.89ZM1048.89 107.507H1005.06V109.507H1048.89V107.507ZM1006.06 108.507V107.637H1004.06V108.507H1006.06ZM1006.06 107.637C1006.06 89.9471 1013.47 74.9976 1026.77 64.448C1040.08 53.8829 1059.36 47.6854 1083.14 47.6854V45.6854C1059.03 45.6854 1039.27 51.9683 1025.52 62.8813C1011.75 73.8097 1004.06 89.3358 1004.06 107.637H1006.06ZM1083.14 47.6854C1107.21 47.6854 1124.79 53.8829 1136.33 64.65C1147.87 75.4083 1153.54 90.86 1153.54 109.668H1155.54C1155.54 90.4546 1149.74 74.4148 1137.7 63.1872C1125.67 51.9683 1107.54 45.6854 1083.14 45.6854V47.6854ZM1153.54 109.668V195H1155.54V109.668H1153.54ZM1154.54 194H1113.91V196H1154.54V194ZM1114.91 195V161.622H1112.91V195H1114.91ZM1113.91 160.622H1111.58V162.622H1113.91V160.622ZM1110.62 161.339C1107.35 172.432 1100.75 181.298 1091.03 187.405C1081.28 193.52 1068.35 196.902 1052.37 196.902V198.902C1068.62 198.902 1081.95 195.464 1092.09 189.099C1102.24 182.725 1109.14 173.451 1112.54 161.905L1110.62 161.339ZM1044.99 156.107C1044.99 158.197 1045.4 160.039 1046.26 161.619C1047.14 163.203 1048.44 164.462 1050.14 165.43C1053.49 167.341 1058.43 168.137 1064.85 168.137V166.137C1058.51 166.137 1054.01 165.336 1051.13 163.692C1049.71 162.882 1048.69 161.873 1048.02 160.655C1047.34 159.431 1046.99 157.936 1046.99 156.107H1044.99ZM1064.85 168.137C1079.7 168.137 1091.3 166.398 1099.37 161.954C1107.54 157.453 1111.98 150.231 1112.58 139.62L1110.59 139.507C1110.02 149.503 1105.91 156.067 1098.4 160.202C1090.8 164.392 1079.62 166.137 1064.85 166.137V168.137ZM1111.47 138.57L1060.97 144.375L1061.2 146.362L1111.7 140.557L1111.47 138.57ZM1061 144.372C1055.74 144.81 1051.74 145.769 1049.05 147.63C1046.26 149.555 1044.99 152.36 1044.99 156.107H1046.99C1046.99 152.889 1048.04 150.759 1050.19 149.275C1052.43 147.725 1055.98 146.797 1061.16 146.365L1061 144.372ZM1220.14 244.341V245.341H1221.14V244.341H1220.14ZM1176.61 244.341H1175.61V245.341H1176.61V244.341ZM1176.61 49.5878V48.5878H1175.61V49.5878H1176.61ZM1216.95 49.5878H1217.95V48.5878H1216.95V49.5878ZM1216.95 89.3512H1215.95V90.3512H1216.95V89.3512ZM1219.85 89.3512V90.3512H1220.68L1220.84 89.5355L1219.85 89.3512ZM1222.18 155.817L1223.16 155.627L1223 154.817H1222.18V155.817ZM1220.14 155.817V154.817H1219.14V155.817H1220.14ZM1220.14 243.341H1176.61V245.341H1220.14V243.341ZM1177.61 244.341V49.5878H1175.61V244.341H1177.61ZM1176.61 50.5878H1216.95V48.5878H1176.61V50.5878ZM1215.95 49.5878V89.3512H1217.95V49.5878H1215.95ZM1216.95 90.3512H1219.85V88.3512H1216.95V90.3512ZM1220.84 89.5355C1223.41 75.7904 1229.26 65.3703 1238.59 58.3695C1247.94 51.3575 1260.91 47.6854 1277.9 47.6854V45.6854C1260.64 45.6854 1247.2 49.4145 1237.39 56.7695C1227.57 64.1358 1221.52 75.0486 1218.87 89.1669L1220.84 89.5355ZM1277.9 47.6854C1300.02 47.6854 1317.14 55.0019 1328.75 67.9246C1340.37 80.8622 1346.56 99.5369 1346.56 122.439H1348.56C1348.56 99.1923 1342.27 79.9903 1330.24 66.5882C1318.19 53.1713 1300.48 45.6854 1277.9 45.6854V47.6854ZM1346.56 122.439C1346.56 145.347 1340.51 163.95 1329.14 176.814C1317.79 189.661 1301.03 196.902 1279.35 196.902V198.902C1301.5 198.902 1318.85 191.487 1330.64 178.139C1342.42 164.808 1348.56 145.68 1348.56 122.439H1346.56ZM1279.35 196.902C1262.68 196.902 1249.85 192.807 1240.6 185.647C1231.36 178.491 1225.59 168.202 1223.16 155.627L1221.19 156.007C1223.7 168.974 1229.68 179.727 1239.38 187.229C1249.06 194.725 1262.36 198.902 1279.35 198.902V196.902ZM1222.18 154.817H1220.14V156.817H1222.18V154.817ZM1219.14 155.817V244.341H1221.14V155.817H1219.14ZM1219.14 124.471C1219.14 137.165 1222.99 145.93 1230.51 151.47C1237.95 156.96 1248.81 159.139 1262.52 159.139V157.139C1248.95 157.139 1238.62 154.965 1231.69 149.86C1224.84 144.806 1221.14 136.737 1221.14 124.471H1219.14ZM1262.52 159.139C1276.52 159.139 1287.05 156.815 1294.07 150.962C1301.14 145.071 1304.44 135.796 1304.44 122.439H1302.44C1302.44 135.495 1299.22 144.069 1292.79 149.425C1286.32 154.819 1276.38 157.139 1262.52 157.139V159.139ZM1304.44 122.439C1304.44 108.941 1301.14 99.6629 1294.11 93.8071C1287.12 87.9891 1276.66 85.739 1262.81 85.739V87.739C1276.53 87.739 1286.39 89.9877 1292.83 95.3442C1299.22 100.663 1302.44 109.235 1302.44 122.439H1304.44ZM1262.81 85.739C1248.66 85.739 1237.71 88.1386 1230.3 93.9711C1222.83 99.8466 1219.14 109.044 1219.14 122.149H1221.14C1221.14 109.422 1224.71 100.914 1231.54 95.5429C1238.42 90.1285 1248.81 87.739 1262.81 87.739V85.739ZM1219.14 122.149V124.471H1221.14V122.149H1219.14Z" fill="url(#paint0_linear_3417_15398)" mask="url(#path-1-outside-1_3417_15398)"/>
<defs>
<linearGradient id="paint0_linear_3417_15398" x1="672" y1="-76" x2="672" y2="281" gradientUnits="userSpaceOnUse">
<stop stop-color="#FF4E00" stop-opacity="0.5"/>
<stop offset="0.743247" stop-color="#FF4E00" stop-opacity="0"/>
</linearGradient>
</defs>
</svg>
