<svg width="1612" height="1059" viewBox="0 0 1612 1059" fill="none" xmlns="http://www.w3.org/2000/svg">
<circle cx="791.412" cy="587.412" r="26.4116" fill="#FF4E00" fill-opacity="0.2"/>
<circle cx="1249.23" cy="181.412" r="26.4116" fill="#FF4E00" fill-opacity="0.2"/>
<path d="M2.82129 843.649C81.2773 898.493 256.159 958.484 328.038 759.696C417.887 511.212 584.899 582.422 637.047 595.539C689.194 608.657 879.814 629.645 924.562 411.894C969.31 194.142 1129.28 109.815 1278.32 196.016C1427.36 282.217 1607.06 155.913 1608.82 3" stroke="#00002F" stroke-width="4.40193" stroke-linecap="round"/>
<circle cx="791.411" cy="587.409" r="15.847" fill="#FF4E00"/>
<circle cx="1249.23" cy="181.413" r="15.847" fill="#FF4E00"/>
<circle cx="84.2329" cy="883.412" r="26.4116" fill="#FF4E00" fill-opacity="0.2"/>
<circle cx="84.2327" cy="883.411" r="15.847" fill="#FF4E00"/>
<path d="M168.331 637H162.496V626.95H168.121C170.041 626.95 171.196 627.835 171.196 629.425C171.196 630.61 170.536 631.495 169.006 631.675V631.78C170.716 631.975 171.556 632.905 171.556 634.225C171.556 635.95 170.401 637 168.331 637ZM164.101 628.405V631.165H167.896C169.021 631.165 169.591 630.73 169.591 629.785C169.591 628.84 169.066 628.405 167.941 628.405H164.101ZM164.101 632.5V635.545H168.151C169.351 635.545 169.936 635.095 169.936 634C169.936 632.95 169.336 632.5 168.151 632.5H164.101ZM176.355 637.15C173.91 637.15 172.305 635.77 172.305 633.28C172.305 630.955 173.895 629.395 176.325 629.395C178.635 629.395 180.21 630.67 180.21 632.935C180.21 633.205 180.195 633.415 180.15 633.64H173.82C173.88 635.08 174.585 635.845 176.31 635.845C177.87 635.845 178.515 635.335 178.515 634.45V634.33H180.135V634.465C180.135 636.055 178.575 637.15 176.355 637.15ZM176.295 630.67C174.645 630.67 173.925 631.405 173.835 632.74H178.68V632.71C178.68 631.33 177.885 630.67 176.295 630.67ZM186.314 637H184.604C182.999 637 182.009 636.295 182.009 634.48V630.895H180.749V629.545H182.009V627.91H183.614V629.545H186.314V630.895H183.614V634.39C183.614 635.305 184.034 635.545 184.964 635.545H186.314V637ZM189.517 637.15C187.972 637.15 186.997 636.43 186.997 635.2C186.997 634.045 187.927 633.445 189.397 633.28L192.787 632.92V632.485C192.787 631.255 192.247 630.82 190.822 630.82C189.442 630.82 188.767 631.27 188.767 632.365V632.425H187.162V632.365C187.162 630.67 188.572 629.395 190.942 629.395C193.312 629.395 194.377 630.685 194.377 632.47V637H192.892V635.14H192.787C192.397 636.4 191.212 637.15 189.517 637.15ZM188.617 635.095C188.617 635.695 189.022 635.98 189.952 635.98C191.647 635.98 192.787 635.35 192.787 633.88L189.862 634.21C189.022 634.315 188.617 634.51 188.617 635.095ZM203.382 637H201.777V628.405H197.817V626.95H207.327V628.405H203.382V637ZM212.024 637.15C209.579 637.15 207.974 635.77 207.974 633.28C207.974 630.955 209.564 629.395 211.994 629.395C214.304 629.395 215.879 630.67 215.879 632.935C215.879 633.205 215.864 633.415 215.819 633.64H209.489C209.549 635.08 210.254 635.845 211.979 635.845C213.539 635.845 214.184 635.335 214.184 634.45V634.33H215.804V634.465C215.804 636.055 214.244 637.15 212.024 637.15ZM211.964 630.67C210.314 630.67 209.594 631.405 209.504 632.74H214.349V632.71C214.349 631.33 213.554 630.67 211.964 630.67ZM220.618 637.15C218.218 637.15 216.853 636.205 216.853 634.48V634.435H218.473V634.555C218.473 635.53 219.058 635.845 220.618 635.845C222.073 635.845 222.508 635.545 222.508 634.885C222.508 634.27 222.148 634.075 221.083 633.925L219.043 633.655C217.633 633.475 216.778 632.875 216.778 631.63C216.778 630.325 217.963 629.395 220.258 629.395C222.538 629.395 223.918 630.31 223.918 632.08V632.125H222.313V632.035C222.313 631.15 221.863 630.685 220.213 630.685C218.848 630.685 218.368 630.985 218.368 631.69C218.368 632.275 218.668 632.485 219.793 632.635L221.518 632.875C223.288 633.1 224.098 633.7 224.098 634.93C224.098 636.325 222.718 637.15 220.618 637.15ZM230.157 637H228.447C226.842 637 225.852 636.295 225.852 634.48V630.895H224.592V629.545H225.852V627.91H227.457V629.545H230.157V630.895H227.457V634.39C227.457 635.305 227.877 635.545 228.807 635.545H230.157V637ZM237.948 637.15C234.948 637.15 233.418 635.83 233.418 633.715V633.625H235.038V633.865C235.038 635.065 235.743 635.665 237.948 635.665C239.868 635.665 240.543 635.245 240.543 634.3C240.543 633.43 240.033 633.1 238.758 632.86L236.298 632.455C234.603 632.155 233.403 631.375 233.403 629.725C233.403 628.27 234.603 626.8 237.723 626.8C240.663 626.8 241.998 628.27 241.998 630.235V630.325H240.393V630.13C240.393 628.9 239.658 628.285 237.573 628.285C235.743 628.285 235.023 628.735 235.023 629.635C235.023 630.505 235.533 630.79 236.718 631.045L239.163 631.465C241.173 631.825 242.163 632.74 242.163 634.21C242.163 635.74 240.918 637.15 237.948 637.15ZM248.203 637H246.493C244.888 637 243.898 636.295 243.898 634.48V630.895H242.638V629.545H243.898V627.91H245.503V629.545H248.203V630.895H245.503V634.39C245.503 635.305 245.923 635.545 246.853 635.545H248.203V637ZM251.407 637.15C249.862 637.15 248.887 636.43 248.887 635.2C248.887 634.045 249.817 633.445 251.287 633.28L254.677 632.92V632.485C254.677 631.255 254.137 630.82 252.712 630.82C251.332 630.82 250.657 631.27 250.657 632.365V632.425H249.052V632.365C249.052 630.67 250.462 629.395 252.832 629.395C255.202 629.395 256.267 630.685 256.267 632.47V637H254.782V635.14H254.677C254.287 636.4 253.102 637.15 251.407 637.15ZM250.507 635.095C250.507 635.695 250.912 635.98 251.842 635.98C253.537 635.98 254.677 635.35 254.677 633.88L251.752 634.21C250.912 634.315 250.507 634.51 250.507 635.095ZM260.953 636.325C258.733 636.325 257.413 634.93 257.413 632.86C257.413 630.79 258.793 629.395 261.058 629.395C262.618 629.395 263.788 630.1 264.058 631.405H264.148V629.545H265.633V636.13C265.633 638.635 264.073 639.7 261.628 639.7C259.423 639.7 257.893 638.665 257.893 636.865H259.498C259.498 637.945 260.128 638.35 261.718 638.35C263.413 638.35 264.028 637.885 264.028 636.22V634.39H263.923C263.653 635.515 262.648 636.325 260.953 636.325ZM259.048 632.86C259.048 634.39 259.948 634.93 261.478 634.93C263.128 634.93 264.028 634.24 264.028 632.92V632.71C264.028 631.45 263.098 630.805 261.523 630.805C259.963 630.805 259.048 631.33 259.048 632.86ZM270.882 637.15C268.437 637.15 266.832 635.77 266.832 633.28C266.832 630.955 268.422 629.395 270.852 629.395C273.162 629.395 274.737 630.67 274.737 632.935C274.737 633.205 274.722 633.415 274.677 633.64H268.347C268.407 635.08 269.112 635.845 270.837 635.845C272.397 635.845 273.042 635.335 273.042 634.45V634.33H274.662V634.465C274.662 636.055 273.102 637.15 270.882 637.15ZM270.822 630.67C269.172 630.67 268.452 631.405 268.362 632.74H273.207V632.71C273.207 631.33 272.412 630.67 270.822 630.67Z" fill="#00002F"/>
<path d="M166.786 603.15C163.786 603.15 162.256 601.83 162.256 599.715V599.625H163.876V599.865C163.876 601.065 164.581 601.665 166.786 601.665C168.706 601.665 169.381 601.245 169.381 600.3C169.381 599.43 168.871 599.1 167.596 598.86L165.136 598.455C163.441 598.155 162.241 597.375 162.241 595.725C162.241 594.27 163.441 592.8 166.561 592.8C169.501 592.8 170.836 594.27 170.836 596.235V596.325H169.231V596.13C169.231 594.9 168.496 594.285 166.411 594.285C164.581 594.285 163.861 594.735 163.861 595.635C163.861 596.505 164.371 596.79 165.556 597.045L168.001 597.465C170.011 597.825 171.001 598.74 171.001 600.21C171.001 601.74 169.756 603.15 166.786 603.15ZM177.041 603H175.331C173.726 603 172.736 602.295 172.736 600.48V596.895H171.476V595.545H172.736V593.91H174.341V595.545H177.041V596.895H174.341V600.39C174.341 601.305 174.761 601.545 175.691 601.545H177.041V603ZM179.675 603H178.055V595.545H179.54V597.555H179.645C179.87 596.355 180.68 595.395 182.21 595.395C183.905 595.395 184.64 596.61 184.64 598.02V598.995H183.035V598.335C183.035 597.27 182.585 596.775 181.475 596.775C180.2 596.775 179.675 597.48 179.675 598.815V603ZM187.847 603.15C186.302 603.15 185.327 602.43 185.327 601.2C185.327 600.045 186.257 599.445 187.727 599.28L191.117 598.92V598.485C191.117 597.255 190.577 596.82 189.152 596.82C187.772 596.82 187.097 597.27 187.097 598.365V598.425H185.492V598.365C185.492 596.67 186.902 595.395 189.272 595.395C191.642 595.395 192.707 596.685 192.707 598.47V603H191.222V601.14H191.117C190.727 602.4 189.542 603.15 187.847 603.15ZM186.947 601.095C186.947 601.695 187.352 601.98 188.282 601.98C189.977 601.98 191.117 601.35 191.117 599.88L188.192 600.21C187.352 600.315 186.947 600.51 186.947 601.095ZM199.043 603H197.333C195.728 603 194.738 602.295 194.738 600.48V596.895H193.478V595.545H194.738V593.91H196.343V595.545H199.043V596.895H196.343V600.39C196.343 601.305 196.763 601.545 197.693 601.545H199.043V603ZM203.807 603.15C201.362 603.15 199.757 601.77 199.757 599.28C199.757 596.955 201.347 595.395 203.777 595.395C206.087 595.395 207.662 596.67 207.662 598.935C207.662 599.205 207.647 599.415 207.602 599.64H201.272C201.332 601.08 202.037 601.845 203.762 601.845C205.322 601.845 205.967 601.335 205.967 600.45V600.33H207.587V600.465C207.587 602.055 206.027 603.15 203.807 603.15ZM203.747 596.67C202.097 596.67 201.377 597.405 201.287 598.74H206.132V598.71C206.132 597.33 205.337 596.67 203.747 596.67ZM212.115 602.325C209.895 602.325 208.575 600.93 208.575 598.86C208.575 596.79 209.955 595.395 212.22 595.395C213.78 595.395 214.95 596.1 215.22 597.405H215.31V595.545H216.795V602.13C216.795 604.635 215.235 605.7 212.79 605.7C210.585 605.7 209.055 604.665 209.055 602.865H210.66C210.66 603.945 211.29 604.35 212.88 604.35C214.575 604.35 215.19 603.885 215.19 602.22V600.39H215.085C214.815 601.515 213.81 602.325 212.115 602.325ZM210.21 598.86C210.21 600.39 211.11 600.93 212.64 600.93C214.29 600.93 215.19 600.24 215.19 598.92V598.71C215.19 597.45 214.26 596.805 212.685 596.805C211.125 596.805 210.21 597.33 210.21 598.86ZM219.914 594.675H218.294V592.95H219.914V594.675ZM219.914 603H218.294V595.545H219.914V603ZM225.179 603.15C222.719 603.15 221.114 601.575 221.114 599.28C221.114 596.955 222.719 595.395 225.179 595.395C227.414 595.395 229.049 596.655 229.049 598.515V598.665H227.444V598.575C227.444 597.42 226.604 596.85 225.149 596.85C223.469 596.85 222.719 597.645 222.719 599.28C222.719 600.885 223.469 601.695 225.149 601.695C226.604 601.695 227.444 601.125 227.444 599.97V599.865H229.049V600.03C229.049 601.89 227.414 603.15 225.179 603.15ZM234.431 603H232.811V592.95H237.731C239.966 592.95 241.496 594.225 241.496 596.46C241.496 598.68 239.966 599.97 237.731 599.97H234.431V603ZM237.581 594.405H234.431V598.515H237.581C239.096 598.515 239.876 597.945 239.876 596.46C239.876 594.975 239.096 594.405 237.581 594.405ZM244.654 603.15C243.109 603.15 242.134 602.43 242.134 601.2C242.134 600.045 243.064 599.445 244.534 599.28L247.924 598.92V598.485C247.924 597.255 247.384 596.82 245.959 596.82C244.579 596.82 243.904 597.27 243.904 598.365V598.425H242.299V598.365C242.299 596.67 243.709 595.395 246.079 595.395C248.449 595.395 249.514 596.685 249.514 598.47V603H248.029V601.14H247.924C247.534 602.4 246.349 603.15 244.654 603.15ZM243.754 601.095C243.754 601.695 244.159 601.98 245.089 601.98C246.784 601.98 247.924 601.35 247.924 599.88L244.999 600.21C244.159 600.315 243.754 600.51 243.754 601.095ZM252.58 603H250.96V595.545H252.445V597.555H252.55C252.775 596.355 253.585 595.395 255.115 595.395C256.81 595.395 257.545 596.61 257.545 598.02V598.995H255.94V598.335C255.94 597.27 255.49 596.775 254.38 596.775C253.105 596.775 252.58 597.48 252.58 598.815V603ZM263.453 603H261.743C260.138 603 259.148 602.295 259.148 600.48V596.895H257.888V595.545H259.148V593.91H260.753V595.545H263.453V596.895H260.753V600.39C260.753 601.305 261.173 601.545 262.103 601.545H263.453V603ZM266.086 603H264.466V595.545H265.951V597.855H266.056C266.281 596.595 267.271 595.395 269.161 595.395C271.231 595.395 272.251 596.79 272.251 598.515V603H270.631V598.95C270.631 597.555 270.001 596.85 268.456 596.85C266.821 596.85 266.086 597.69 266.086 599.31V603ZM277.444 603.15C274.999 603.15 273.394 601.77 273.394 599.28C273.394 596.955 274.984 595.395 277.414 595.395C279.724 595.395 281.299 596.67 281.299 598.935C281.299 599.205 281.284 599.415 281.239 599.64H274.909C274.969 601.08 275.674 601.845 277.399 601.845C278.959 601.845 279.604 601.335 279.604 600.45V600.33H281.224V600.465C281.224 602.055 279.664 603.15 277.444 603.15ZM277.384 596.67C275.734 596.67 275.014 597.405 274.924 598.74H279.769V598.71C279.769 597.33 278.974 596.67 277.384 596.67ZM284.133 603H282.513V595.545H283.998V597.555H284.103C284.328 596.355 285.138 595.395 286.668 595.395C288.363 595.395 289.098 596.61 289.098 598.02V598.995H287.493V598.335C287.493 597.27 287.043 596.775 285.933 596.775C284.658 596.775 284.133 597.48 284.133 598.815V603ZM293.64 603.15C291.24 603.15 289.875 602.205 289.875 600.48V600.435H291.495V600.555C291.495 601.53 292.08 601.845 293.64 601.845C295.095 601.845 295.53 601.545 295.53 600.885C295.53 600.27 295.17 600.075 294.105 599.925L292.065 599.655C290.655 599.475 289.8 598.875 289.8 597.63C289.8 596.325 290.985 595.395 293.28 595.395C295.56 595.395 296.94 596.31 296.94 598.08V598.125H295.335V598.035C295.335 597.15 294.885 596.685 293.235 596.685C291.87 596.685 291.39 596.985 291.39 597.69C291.39 598.275 291.69 598.485 292.815 598.635L294.54 598.875C296.31 599.1 297.12 599.7 297.12 600.93C297.12 602.325 295.74 603.15 293.64 603.15ZM299.909 603H298.289V592.95H299.909V597.825H299.999C300.254 596.565 301.169 595.395 303.074 595.395C305.129 595.395 306.134 596.745 306.134 598.56V603H304.529V598.95C304.529 597.45 303.854 596.85 302.309 596.85C300.539 596.85 299.909 597.81 299.909 599.385V603ZM309.211 594.675H307.591V592.95H309.211V594.675ZM309.211 603H307.591V595.545H309.211V603ZM312.331 605.55H310.711V595.545H312.196V597.615H312.331C312.631 596.235 313.681 595.395 315.436 595.395C317.746 595.395 319.051 596.97 319.051 599.28C319.051 601.59 317.776 603.15 315.451 603.15C313.771 603.15 312.691 602.265 312.391 600.9H312.331V605.55ZM312.331 599.4C312.331 600.93 313.306 601.68 314.896 601.68C316.501 601.68 317.431 601.065 317.431 599.28C317.431 597.48 316.486 596.88 314.926 596.88C313.261 596.88 312.331 597.66 312.331 599.265V599.4ZM323.699 603.15C321.299 603.15 319.934 602.205 319.934 600.48V600.435H321.554V600.555C321.554 601.53 322.139 601.845 323.699 601.845C325.154 601.845 325.589 601.545 325.589 600.885C325.589 600.27 325.229 600.075 324.164 599.925L322.124 599.655C320.714 599.475 319.859 598.875 319.859 597.63C319.859 596.325 321.044 595.395 323.339 595.395C325.619 595.395 326.999 596.31 326.999 598.08V598.125H325.394V598.035C325.394 597.15 324.944 596.685 323.294 596.685C321.929 596.685 321.449 596.985 321.449 597.69C321.449 598.275 321.749 598.485 322.874 598.635L324.599 598.875C326.369 599.1 327.179 599.7 327.179 600.93C327.179 602.325 325.799 603.15 323.699 603.15Z" fill="#00002F"/>
<path d="M167.236 569H162.661V558.95H167.236C170.356 558.95 172.321 560.87 172.321 563.975C172.321 567.08 170.356 569 167.236 569ZM167.236 560.405H164.266V567.545H167.236C169.561 567.545 170.611 566.555 170.611 563.975C170.611 561.395 169.561 560.405 167.236 560.405ZM177.278 569.15C174.833 569.15 173.228 567.77 173.228 565.28C173.228 562.955 174.818 561.395 177.248 561.395C179.558 561.395 181.133 562.67 181.133 564.935C181.133 565.205 181.118 565.415 181.073 565.64H174.743C174.803 567.08 175.508 567.845 177.233 567.845C178.793 567.845 179.438 567.335 179.438 566.45V566.33H181.058V566.465C181.058 568.055 179.498 569.15 177.278 569.15ZM177.218 562.67C175.568 562.67 174.848 563.405 174.758 564.74H179.603V564.71C179.603 563.33 178.808 562.67 177.218 562.67ZM187.132 569H185.152L181.672 561.545H183.457L186.112 567.425H186.232L188.887 561.545H190.642L187.132 569ZM195.223 569.15C192.778 569.15 191.173 567.77 191.173 565.28C191.173 562.955 192.763 561.395 195.193 561.395C197.503 561.395 199.078 562.67 199.078 564.935C199.078 565.205 199.063 565.415 199.018 565.64H192.688C192.748 567.08 193.453 567.845 195.178 567.845C196.738 567.845 197.383 567.335 197.383 566.45V566.33H199.003V566.465C199.003 568.055 197.443 569.15 195.223 569.15ZM195.163 562.67C193.513 562.67 192.793 563.405 192.703 564.74H197.548V564.71C197.548 563.33 196.753 562.67 195.163 562.67ZM201.911 569H200.291V558.95H201.911V569ZM207.221 569.15C204.746 569.15 203.081 567.575 203.081 565.28C203.081 562.955 204.746 561.395 207.221 561.395C209.711 561.395 211.376 562.955 211.376 565.28C211.376 567.575 209.711 569.15 207.221 569.15ZM207.221 567.71C209.036 567.71 209.786 566.855 209.786 565.28C209.786 563.69 209.036 562.82 207.221 562.82C205.421 562.82 204.671 563.69 204.671 565.28C204.671 566.855 205.421 567.71 207.221 567.71ZM214.172 571.55H212.552V561.545H214.037V563.615H214.172C214.472 562.235 215.522 561.395 217.277 561.395C219.587 561.395 220.892 562.97 220.892 565.28C220.892 567.59 219.617 569.15 217.292 569.15C215.612 569.15 214.532 568.265 214.232 566.9H214.172V571.55ZM214.172 565.4C214.172 566.93 215.147 567.68 216.737 567.68C218.342 567.68 219.272 567.065 219.272 565.28C219.272 563.48 218.327 562.88 216.767 562.88C215.102 562.88 214.172 563.66 214.172 565.265V565.4ZM223.635 569H222.015V561.545H223.5V563.795H223.59C223.785 562.55 224.595 561.395 226.455 561.395C228.15 561.395 229.065 562.43 229.275 563.855H229.365C229.56 562.58 230.4 561.395 232.29 561.395C234.225 561.395 235.2 562.715 235.2 564.515V569H233.595V564.95C233.595 563.48 233.01 562.85 231.57 562.85C229.98 562.85 229.41 563.66 229.41 565.31V569H227.805V564.95C227.805 563.48 227.235 562.85 225.795 562.85C224.19 562.85 223.635 563.66 223.635 565.31V569ZM240.398 569.15C237.953 569.15 236.348 567.77 236.348 565.28C236.348 562.955 237.938 561.395 240.368 561.395C242.678 561.395 244.253 562.67 244.253 564.935C244.253 565.205 244.238 565.415 244.193 565.64H237.863C237.923 567.08 238.628 567.845 240.353 567.845C241.913 567.845 242.558 567.335 242.558 566.45V566.33H244.178V566.465C244.178 568.055 242.618 569.15 240.398 569.15ZM240.338 562.67C238.688 562.67 237.968 563.405 237.878 564.74H242.723V564.71C242.723 563.33 241.928 562.67 240.338 562.67ZM247.087 569H245.467V561.545H246.952V563.855H247.057C247.282 562.595 248.272 561.395 250.162 561.395C252.232 561.395 253.252 562.79 253.252 564.515V569H251.632V564.95C251.632 563.555 251.002 562.85 249.457 562.85C247.822 562.85 247.087 563.69 247.087 565.31V569ZM259.585 569H257.875C256.27 569 255.28 568.295 255.28 566.48V562.895H254.02V561.545H255.28V559.91H256.885V561.545H259.585V562.895H256.885V566.39C256.885 567.305 257.305 567.545 258.235 567.545H259.585V569Z" fill="#00002F"/>
<circle cx="145.821" cy="632" r="8" fill="#FF4E00" fill-opacity="0.2"/>
<circle cx="145.821" cy="631.999" r="4.8" fill="#FF4E00"/>
<circle cx="145.821" cy="598" r="8" fill="#FF4E00" fill-opacity="0.2"/>
<circle cx="145.821" cy="597.999" r="4.8" fill="#FF4E00"/>
<circle cx="145.821" cy="564" r="8" fill="#FF4E00" fill-opacity="0.2"/>
<circle cx="145.821" cy="563.999" r="4.8" fill="#FF4E00"/>
<path d="M233.191 1021H231.571V1010.95H236.491C238.726 1010.95 240.256 1012.22 240.256 1014.46C240.256 1016.68 238.726 1017.97 236.491 1017.97H233.191V1021ZM236.341 1012.4H233.191V1016.51H236.341C237.856 1016.51 238.636 1015.94 238.636 1014.46C238.636 1012.97 237.856 1012.4 236.341 1012.4ZM242.845 1021H241.225V1013.54H242.71V1015.55H242.815C243.04 1014.35 243.85 1013.39 245.38 1013.39C247.075 1013.39 247.81 1014.61 247.81 1016.02V1016.99H246.205V1016.33C246.205 1015.27 245.755 1014.77 244.645 1014.77C243.37 1014.77 242.845 1015.48 242.845 1016.81V1021ZM252.637 1021.15C250.162 1021.15 248.497 1019.57 248.497 1017.28C248.497 1014.95 250.162 1013.39 252.637 1013.39C255.127 1013.39 256.792 1014.95 256.792 1017.28C256.792 1019.57 255.127 1021.15 252.637 1021.15ZM252.637 1019.71C254.452 1019.71 255.202 1018.85 255.202 1017.28C255.202 1015.69 254.452 1014.82 252.637 1014.82C250.837 1014.82 250.087 1015.69 250.087 1017.28C250.087 1018.85 250.837 1019.71 252.637 1019.71ZM262.858 1021H261.148C259.543 1021 258.553 1020.29 258.553 1018.48V1014.89H257.293V1013.54H258.553V1011.91H260.158V1013.54H262.858V1014.89H260.158V1018.39C260.158 1019.3 260.578 1019.54 261.508 1019.54H262.858V1021ZM267.681 1021.15C265.206 1021.15 263.541 1019.57 263.541 1017.28C263.541 1014.95 265.206 1013.39 267.681 1013.39C270.171 1013.39 271.836 1014.95 271.836 1017.28C271.836 1019.57 270.171 1021.15 267.681 1021.15ZM267.681 1019.71C269.496 1019.71 270.246 1018.85 270.246 1017.28C270.246 1015.69 269.496 1014.82 267.681 1014.82C265.881 1014.82 265.131 1015.69 265.131 1017.28C265.131 1018.85 265.881 1019.71 267.681 1019.71ZM277.902 1021H276.192C274.587 1021 273.597 1020.29 273.597 1018.48V1014.89H272.337V1013.54H273.597V1011.91H275.202V1013.54H277.902V1014.89H275.202V1018.39C275.202 1019.3 275.622 1019.54 276.552 1019.54H277.902V1021ZM280.115 1023.55H279.05V1022.08H280.505C281.165 1022.08 281.435 1021.9 281.66 1021.39L281.84 1021L278.165 1013.54H279.98L281.885 1017.5L282.62 1019.29H282.74L283.445 1017.49L285.2 1013.54H286.985L283.1 1021.81C282.485 1023.15 281.645 1023.55 280.115 1023.55ZM289.397 1023.55H287.777V1013.54H289.262V1015.61H289.397C289.697 1014.23 290.747 1013.39 292.502 1013.39C294.812 1013.39 296.117 1014.97 296.117 1017.28C296.117 1019.59 294.842 1021.15 292.517 1021.15C290.837 1021.15 289.757 1020.26 289.457 1018.9H289.397V1023.55ZM289.397 1017.4C289.397 1018.93 290.372 1019.68 291.962 1019.68C293.567 1019.68 294.497 1019.06 294.497 1017.28C294.497 1015.48 293.552 1014.88 291.992 1014.88C290.327 1014.88 289.397 1015.66 289.397 1017.26V1017.4ZM300.99 1021.15C298.545 1021.15 296.94 1019.77 296.94 1017.28C296.94 1014.95 298.53 1013.39 300.96 1013.39C303.27 1013.39 304.845 1014.67 304.845 1016.93C304.845 1017.2 304.83 1017.41 304.785 1017.64H298.455C298.515 1019.08 299.22 1019.84 300.945 1019.84C302.505 1019.84 303.15 1019.33 303.15 1018.45V1018.33H304.77V1018.46C304.77 1020.05 303.21 1021.15 300.99 1021.15ZM300.93 1014.67C299.28 1014.67 298.56 1015.4 298.47 1016.74H303.315V1016.71C303.315 1015.33 302.52 1014.67 300.93 1014.67Z" fill="#00002F"/>
<path d="M239.611 1055H231.571V1044.95H239.611V1046.4H233.191V1049.22H239.386V1050.66H233.191V1053.54H239.611V1055ZM244.158 1055.15C241.803 1055.15 240.498 1053.57 240.498 1051.28C240.498 1048.95 241.788 1047.39 244.053 1047.39C245.823 1047.39 246.828 1048.31 247.128 1049.57H247.218V1044.95H248.838V1055H247.353V1052.85H247.248C246.933 1054.34 245.838 1055.15 244.158 1055.15ZM242.133 1051.28C242.133 1053.06 243.048 1053.66 244.653 1053.66C246.243 1053.66 247.218 1052.91 247.218 1051.35V1051.23C247.218 1049.64 246.288 1048.86 244.623 1048.86C243.063 1048.86 242.133 1049.48 242.133 1051.28ZM253.441 1055.15C251.341 1055.15 250.321 1053.75 250.321 1052.03V1047.54H251.926V1051.59C251.926 1052.99 252.571 1053.69 254.146 1053.69C255.796 1053.69 256.561 1052.85 256.561 1051.23V1047.54H258.166V1055H256.681V1052.69H256.591C256.351 1053.95 255.361 1055.15 253.441 1055.15ZM263.403 1055.15C260.943 1055.15 259.338 1053.57 259.338 1051.28C259.338 1048.95 260.943 1047.39 263.403 1047.39C265.638 1047.39 267.273 1048.65 267.273 1050.51V1050.66H265.668V1050.57C265.668 1049.42 264.828 1048.85 263.373 1048.85C261.693 1048.85 260.943 1049.64 260.943 1051.28C260.943 1052.88 261.693 1053.69 263.373 1053.69C264.828 1053.69 265.668 1053.12 265.668 1051.97V1051.86H267.273V1052.03C267.273 1053.89 265.638 1055.15 263.403 1055.15ZM270.661 1055.15C269.116 1055.15 268.141 1054.43 268.141 1053.2C268.141 1052.04 269.071 1051.44 270.541 1051.28L273.931 1050.92V1050.48C273.931 1049.25 273.391 1048.82 271.966 1048.82C270.586 1048.82 269.911 1049.27 269.911 1050.36V1050.42H268.306V1050.36C268.306 1048.67 269.716 1047.39 272.086 1047.39C274.456 1047.39 275.521 1048.68 275.521 1050.47V1055H274.036V1053.14H273.931C273.541 1054.4 272.356 1055.15 270.661 1055.15ZM269.761 1053.09C269.761 1053.69 270.166 1053.98 271.096 1053.98C272.791 1053.98 273.931 1053.35 273.931 1051.88L271.006 1052.21C270.166 1052.31 269.761 1052.51 269.761 1053.09ZM281.857 1055H280.147C278.542 1055 277.552 1054.29 277.552 1052.48V1048.89H276.292V1047.54H277.552V1045.91H279.157V1047.54H281.857V1048.89H279.157V1052.39C279.157 1053.3 279.577 1053.54 280.507 1053.54H281.857V1055ZM284.49 1046.67H282.87V1044.95H284.49V1046.67ZM284.49 1055H282.87V1047.54H284.49V1055ZM289.8 1055.15C287.325 1055.15 285.66 1053.57 285.66 1051.28C285.66 1048.95 287.325 1047.39 289.8 1047.39C292.29 1047.39 293.955 1048.95 293.955 1051.28C293.955 1053.57 292.29 1055.15 289.8 1055.15ZM289.8 1053.71C291.615 1053.71 292.365 1052.85 292.365 1051.28C292.365 1049.69 291.615 1048.82 289.8 1048.82C288 1048.82 287.25 1049.69 287.25 1051.28C287.25 1052.85 288 1053.71 289.8 1053.71ZM296.751 1055H295.131V1047.54H296.616V1049.85H296.721C296.946 1048.59 297.936 1047.39 299.826 1047.39C301.896 1047.39 302.916 1048.79 302.916 1050.51V1055H301.296V1050.95C301.296 1049.55 300.666 1048.85 299.121 1048.85C297.486 1048.85 296.751 1049.69 296.751 1051.31V1055Z" fill="#00002F"/>
<path d="M233.191 987H231.571V976.95H233.191V987ZM237.976 987.15C235.621 987.15 234.316 985.575 234.316 983.28C234.316 980.955 235.606 979.395 237.871 979.395C239.641 979.395 240.646 980.31 240.946 981.57H241.036V976.95H242.656V987H241.171V984.855H241.066C240.751 986.34 239.656 987.15 237.976 987.15ZM235.951 983.28C235.951 985.065 236.866 985.665 238.471 985.665C240.061 985.665 241.036 984.915 241.036 983.355V983.235C241.036 981.645 240.106 980.865 238.441 980.865C236.881 980.865 235.951 981.48 235.951 983.28ZM247.904 987.15C245.459 987.15 243.854 985.77 243.854 983.28C243.854 980.955 245.444 979.395 247.874 979.395C250.184 979.395 251.759 980.67 251.759 982.935C251.759 983.205 251.744 983.415 251.699 983.64H245.369C245.429 985.08 246.134 985.845 247.859 985.845C249.419 985.845 250.064 985.335 250.064 984.45V984.33H251.684V984.465C251.684 986.055 250.124 987.15 247.904 987.15ZM247.844 980.67C246.194 980.67 245.474 981.405 245.384 982.74H250.229V982.71C250.229 981.33 249.434 980.67 247.844 980.67ZM255.163 987.15C253.618 987.15 252.643 986.43 252.643 985.2C252.643 984.045 253.573 983.445 255.043 983.28L258.433 982.92V982.485C258.433 981.255 257.893 980.82 256.468 980.82C255.088 980.82 254.413 981.27 254.413 982.365V982.425H252.808V982.365C252.808 980.67 254.218 979.395 256.588 979.395C258.958 979.395 260.023 980.685 260.023 982.47V987H258.538V985.14H258.433C258.043 986.4 256.858 987.15 255.163 987.15ZM254.263 985.095C254.263 985.695 254.668 985.98 255.598 985.98C257.293 985.98 258.433 985.35 258.433 983.88L255.508 984.21C254.668 984.315 254.263 984.51 254.263 985.095ZM266.359 987H264.649C263.044 987 262.054 986.295 262.054 984.48V980.895H260.794V979.545H262.054V977.91H263.659V979.545H266.359V980.895H263.659V984.39C263.659 985.305 264.079 985.545 265.009 985.545H266.359V987ZM268.992 978.675H267.372V976.95H268.992V978.675ZM268.992 987H267.372V979.545H268.992V987ZM274.302 987.15C271.827 987.15 270.162 985.575 270.162 983.28C270.162 980.955 271.827 979.395 274.302 979.395C276.792 979.395 278.457 980.955 278.457 983.28C278.457 985.575 276.792 987.15 274.302 987.15ZM274.302 985.71C276.117 985.71 276.867 984.855 276.867 983.28C276.867 981.69 276.117 980.82 274.302 980.82C272.502 980.82 271.752 981.69 271.752 983.28C271.752 984.855 272.502 985.71 274.302 985.71ZM281.253 987H279.633V979.545H281.118V981.855H281.223C281.448 980.595 282.438 979.395 284.328 979.395C286.398 979.395 287.418 980.79 287.418 982.515V987H285.798V982.95C285.798 981.555 285.168 980.85 283.623 980.85C281.988 980.85 281.253 981.69 281.253 983.31V987Z" fill="#00002F"/>
<path d="M233.191 953H231.571V942.95H233.776L236.671 948.77L237.586 950.855H237.706L238.591 948.77L241.456 942.95H243.661V953H242.041V946.835L242.101 945.38H241.981L241.366 946.835L238.591 952.4H236.641L233.866 946.835L233.251 945.38H233.131L233.191 946.835V953ZM247.355 953.15C245.81 953.15 244.835 952.43 244.835 951.2C244.835 950.045 245.765 949.445 247.235 949.28L250.625 948.92V948.485C250.625 947.255 250.085 946.82 248.66 946.82C247.28 946.82 246.605 947.27 246.605 948.365V948.425H245V948.365C245 946.67 246.41 945.395 248.78 945.395C251.15 945.395 252.215 946.685 252.215 948.47V953H250.73V951.14H250.625C250.235 952.4 249.05 953.15 247.355 953.15ZM246.455 951.095C246.455 951.695 246.86 951.98 247.79 951.98C249.485 951.98 250.625 951.35 250.625 949.88L247.7 950.21C246.86 950.315 246.455 950.51 246.455 951.095ZM255.281 953H253.661V945.545H255.146V947.555H255.251C255.476 946.355 256.286 945.395 257.816 945.395C259.511 945.395 260.246 946.61 260.246 948.02V948.995H258.641V948.335C258.641 947.27 258.191 946.775 257.081 946.775C255.806 946.775 255.281 947.48 255.281 948.815V953ZM262.884 953H261.264V942.95H262.884V948.5H265.014L267.249 945.545H269.139L266.334 949.13L269.124 953H267.219L265.014 949.955H262.884V953ZM273.686 953.15C271.241 953.15 269.636 951.77 269.636 949.28C269.636 946.955 271.226 945.395 273.656 945.395C275.966 945.395 277.541 946.67 277.541 948.935C277.541 949.205 277.526 949.415 277.481 949.64H271.151C271.211 951.08 271.916 951.845 273.641 951.845C275.201 951.845 275.846 951.335 275.846 950.45V950.33H277.466V950.465C277.466 952.055 275.906 953.15 273.686 953.15ZM273.626 946.67C271.976 946.67 271.256 947.405 271.166 948.74H276.011V948.71C276.011 947.33 275.216 946.67 273.626 946.67ZM283.644 953H281.934C280.329 953 279.339 952.295 279.339 950.48V946.895H278.079V945.545H279.339V943.91H280.944V945.545H283.644V946.895H280.944V950.39C280.944 951.305 281.364 951.545 282.294 951.545H283.644V953ZM288.841 953H287.221V942.95H292.441C294.721 942.95 296.131 944.03 296.131 945.905C296.131 947.57 295.036 948.59 293.146 948.695V948.8C293.926 949.01 294.286 949.46 294.646 950.09L296.326 953H294.466L292.861 950.225C292.411 949.43 291.946 949.1 290.686 949.1H288.841V953ZM288.841 944.405V947.855H292.426C293.776 947.855 294.451 947.39 294.451 946.13C294.451 944.9 293.776 944.405 292.426 944.405H288.841ZM301.049 953.15C298.604 953.15 296.999 951.77 296.999 949.28C296.999 946.955 298.589 945.395 301.019 945.395C303.329 945.395 304.904 946.67 304.904 948.935C304.904 949.205 304.889 949.415 304.844 949.64H298.514C298.574 951.08 299.279 951.845 301.004 951.845C302.564 951.845 303.209 951.335 303.209 950.45V950.33H304.829V950.465C304.829 952.055 303.269 953.15 301.049 953.15ZM300.989 946.67C299.339 946.67 298.619 947.405 298.529 948.74H303.374V948.71C303.374 947.33 302.579 946.67 300.989 946.67ZM309.642 953.15C307.242 953.15 305.877 952.205 305.877 950.48V950.435H307.497V950.555C307.497 951.53 308.082 951.845 309.642 951.845C311.097 951.845 311.532 951.545 311.532 950.885C311.532 950.27 311.172 950.075 310.107 949.925L308.067 949.655C306.657 949.475 305.802 948.875 305.802 947.63C305.802 946.325 306.987 945.395 309.282 945.395C311.562 945.395 312.942 946.31 312.942 948.08V948.125H311.337V948.035C311.337 947.15 310.887 946.685 309.237 946.685C307.872 946.685 307.392 946.985 307.392 947.69C307.392 948.275 307.692 948.485 308.817 948.635L310.542 948.875C312.312 949.1 313.122 949.7 313.122 950.93C313.122 952.325 311.742 953.15 309.642 953.15ZM318.041 953.15C315.596 953.15 313.991 951.77 313.991 949.28C313.991 946.955 315.581 945.395 318.011 945.395C320.321 945.395 321.896 946.67 321.896 948.935C321.896 949.205 321.881 949.415 321.836 949.64H315.506C315.566 951.08 316.271 951.845 317.996 951.845C319.556 951.845 320.201 951.335 320.201 950.45V950.33H321.821V950.465C321.821 952.055 320.261 953.15 318.041 953.15ZM317.981 946.67C316.331 946.67 315.611 947.405 315.521 948.74H320.366V948.71C320.366 947.33 319.571 946.67 317.981 946.67ZM325.299 953.15C323.754 953.15 322.779 952.43 322.779 951.2C322.779 950.045 323.709 949.445 325.179 949.28L328.569 948.92V948.485C328.569 947.255 328.029 946.82 326.604 946.82C325.224 946.82 324.549 947.27 324.549 948.365V948.425H322.944V948.365C322.944 946.67 324.354 945.395 326.724 945.395C329.094 945.395 330.159 946.685 330.159 948.47V953H328.674V951.14H328.569C328.179 952.4 326.994 953.15 325.299 953.15ZM324.399 951.095C324.399 951.695 324.804 951.98 325.734 951.98C327.429 951.98 328.569 951.35 328.569 949.88L325.644 950.21C324.804 950.315 324.399 950.51 324.399 951.095ZM333.225 953H331.605V945.545H333.09V947.555H333.195C333.42 946.355 334.23 945.395 335.76 945.395C337.455 945.395 338.19 946.61 338.19 948.02V948.995H336.585V948.335C336.585 947.27 336.135 946.775 335.025 946.775C333.75 946.775 333.225 947.48 333.225 948.815V953ZM342.973 953.15C340.513 953.15 338.908 951.575 338.908 949.28C338.908 946.955 340.513 945.395 342.973 945.395C345.208 945.395 346.843 946.655 346.843 948.515V948.665H345.238V948.575C345.238 947.42 344.398 946.85 342.943 946.85C341.263 946.85 340.513 947.645 340.513 949.28C340.513 950.885 341.263 951.695 342.943 951.695C344.398 951.695 345.238 951.125 345.238 949.97V949.865H346.843V950.03C346.843 951.89 345.208 953.15 342.973 953.15ZM349.661 953H348.041V942.95H349.661V947.825H349.751C350.006 946.565 350.921 945.395 352.826 945.395C354.881 945.395 355.886 946.745 355.886 948.56V953H354.281V948.95C354.281 947.45 353.606 946.85 352.061 946.85C350.291 946.85 349.661 947.81 349.661 949.385V953Z" fill="#00002F"/>
<circle cx="214.821" cy="1016" r="8" fill="#FF4E00" fill-opacity="0.2"/>
<circle cx="214.821" cy="1016" r="4.8" fill="#FF4E00"/>
<circle cx="214.821" cy="1050" r="8" fill="#FF4E00" fill-opacity="0.2"/>
<circle cx="214.821" cy="1050" r="4.8" fill="#FF4E00"/>
<circle cx="214.821" cy="982" r="8" fill="#FF4E00" fill-opacity="0.2"/>
<circle cx="214.821" cy="981.999" r="4.8" fill="#FF4E00"/>
<circle cx="214.821" cy="948" r="8" fill="#FF4E00" fill-opacity="0.2"/>
<circle cx="214.821" cy="947.999" r="4.8" fill="#FF4E00"/>
<path d="M699.963 273.578C697.008 273.578 695.043 271.538 695.043 268.403C695.043 265.268 697.158 263.228 700.368 263.228C703.218 263.228 705.198 264.668 705.198 266.993V267.113H703.413V266.993C703.413 265.553 702.408 264.773 700.323 264.773C697.908 264.773 696.753 265.898 696.753 268.403C696.753 270.908 697.893 272.018 700.248 272.018C702.648 272.018 703.593 271.358 703.593 269.663V269.528H699.873V268.298H705.198V273.428H703.728V271.253H703.623C703.203 272.723 701.928 273.578 699.963 273.578ZM710.313 273.578C707.868 273.578 706.263 272.198 706.263 269.708C706.263 267.383 707.853 265.823 710.283 265.823C712.593 265.823 714.168 267.098 714.168 269.363C714.168 269.633 714.153 269.843 714.108 270.068H707.778C707.838 271.508 708.543 272.273 710.268 272.273C711.828 272.273 712.473 271.763 712.473 270.878V270.758H714.093V270.893C714.093 272.483 712.533 273.578 710.313 273.578ZM710.253 267.098C708.603 267.098 707.883 267.833 707.793 269.168H712.638V269.138C712.638 267.758 711.843 267.098 710.253 267.098ZM720.272 273.428H718.562C716.957 273.428 715.967 272.723 715.967 270.908V267.323H714.707V265.973H715.967V264.338H717.572V265.973H720.272V267.323H717.572V270.818C717.572 271.733 717.992 271.973 718.922 271.973H720.272V273.428ZM726.954 273.578C724.854 273.578 723.834 272.183 723.834 270.458V265.973H725.439V270.023C725.439 271.418 726.084 272.123 727.659 272.123C729.309 272.123 730.074 271.283 730.074 269.663V265.973H731.679V273.428H730.194V271.118H730.104C729.864 272.378 728.874 273.578 726.954 273.578ZM734.77 275.978H733.15V265.973H734.635V268.043H734.77C735.07 266.663 736.12 265.823 737.875 265.823C740.185 265.823 741.49 267.398 741.49 269.708C741.49 272.018 740.215 273.578 737.89 273.578C736.21 273.578 735.13 272.693 734.83 271.328H734.77V275.978ZM734.77 269.828C734.77 271.358 735.745 272.108 737.335 272.108C738.94 272.108 739.87 271.493 739.87 269.708C739.87 267.908 738.925 267.308 737.365 267.308C735.7 267.308 734.77 268.088 734.77 269.693V269.828ZM745.898 273.578C743.543 273.578 742.238 272.003 742.238 269.708C742.238 267.383 743.528 265.823 745.793 265.823C747.563 265.823 748.568 266.738 748.868 267.998H748.958V263.378H750.578V273.428H749.093V271.283H748.988C748.673 272.768 747.578 273.578 745.898 273.578ZM743.873 269.708C743.873 271.493 744.788 272.093 746.393 272.093C747.983 272.093 748.958 271.343 748.958 269.783V269.663C748.958 268.073 748.028 267.293 746.363 267.293C744.803 267.293 743.873 267.908 743.873 269.708ZM754.266 273.578C752.721 273.578 751.746 272.858 751.746 271.628C751.746 270.473 752.676 269.873 754.146 269.708L757.536 269.348V268.913C757.536 267.683 756.996 267.248 755.571 267.248C754.191 267.248 753.516 267.698 753.516 268.793V268.853H751.911V268.793C751.911 267.098 753.321 265.823 755.691 265.823C758.061 265.823 759.126 267.113 759.126 268.898V273.428H757.641V271.568H757.536C757.146 272.828 755.961 273.578 754.266 273.578ZM753.366 271.523C753.366 272.123 753.771 272.408 754.701 272.408C756.396 272.408 757.536 271.778 757.536 270.308L754.611 270.638C753.771 270.743 753.366 270.938 753.366 271.523ZM765.462 273.428H763.752C762.147 273.428 761.157 272.723 761.157 270.908V267.323H759.897V265.973H761.157V264.338H762.762V265.973H765.462V267.323H762.762V270.818C762.762 271.733 763.182 271.973 764.112 271.973H765.462V273.428ZM770.226 273.578C767.781 273.578 766.176 272.198 766.176 269.708C766.176 267.383 767.766 265.823 770.196 265.823C772.506 265.823 774.081 267.098 774.081 269.363C774.081 269.633 774.066 269.843 774.021 270.068H767.691C767.751 271.508 768.456 272.273 770.181 272.273C771.741 272.273 772.386 271.763 772.386 270.878V270.758H774.006V270.893C774.006 272.483 772.446 273.578 770.226 273.578ZM770.166 267.098C768.516 267.098 767.796 267.833 767.706 269.168H772.551V269.138C772.551 267.758 771.756 267.098 770.166 267.098ZM778.819 273.578C776.419 273.578 775.054 272.633 775.054 270.908V270.863H776.674V270.983C776.674 271.958 777.259 272.273 778.819 272.273C780.274 272.273 780.709 271.973 780.709 271.313C780.709 270.698 780.349 270.503 779.284 270.353L777.244 270.083C775.834 269.903 774.979 269.303 774.979 268.058C774.979 266.753 776.164 265.823 778.459 265.823C780.739 265.823 782.119 266.738 782.119 268.508V268.553H780.514V268.463C780.514 267.578 780.064 267.113 778.414 267.113C777.049 267.113 776.569 267.413 776.569 268.118C776.569 268.703 776.869 268.913 777.994 269.063L779.719 269.303C781.489 269.528 782.299 270.128 782.299 271.358C782.299 272.753 780.919 273.578 778.819 273.578ZM789.841 273.578C787.366 273.578 785.701 272.003 785.701 269.708C785.701 267.383 787.366 265.823 789.841 265.823C792.331 265.823 793.996 267.383 793.996 269.708C793.996 272.003 792.331 273.578 789.841 273.578ZM789.841 272.138C791.656 272.138 792.406 271.283 792.406 269.708C792.406 268.118 791.656 267.248 789.841 267.248C788.041 267.248 787.291 268.118 787.291 269.708C787.291 271.283 788.041 272.138 789.841 272.138ZM796.792 273.428H795.172V265.973H796.657V268.283H796.762C796.987 267.023 797.977 265.823 799.867 265.823C801.937 265.823 802.957 267.218 802.957 268.943V273.428H801.337V269.378C801.337 267.983 800.707 267.278 799.162 267.278C797.527 267.278 796.792 268.118 796.792 269.738V273.428ZM808.584 273.428H806.964V263.378H808.584V273.428ZM812.274 273.578C810.729 273.578 809.754 272.858 809.754 271.628C809.754 270.473 810.684 269.873 812.154 269.708L815.544 269.348V268.913C815.544 267.683 815.004 267.248 813.579 267.248C812.199 267.248 811.524 267.698 811.524 268.793V268.853H809.919V268.793C809.919 267.098 811.329 265.823 813.699 265.823C816.069 265.823 817.134 267.113 817.134 268.898V273.428H815.649V271.568H815.544C815.154 272.828 813.969 273.578 812.274 273.578ZM811.374 271.523C811.374 272.123 811.779 272.408 812.709 272.408C814.404 272.408 815.544 271.778 815.544 270.308L812.619 270.638C811.779 270.743 811.374 270.938 811.374 271.523ZM823.47 273.428H821.76C820.155 273.428 819.165 272.723 819.165 270.908V267.323H817.905V265.973H819.165V264.338H820.77V265.973H823.47V267.323H820.77V270.818C820.77 271.733 821.19 271.973 822.12 271.973H823.47V273.428ZM828.233 273.578C825.788 273.578 824.183 272.198 824.183 269.708C824.183 267.383 825.773 265.823 828.203 265.823C830.513 265.823 832.088 267.098 832.088 269.363C832.088 269.633 832.073 269.843 832.028 270.068H825.698C825.758 271.508 826.463 272.273 828.188 272.273C829.748 272.273 830.393 271.763 830.393 270.878V270.758H832.013V270.893C832.013 272.483 830.453 273.578 828.233 273.578ZM828.173 267.098C826.523 267.098 825.803 267.833 825.713 269.168H830.558V269.138C830.558 267.758 829.763 267.098 828.173 267.098ZM836.827 273.578C834.427 273.578 833.062 272.633 833.062 270.908V270.863H834.682V270.983C834.682 271.958 835.267 272.273 836.827 272.273C838.282 272.273 838.717 271.973 838.717 271.313C838.717 270.698 838.357 270.503 837.292 270.353L835.252 270.083C833.842 269.903 832.987 269.303 832.987 268.058C832.987 266.753 834.172 265.823 836.467 265.823C838.747 265.823 840.127 266.738 840.127 268.508V268.553H838.522V268.463C838.522 267.578 838.072 267.113 836.422 267.113C835.057 267.113 834.577 267.413 834.577 268.118C834.577 268.703 834.877 268.913 836.002 269.063L837.727 269.303C839.497 269.528 840.307 270.128 840.307 271.358C840.307 272.753 838.927 273.578 836.827 273.578ZM846.366 273.428H844.656C843.051 273.428 842.061 272.723 842.061 270.908V267.323H840.801V265.973H842.061V264.338H843.666V265.973H846.366V267.323H843.666V270.818C843.666 271.733 844.086 271.973 845.016 271.973H846.366V273.428ZM854.442 273.428H852.057L849.402 263.378H851.202L852.837 269.738L853.287 271.868H853.407L853.947 269.738L855.972 263.378H858.327L860.487 269.738L861.057 271.868H861.177L861.597 269.738L863.097 263.378H864.867L862.347 273.428H859.962L857.937 267.578L857.202 264.998H857.067L856.347 267.578L854.442 273.428ZM869.571 273.578C867.126 273.578 865.521 272.198 865.521 269.708C865.521 267.383 867.111 265.823 869.541 265.823C871.851 265.823 873.426 267.098 873.426 269.363C873.426 269.633 873.411 269.843 873.366 270.068H867.036C867.096 271.508 867.801 272.273 869.526 272.273C871.086 272.273 871.731 271.763 871.731 270.878V270.758H873.351V270.893C873.351 272.483 871.791 273.578 869.571 273.578ZM869.511 267.098C867.861 267.098 867.141 267.833 867.051 269.168H871.896V269.138C871.896 267.758 871.101 267.098 869.511 267.098ZM876.125 273.428H874.64V263.378H876.26V267.998H876.35C876.65 266.738 877.64 265.823 879.425 265.823C881.72 265.823 882.98 267.383 882.98 269.708C882.98 272.003 881.705 273.578 879.335 273.578C877.64 273.578 876.545 272.768 876.23 271.283H876.125V273.428ZM876.26 269.783C876.26 271.343 877.22 272.093 878.825 272.093C880.46 272.093 881.36 271.493 881.36 269.708C881.36 267.908 880.445 267.293 878.855 267.293C877.175 267.293 876.26 268.073 876.26 269.663V269.783ZM888.333 273.578C885.183 273.578 883.803 272.183 883.803 270.143V269.903H885.513V270.113C885.513 271.433 886.053 272.048 888.273 272.048C890.358 272.048 891.108 271.568 891.108 270.383C891.108 269.363 890.418 268.898 889.158 268.898H886.353V267.548H888.933C890.148 267.548 890.778 267.098 890.778 266.198C890.778 265.223 890.178 264.758 888.228 264.758C886.173 264.758 885.513 265.373 885.513 266.693V266.798H883.803V266.663C883.803 264.698 885.243 263.228 888.363 263.228C890.928 263.228 892.383 264.173 892.383 265.883C892.383 267.023 891.708 267.833 890.418 268.043V268.163C891.873 268.418 892.743 269.228 892.743 270.623C892.743 272.528 891.078 273.578 888.333 273.578ZM898.057 273.428H896.437V263.378H898.177L902.677 269.258L903.982 271.133H904.102L904.027 269.318V263.378H905.647V273.428H903.907L899.377 267.563L898.117 265.793H897.997L898.057 267.533V273.428ZM910.895 273.578C908.45 273.578 906.845 272.198 906.845 269.708C906.845 267.383 908.435 265.823 910.865 265.823C913.175 265.823 914.75 267.098 914.75 269.363C914.75 269.633 914.735 269.843 914.69 270.068H908.36C908.42 271.508 909.125 272.273 910.85 272.273C912.41 272.273 913.055 271.763 913.055 270.878V270.758H914.675V270.893C914.675 272.483 913.115 273.578 910.895 273.578ZM910.835 267.098C909.185 267.098 908.465 267.833 908.375 269.168H913.22V269.138C913.22 267.758 912.425 267.098 910.835 267.098ZM919.533 273.428H917.523L915.288 265.973H916.968L918.213 270.203L918.558 272.123H918.678L919.233 270.053L920.793 265.973H922.863L924.438 270.053L924.993 272.123H925.113L925.458 270.203L926.703 265.973H928.353L926.088 273.428H924.078L922.443 269.138L921.873 267.308H921.753L921.183 269.138L919.533 273.428ZM932.701 273.578C930.301 273.578 928.936 272.633 928.936 270.908V270.863H930.556V270.983C930.556 271.958 931.141 272.273 932.701 272.273C934.156 272.273 934.591 271.973 934.591 271.313C934.591 270.698 934.231 270.503 933.166 270.353L931.126 270.083C929.716 269.903 928.861 269.303 928.861 268.058C928.861 266.753 930.046 265.823 932.341 265.823C934.621 265.823 936.001 266.738 936.001 268.508V268.553H934.396V268.463C934.396 267.578 933.946 267.113 932.296 267.113C930.931 267.113 930.451 267.413 930.451 268.118C930.451 268.703 930.751 268.913 931.876 269.063L933.601 269.303C935.371 269.528 936.181 270.128 936.181 271.358C936.181 272.753 934.801 273.578 932.701 273.578Z" fill="#00002F"/>
<path d="M696.316 230H694.696V219.95H696.316V230ZM699.436 230H697.816V222.545H699.301V224.855H699.406C699.631 223.595 700.621 222.395 702.511 222.395C704.581 222.395 705.601 223.79 705.601 225.515V230H703.981V225.95C703.981 224.555 703.351 223.85 701.806 223.85C700.171 223.85 699.436 224.69 699.436 226.31V230ZM711.935 230H710.225C708.62 230 707.63 229.295 707.63 227.48V223.895H706.37V222.545H707.63V220.91H709.235V222.545H711.935V223.895H709.235V227.39C709.235 228.305 709.655 228.545 710.585 228.545H711.935V230ZM716.698 230.15C714.253 230.15 712.648 228.77 712.648 226.28C712.648 223.955 714.238 222.395 716.668 222.395C718.978 222.395 720.553 223.67 720.553 225.935C720.553 226.205 720.538 226.415 720.493 226.64H714.163C714.223 228.08 714.928 228.845 716.653 228.845C718.213 228.845 718.858 228.335 718.858 227.45V227.33H720.478V227.465C720.478 229.055 718.918 230.15 716.698 230.15ZM716.638 223.67C714.988 223.67 714.268 224.405 714.178 225.74H719.023V225.71C719.023 224.33 718.228 223.67 716.638 223.67ZM725.007 229.325C722.787 229.325 721.467 227.93 721.467 225.86C721.467 223.79 722.847 222.395 725.112 222.395C726.672 222.395 727.842 223.1 728.112 224.405H728.202V222.545H729.687V229.13C729.687 231.635 728.127 232.7 725.682 232.7C723.477 232.7 721.947 231.665 721.947 229.865H723.552C723.552 230.945 724.182 231.35 725.772 231.35C727.467 231.35 728.082 230.885 728.082 229.22V227.39H727.977C727.707 228.515 726.702 229.325 725.007 229.325ZM723.102 225.86C723.102 227.39 724.002 227.93 725.532 227.93C727.182 227.93 728.082 227.24 728.082 225.92V225.71C728.082 224.45 727.152 223.805 725.577 223.805C724.017 223.805 723.102 224.33 723.102 225.86ZM732.806 230H731.186V222.545H732.671V224.555H732.776C733.001 223.355 733.811 222.395 735.341 222.395C737.036 222.395 737.771 223.61 737.771 225.02V225.995H736.166V225.335C736.166 224.27 735.716 223.775 734.606 223.775C733.331 223.775 732.806 224.48 732.806 225.815V230ZM740.978 230.15C739.433 230.15 738.458 229.43 738.458 228.2C738.458 227.045 739.388 226.445 740.858 226.28L744.248 225.92V225.485C744.248 224.255 743.708 223.82 742.283 223.82C740.903 223.82 740.228 224.27 740.228 225.365V225.425H738.623V225.365C738.623 223.67 740.033 222.395 742.403 222.395C744.773 222.395 745.838 223.685 745.838 225.47V230H744.353V228.14H744.248C743.858 229.4 742.673 230.15 740.978 230.15ZM740.078 228.095C740.078 228.695 740.483 228.98 741.413 228.98C743.108 228.98 744.248 228.35 744.248 226.88L741.323 227.21C740.483 227.315 740.078 227.51 740.078 228.095ZM752.174 230H750.464C748.859 230 747.869 229.295 747.869 227.48V223.895H746.609V222.545H747.869V220.91H749.474V222.545H752.174V223.895H749.474V227.39C749.474 228.305 749.894 228.545 750.824 228.545H752.174V230ZM755.378 230.15C753.833 230.15 752.858 229.43 752.858 228.2C752.858 227.045 753.788 226.445 755.258 226.28L758.648 225.92V225.485C758.648 224.255 758.108 223.82 756.683 223.82C755.303 223.82 754.628 224.27 754.628 225.365V225.425H753.023V225.365C753.023 223.67 754.433 222.395 756.803 222.395C759.173 222.395 760.238 223.685 760.238 225.47V230H758.753V228.14H758.648C758.258 229.4 757.073 230.15 755.378 230.15ZM754.478 228.095C754.478 228.695 754.883 228.98 755.813 228.98C757.508 228.98 758.648 228.35 758.648 226.88L755.723 227.21C754.883 227.315 754.478 227.51 754.478 228.095ZM766.574 230H764.864C763.259 230 762.269 229.295 762.269 227.48V223.895H761.009V222.545H762.269V220.91H763.874V222.545H766.574V223.895H763.874V227.39C763.874 228.305 764.294 228.545 765.224 228.545H766.574V230ZM769.207 221.675H767.587V219.95H769.207V221.675ZM769.207 230H767.587V222.545H769.207V230ZM774.517 230.15C772.042 230.15 770.377 228.575 770.377 226.28C770.377 223.955 772.042 222.395 774.517 222.395C777.007 222.395 778.672 223.955 778.672 226.28C778.672 228.575 777.007 230.15 774.517 230.15ZM774.517 228.71C776.332 228.71 777.082 227.855 777.082 226.28C777.082 224.69 776.332 223.82 774.517 223.82C772.717 223.82 771.967 224.69 771.967 226.28C771.967 227.855 772.717 228.71 774.517 228.71ZM781.468 230H779.848V222.545H781.333V224.855H781.438C781.663 223.595 782.653 222.395 784.543 222.395C786.613 222.395 787.633 223.79 787.633 225.515V230H786.013V225.95C786.013 224.555 785.383 223.85 783.838 223.85C782.203 223.85 781.468 224.69 781.468 226.31V230ZM792.601 230.15C790.201 230.15 788.836 229.205 788.836 227.48V227.435H790.456V227.555C790.456 228.53 791.041 228.845 792.601 228.845C794.056 228.845 794.491 228.545 794.491 227.885C794.491 227.27 794.131 227.075 793.066 226.925L791.026 226.655C789.616 226.475 788.761 225.875 788.761 224.63C788.761 223.325 789.946 222.395 792.241 222.395C794.521 222.395 795.901 223.31 795.901 225.08V225.125H794.296V225.035C794.296 224.15 793.846 223.685 792.196 223.685C790.831 223.685 790.351 223.985 790.351 224.69C790.351 225.275 790.651 225.485 791.776 225.635L793.501 225.875C795.271 226.1 796.081 226.7 796.081 227.93C796.081 229.325 794.701 230.15 792.601 230.15Z" fill="#00002F"/>
<path d="M695.963 189.428H694.343V179.378H696.083L700.583 185.258L701.888 187.133H702.008L701.933 185.318V179.378H703.553V189.428H701.813L697.283 183.563L696.023 181.793H695.903L695.963 183.533V189.428ZM708.801 189.578C706.356 189.578 704.751 188.198 704.751 185.708C704.751 183.383 706.341 181.823 708.771 181.823C711.081 181.823 712.656 183.098 712.656 185.363C712.656 185.633 712.641 185.843 712.596 186.068H706.266C706.326 187.508 707.031 188.273 708.756 188.273C710.316 188.273 710.961 187.763 710.961 186.878V186.758H712.581V186.893C712.581 188.483 711.021 189.578 708.801 189.578ZM708.741 183.098C707.091 183.098 706.371 183.833 706.281 185.168H711.126V185.138C711.126 183.758 710.331 183.098 708.741 183.098ZM717.439 189.428H715.429L713.194 181.973H714.874L716.119 186.203L716.464 188.123H716.584L717.139 186.053L718.699 181.973H720.769L722.344 186.053L722.899 188.123H723.019L723.364 186.203L724.609 181.973H726.259L723.994 189.428H721.984L720.349 185.138L719.779 183.308H719.659L719.089 185.138L717.439 189.428ZM731.266 189.428H729.646V179.378H737.641V180.833H731.266V183.953H737.416V185.393H731.266V189.428ZM742.595 189.578C740.15 189.578 738.545 188.198 738.545 185.708C738.545 183.383 740.135 181.823 742.565 181.823C744.875 181.823 746.45 183.098 746.45 185.363C746.45 185.633 746.435 185.843 746.39 186.068H740.06C740.12 187.508 740.825 188.273 742.55 188.273C744.11 188.273 744.755 187.763 744.755 186.878V186.758H746.375V186.893C746.375 188.483 744.815 189.578 742.595 189.578ZM742.535 183.098C740.885 183.098 740.165 183.833 740.075 185.168H744.92V185.138C744.92 183.758 744.125 183.098 742.535 183.098ZM749.853 189.578C748.308 189.578 747.333 188.858 747.333 187.628C747.333 186.473 748.263 185.873 749.733 185.708L753.123 185.348V184.913C753.123 183.683 752.583 183.248 751.158 183.248C749.778 183.248 749.103 183.698 749.103 184.793V184.853H747.498V184.793C747.498 183.098 748.908 181.823 751.278 181.823C753.648 181.823 754.713 183.113 754.713 184.898V189.428H753.228V187.568H753.123C752.733 188.828 751.548 189.578 749.853 189.578ZM748.953 187.523C748.953 188.123 749.358 188.408 750.288 188.408C751.983 188.408 753.123 187.778 753.123 186.308L750.198 186.638C749.358 186.743 748.953 186.938 748.953 187.523ZM761.049 189.428H759.339C757.734 189.428 756.744 188.723 756.744 186.908V183.323H755.484V181.973H756.744V180.338H758.349V181.973H761.049V183.323H758.349V186.818C758.349 187.733 758.769 187.973 759.699 187.973H761.049V189.428ZM765.167 189.578C763.068 189.578 762.048 188.183 762.048 186.458V181.973H763.653V186.023C763.653 187.418 764.298 188.123 765.873 188.123C767.523 188.123 768.288 187.283 768.288 185.663V181.973H769.893V189.428H768.408V187.118H768.318C768.078 188.378 767.088 189.578 765.167 189.578ZM772.984 189.428H771.364V181.973H772.849V183.983H772.954C773.179 182.783 773.989 181.823 775.519 181.823C777.214 181.823 777.949 183.038 777.949 184.448V185.423H776.344V184.763C776.344 183.698 775.894 183.203 774.784 183.203C773.509 183.203 772.984 183.908 772.984 185.243V189.428ZM782.717 189.578C780.272 189.578 778.667 188.198 778.667 185.708C778.667 183.383 780.257 181.823 782.687 181.823C784.997 181.823 786.572 183.098 786.572 185.363C786.572 185.633 786.557 185.843 786.512 186.068H780.182C780.242 187.508 780.947 188.273 782.672 188.273C784.232 188.273 784.877 187.763 784.877 186.878V186.758H786.497V186.893C786.497 188.483 784.937 189.578 782.717 189.578ZM782.657 183.098C781.007 183.098 780.287 183.833 780.197 185.168H785.042V185.138C785.042 183.758 784.247 183.098 782.657 183.098ZM791.31 189.578C788.91 189.578 787.545 188.633 787.545 186.908V186.863H789.165V186.983C789.165 187.958 789.75 188.273 791.31 188.273C792.765 188.273 793.2 187.973 793.2 187.313C793.2 186.698 792.84 186.503 791.775 186.353L789.735 186.083C788.325 185.903 787.47 185.303 787.47 184.058C787.47 182.753 788.655 181.823 790.95 181.823C793.23 181.823 794.61 182.738 794.61 184.508V184.553H793.005V184.463C793.005 183.578 792.555 183.113 790.905 183.113C789.54 183.113 789.06 183.413 789.06 184.118C789.06 184.703 789.36 184.913 790.485 185.063L792.21 185.303C793.98 185.528 794.79 186.128 794.79 187.358C794.79 188.753 793.41 189.578 791.31 189.578Z" fill="#00002F"/>
<circle cx="679.946" cy="267" r="8" fill="#FF4E00" fill-opacity="0.2"/>
<circle cx="679.946" cy="266.999" r="4.8" fill="#FF4E00"/>
<circle cx="676.946" cy="223" r="8" fill="#FF4E00" fill-opacity="0.2"/>
<circle cx="676.946" cy="222.999" r="4.8" fill="#FF4E00"/>
<circle cx="676.946" cy="183" r="8" fill="#FF4E00" fill-opacity="0.2"/>
<circle cx="676.946" cy="182.999" r="4.8" fill="#FF4E00"/>
<path d="M853.191 729H851.571V718.95H853.191V729ZM859.581 729H857.871C856.266 729 855.276 728.295 855.276 726.48V722.895H854.016V721.545H855.276V719.91H856.881V721.545H859.581V722.895H856.881V726.39C856.881 727.305 857.301 727.545 858.231 727.545H859.581V729ZM864.345 729.15C861.9 729.15 860.295 727.77 860.295 725.28C860.295 722.955 861.885 721.395 864.315 721.395C866.625 721.395 868.2 722.67 868.2 724.935C868.2 725.205 868.185 725.415 868.14 725.64H861.81C861.87 727.08 862.575 727.845 864.3 727.845C865.86 727.845 866.505 727.335 866.505 726.45V726.33H868.125V726.465C868.125 728.055 866.565 729.15 864.345 729.15ZM864.285 722.67C862.635 722.67 861.915 723.405 861.825 724.74H866.67V724.71C866.67 723.33 865.875 722.67 864.285 722.67ZM871.033 729H869.413V721.545H870.898V723.555H871.003C871.228 722.355 872.038 721.395 873.568 721.395C875.263 721.395 875.998 722.61 875.998 724.02V724.995H874.393V724.335C874.393 723.27 873.943 722.775 872.833 722.775C871.558 722.775 871.033 723.48 871.033 724.815V729ZM879.206 729.15C877.661 729.15 876.686 728.43 876.686 727.2C876.686 726.045 877.616 725.445 879.086 725.28L882.476 724.92V724.485C882.476 723.255 881.936 722.82 880.511 722.82C879.131 722.82 878.456 723.27 878.456 724.365V724.425H876.851V724.365C876.851 722.67 878.261 721.395 880.631 721.395C883.001 721.395 884.066 722.685 884.066 724.47V729H882.581V727.14H882.476C882.086 728.4 880.901 729.15 879.206 729.15ZM878.306 727.095C878.306 727.695 878.711 727.98 879.641 727.98C881.336 727.98 882.476 727.35 882.476 725.88L879.551 726.21C878.711 726.315 878.306 726.51 878.306 727.095ZM890.402 729H888.692C887.087 729 886.097 728.295 886.097 726.48V722.895H884.837V721.545H886.097V719.91H887.702V721.545H890.402V722.895H887.702V726.39C887.702 727.305 888.122 727.545 889.052 727.545H890.402V729ZM893.035 720.675H891.415V718.95H893.035V720.675ZM893.035 729H891.415V721.545H893.035V729ZM898.345 729.15C895.87 729.15 894.205 727.575 894.205 725.28C894.205 722.955 895.87 721.395 898.345 721.395C900.835 721.395 902.5 722.955 902.5 725.28C902.5 727.575 900.835 729.15 898.345 729.15ZM898.345 727.71C900.16 727.71 900.91 726.855 900.91 725.28C900.91 723.69 900.16 722.82 898.345 722.82C896.545 722.82 895.795 723.69 895.795 725.28C895.795 726.855 896.545 727.71 898.345 727.71ZM905.296 729H903.676V721.545H905.161V723.855H905.266C905.491 722.595 906.481 721.395 908.371 721.395C910.441 721.395 911.461 722.79 911.461 724.515V729H909.841V724.95C909.841 723.555 909.211 722.85 907.666 722.85C906.031 722.85 905.296 723.69 905.296 725.31V729ZM916.429 729.15C914.029 729.15 912.664 728.205 912.664 726.48V726.435H914.284V726.555C914.284 727.53 914.869 727.845 916.429 727.845C917.884 727.845 918.319 727.545 918.319 726.885C918.319 726.27 917.959 726.075 916.894 725.925L914.854 725.655C913.444 725.475 912.589 724.875 912.589 723.63C912.589 722.325 913.774 721.395 916.069 721.395C918.349 721.395 919.729 722.31 919.729 724.08V724.125H918.124V724.035C918.124 723.15 917.674 722.685 916.024 722.685C914.659 722.685 914.179 722.985 914.179 723.69C914.179 724.275 914.479 724.485 915.604 724.635L917.329 724.875C919.099 725.1 919.909 725.7 919.909 726.93C919.909 728.325 918.529 729.15 916.429 729.15Z" fill="#00002F"/>
<path d="M856.506 695.15C853.356 695.15 851.271 693.11 851.271 689.975C851.271 686.84 853.356 684.8 856.506 684.8C859.686 684.8 861.756 686.84 861.756 689.975C861.756 693.11 859.686 695.15 856.506 695.15ZM856.506 693.59C858.891 693.59 860.046 692.48 860.046 689.975C860.046 687.47 858.891 686.345 856.506 686.345C854.121 686.345 852.981 687.47 852.981 689.975C852.981 692.48 854.121 693.59 856.506 693.59ZM864.573 695H862.953V687.545H864.438V689.855H864.543C864.768 688.595 865.758 687.395 867.648 687.395C869.718 687.395 870.738 688.79 870.738 690.515V695H869.118V690.95C869.118 689.555 868.488 688.85 866.943 688.85C865.308 688.85 864.573 689.69 864.573 691.31V695ZM873.667 695H872.182V684.95H873.802V689.57H873.892C874.192 688.31 875.182 687.395 876.967 687.395C879.262 687.395 880.522 688.955 880.522 691.28C880.522 693.575 879.247 695.15 876.877 695.15C875.182 695.15 874.087 694.34 873.772 692.855H873.667V695ZM873.802 691.355C873.802 692.915 874.762 693.665 876.367 693.665C878.002 693.665 878.902 693.065 878.902 691.28C878.902 689.48 877.987 688.865 876.397 688.865C874.717 688.865 873.802 689.645 873.802 691.235V691.355ZM885.455 695.15C882.98 695.15 881.315 693.575 881.315 691.28C881.315 688.955 882.98 687.395 885.455 687.395C887.945 687.395 889.61 688.955 889.61 691.28C889.61 693.575 887.945 695.15 885.455 695.15ZM885.455 693.71C887.27 693.71 888.02 692.855 888.02 691.28C888.02 689.69 887.27 688.82 885.455 688.82C883.655 688.82 882.905 689.69 882.905 691.28C882.905 692.855 883.655 693.71 885.455 693.71ZM892.975 695.15C891.43 695.15 890.455 694.43 890.455 693.2C890.455 692.045 891.385 691.445 892.855 691.28L896.245 690.92V690.485C896.245 689.255 895.705 688.82 894.28 688.82C892.9 688.82 892.225 689.27 892.225 690.365V690.425H890.62V690.365C890.62 688.67 892.03 687.395 894.4 687.395C896.77 687.395 897.835 688.685 897.835 690.47V695H896.35V693.14H896.245C895.855 694.4 894.67 695.15 892.975 695.15ZM892.075 693.095C892.075 693.695 892.48 693.98 893.41 693.98C895.105 693.98 896.245 693.35 896.245 691.88L893.32 692.21C892.48 692.315 892.075 692.51 892.075 693.095ZM900.901 695H899.281V687.545H900.766V689.555H900.871C901.096 688.355 901.906 687.395 903.436 687.395C905.131 687.395 905.866 688.61 905.866 690.02V690.995H904.261V690.335C904.261 689.27 903.811 688.775 902.701 688.775C901.426 688.775 900.901 689.48 900.901 690.815V695ZM910.169 695.15C907.814 695.15 906.509 693.575 906.509 691.28C906.509 688.955 907.799 687.395 910.064 687.395C911.834 687.395 912.839 688.31 913.139 689.57H913.229V684.95H914.849V695H913.364V692.855H913.259C912.944 694.34 911.849 695.15 910.169 695.15ZM908.144 691.28C908.144 693.065 909.059 693.665 910.664 693.665C912.254 693.665 913.229 692.915 913.229 691.355V691.235C913.229 689.645 912.299 688.865 910.634 688.865C909.074 688.865 908.144 689.48 908.144 691.28ZM917.967 686.675H916.347V684.95H917.967V686.675ZM917.967 695H916.347V687.545H917.967V695ZM921.087 695H919.467V687.545H920.952V689.855H921.057C921.282 688.595 922.272 687.395 924.162 687.395C926.232 687.395 927.252 688.79 927.252 690.515V695H925.632V690.95C925.632 689.555 925.002 688.85 923.457 688.85C921.822 688.85 921.087 689.69 921.087 691.31V695ZM931.935 694.325C929.715 694.325 928.395 692.93 928.395 690.86C928.395 688.79 929.775 687.395 932.04 687.395C933.6 687.395 934.77 688.1 935.04 689.405H935.13V687.545H936.615V694.13C936.615 696.635 935.055 697.7 932.61 697.7C930.405 697.7 928.875 696.665 928.875 694.865H930.48C930.48 695.945 931.11 696.35 932.7 696.35C934.395 696.35 935.01 695.885 935.01 694.22V692.39H934.905C934.635 693.515 933.63 694.325 931.935 694.325ZM930.03 690.86C930.03 692.39 930.93 692.93 932.46 692.93C934.11 692.93 935.01 692.24 935.01 690.92V690.71C935.01 689.45 934.08 688.805 932.505 688.805C930.945 688.805 930.03 689.33 930.03 690.86Z" fill="#00002F"/>
<path d="M856.506 661.15C853.356 661.15 851.271 659.11 851.271 655.975C851.271 652.84 853.356 650.8 856.506 650.8C859.686 650.8 861.756 652.84 861.756 655.975C861.756 659.11 859.686 661.15 856.506 661.15ZM856.506 659.59C858.891 659.59 860.046 658.48 860.046 655.975C860.046 653.47 858.891 652.345 856.506 652.345C854.121 652.345 852.981 653.47 852.981 655.975C852.981 658.48 854.121 659.59 856.506 659.59ZM865.143 661H863.523V654.895H862.398V653.545H863.538C863.718 651.91 864.963 650.95 867.078 650.95H867.813V652.15H866.823C865.638 652.15 865.023 652.465 865.113 653.545H867.813V654.895H865.143V661ZM870.648 661H869.043V654.895H867.903V653.545H869.058C869.238 651.91 870.468 650.95 872.583 650.95H873.318V652.15H872.328C871.143 652.15 870.543 652.465 870.618 653.545H873.318V654.895H870.648V661ZM875.838 652.675H874.233V650.95H875.838V652.675ZM875.838 661H874.233V653.545H875.838V661ZM881.118 661.15C878.658 661.15 877.053 659.575 877.053 657.28C877.053 654.955 878.658 653.395 881.118 653.395C883.353 653.395 884.988 654.655 884.988 656.515V656.665H883.383V656.575C883.383 655.42 882.543 654.85 881.088 654.85C879.408 654.85 878.658 655.645 878.658 657.28C878.658 658.885 879.408 659.695 881.088 659.695C882.543 659.695 883.383 659.125 883.383 657.97V657.865H884.988V658.03C884.988 659.89 883.353 661.15 881.118 661.15ZM887.806 652.675H886.186V650.95H887.806V652.675ZM887.806 661H886.186V653.545H887.806V661ZM891.496 661.15C889.951 661.15 888.976 660.43 888.976 659.2C888.976 658.045 889.906 657.445 891.376 657.28L894.766 656.92V656.485C894.766 655.255 894.226 654.82 892.801 654.82C891.421 654.82 890.746 655.27 890.746 656.365V656.425H889.141V656.365C889.141 654.67 890.551 653.395 892.921 653.395C895.291 653.395 896.356 654.685 896.356 656.47V661H894.871V659.14H894.766C894.376 660.4 893.191 661.15 891.496 661.15ZM890.596 659.095C890.596 659.695 891.001 659.98 891.931 659.98C893.626 659.98 894.766 659.35 894.766 657.88L891.841 658.21C891.001 658.315 890.596 658.51 890.596 659.095ZM899.422 661H897.802V650.95H899.422V661ZM911.3 661H903.485V650.95H905.105V659.545H911.3V661ZM914.538 661.15C912.993 661.15 912.018 660.43 912.018 659.2C912.018 658.045 912.948 657.445 914.418 657.28L917.808 656.92V656.485C917.808 655.255 917.268 654.82 915.843 654.82C914.463 654.82 913.788 655.27 913.788 656.365V656.425H912.183V656.365C912.183 654.67 913.593 653.395 915.963 653.395C918.333 653.395 919.398 654.685 919.398 656.47V661H917.913V659.14H917.808C917.418 660.4 916.233 661.15 914.538 661.15ZM913.638 659.095C913.638 659.695 914.043 659.98 914.973 659.98C916.668 659.98 917.808 659.35 917.808 657.88L914.883 658.21C914.043 658.315 913.638 658.51 913.638 659.095ZM923.949 661.15C921.849 661.15 920.829 659.755 920.829 658.03V653.545H922.434V657.595C922.434 658.99 923.079 659.695 924.654 659.695C926.304 659.695 927.069 658.855 927.069 657.235V653.545H928.674V661H927.189V658.69H927.099C926.859 659.95 925.869 661.15 923.949 661.15ZM931.766 661H930.146V653.545H931.631V655.855H931.736C931.961 654.595 932.951 653.395 934.841 653.395C936.911 653.395 937.931 654.79 937.931 656.515V661H936.311V656.95C936.311 655.555 935.681 654.85 934.136 654.85C932.501 654.85 931.766 655.69 931.766 657.31V661ZM943.139 661.15C940.679 661.15 939.074 659.575 939.074 657.28C939.074 654.955 940.679 653.395 943.139 653.395C945.374 653.395 947.009 654.655 947.009 656.515V656.665H945.404V656.575C945.404 655.42 944.564 654.85 943.109 654.85C941.429 654.85 940.679 655.645 940.679 657.28C940.679 658.885 941.429 659.695 943.109 659.695C944.564 659.695 945.404 659.125 945.404 657.97V657.865H947.009V658.03C947.009 659.89 945.374 661.15 943.139 661.15ZM949.827 661H948.207V650.95H949.827V655.825H949.917C950.172 654.565 951.087 653.395 952.992 653.395C955.047 653.395 956.052 654.745 956.052 656.56V661H954.447V656.95C954.447 655.45 953.772 654.85 952.227 654.85C950.457 654.85 949.827 655.81 949.827 657.385V661Z" fill="#00002F"/>
<circle cx="834.821" cy="724" r="8" fill="#FF4E00" fill-opacity="0.2"/>
<circle cx="834.821" cy="723.999" r="4.8" fill="#FF4E00"/>
<circle cx="834.821" cy="690" r="8" fill="#FF4E00" fill-opacity="0.2"/>
<circle cx="834.821" cy="689.999" r="4.8" fill="#FF4E00"/>
<circle cx="834.821" cy="656" r="8" fill="#FF4E00" fill-opacity="0.2"/>
<circle cx="834.821" cy="655.999" r="4.8" fill="#FF4E00"/>
<circle cx="959.233" cy="307.412" r="26.4116" fill="#FF4E00" fill-opacity="0.2"/>
<circle cx="959.233" cy="307.411" r="15.847" fill="#FF4E00"/>
<path d="M173.147 1057.88H154.131V968.079H125.254V954.521H130.888C143.918 954.521 151.313 951.176 156.42 939.907H173.147V1057.88Z" fill="#EAEAEA"/>
<path d="M746.433 747.103C709.457 747.103 693.258 730.727 693.258 706.781V703.964H713.331V706.429C713.331 721.924 719.67 729.143 745.729 729.143C770.204 729.143 779.008 723.508 779.008 709.598C779.008 697.625 770.908 692.166 756.118 692.166H723.191V676.319H753.477C767.739 676.319 775.134 671.037 775.134 660.472C775.134 649.027 768.091 643.569 745.201 643.569C721.078 643.569 713.331 650.788 713.331 666.283V667.516H693.258V665.931C693.258 642.865 710.162 625.609 746.786 625.609C776.895 625.609 793.974 636.702 793.974 656.775C793.974 670.157 786.051 679.665 770.908 682.13V683.539C787.988 686.532 798.2 696.04 798.2 712.415C798.2 734.777 778.656 747.103 746.433 747.103Z" fill="#EAEAEA"/>
<path d="M1320.78 379.761C1286.27 379.761 1267.6 366.203 1267.6 342.432V340.496H1286.97V342.432C1286.97 356.342 1297.53 362.505 1321.13 362.505C1342.26 362.505 1351.94 356.166 1351.94 339.615C1351.94 323.416 1342.61 317.253 1321.13 317.253C1304.23 317.253 1294.36 320.071 1287.67 326.057L1286.44 325.705V326.057L1268.83 324.825L1275.17 260.028H1366.2V277.108H1291.72L1287.5 315.669L1288.91 315.845C1294.89 309.33 1308.63 302.111 1328.17 302.111C1355.64 302.111 1371.84 315.316 1371.84 339.615C1371.84 364.09 1354.05 379.761 1320.78 379.761Z" fill="#EAEAEA"/>
<path d="M107.07 653.781H8.2905V641.28C8.2905 619.446 16.9183 608.529 41.217 600.254L69.3894 590.569C83.4755 585.463 88.4057 580.709 88.4057 570.321C88.4057 557.819 80.3062 551.48 59.1769 551.48C35.5825 551.48 26.7786 559.756 26.7786 575.251V577.364H8.11442V575.603C8.11442 553.769 23.081 534.049 59.8812 534.049C93.3359 534.049 107.422 549.896 107.422 570.673C107.422 590.041 94.9206 600.254 74.1434 606.593L49.3165 614.164C33.4696 619.622 28.0112 625.257 28.0112 638.639L56.5357 636.702H107.07V653.781Z" fill="#EAEAEA"/>
<path d="M620.76 281H601.919V257.053H526.558V243.848L598.75 163.028H620.76V239.974H641.009V257.053H620.76V281ZM552.794 239.974H601.919V185.214H600.511L552.794 238.565V239.974Z" fill="#EAEAEA"/>
<path d="M1421.83 342.132C1419.05 342.132 1417.22 340.336 1417.22 337.576C1417.22 334.816 1419.05 333.02 1421.83 333.02C1424.63 333.02 1426.45 334.816 1426.45 337.576C1426.45 340.336 1424.63 342.132 1421.83 342.132ZM1421.83 340.759C1423.93 340.759 1424.94 339.781 1424.94 337.576C1424.94 335.371 1423.93 334.38 1421.83 334.38C1419.73 334.38 1418.72 335.371 1418.72 337.576C1418.72 339.781 1419.73 340.759 1421.83 340.759ZM1429.43 342.132C1428.07 342.132 1427.21 341.498 1427.21 340.415C1427.21 339.398 1428.03 338.87 1429.32 338.725L1432.31 338.408V338.025C1432.31 336.942 1431.83 336.559 1430.58 336.559C1429.36 336.559 1428.77 336.955 1428.77 337.919V337.972H1427.36V337.919C1427.36 336.427 1428.6 335.305 1430.68 335.305C1432.77 335.305 1433.71 336.44 1433.71 338.012V342H1432.4V340.362H1432.31C1431.97 341.472 1430.92 342.132 1429.43 342.132ZM1428.64 340.323C1428.64 340.851 1428.99 341.102 1429.81 341.102C1431.31 341.102 1432.31 340.547 1432.31 339.253L1429.73 339.544C1428.99 339.636 1428.64 339.808 1428.64 340.323ZM1436.41 342H1434.98V333.152H1436.41V338.038H1438.28L1440.25 335.437H1441.91L1439.45 338.593L1441.9 342H1440.22L1438.28 339.319H1436.41V342ZM1449.18 342.132C1446.43 342.132 1444.61 340.336 1444.61 337.576C1444.61 334.816 1446.43 333.02 1449.18 333.02C1451.67 333.02 1453.42 334.341 1453.42 336.454V336.638H1451.85V336.454C1451.85 335.107 1450.99 334.38 1449.19 334.38C1447.12 334.38 1446.11 335.371 1446.11 337.576C1446.11 339.781 1447.12 340.759 1449.19 340.759C1450.99 340.759 1451.85 340.046 1451.85 338.685V338.514H1453.42V338.685C1453.42 340.811 1451.69 342.132 1449.18 342.132ZM1455.89 342H1454.47V333.152H1455.89V342ZM1459.95 342.132C1458.1 342.132 1457.2 340.904 1457.2 339.385V335.437H1458.61V339.002C1458.61 340.23 1459.18 340.851 1460.57 340.851C1462.02 340.851 1462.7 340.112 1462.7 338.685V335.437H1464.11V342H1462.8V339.966H1462.72C1462.51 341.076 1461.64 342.132 1459.95 342.132ZM1466.71 342H1465.4V333.152H1466.83V337.219H1466.91C1467.17 336.11 1468.05 335.305 1469.62 335.305C1471.64 335.305 1472.75 336.678 1472.75 338.725C1472.75 340.745 1471.62 342.132 1469.54 342.132C1468.05 342.132 1467.08 341.419 1466.8 340.112H1466.71V342ZM1466.83 338.791C1466.83 340.164 1467.68 340.825 1469.09 340.825C1470.53 340.825 1471.32 340.296 1471.32 338.725C1471.32 337.14 1470.51 336.599 1469.12 336.599C1467.64 336.599 1466.83 337.286 1466.83 338.685V338.791ZM1477.42 342H1475.99V333.152H1477.42V342ZM1480.17 342H1478.74V333.152H1483.33C1485.34 333.152 1486.58 334.103 1486.58 335.754C1486.58 337.219 1485.62 338.117 1483.96 338.21V338.302C1484.64 338.487 1484.96 338.883 1485.28 339.438L1486.75 342H1485.12L1483.7 339.557C1483.31 338.857 1482.9 338.566 1481.79 338.566H1480.17V342ZM1480.17 334.433V337.47H1483.32C1484.51 337.47 1485.1 337.061 1485.1 335.952C1485.1 334.869 1484.51 334.433 1483.32 334.433H1480.17ZM1494.49 342H1487.61V333.152H1489.04V340.719H1494.49V342Z" fill="#00002F"/>
<path d="M1421.44 310H1419.34L1417.01 301.152H1418.59L1420.03 306.751L1420.43 308.627H1420.53L1421.01 306.751L1422.79 301.152H1424.86L1426.77 306.751L1427.27 308.627H1427.37L1427.74 306.751L1429.06 301.152H1430.62L1428.4 310H1426.3L1424.52 304.85L1423.87 302.578H1423.75L1423.12 304.85L1421.44 310ZM1432.89 310H1431.46V303.437H1432.77V305.206H1432.86C1433.06 304.15 1433.77 303.305 1435.12 303.305C1436.61 303.305 1437.26 304.374 1437.26 305.616V306.474H1435.85V305.893C1435.85 304.955 1435.45 304.52 1434.47 304.52C1433.35 304.52 1432.89 305.14 1432.89 306.316V310ZM1439.58 302.671H1438.15V301.152H1439.58V302.671ZM1439.58 310H1438.15V303.437H1439.58V310ZM1445.21 310H1443.7C1442.29 310 1441.42 309.379 1441.42 307.781V304.625H1440.31V303.437H1441.42V301.997H1442.83V303.437H1445.21V304.625H1442.83V307.702C1442.83 308.508 1443.2 308.719 1444.02 308.719H1445.21V310ZM1449.4 310.132C1447.25 310.132 1445.83 308.917 1445.83 306.725C1445.83 304.678 1447.23 303.305 1449.37 303.305C1451.41 303.305 1452.79 304.427 1452.79 306.421C1452.79 306.659 1452.78 306.844 1452.74 307.042H1447.17C1447.22 308.31 1447.84 308.983 1449.36 308.983C1450.73 308.983 1451.3 308.534 1451.3 307.755V307.649H1452.73V307.768C1452.73 309.168 1451.35 310.132 1449.4 310.132ZM1449.35 304.427C1447.89 304.427 1447.26 305.074 1447.18 306.25H1451.45V306.223C1451.45 305.008 1450.75 304.427 1449.35 304.427ZM1455.29 310H1453.86V303.437H1455.17V305.206H1455.26C1455.46 304.15 1456.17 303.305 1457.52 303.305C1459.01 303.305 1459.66 304.374 1459.66 305.616V306.474H1458.25V305.893C1458.25 304.955 1457.85 304.52 1456.87 304.52C1455.75 304.52 1455.29 305.14 1455.29 306.316V310ZM1463.66 310.132C1461.55 310.132 1460.34 309.3 1460.34 307.781V307.742H1461.77V307.847C1461.77 308.706 1462.29 308.983 1463.66 308.983C1464.94 308.983 1465.32 308.719 1465.32 308.138C1465.32 307.597 1465.01 307.425 1464.07 307.293L1462.27 307.055C1461.03 306.897 1460.28 306.368 1460.28 305.272C1460.28 304.123 1461.32 303.305 1463.34 303.305C1465.35 303.305 1466.56 304.11 1466.56 305.668V305.708H1465.15V305.629C1465.15 304.85 1464.75 304.44 1463.3 304.44C1462.1 304.44 1461.68 304.704 1461.68 305.325C1461.68 305.84 1461.94 306.025 1462.93 306.157L1464.45 306.368C1466.01 306.566 1466.72 307.095 1466.72 308.178C1466.72 309.406 1465.51 310.132 1463.66 310.132ZM1474.12 310H1470.09V301.152H1474.12C1476.86 301.152 1478.59 302.842 1478.59 305.576C1478.59 308.31 1476.86 310 1474.12 310ZM1474.12 302.433H1471.5V308.719H1474.12C1476.16 308.719 1477.09 307.847 1477.09 305.576C1477.09 303.305 1476.16 302.433 1474.12 302.433ZM1480.58 310H1478.99L1482.94 301.152H1484.95L1488.9 310H1487.29L1486.27 307.702H1481.6L1480.58 310ZM1483.37 303.727L1482.16 306.421H1485.7L1484.5 303.727L1483.99 302.473H1483.88L1483.37 303.727ZM1493.9 310.132C1491.13 310.132 1489.29 308.336 1489.29 305.576C1489.29 302.816 1491.13 301.02 1493.9 301.02C1496.7 301.02 1498.53 302.816 1498.53 305.576C1498.53 308.336 1496.7 310.132 1493.9 310.132ZM1493.9 308.759C1496 308.759 1497.02 307.781 1497.02 305.576C1497.02 303.371 1496 302.38 1493.9 302.38C1491.8 302.38 1490.8 303.371 1490.8 305.576C1490.8 307.781 1491.8 308.759 1493.9 308.759Z" fill="#00002F"/>
<path d="M1418.91 278H1417.48V269.152H1419.01L1422.98 274.329L1424.12 275.98H1424.23L1424.16 274.382V269.152H1425.59V278H1424.06L1420.07 272.837L1418.96 271.278H1418.85L1418.91 272.81V278ZM1430.21 278.132C1428.06 278.132 1426.64 276.917 1426.64 274.725C1426.64 272.678 1428.04 271.305 1430.18 271.305C1432.22 271.305 1433.6 272.427 1433.6 274.421C1433.6 274.659 1433.59 274.844 1433.55 275.042H1427.98C1428.03 276.31 1428.65 276.983 1430.17 276.983C1431.54 276.983 1432.11 276.534 1432.11 275.755V275.649H1433.54V275.768C1433.54 277.168 1432.16 278.132 1430.21 278.132ZM1430.16 272.427C1428.7 272.427 1428.07 273.074 1427.99 274.25H1432.26V274.223C1432.26 273.008 1431.56 272.427 1430.16 272.427ZM1437.78 278.132C1435.66 278.132 1434.46 277.3 1434.46 275.781V275.742H1435.89V275.847C1435.89 276.706 1436.4 276.983 1437.78 276.983C1439.06 276.983 1439.44 276.719 1439.44 276.138C1439.44 275.597 1439.12 275.425 1438.19 275.293L1436.39 275.055C1435.15 274.897 1434.4 274.368 1434.4 273.272C1434.4 272.123 1435.44 271.305 1437.46 271.305C1439.47 271.305 1440.68 272.11 1440.68 273.668V273.708H1439.27V273.629C1439.27 272.85 1438.87 272.44 1437.42 272.44C1436.22 272.44 1435.79 272.704 1435.79 273.325C1435.79 273.84 1436.06 274.025 1437.05 274.157L1438.57 274.368C1440.13 274.566 1440.84 275.095 1440.84 276.178C1440.84 277.406 1439.62 278.132 1437.78 278.132ZM1446.17 278H1444.67C1443.26 278 1442.38 277.379 1442.38 275.781V272.625H1441.27V271.437H1442.38V269.997H1443.8V271.437H1446.17V272.625H1443.8V275.702C1443.8 276.508 1444.17 276.719 1444.99 276.719H1446.17V278ZM1452.47 278H1450.7L1448.73 271.437H1450.21L1451.3 275.161L1451.61 276.851H1451.71L1452.2 275.029L1453.57 271.437H1455.4L1456.78 275.029L1457.27 276.851H1457.38L1457.68 275.161L1458.78 271.437H1460.23L1458.24 278H1456.47L1455.03 274.223L1454.53 272.612H1454.42L1453.92 274.223L1452.47 278ZM1462.38 278H1460.95V271.437H1462.26V273.206H1462.35C1462.55 272.15 1463.27 271.305 1464.61 271.305C1466.11 271.305 1466.75 272.374 1466.75 273.616V274.474H1465.34V273.893C1465.34 272.955 1464.94 272.52 1463.97 272.52C1462.84 272.52 1462.38 273.14 1462.38 274.316V278ZM1469.07 270.671H1467.65V269.152H1469.07V270.671ZM1469.07 278H1467.65V271.437H1469.07V278ZM1474.7 278H1473.19C1471.78 278 1470.91 277.379 1470.91 275.781V272.625H1469.8V271.437H1470.91V269.997H1472.32V271.437H1474.7V272.625H1472.32V275.702C1472.32 276.508 1472.69 276.719 1473.51 276.719H1474.7V278ZM1478.89 278.132C1476.74 278.132 1475.33 276.917 1475.33 274.725C1475.33 272.678 1476.73 271.305 1478.87 271.305C1480.9 271.305 1482.29 272.427 1482.29 274.421C1482.29 274.659 1482.27 274.844 1482.23 275.042H1476.66C1476.71 276.31 1477.34 276.983 1478.85 276.983C1480.23 276.983 1480.8 276.534 1480.8 275.755V275.649H1482.22V275.768C1482.22 277.168 1480.85 278.132 1478.89 278.132ZM1478.84 272.427C1477.39 272.427 1476.75 273.074 1476.68 274.25H1480.94V274.223C1480.94 273.008 1480.24 272.427 1478.84 272.427ZM1484.78 278H1483.36V271.437H1484.66V273.206H1484.76C1484.95 272.15 1485.67 271.305 1487.01 271.305C1488.51 271.305 1489.15 272.374 1489.15 273.616V274.474H1487.74V273.893C1487.74 272.955 1487.34 272.52 1486.37 272.52C1485.24 272.52 1484.78 273.14 1484.78 274.316V278ZM1493.15 278.132C1491.04 278.132 1489.84 277.3 1489.84 275.781V275.742H1491.26V275.847C1491.26 276.706 1491.78 276.983 1493.15 276.983C1494.43 276.983 1494.82 276.719 1494.82 276.138C1494.82 275.597 1494.5 275.425 1493.56 275.293L1491.77 275.055C1490.52 274.897 1489.77 274.368 1489.77 273.272C1489.77 272.123 1490.81 271.305 1492.84 271.305C1494.84 271.305 1496.06 272.11 1496.06 273.668V273.708H1494.64V273.629C1494.64 272.85 1494.25 272.44 1492.8 272.44C1491.59 272.44 1491.17 272.704 1491.17 273.325C1491.17 273.84 1491.44 274.025 1492.43 274.157L1493.94 274.368C1495.5 274.566 1496.22 275.095 1496.22 276.178C1496.22 277.406 1495 278.132 1493.15 278.132ZM1502.82 278.132C1500.65 278.132 1499.24 276.745 1499.24 274.725C1499.24 272.678 1500.65 271.305 1502.82 271.305C1504.78 271.305 1506.22 272.414 1506.22 274.051V274.184H1504.81V274.104C1504.81 273.087 1504.07 272.586 1502.79 272.586C1501.31 272.586 1500.65 273.286 1500.65 274.725C1500.65 276.138 1501.31 276.851 1502.79 276.851C1504.07 276.851 1504.81 276.349 1504.81 275.332V275.24H1506.22V275.385C1506.22 277.023 1504.78 278.132 1502.82 278.132ZM1510.63 278.132C1508.45 278.132 1506.99 276.745 1506.99 274.725C1506.99 272.678 1508.45 271.305 1510.63 271.305C1512.82 271.305 1514.29 272.678 1514.29 274.725C1514.29 276.745 1512.82 278.132 1510.63 278.132ZM1510.63 276.864C1512.23 276.864 1512.89 276.112 1512.89 274.725C1512.89 273.325 1512.23 272.559 1510.63 272.559C1509.05 272.559 1508.39 273.325 1508.39 274.725C1508.39 276.112 1509.05 276.864 1510.63 276.864ZM1516.75 278H1515.33V269.152H1516.75V278ZM1519.5 278H1518.07V269.152H1519.5V278ZM1524.12 278.132C1521.97 278.132 1520.56 276.917 1520.56 274.725C1520.56 272.678 1521.96 271.305 1524.09 271.305C1526.13 271.305 1527.51 272.427 1527.51 274.421C1527.51 274.659 1527.5 274.844 1527.46 275.042H1521.89C1521.94 276.31 1522.56 276.983 1524.08 276.983C1525.45 276.983 1526.02 276.534 1526.02 275.755V275.649H1527.45V275.768C1527.45 277.168 1526.08 278.132 1524.12 278.132ZM1524.07 272.427C1522.62 272.427 1521.98 273.074 1521.9 274.25H1526.17V274.223C1526.17 273.008 1525.47 272.427 1524.07 272.427ZM1531.9 278.132C1529.73 278.132 1528.32 276.745 1528.32 274.725C1528.32 272.678 1529.73 271.305 1531.9 271.305C1533.87 271.305 1535.3 272.414 1535.3 274.051V274.184H1533.89V274.104C1533.89 273.087 1533.15 272.586 1531.87 272.586C1530.39 272.586 1529.73 273.286 1529.73 274.725C1529.73 276.138 1530.39 276.851 1531.87 276.851C1533.15 276.851 1533.89 276.349 1533.89 275.332V275.24H1535.3V275.385C1535.3 277.023 1533.87 278.132 1531.9 278.132ZM1540.66 278H1539.16C1537.75 278 1536.87 277.379 1536.87 275.781V272.625H1535.77V271.437H1536.87V269.997H1538.29V271.437H1540.66V272.625H1538.29V275.702C1538.29 276.508 1538.66 276.719 1539.48 276.719H1540.66V278ZM1542.98 270.671H1541.56V269.152H1542.98V270.671ZM1542.98 278H1541.56V271.437H1542.98V278ZM1547.66 278.132C1545.48 278.132 1544.01 276.745 1544.01 274.725C1544.01 272.678 1545.48 271.305 1547.66 271.305C1549.85 271.305 1551.32 272.678 1551.32 274.725C1551.32 276.745 1549.85 278.132 1547.66 278.132ZM1547.66 276.864C1549.26 276.864 1549.92 276.112 1549.92 274.725C1549.92 273.325 1549.26 272.559 1547.66 272.559C1546.07 272.559 1545.41 273.325 1545.41 274.725C1545.41 276.112 1546.07 276.864 1547.66 276.864ZM1553.78 278H1552.35V271.437H1553.66V273.47H1553.75C1553.95 272.361 1554.82 271.305 1556.48 271.305C1558.31 271.305 1559.2 272.533 1559.2 274.051V278H1557.78V274.434C1557.78 273.206 1557.22 272.586 1555.86 272.586C1554.42 272.586 1553.78 273.325 1553.78 274.751V278Z" fill="#00002F"/>
<circle cx="1400.82" cy="337" r="8" fill="#FF4E00" fill-opacity="0.2"/>
<circle cx="1400.82" cy="336.999" r="4.8" fill="#FF4E00"/>
<circle cx="1400.82" cy="305" r="8" fill="#FF4E00" fill-opacity="0.2"/>
<circle cx="1400.82" cy="304.999" r="4.8" fill="#FF4E00"/>
<circle cx="1400.82" cy="273" r="8" fill="#FF4E00" fill-opacity="0.2"/>
<circle cx="1400.82" cy="272.999" r="4.8" fill="#FF4E00"/>
<path d="M316 1050.85L318.463 1053.91C318.894 1054.45 319.723 1054.41 320.098 1053.83L325.202 1046" stroke="#569B00" stroke-width="1.01124" stroke-linecap="round"/>
<path d="M316 1016.85L318.463 1019.91C318.894 1020.45 319.723 1020.41 320.098 1019.83L325.202 1012" stroke="#569B00" stroke-width="1.01124" stroke-linecap="round"/>
<path d="M316 982.854L318.463 985.914C318.894 986.45 319.723 986.408 320.098 985.832L325.202 978" stroke="#569B00" stroke-width="1.01124" stroke-linecap="round"/>
<path d="M273 564.854L275.463 567.914C275.894 568.45 276.723 568.408 277.098 567.832L282.202 560" stroke="#569B00" stroke-width="1.01124" stroke-linecap="round"/>
<path d="M366 948.854L368.463 951.914C368.894 952.45 369.723 952.408 370.098 951.832L375.202 944" stroke="#569B00" stroke-width="1.01124" stroke-linecap="round"/>
</svg>
