<svg width="24" height="23" viewBox="0 0 24 23" fill="none" xmlns="http://www.w3.org/2000/svg">
<path d="M22.7264 4.51797C22.7264 6.44902 21.161 8.01446 19.2299 8.01446C17.2988 8.01446 15.7334 6.44902 15.7334 4.51797C15.7334 2.58692 17.2988 1.02148 19.2299 1.02148C21.161 1.02148 22.7264 2.58692 22.7264 4.51797Z" stroke="#FF4E00" stroke-width="1.5"/>
<path d="M22.7264 18.5033C22.7264 20.4344 21.161 21.9998 19.2299 21.9998C17.2988 21.9998 15.7334 20.4344 15.7334 18.5033C15.7334 16.5722 17.2988 15.0068 19.2299 15.0068C21.161 15.0068 22.7264 16.5722 22.7264 18.5033Z" stroke="#FF4E00" stroke-width="1.5"/>
<path d="M8.74053 11.5116C8.74053 13.4427 7.17509 15.0081 5.24404 15.0081C3.31299 15.0081 1.74756 13.4427 1.74756 11.5116C1.74756 9.58051 3.31299 8.01514 5.24404 8.01514C7.17509 8.01514 8.74053 9.58051 8.74053 11.5116Z" stroke="#FF4E00" stroke-width="1.5"/>
<path d="M8.41504 9.92591L15.7337 6.2666" stroke="#FF4E00" stroke-width="1.5" stroke-linecap="round" stroke-linejoin="round"/>
<path d="M8.39844 13.0879L15.734 16.7557" stroke="#FF4E00" stroke-width="1.5" stroke-linecap="round" stroke-linejoin="round"/>
</svg>
