<svg width="1475" height="201" viewBox="0 0 1475 201" fill="none" xmlns="http://www.w3.org/2000/svg">
<mask id="path-1-outside-1_3309_12587" maskUnits="userSpaceOnUse" x="-1" y="-1" width="1477" height="203" fill="black">
<rect fill="white" x="-1" y="-1" width="1477" height="203"/>
<path d="M96.3268 200.902C36.8268 200.902 0.256098 161.429 0.256098 100.768C0.256098 40.1073 41.4707 0.634148 108.227 0.634148C169.178 0.634148 207.78 29.078 207.78 75.8073V78.1293H159.31V75.8073C159.31 53.1683 144.507 42.4293 107.066 42.4293C62.9488 42.4293 46.4049 57.5219 46.4049 100.768C46.4049 144.015 62.3683 159.107 105.034 159.107C149.732 159.107 163.373 152.141 164.534 127.471H98.6488V95.2537H208.071V198H167.727V156.205H165.405C158.729 181.746 138.412 200.902 96.3268 200.902ZM306.584 200.902C258.113 200.902 225.025 177.102 225.025 125.439C225.025 79 257.823 49.6854 305.713 49.6854C353.313 49.6854 384.949 74.6463 384.949 120.215C384.949 125.439 384.369 129.212 383.788 134.146H265.369C266.53 156.495 276.979 166.073 305.132 166.073C330.964 166.073 339.962 159.398 339.962 146.917V144.015H383.498V147.207C383.498 178.844 352.732 200.902 306.584 200.902ZM304.842 83.6439C279.01 83.6439 267.981 92.3512 265.949 111.217H343.154C341.993 92.061 330.384 83.6439 304.842 83.6439ZM505.868 198H469.878C435.919 198 415.312 182.037 415.312 145.466V88.578H392.382V52.5878H415.312V24.4341H458.848V52.5878H505.868V88.578H458.848V140.532C458.848 155.044 464.363 158.817 479.746 158.817H505.868V198ZM655.191 200.902C596.272 200.902 563.184 177.683 563.184 132.405V130.663H606.721V135.888C606.721 153.883 615.718 161.139 655.191 161.139C690.021 161.139 698.148 155.915 698.148 142.854C698.148 130.954 691.472 126.6 671.445 123.117L616.879 115.28C582.05 109.766 561.443 92.3512 561.443 60.7146C561.443 31.4 585.243 0.634148 650.548 0.634148C710.338 0.634148 738.201 28.2073 738.201 69.1317V70.8732H694.374V66.8098C694.374 48.2341 684.796 40.3976 646.194 40.3976C614.848 40.3976 605.269 46.4927 605.269 58.9732C605.269 70.2927 611.655 74.3561 627.909 77.2585L682.474 85.9659C726.011 92.9317 741.684 114.12 741.684 140.822C741.684 172.459 717.013 200.902 655.191 200.902ZM802.951 198H759.414V3.53658H802.951V106.573H836.038L873.19 52.5878H924.853L871.738 122.827L923.982 198H872.609L836.329 145.466H802.951V198ZM978.968 37.7854H935.431V3.53658H978.968V37.7854ZM978.968 198H935.431V52.5878H978.968V198ZM1045.29 198H1001.76V3.53658H1045.29V198ZM1111.62 198H1068.08V3.53658H1111.62V198ZM1211.61 200.902C1163.14 200.902 1130.05 177.102 1130.05 125.439C1130.05 79 1162.85 49.6854 1210.74 49.6854C1258.34 49.6854 1289.98 74.6463 1289.98 120.215C1289.98 125.439 1289.4 129.212 1288.82 134.146H1170.4C1171.56 156.495 1182.01 166.073 1210.16 166.073C1235.99 166.073 1244.99 159.398 1244.99 146.917V144.015H1288.53V147.207C1288.53 178.844 1257.76 200.902 1211.61 200.902ZM1209.87 83.6439C1184.04 83.6439 1173.01 92.3512 1170.98 111.217H1248.18C1247.02 92.061 1235.41 83.6439 1209.87 83.6439ZM1373.45 200.902C1328.18 200.902 1303.22 171.298 1303.22 125.439C1303.22 79 1327.89 49.6854 1371.13 49.6854C1405.67 49.6854 1423.38 66.8098 1428.31 91.1902H1430.92V3.53658H1474.46V198H1433.83V157.656H1431.5C1425.99 186.39 1406.83 200.902 1373.45 200.902ZM1347.33 125.439C1347.33 151.851 1360.39 161.139 1388.26 161.139C1415.83 161.139 1430.92 151.561 1430.92 126.31V123.988C1430.92 98.7366 1416.12 89.4488 1388.26 89.4488C1360.39 89.4488 1347.33 98.7366 1347.33 125.439Z"/>
</mask>
<path d="M207.78 78.1293V79.1293H208.78V78.1293H207.78ZM159.31 78.1293H158.31V79.1293H159.31V78.1293ZM164.534 127.471L165.533 127.518L165.582 126.471H164.534V127.471ZM98.6488 127.471H97.6488V128.471H98.6488V127.471ZM98.6488 95.2537V94.2537H97.6488V95.2537H98.6488ZM208.071 95.2537H209.071V94.2537H208.071V95.2537ZM208.071 198V199H209.071V198H208.071ZM167.727 198H166.727V199H167.727V198ZM167.727 156.205H168.727V155.205H167.727V156.205ZM165.405 156.205V155.205H164.633L164.437 155.952L165.405 156.205ZM96.3268 199.902C66.8057 199.902 43.0663 190.116 26.7039 172.894C10.3358 155.667 1.2561 130.899 1.2561 100.768H-0.743903C-0.743903 131.299 8.4618 156.598 25.254 174.272C42.052 191.952 66.3479 201.902 96.3268 201.902V199.902ZM1.2561 100.768C1.2561 70.6729 11.4736 45.9187 29.8912 28.6835C48.3155 11.4421 75.0443 1.63415 108.227 1.63415V-0.365852C74.6533 -0.365852 47.3967 9.56282 28.5246 27.2232C9.64593 44.8899 -0.743903 70.2027 -0.743903 100.768H1.2561ZM108.227 1.63415C138.562 1.63415 163.216 8.71393 180.26 21.4973C197.273 34.2569 206.78 52.7513 206.78 75.8073H208.78C208.78 52.1341 198.987 33.0419 181.46 19.8973C163.966 6.77632 138.843 -0.365852 108.227 -0.365852V1.63415ZM206.78 75.8073V78.1293H208.78V75.8073H206.78ZM207.78 77.1293H159.31V79.1293H207.78V77.1293ZM160.31 78.1293V75.8073H158.31V78.1293H160.31ZM160.31 75.8073C160.31 64.2378 156.505 55.5359 147.778 49.7933C139.146 44.1132 125.839 41.4293 107.066 41.4293V43.4293C125.734 43.4293 138.549 46.1148 146.679 51.464C154.713 56.7507 158.31 64.7378 158.31 75.8073H160.31ZM107.066 41.4293C84.9427 41.4293 69.4423 45.2026 59.5023 54.6568C49.5489 64.1237 45.4049 79.0597 45.4049 100.768H47.4049C47.4049 79.2305 51.5328 64.997 60.8806 56.106C70.2418 47.2023 85.072 43.4293 107.066 43.4293V41.4293ZM45.4049 100.768C45.4049 122.469 49.4008 137.4 59.0183 146.868C68.632 156.332 83.6306 160.107 105.034 160.107V158.107C83.7718 158.107 69.4558 154.336 60.4214 145.443C51.3907 136.552 47.4049 122.313 47.4049 100.768H45.4049ZM105.034 160.107C127.368 160.107 142.189 158.38 151.577 153.425C156.313 150.925 159.678 147.601 161.921 143.283C164.152 138.985 165.239 133.766 165.533 127.518L163.535 127.424C163.249 133.511 162.195 138.414 160.146 142.361C158.107 146.288 155.05 149.33 150.644 151.656C141.746 156.352 127.398 158.107 105.034 158.107V160.107ZM164.534 126.471H98.6488V128.471H164.534V126.471ZM99.6488 127.471V95.2537H97.6488V127.471H99.6488ZM98.6488 96.2537H208.071V94.2537H98.6488V96.2537ZM207.071 95.2537V198H209.071V95.2537H207.071ZM208.071 197H167.727V199H208.071V197ZM168.727 198V156.205H166.727V198H168.727ZM167.727 155.205H165.405V157.205H167.727V155.205ZM164.437 155.952C161.149 168.535 154.517 179.494 143.563 187.318C132.601 195.148 117.221 199.902 96.3268 199.902V201.902C117.518 201.902 133.339 197.079 144.726 188.945C156.12 180.806 162.985 169.417 166.372 156.458L164.437 155.952ZM383.788 134.146V135.146H384.678L384.782 134.263L383.788 134.146ZM265.369 134.146V133.146H264.316L264.37 134.198L265.369 134.146ZM339.962 144.015V143.015H338.962V144.015H339.962ZM383.498 144.015H384.498V143.015H383.498V144.015ZM265.949 111.217L264.955 111.11L264.836 112.217H265.949V111.217ZM343.154 111.217V112.217H344.217L344.152 111.157L343.154 111.217ZM306.584 199.902C282.497 199.902 262.372 193.988 248.282 181.789C234.216 169.609 226.025 151.046 226.025 125.439H224.025C224.025 151.496 232.378 170.664 246.973 183.301C261.545 195.917 282.199 201.902 306.584 201.902V199.902ZM226.025 125.439C226.025 102.467 234.13 83.8053 248.089 70.8813C262.057 57.9498 281.97 50.6854 305.713 50.6854V48.6854C281.565 48.6854 261.135 56.0782 246.731 69.4138C232.319 82.7569 224.025 101.972 224.025 125.439H226.025ZM305.713 50.6854C329.348 50.6854 348.901 56.8825 362.529 68.6196C376.136 80.3392 383.949 97.678 383.949 120.215H385.949C385.949 97.183 377.944 79.2571 363.834 67.1042C349.743 54.9688 329.677 48.6854 305.713 48.6854V50.6854ZM383.949 120.215C383.949 125.365 383.379 129.064 382.795 134.029L384.782 134.263C385.358 129.36 385.949 125.513 385.949 120.215H383.949ZM383.788 133.146H265.369V135.146H383.788V133.146ZM264.37 134.198C264.958 145.504 267.906 153.818 274.491 159.261C281.04 164.674 290.982 167.073 305.132 167.073V165.073C291.129 165.073 281.77 162.683 275.766 157.72C269.798 152.787 266.941 145.138 266.368 134.094L264.37 134.198ZM305.132 167.073C318.091 167.073 327.024 165.407 332.742 162.037C335.623 160.339 337.695 158.204 339.038 155.639C340.378 153.082 340.962 150.156 340.962 146.917H338.962C338.962 149.918 338.421 152.507 337.266 154.711C336.115 156.909 334.323 158.783 331.726 160.314C326.487 163.402 318.005 165.073 305.132 165.073V167.073ZM340.962 146.917V144.015H338.962V146.917H340.962ZM339.962 145.015H383.498V143.015H339.962V145.015ZM382.498 144.015V147.207H384.498V144.015H382.498ZM382.498 147.207C382.498 162.661 374.999 175.795 361.771 185.101C348.522 194.421 329.511 199.902 306.584 199.902V201.902C329.805 201.902 349.251 196.354 362.922 186.736C376.615 177.103 384.498 163.39 384.498 147.207H382.498ZM304.842 82.6439C291.844 82.6439 282.375 84.8286 275.883 89.5468C269.344 94.2987 265.991 101.495 264.955 111.11L266.944 111.324C267.94 102.073 271.117 95.483 277.059 91.1647C283.047 86.8128 292.008 84.6439 304.842 84.6439V82.6439ZM265.949 112.217H343.154V110.217H265.949V112.217ZM344.152 111.157C343.56 101.374 340.277 94.1591 333.726 89.4358C327.232 84.754 317.689 82.6439 304.842 82.6439V84.6439C317.537 84.6439 326.57 86.7423 332.556 91.0581C338.485 95.3324 341.588 101.904 342.156 111.278L344.152 111.157ZM505.868 198V199H506.868V198H505.868ZM415.312 88.578H416.312V87.578H415.312V88.578ZM392.382 88.578H391.382V89.578H392.382V88.578ZM392.382 52.5878V51.5878H391.382V52.5878H392.382ZM415.312 52.5878V53.5878H416.312V52.5878H415.312ZM415.312 24.4341V23.4341H414.312V24.4341H415.312ZM458.848 24.4341H459.848V23.4341H458.848V24.4341ZM458.848 52.5878H457.848V53.5878H458.848V52.5878ZM505.868 52.5878H506.868V51.5878H505.868V52.5878ZM505.868 88.578V89.578H506.868V88.578H505.868ZM458.848 88.578V87.578H457.848V88.578H458.848ZM505.868 158.817H506.868V157.817H505.868V158.817ZM505.868 197H469.878V199H505.868V197ZM469.878 197C453.038 197 439.679 193.041 430.534 184.708C421.406 176.391 416.312 163.564 416.312 145.466H414.312C414.312 163.938 419.521 177.379 429.187 186.186C438.835 194.978 452.759 199 469.878 199V197ZM416.312 145.466V88.578H414.312V145.466H416.312ZM415.312 87.578H392.382V89.578H415.312V87.578ZM393.382 88.578V52.5878H391.382V88.578H393.382ZM392.382 53.5878H415.312V51.5878H392.382V53.5878ZM416.312 52.5878V24.4341H414.312V52.5878H416.312ZM415.312 25.4341H458.848V23.4341H415.312V25.4341ZM457.848 24.4341V52.5878H459.848V24.4341H457.848ZM458.848 53.5878H505.868V51.5878H458.848V53.5878ZM504.868 52.5878V88.578H506.868V52.5878H504.868ZM505.868 87.578H458.848V89.578H505.868V87.578ZM457.848 88.578V140.532H459.848V88.578H457.848ZM457.848 140.532C457.848 147.865 459.231 152.831 462.887 155.884C466.488 158.891 472.046 159.817 479.746 159.817V157.817C472.063 157.817 467.172 156.857 464.169 154.349C461.222 151.888 459.848 147.711 459.848 140.532H457.848ZM479.746 159.817H505.868V157.817H479.746V159.817ZM504.868 158.817V198H506.868V158.817H504.868ZM563.184 130.663V129.663H562.184V130.663H563.184ZM606.721 130.663H607.721V129.663H606.721V130.663ZM671.445 123.117L671.616 122.132L671.602 122.129L671.587 122.127L671.445 123.117ZM616.879 115.28L616.723 116.268L616.73 116.269L616.737 116.27L616.879 115.28ZM738.201 70.8732V71.8732H739.201V70.8732H738.201ZM694.374 70.8732H693.374V71.8732H694.374V70.8732ZM627.909 77.2585L627.733 78.243L627.742 78.2446L627.751 78.246L627.909 77.2585ZM682.474 85.9659L682.632 84.9784L682.632 84.9783L682.474 85.9659ZM655.191 199.902C625.839 199.902 603.081 194.115 587.684 182.826C572.338 171.575 564.184 154.77 564.184 132.405H562.184C562.184 155.318 570.574 172.761 586.502 184.439C602.379 196.08 625.625 201.902 655.191 201.902V199.902ZM564.184 132.405V130.663H562.184V132.405H564.184ZM563.184 131.663H606.721V129.663H563.184V131.663ZM605.721 130.663V135.888H607.721V130.663H605.721ZM605.721 135.888C605.721 140.459 606.29 144.446 607.833 147.839C609.387 151.256 611.899 154.004 615.661 156.132C623.098 160.339 635.462 162.139 655.191 162.139V160.139C635.448 160.139 623.576 158.311 616.646 154.391C613.224 152.456 611.02 150.015 609.654 147.011C608.276 143.982 607.721 140.314 607.721 135.888H605.721ZM655.191 162.139C672.595 162.139 683.541 160.844 690.149 157.803C693.492 156.264 695.776 154.257 697.206 151.71C698.626 149.18 699.148 146.214 699.148 142.854H697.148C697.148 146.023 696.653 148.609 695.462 150.731C694.279 152.838 692.355 154.586 689.312 155.986C683.149 158.822 672.617 160.139 655.191 160.139V162.139ZM699.148 142.854C699.148 139.789 698.718 137.138 697.707 134.837C696.69 132.523 695.109 130.618 692.892 129.018C688.514 125.858 681.628 123.873 671.616 122.132L671.274 124.102C681.289 125.844 687.754 127.777 691.721 130.64C693.676 132.051 695.015 133.683 695.876 135.642C696.742 137.612 697.148 139.968 697.148 142.854H699.148ZM671.587 122.127L617.021 114.291L616.737 116.27L671.303 124.107L671.587 122.127ZM617.036 114.293C599.737 111.554 586.095 105.877 576.787 97.067C567.507 88.2822 562.443 76.295 562.443 60.7146H560.443C560.443 76.7709 565.682 89.3092 575.413 98.5195C585.116 107.704 599.192 113.493 616.723 116.268L617.036 114.293ZM562.443 60.7146C562.443 46.342 568.269 31.6154 582.133 20.4605C596.013 9.29179 618.041 1.63415 650.548 1.63415V-0.365852C617.749 -0.365852 595.224 7.35944 580.879 18.9023C566.516 30.459 560.443 45.7727 560.443 60.7146H562.443ZM650.548 1.63415C680.305 1.63415 701.958 8.49718 716.156 20.3051C730.328 32.091 737.201 48.9109 737.201 69.1317H739.201C739.201 48.4281 732.143 30.9992 717.435 18.7674C702.754 6.55769 680.581 -0.365852 650.548 -0.365852V1.63415ZM737.201 69.1317V70.8732H739.201V69.1317H737.201ZM738.201 69.8732H694.374V71.8732H738.201V69.8732ZM695.374 70.8732V66.8098H693.374V70.8732H695.374ZM695.374 66.8098C695.374 62.0894 694.768 57.9608 693.187 54.437C691.597 50.8914 689.047 48.0174 685.27 45.7776C677.794 41.3444 665.498 39.3976 646.194 39.3976V41.3976C665.492 41.3976 677.287 43.369 684.25 47.4979C687.693 49.5393 689.95 52.1073 691.362 55.2555C692.784 58.4255 693.374 62.2423 693.374 66.8098H695.374ZM646.194 39.3976C630.504 39.3976 620.072 40.9149 613.538 44.1067C610.244 45.7158 607.903 47.7678 606.397 50.2932C604.893 52.8144 604.269 55.7254 604.269 58.9732H606.269C606.269 55.9806 606.843 53.4496 608.115 51.3178C609.384 49.1903 611.397 47.3784 614.416 45.9037C620.508 42.9278 630.538 41.3976 646.194 41.3976V39.3976ZM604.269 58.9732C604.269 64.8527 605.946 69.0325 609.884 72.0646C613.721 75.0193 619.598 76.7903 627.733 78.243L628.084 76.2741C619.966 74.8244 614.523 73.1124 611.104 70.4799C607.786 67.9248 606.269 64.4131 606.269 58.9732H604.269ZM627.751 78.246L682.317 86.9534L682.632 84.9783L628.066 76.271L627.751 78.246ZM682.316 86.9533C703.959 90.4162 718.533 97.3925 727.693 106.694C736.834 115.977 740.684 127.678 740.684 140.822H742.684C742.684 127.263 738.698 115.02 729.118 105.291C719.557 95.5819 704.526 88.4814 682.632 84.9784L682.316 86.9533ZM740.684 140.822C740.684 156.362 734.635 171.084 720.998 181.944C707.337 192.822 685.962 199.902 655.191 199.902V201.902C686.242 201.902 708.114 194.76 722.244 183.508C736.397 172.237 742.684 156.919 742.684 140.822H740.684ZM802.951 198V199H803.951V198H802.951ZM759.414 198H758.414V199H759.414V198ZM759.414 3.53658V2.53658H758.414V3.53658H759.414ZM802.951 3.53658H803.951V2.53658H802.951V3.53658ZM802.951 106.573H801.951V107.573H802.951V106.573ZM836.038 106.573V107.573H836.564L836.862 107.14L836.038 106.573ZM873.19 52.5878V51.5878H872.664L872.366 52.0209L873.19 52.5878ZM924.853 52.5878L925.651 53.191L926.863 51.5878H924.853V52.5878ZM871.738 122.827L870.941 122.224L870.503 122.802L870.917 123.398L871.738 122.827ZM923.982 198V199H925.895L924.803 197.429L923.982 198ZM872.609 198L871.786 198.568L872.084 199H872.609V198ZM836.329 145.466L837.151 144.898L836.853 144.466H836.329V145.466ZM802.951 145.466V144.466H801.951V145.466H802.951ZM802.951 197H759.414V199H802.951V197ZM760.414 198V3.53658H758.414V198H760.414ZM759.414 4.53658H802.951V2.53658H759.414V4.53658ZM801.951 3.53658V106.573H803.951V3.53658H801.951ZM802.951 107.573H836.038V105.573H802.951V107.573ZM836.862 107.14L874.013 53.1547L872.366 52.0209L835.215 106.006L836.862 107.14ZM873.19 53.5878H924.853V51.5878H873.19V53.5878ZM924.055 51.9846L870.941 122.224L872.536 123.43L925.651 53.191L924.055 51.9846ZM870.917 123.398L923.161 198.571L924.803 197.429L872.56 122.256L870.917 123.398ZM923.982 197H872.609V199H923.982V197ZM873.432 197.432L837.151 144.898L835.506 146.034L871.786 198.568L873.432 197.432ZM836.329 144.466H802.951V146.466H836.329V144.466ZM801.951 145.466V198H803.951V145.466H801.951ZM978.968 37.7854V38.7854H979.968V37.7854H978.968ZM935.431 37.7854H934.431V38.7854H935.431V37.7854ZM935.431 3.53658V2.53658H934.431V3.53658H935.431ZM978.968 3.53658H979.968V2.53658H978.968V3.53658ZM978.968 198V199H979.968V198H978.968ZM935.431 198H934.431V199H935.431V198ZM935.431 52.5878V51.5878H934.431V52.5878H935.431ZM978.968 52.5878H979.968V51.5878H978.968V52.5878ZM978.968 36.7854H935.431V38.7854H978.968V36.7854ZM936.431 37.7854V3.53658H934.431V37.7854H936.431ZM935.431 4.53658H978.968V2.53658H935.431V4.53658ZM977.968 3.53658V37.7854H979.968V3.53658H977.968ZM978.968 197H935.431V199H978.968V197ZM936.431 198V52.5878H934.431V198H936.431ZM935.431 53.5878H978.968V51.5878H935.431V53.5878ZM977.968 52.5878V198H979.968V52.5878H977.968ZM1045.29 198V199H1046.29V198H1045.29ZM1001.76 198H1000.76V199H1001.76V198ZM1001.76 3.53658V2.53658H1000.76V3.53658H1001.76ZM1045.29 3.53658H1046.29V2.53658H1045.29V3.53658ZM1045.29 197H1001.76V199H1045.29V197ZM1002.76 198V3.53658H1000.76V198H1002.76ZM1001.76 4.53658H1045.29V2.53658H1001.76V4.53658ZM1044.29 3.53658V198H1046.29V3.53658H1044.29ZM1111.62 198V199H1112.62V198H1111.62ZM1068.08 198H1067.08V199H1068.08V198ZM1068.08 3.53658V2.53658H1067.08V3.53658H1068.08ZM1111.62 3.53658H1112.62V2.53658H1111.62V3.53658ZM1111.62 197H1068.08V199H1111.62V197ZM1069.08 198V3.53658H1067.08V198H1069.08ZM1068.08 4.53658H1111.62V2.53658H1068.08V4.53658ZM1110.62 3.53658V198H1112.62V3.53658H1110.62ZM1288.82 134.146V135.146H1289.71L1289.81 134.263L1288.82 134.146ZM1170.4 134.146V133.146H1169.34L1169.4 134.198L1170.4 134.146ZM1244.99 144.015V143.015H1243.99V144.015H1244.99ZM1288.53 144.015H1289.53V143.015H1288.53V144.015ZM1170.98 111.217L1169.98 111.11L1169.86 112.217H1170.98V111.217ZM1248.18 111.217V112.217H1249.24L1249.18 111.157L1248.18 111.217ZM1211.61 199.902C1187.53 199.902 1167.4 193.988 1153.31 181.789C1139.24 169.609 1131.05 151.046 1131.05 125.439H1129.05C1129.05 151.496 1137.41 170.664 1152 183.301C1166.57 195.917 1187.23 201.902 1211.61 201.902V199.902ZM1131.05 125.439C1131.05 102.467 1139.16 83.8053 1153.12 70.8813C1167.09 57.9498 1187 50.6854 1210.74 50.6854V48.6854C1186.59 48.6854 1166.16 56.0782 1151.76 69.4138C1137.35 82.7569 1129.05 101.972 1129.05 125.439H1131.05ZM1210.74 50.6854C1234.38 50.6854 1253.93 56.8825 1267.56 68.6196C1281.16 80.3392 1288.98 97.678 1288.98 120.215H1290.98C1290.98 97.183 1282.97 79.2571 1268.86 67.1042C1254.77 54.9688 1234.71 48.6854 1210.74 48.6854V50.6854ZM1288.98 120.215C1288.98 125.365 1288.41 129.064 1287.82 134.029L1289.81 134.263C1290.39 129.36 1290.98 125.513 1290.98 120.215H1288.98ZM1288.82 133.146H1170.4V135.146H1288.82V133.146ZM1169.4 134.198C1169.99 145.504 1172.93 153.818 1179.52 159.261C1186.07 164.674 1196.01 167.073 1210.16 167.073V165.073C1196.16 165.073 1186.8 162.683 1180.79 157.72C1174.83 152.787 1171.97 145.138 1171.4 134.094L1169.4 134.198ZM1210.16 167.073C1223.12 167.073 1232.05 165.407 1237.77 162.037C1240.65 160.339 1242.72 158.204 1244.07 155.639C1245.41 153.082 1245.99 150.156 1245.99 146.917H1243.99C1243.99 149.918 1243.45 152.507 1242.29 154.711C1241.14 156.909 1239.35 158.783 1236.75 160.314C1231.51 163.402 1223.03 165.073 1210.16 165.073V167.073ZM1245.99 146.917V144.015H1243.99V146.917H1245.99ZM1244.99 145.015H1288.53V143.015H1244.99V145.015ZM1287.53 144.015V147.207H1289.53V144.015H1287.53ZM1287.53 147.207C1287.53 162.661 1280.03 175.795 1266.8 185.101C1253.55 194.421 1234.54 199.902 1211.61 199.902V201.902C1234.83 201.902 1254.28 196.354 1267.95 186.736C1281.64 177.103 1289.53 163.39 1289.53 147.207H1287.53ZM1209.87 82.6439C1196.87 82.6439 1187.4 84.8286 1180.91 89.5468C1174.37 94.2987 1171.02 101.495 1169.98 111.11L1171.97 111.324C1172.97 102.073 1176.14 95.483 1182.09 91.1647C1188.07 86.8128 1197.04 84.6439 1209.87 84.6439V82.6439ZM1170.98 112.217H1248.18V110.217H1170.98V112.217ZM1249.18 111.157C1248.59 101.374 1245.31 94.1591 1238.75 89.4358C1232.26 84.754 1222.72 82.6439 1209.87 82.6439V84.6439C1222.57 84.6439 1231.6 86.7423 1237.58 91.0581C1243.51 95.3324 1246.62 101.904 1247.18 111.278L1249.18 111.157ZM1428.31 91.1902L1427.33 91.3886L1427.49 92.1902H1428.31V91.1902ZM1430.92 91.1902V92.1902H1431.92V91.1902H1430.92ZM1430.92 3.53658V2.53658H1429.92V3.53658H1430.92ZM1474.46 3.53658H1475.46V2.53658H1474.46V3.53658ZM1474.46 198V199H1475.46V198H1474.46ZM1433.83 198H1432.83V199H1433.83V198ZM1433.83 157.656H1434.83V156.656H1433.83V157.656ZM1431.5 157.656V156.656H1430.68L1430.52 157.468L1431.5 157.656ZM1373.45 199.902C1351.04 199.902 1333.77 192.583 1322.1 179.696C1310.41 166.795 1304.22 148.195 1304.22 125.439H1302.22C1302.22 148.542 1308.5 167.673 1320.61 181.039C1332.74 194.419 1350.59 201.902 1373.45 201.902V199.902ZM1304.22 125.439C1304.22 102.388 1310.34 83.7101 1321.71 70.8087C1333.06 57.9243 1349.75 50.6854 1371.13 50.6854V48.6854C1349.27 48.6854 1332 56.1037 1320.21 69.4864C1308.43 82.8521 1302.22 102.051 1302.22 125.439H1304.22ZM1371.13 50.6854C1388.24 50.6854 1401.06 54.924 1410.21 62.0825C1419.35 69.238 1424.9 79.3861 1427.33 91.3886L1429.29 90.9919C1426.79 78.6139 1421.02 68.0096 1411.44 60.5077C1401.86 53.0089 1388.57 48.6854 1371.13 48.6854V50.6854ZM1428.31 92.1902H1430.92V90.1902H1428.31V92.1902ZM1431.92 91.1902V3.53658H1429.92V91.1902H1431.92ZM1430.92 4.53658H1474.46V2.53658H1430.92V4.53658ZM1473.46 3.53658V198H1475.46V3.53658H1473.46ZM1474.46 197H1433.83V199H1474.46V197ZM1434.83 198V157.656H1432.83V198H1434.83ZM1433.83 156.656H1431.5V158.656H1433.83V156.656ZM1430.52 157.468C1427.8 171.648 1421.74 182.215 1412.33 189.254C1402.91 196.304 1390.01 199.902 1373.45 199.902V201.902C1390.28 201.902 1403.65 198.245 1413.53 190.855C1423.42 183.455 1429.69 172.399 1432.49 157.845L1430.52 157.468ZM1346.33 125.439C1346.33 138.796 1349.64 148.071 1356.71 153.962C1363.73 159.815 1374.26 162.139 1388.26 162.139V160.139C1374.39 160.139 1364.46 157.819 1357.99 152.425C1351.56 147.069 1348.33 138.495 1348.33 125.439H1346.33ZM1388.26 162.139C1402.12 162.139 1413.06 159.737 1420.54 153.986C1428.08 148.192 1431.92 139.144 1431.92 126.31H1429.92C1429.92 138.727 1426.22 147.094 1419.32 152.401C1412.36 157.752 1401.96 160.139 1388.26 160.139V162.139ZM1431.92 126.31V123.988H1429.92V126.31H1431.92ZM1431.92 123.988C1431.92 111.159 1428.15 102.179 1420.64 96.4539C1413.2 90.7752 1402.26 88.4488 1388.26 88.4488V90.4488C1402.12 90.4488 1412.51 92.7663 1419.43 98.0442C1426.29 103.276 1429.92 111.565 1429.92 123.988H1431.92ZM1388.26 88.4488C1374.26 88.4488 1363.73 90.7727 1356.7 96.6643C1349.64 102.592 1346.33 111.941 1346.33 125.439H1348.33C1348.33 112.235 1351.56 103.588 1357.99 98.1967C1364.46 92.7688 1374.39 90.4488 1388.26 90.4488V88.4488Z" fill="url(#paint0_linear_3309_12587)" mask="url(#path-1-outside-1_3309_12587)"/>
<defs>
<linearGradient id="paint0_linear_3309_12587" x1="739.5" y1="-73" x2="739.5" y2="284" gradientUnits="userSpaceOnUse">
<stop stop-color="#FF4E00" stop-opacity="0.5"/>
<stop offset="0.743247" stop-color="#FF4E00" stop-opacity="0"/>
</linearGradient>
</defs>
</svg>
