<svg width="27" height="27" viewBox="0 0 27 27" fill="none" xmlns="http://www.w3.org/2000/svg">
<path d="M5.16137 17.4893C3.48624 15.8142 2.64868 14.9766 2.33703 13.8899C2.02537 12.8032 2.29171 11.6491 2.8244 9.34073L3.1316 8.00956C3.57975 6.06756 3.80383 5.09655 4.46874 4.43163C5.13366 3.76672 6.10467 3.54264 8.04667 3.09449L9.37783 2.78729C11.6862 2.2546 12.8404 1.98826 13.927 2.29992C15.0137 2.61157 15.8513 3.44913 17.5264 5.12426L19.5094 7.10731C22.4239 10.0218 23.8811 11.479 23.8811 13.2898C23.8811 15.1006 22.4239 16.5578 19.5094 19.4723C16.5949 22.3868 15.1377 23.844 13.3269 23.844C11.5161 23.844 10.0589 22.3868 7.14442 19.4723L5.16137 17.4893Z" stroke="#00002F" stroke-width="1.62577"/>
<path d="M10.8982 11.1563C11.7447 10.3098 11.7447 8.93728 10.8982 8.09074C10.0517 7.2442 8.67914 7.2442 7.8326 8.09074C6.98606 8.93728 6.98606 10.3098 7.8326 11.1563C8.67914 12.0029 10.0517 12.0029 10.8982 11.1563Z" stroke="#00002F" stroke-width="1.62577"/>
<path d="M12.5464 20.0512L20.1107 12.4868" stroke="#00002F" stroke-width="1.62577" stroke-linecap="round"/>
</svg>
