<svg width="10" height="15" viewBox="0 0 10 15" fill="none" xmlns="http://www.w3.org/2000/svg">
<path d="M4.99859 0.261719C3.13779 0.261719 1.625 1.77451 1.625 3.63531C1.625 5.4606 3.05256 6.93787 4.91336 7.00179C4.97018 6.99469 5.027 6.99469 5.06961 7.00179C5.08382 7.00179 5.09092 7.00179 5.10512 7.00179C5.11223 7.00179 5.11223 7.00179 5.11933 7.00179C6.93752 6.93787 8.36508 5.4606 8.37218 3.63531C8.37218 1.77451 6.85939 0.261719 4.99859 0.261719Z" fill="#FF4E00"/>
<path d="M8.60795 8.89116C6.62641 7.57013 3.3949 7.57013 1.39915 8.89116C0.497161 9.49486 0 10.3116 0 11.1852C0 12.0588 0.497161 12.8684 1.39205 13.465C2.38637 14.1327 3.69316 14.4665 4.99999 14.4665C6.30681 14.4665 7.61363 14.1327 8.60795 13.465C9.50284 12.8613 10 12.0517 10 11.171C9.9929 10.2974 9.50284 9.48775 8.60795 8.89116Z" fill="white"/>
</svg>
