<svg width="14" height="14" viewBox="0 0 14 14" fill="none" xmlns="http://www.w3.org/2000/svg">
<path fill-rule="evenodd" clip-rule="evenodd" d="M6.24098 8.83748C6.31187 8.7666 6.36811 8.68244 6.40648 8.58983C6.44485 8.49721 6.46459 8.39794 6.46459 8.29769C6.46459 8.19744 6.44485 8.09817 6.40648 8.00555C6.36811 7.91293 6.31187 7.82878 6.24098 7.75789C6.04181 7.55874 5.88382 7.32232 5.77603 7.06211C5.66825 6.80191 5.61277 6.52302 5.61277 6.24138C5.61277 5.95973 5.66825 5.68085 5.77603 5.42064C5.88382 5.16044 6.04181 4.92401 6.24098 4.72486L8.81177 2.15493C9.01093 1.95578 9.24737 1.7978 9.50759 1.69002C9.76781 1.58224 10.0467 1.52677 10.3284 1.52677C10.61 1.52677 10.8889 1.58224 11.1491 1.69002C11.4094 1.7978 11.6458 1.95578 11.845 2.15493C12.0441 2.35408 12.2021 2.59051 12.3099 2.85071C12.4177 3.11092 12.4731 3.3898 12.4731 3.67145C12.4731 3.95309 12.4177 4.23197 12.3099 4.49218C12.2021 4.75238 12.0441 4.98881 11.845 5.18796L11.0503 5.98184C10.9794 6.05273 10.9232 6.13688 10.8848 6.2295C10.8465 6.32212 10.8267 6.42139 10.8267 6.52164C10.8267 6.62189 10.8465 6.72115 10.8848 6.81377C10.9232 6.90639 10.9794 6.99054 11.0503 7.06143C11.1935 7.20459 11.3877 7.28502 11.5901 7.28502C11.6904 7.28502 11.7897 7.26528 11.8823 7.22691C11.9749 7.18855 12.0591 7.13232 12.13 7.06143L12.9246 6.26755C13.6132 5.57902 14 4.64517 14 3.67145C14 2.69772 13.6132 1.76387 12.9246 1.07534C12.236 0.386812 11.3021 0 10.3284 0C9.35458 0 8.42069 0.386812 7.73212 1.07534L5.16133 3.64527C4.82037 3.98619 4.54991 4.39093 4.36539 4.83637C4.18086 5.28181 4.08589 5.75923 4.08589 6.24138C4.08589 6.72352 4.18086 7.20095 4.36539 7.64639C4.54991 8.09183 4.82037 8.49657 5.16133 8.83748C5.45941 9.13555 5.94289 9.13555 6.24098 8.83748ZM7.7314 5.18796C7.6605 5.25884 7.60426 5.343 7.5659 5.43562C7.52753 5.52824 7.50778 5.62751 7.50778 5.72776C7.50778 5.82801 7.52753 5.92728 7.5659 6.01989C7.60426 6.11251 7.6605 6.19667 7.7314 6.26755C7.93056 6.4667 8.08855 6.70313 8.19634 6.96333C8.30413 7.22354 8.3596 7.50242 8.3596 7.78407C8.3596 8.06571 8.30413 8.3446 8.19634 8.6048C8.08855 8.865 7.93056 9.10143 7.7314 9.30058L5.18678 11.8451C4.98867 12.0489 4.75202 12.2113 4.49058 12.3229C4.22915 12.4344 3.94815 12.4929 3.66391 12.4949C3.37967 12.4969 3.09787 12.4424 2.83489 12.3345C2.57191 12.2267 2.33299 12.0676 2.13202 11.8666C1.93105 11.6656 1.77205 11.4267 1.66425 11.1637C1.55645 10.9007 1.502 10.6189 1.50408 10.3347C1.50615 10.0504 1.5647 9.76947 1.67633 9.50808C1.78796 9.24669 1.95044 9.01009 2.15432 8.81204L2.89953 8.06687C3.0427 7.9237 3.12313 7.72954 3.12313 7.52707C3.12313 7.32461 3.0427 7.13044 2.89953 6.98728C2.75636 6.84411 2.56218 6.76369 2.3597 6.76369C2.15723 6.76369 1.96305 6.84411 1.81988 6.98728L1.0754 7.73245C0.386832 8.42098 0 9.35483 0 10.3286C0 11.3023 0.386832 12.2361 1.0754 12.9247C1.76396 13.6132 2.69786 14 3.67164 14C4.64542 14 5.57931 13.6132 6.26788 12.9247L8.8125 10.3802C9.15345 10.0393 9.42392 9.63452 9.60844 9.18908C9.79297 8.74364 9.88794 8.26621 9.88794 7.78407C9.88794 7.30192 9.79297 6.8245 9.60844 6.37905C9.42392 5.93361 9.15345 5.52888 8.8125 5.18796C8.74161 5.11707 8.65745 5.06083 8.56483 5.02247C8.4722 4.9841 8.37293 4.96435 8.27267 4.96435C8.17242 4.96435 8.07314 4.9841 7.98052 5.02247C7.8879 5.06083 7.80374 5.11707 7.73285 5.18796H7.7314Z" fill="white"/>
</svg>
