<svg width="10" height="15" viewBox="0 0 10 15" fill="none" xmlns="http://www.w3.org/2000/svg">
<path d="M4.99908 0.26123C3.13828 0.26123 1.62549 1.77402 1.62549 3.63482C1.62549 5.46011 3.05305 6.93739 4.91385 7.00131C4.97067 6.9942 5.02749 6.9942 5.0701 7.00131C5.08431 7.00131 5.09141 7.00131 5.10561 7.00131C5.11271 7.00131 5.11271 7.00131 5.11982 7.00131C6.938 6.93739 8.36556 5.46011 8.37267 3.63482C8.37267 1.77402 6.85988 0.26123 4.99908 0.26123Z" fill="#FF4E00"/>
<path d="M8.60795 8.89067C6.62641 7.56965 3.3949 7.56965 1.39915 8.89067C0.497161 9.49437 0 10.3111 0 11.1847C0 12.0583 0.497161 12.868 1.39205 13.4645C2.38637 14.1322 3.69316 14.466 4.99999 14.466C6.30681 14.466 7.61363 14.1322 8.60795 13.4645C9.50284 12.8609 10 12.0512 10 11.1705C9.9929 10.2969 9.50284 9.48726 8.60795 8.89067Z" fill="#00002F"/>
</svg>
