<svg width="31" height="31" viewBox="0 0 31 31" fill="none" xmlns="http://www.w3.org/2000/svg">
<path d="M5.2891 9.97835C6.31151 9.97835 7.14034 9.14953 7.14034 8.12711C7.14034 7.1047 6.31151 6.27588 5.2891 6.27588C4.26669 6.27588 3.43787 7.1047 3.43787 8.12711C3.43787 9.14953 4.26669 9.97835 5.2891 9.97835Z" fill="#FF4E00"/>
<path d="M10.8429 6.89307C10.1613 6.89307 9.6087 7.44562 9.6087 8.12722C9.6087 8.80882 10.1613 9.36138 10.8429 9.36138H26.8869C27.5685 9.36138 28.1211 8.80882 28.1211 8.12722C28.1211 7.44562 27.5685 6.89307 26.8869 6.89307H10.8429Z" fill="#00002F"/>
<path d="M10.8429 14.2979C10.1613 14.2979 9.6087 14.8504 9.6087 15.532C9.6087 16.2136 10.1613 16.7662 10.8429 16.7662H26.8869C27.5685 16.7662 28.1211 16.2136 28.1211 15.532C28.1211 14.8504 27.5685 14.2979 26.8869 14.2979H10.8429Z" fill="#00002F"/>
<path d="M9.6087 22.9373C9.6087 22.2557 10.1613 21.7031 10.8429 21.7031H26.8869C27.5685 21.7031 28.1211 22.2557 28.1211 22.9373C28.1211 23.6189 27.5685 24.1714 26.8869 24.1714H10.8429C10.1613 24.1714 9.6087 23.6189 9.6087 22.9373Z" fill="#00002F"/>
<path d="M7.14034 15.5319C7.14034 16.5543 6.31151 17.3831 5.2891 17.3831C4.26669 17.3831 3.43787 16.5543 3.43787 15.5319C3.43787 14.5095 4.26669 13.6807 5.2891 13.6807C6.31151 13.6807 7.14034 14.5095 7.14034 15.5319Z" fill="#FF4E00"/>
<path d="M5.2891 24.7884C6.31151 24.7884 7.14034 23.9595 7.14034 22.9372C7.14034 21.9148 6.31151 21.0859 5.2891 21.0859C4.26669 21.0859 3.43787 21.9148 3.43787 22.9372C3.43787 23.9595 4.26669 24.7884 5.2891 24.7884Z" fill="#FF4E00"/>
</svg>
