<svg width="14" height="7" viewBox="0 0 14 7" fill="none" xmlns="http://www.w3.org/2000/svg">
<path d="M6.62937 1.74341C6.79174 1.72271 6.95603 1.72271 7.1184 1.74341C7.37699 1.77637 7.66572 1.90022 8.11524 2.26122C8.578 2.63286 9.12414 3.18209 9.9177 3.98276L11.873 5.9556C12.1993 6.28482 12.7307 6.2872 13.0599 5.9609C13.3892 5.6346 13.3915 5.1032 13.0652 4.77398L11.0747 2.76559C10.325 2.00914 9.71225 1.3909 9.1663 0.952451C8.59858 0.496519 8.02234 0.166475 7.33064 0.0783098C7.02735 0.0396519 6.72042 0.039652 6.41713 0.0783098C5.72543 0.166475 5.14919 0.496519 4.58147 0.952451C4.03552 1.3909 3.42279 2.00915 2.67308 2.7656L0.682541 4.77398C0.356245 5.1032 0.358616 5.6346 0.687836 5.9609C1.01706 6.2872 1.54846 6.28482 1.87475 5.9556L3.83007 3.98276C4.62363 3.18209 5.16977 2.63286 5.63253 2.26122C6.08205 1.90022 6.37078 1.77637 6.62937 1.74341Z" fill="white"/>
</svg>
