<svg width="64" height="64" viewBox="0 0 64 64" fill="none" xmlns="http://www.w3.org/2000/svg">
<path d="M55.0609 7.13135L35.0735 21.9763L38.7697 13.218L55.0609 7.13135Z" fill="#E2761B" stroke="#E2761B" stroke-width="0.576577" stroke-linecap="round" stroke-linejoin="round"/>
<path d="M8.91904 7.13135L28.7458 22.1169L25.2304 13.218L8.91904 7.13135ZM47.8694 41.5419L42.5462 49.6976L53.936 52.8313L57.2103 41.7227L47.8694 41.5419ZM6.80981 41.7227L10.0641 52.8313L21.4539 49.6976L16.1306 41.5419L6.80981 41.7227Z" fill="#E4761B" stroke="#E4761B" stroke-width="0.576577" stroke-linecap="round" stroke-linejoin="round"/>
<path d="M20.8111 27.7611L17.6372 32.5621L28.9467 33.0643L28.5449 20.9111L20.8111 27.7611ZM43.1689 27.7611L35.3346 20.7705L35.0735 33.0643L46.3629 32.5621L43.1689 27.7611ZM21.4539 49.6971L28.2436 46.3826L22.3779 41.8025L21.4539 49.6971ZM35.7364 46.3826L42.5462 49.6971L41.6021 41.8025L35.7364 46.3826Z" fill="#E4761B" stroke="#E4761B" stroke-width="0.576577" stroke-linecap="round" stroke-linejoin="round"/>
<path d="M42.5461 49.6973L35.7363 46.3828L36.2787 50.8222L36.2185 52.6904L42.5461 49.6973ZM21.4539 49.6973L27.7815 52.6904L27.7414 50.8222L28.2436 46.3828L21.4539 49.6973Z" fill="#D7C1B3" stroke="#D7C1B3" stroke-width="0.576577" stroke-linecap="round" stroke-linejoin="round"/>
<path d="M27.8821 38.8698L22.2173 37.2025L26.2148 35.3745L27.8821 38.8698ZM36.098 38.8698L37.7653 35.3745L41.7829 37.2025L36.098 38.8698Z" fill="#233447" stroke="#233447" stroke-width="0.576577" stroke-linecap="round" stroke-linejoin="round"/>
<path d="M21.4539 49.6975L22.4181 41.5418L16.1306 41.7226L21.4539 49.6975ZM41.582 41.5418L42.5462 49.6975L47.8695 41.7226L41.582 41.5418ZM46.3629 32.5625L35.0735 33.0647L36.1181 38.8701L37.7854 35.3748L41.8029 37.2028L46.3629 32.5625ZM22.2172 37.2028L26.2348 35.3748L27.882 38.8701L28.9467 33.0647L17.6372 32.5625L22.2172 37.2028Z" fill="#CD6116" stroke="#CD6116" stroke-width="0.576577" stroke-linecap="round" stroke-linejoin="round"/>
<path d="M17.6372 32.5625L22.3779 41.8029L22.2172 37.2028L17.6372 32.5625ZM41.8029 37.2028L41.6021 41.8029L46.3629 32.5625L41.8029 37.2028ZM28.9467 33.0647L27.882 38.8701L29.2078 45.7201L29.5091 36.7006L28.9467 33.0647ZM35.0735 33.0647L34.5311 36.6805L34.7722 45.7201L36.1181 38.8701L35.0735 33.0647Z" fill="#E4751F" stroke="#E4751F" stroke-width="0.576577" stroke-linecap="round" stroke-linejoin="round"/>
<path d="M36.1181 38.8699L34.7722 45.7199L35.7364 46.3828L41.6021 41.8028L41.803 37.2026L36.1181 38.8699ZM22.2173 37.2026L22.378 41.8028L28.2437 46.3828L29.2079 45.7199L27.8821 38.8699L22.2173 37.2026Z" fill="#F6851B" stroke="#F6851B" stroke-width="0.576577" stroke-linecap="round" stroke-linejoin="round"/>
<path d="M36.2185 52.6904L36.2787 50.8222L35.7765 50.3803H28.2034L27.7414 50.8222L27.7815 52.6904L21.4539 49.6973L23.6635 51.5052L28.1431 54.6188H35.8368L40.3365 51.5052L42.5461 49.6973L36.2185 52.6904Z" fill="#C0AD9E" stroke="#C0AD9E" stroke-width="0.576577" stroke-linecap="round" stroke-linejoin="round"/>
<path d="M35.7362 46.3826L34.772 45.7197H29.2076L28.2434 46.3826L27.7412 50.822L28.2032 50.3801H35.7764L36.2786 50.822L35.7362 46.3826Z" fill="#161616" stroke="#161616" stroke-width="0.576577" stroke-linecap="round" stroke-linejoin="round"/>
<path d="M55.9046 22.9405L57.612 14.7447L55.0609 7.13135L35.7363 21.4741L43.1689 27.7616L53.6748 30.8351L56.005 28.1232L55.0006 27.4L56.6076 25.9336L55.3622 24.9694L56.9692 23.744L55.9046 22.9405ZM6.38794 14.7447L8.09541 22.9405L7.01066 23.744L8.6177 24.9694L7.39233 25.9336L8.99936 27.4L7.99497 28.1232L10.3051 30.8351L20.811 27.7616L28.2436 21.4741L8.91901 7.13135L6.38794 14.7447Z" fill="#763D16" stroke="#763D16" stroke-width="0.576577" stroke-linecap="round" stroke-linejoin="round"/>
<path d="M53.6749 30.8348L43.1689 27.7614L46.3629 32.5624L41.602 41.8028L47.8694 41.7225H57.2103L53.6749 30.8348ZM20.8111 27.7614L10.3051 30.8348L6.80981 41.7225H16.1306L22.3779 41.8028L17.6372 32.5624L20.8111 27.7614ZM35.0735 33.0646L35.7364 21.4739L38.7897 13.2178H25.2304L28.2436 21.4739L28.9467 33.0646L29.1877 36.7206L29.2078 45.72H34.7722L34.8123 36.7206L35.0735 33.0646Z" fill="#F6851B" stroke="#F6851B" stroke-width="0.576577" stroke-linecap="round" stroke-linejoin="round"/>
</svg>
