<svg width="27" height="27" viewBox="0 0 27 27" fill="none" xmlns="http://www.w3.org/2000/svg">
<path d="M1 9.75V6.625C1 3.5125 3.5125 1 6.625 1H9.75" stroke="white" stroke-width="2" stroke-linecap="round" stroke-linejoin="round"/>
<path d="M17.25 1H20.375C23.4875 1 26 3.5125 26 6.625V9.75" stroke="white" stroke-width="2" stroke-linecap="round" stroke-linejoin="round"/>
<path d="M26 18.5V20.375C26 23.4875 23.4875 26 20.375 26H18.5" stroke="white" stroke-width="2" stroke-linecap="round" stroke-linejoin="round"/>
<path d="M9.75 26H6.625C3.5125 26 1 23.4875 1 20.375V17.25" stroke="white" stroke-width="2" stroke-linecap="round" stroke-linejoin="round"/>
<path d="M19.75 10.375V16.625C19.75 19.125 18.5 20.375 16 20.375H11C8.5 20.375 7.25 19.125 7.25 16.625V10.375C7.25 7.875 8.5 6.625 11 6.625H16C18.5 6.625 19.75 7.875 19.75 10.375Z" stroke="white" stroke-width="2" stroke-linecap="round" stroke-linejoin="round"/>
<path d="M22.25 13.5H4.75" stroke="white" stroke-width="2" stroke-linecap="round" stroke-linejoin="round"/>
</svg>
