<svg width="34" height="34" viewBox="0 0 34 34" fill="none" xmlns="http://www.w3.org/2000/svg">
<path d="M26.8178 18.9223C26.3994 18.9223 25.9982 19.0885 25.7023 19.3844C25.4065 19.6802 25.2403 20.0815 25.2403 20.4999V21.0993L22.9056 18.7646C22.0812 17.9467 20.967 17.4878 19.8057 17.4878C18.6445 17.4878 17.5303 17.9467 16.7059 18.7646L15.6016 19.8689L11.6894 15.9566C10.8535 15.1609 9.74364 14.7171 8.58958 14.7171C7.43552 14.7171 6.32566 15.1609 5.48976 15.9566L3.15503 18.2913V9.45724C3.15503 9.03885 3.32124 8.63761 3.61708 8.34176C3.91292 8.04592 4.31417 7.87972 4.73255 7.87972H15.7752C16.1936 7.87972 16.5948 7.71352 16.8906 7.41768C17.1865 7.12183 17.3527 6.72059 17.3527 6.3022C17.3527 5.88382 17.1865 5.48257 16.8906 5.18673C16.5948 4.89089 16.1936 4.72469 15.7752 4.72469H4.73255C3.4774 4.72469 2.27366 5.22329 1.38613 6.11082C0.498607 6.99834 0 8.20209 0 9.45724V28.3874C0 29.6426 0.498607 30.8463 1.38613 31.7339C2.27366 32.6214 3.4774 33.12 4.73255 33.12H23.6628C24.9179 33.12 26.1217 32.6214 27.0092 31.7339C27.8967 30.8463 28.3953 29.6426 28.3953 28.3874V20.4999C28.3953 20.0815 28.2291 19.6802 27.9333 19.3844C27.6374 19.0885 27.2362 18.9223 26.8178 18.9223ZM4.73255 29.965C4.31417 29.965 3.91292 29.7988 3.61708 29.5029C3.32124 29.2071 3.15503 28.8058 3.15503 28.3874V22.7557L7.72984 18.1809C7.96159 17.9601 8.26945 17.8369 8.58958 17.8369C8.90972 17.8369 9.21757 17.9601 9.44933 18.1809L14.4501 23.1816L21.2334 29.965H4.73255ZM25.2403 28.3874C25.238 28.6894 25.1384 28.9826 24.9563 29.2235L17.8417 22.0774L18.946 20.9731C19.0591 20.8577 19.1941 20.766 19.3431 20.7034C19.492 20.6408 19.652 20.6085 19.8136 20.6085C19.9752 20.6085 20.1352 20.6408 20.2842 20.7034C20.4332 20.766 20.5682 20.8577 20.6813 20.9731L25.2403 25.5637V28.3874ZM32.6704 5.18217L27.9378 0.449614C27.7878 0.305995 27.6109 0.193416 27.4173 0.118335C27.0332 -0.039445 26.6024 -0.039445 26.2183 0.118335C26.0247 0.193416 25.8478 0.305995 25.6978 0.449614L20.9652 5.18217C20.8181 5.32925 20.7014 5.50387 20.6218 5.69604C20.5422 5.88822 20.5013 6.09419 20.5013 6.3022C20.5013 6.7223 20.6682 7.12519 20.9652 7.42224C21.2623 7.71929 21.6651 7.88618 22.0852 7.88618C22.5053 7.88618 22.9082 7.71929 23.2053 7.42224L25.2403 5.37147V14.1898C25.2403 14.6082 25.4065 15.0094 25.7023 15.3053C25.9982 15.6011 26.3994 15.7673 26.8178 15.7673C27.2362 15.7673 27.6374 15.6011 27.9333 15.3053C28.2291 15.0094 28.3953 14.6082 28.3953 14.1898V5.37147L30.4303 7.42224C30.577 7.5701 30.7514 7.68746 30.9437 7.76754C31.1359 7.84763 31.3421 7.88887 31.5503 7.88887C31.7586 7.88887 31.9648 7.84763 32.157 7.76754C32.3493 7.68746 32.5237 7.5701 32.6704 7.42224C32.8182 7.27559 32.9356 7.10111 33.0157 6.90888C33.0958 6.71664 33.137 6.51045 33.137 6.3022C33.137 6.09395 33.0958 5.88776 33.0157 5.69553C32.9356 5.50329 32.8182 5.32882 32.6704 5.18217Z" fill="#FF4E00"/>
</svg>
