<svg width="33" height="33" viewBox="0 0 33 33" fill="none" xmlns="http://www.w3.org/2000/svg">
<path opacity="0.4" d="M27.3638 11.2877V24.6276C27.3638 28.7322 24.9147 30.1004 21.891 30.1004H10.9454C7.92173 30.1004 5.47266 28.7322 5.47266 24.6276V11.2877C5.47266 6.84109 7.92173 5.81494 10.9454 5.81494C10.9454 6.66322 11.2874 7.42941 11.8484 7.99037C12.4094 8.55133 13.1756 8.89338 14.0239 8.89338H18.8126C20.5091 8.89338 21.891 7.5115 21.891 5.81494C24.9147 5.81494 27.3638 6.84109 27.3638 11.2877Z" fill="#00002F"/>
<path d="M21.8914 5.81477C21.8914 7.51133 20.5095 8.8932 18.8129 8.8932H14.0242C13.176 8.8932 12.4097 8.55116 11.8488 7.9902C11.2878 7.42924 10.9458 6.66305 10.9458 5.81477C10.9458 4.1182 12.3277 2.73633 14.0242 2.73633H18.8129C19.6612 2.73633 20.4274 3.07838 20.9884 3.63934C21.5493 4.2003 21.8914 4.96649 21.8914 5.81477Z" fill="#00002F"/>
<path d="M16.4184 18.8125H10.9456C10.3846 18.8125 9.91943 18.3474 9.91943 17.7864C9.91943 17.2254 10.3846 16.7603 10.9456 16.7603H16.4184C16.9793 16.7603 17.4445 17.2254 17.4445 17.7864C17.4445 18.3474 16.9793 18.8125 16.4184 18.8125Z" fill="#00002F"/>
<path d="M21.8911 24.2857H10.9456C10.3846 24.2857 9.91943 23.8205 9.91943 23.2595C9.91943 22.6986 10.3846 22.2334 10.9456 22.2334H21.8911C22.4521 22.2334 22.9173 22.6986 22.9173 23.2595C22.9173 23.8205 22.4521 24.2857 21.8911 24.2857Z" fill="#00002F"/>
</svg>
