<svg width="33" height="33" viewBox="0 0 33 33" fill="none" xmlns="http://www.w3.org/2000/svg">
<path opacity="0.4" d="M27.3638 11.2872V24.6271C27.3638 28.7317 24.9147 30.0999 21.891 30.0999H10.9454C7.92173 30.0999 5.47266 28.7317 5.47266 24.6271V11.2872C5.47266 6.8406 7.92173 5.81445 10.9454 5.81445C10.9454 6.66273 11.2874 7.42892 11.8484 7.98988C12.4094 8.55084 13.1756 8.89289 14.0239 8.89289H18.8126C20.5091 8.89289 21.891 7.51101 21.891 5.81445C24.9147 5.81445 27.3638 6.8406 27.3638 11.2872Z" fill="white"/>
<path d="M21.8909 5.81477C21.8909 7.51133 20.509 8.8932 18.8124 8.8932H14.0238C13.1755 8.8932 12.4092 8.55116 11.8483 7.9902C11.2873 7.42924 10.9453 6.66305 10.9453 5.81477C10.9453 4.1182 12.3272 2.73633 14.0238 2.73633H18.8124C19.6607 2.73633 20.4269 3.07838 20.9879 3.63934C21.5488 4.2003 21.8909 4.96649 21.8909 5.81477Z" fill="white"/>
<path d="M16.4169 18.813H10.9441C10.3832 18.813 9.91797 18.3478 9.91797 17.7869C9.91797 17.2259 10.3832 16.7607 10.9441 16.7607H16.4169C16.9779 16.7607 17.443 17.2259 17.443 17.7869C17.443 18.3478 16.9779 18.813 16.4169 18.813Z" fill="white"/>
<path d="M21.8897 24.2857H10.9441C10.3832 24.2857 9.91797 23.8205 9.91797 23.2595C9.91797 22.6986 10.3832 22.2334 10.9441 22.2334H21.8897C22.4506 22.2334 22.9158 22.6986 22.9158 23.2595C22.9158 23.8205 22.4506 24.2857 21.8897 24.2857Z" fill="white"/>
</svg>
