<svg width="33" height="34" viewBox="0 0 33 34" fill="none" xmlns="http://www.w3.org/2000/svg">
<path opacity="0.4" d="M16.3782 30.5446C23.9346 30.5446 30.0602 24.4189 30.0602 16.8626C30.0602 9.30628 23.9346 3.18066 16.3782 3.18066C8.82192 3.18066 2.69629 9.30628 2.69629 16.8626C2.69629 24.4189 8.82192 30.5446 16.3782 30.5446Z" fill="#00002F"/>
<path d="M20.481 14.4409L16.5133 12.1561C15.5282 11.5814 14.3378 11.5814 13.3527 12.1561C12.3676 12.7307 11.7793 13.7432 11.7793 14.8924V19.4759C11.7793 20.6115 12.3676 21.6376 13.3527 22.2123C13.8453 22.4996 14.3926 22.6364 14.9262 22.6364C15.4735 22.6364 16.007 22.4996 16.4996 22.2123L20.4674 19.9274C21.4525 19.3528 22.0408 18.3403 22.0408 17.191C22.0681 16.0417 21.4798 15.0156 20.481 14.4409Z" fill="#00002F"/>
</svg>
