<svg width="13" height="18" viewBox="0 0 13 18" fill="none" xmlns="http://www.w3.org/2000/svg">
<path d="M6.1944 0C3.8884 0 2.01367 1.87472 2.01367 4.18072C2.01367 6.44271 3.78278 8.27343 6.08878 8.35264C6.15919 8.34384 6.2296 8.34384 6.28241 8.35264C6.30001 8.35264 6.30882 8.35264 6.32642 8.35264C6.33522 8.35264 6.33522 8.35264 6.34402 8.35264C8.59721 8.27343 10.3663 6.44271 10.3751 4.18072C10.3751 1.87472 8.50039 0 6.1944 0Z" fill="#FF4E00"/>
<path d="M10.6674 10.6941C8.21179 9.05704 4.20713 9.05704 1.7339 10.6941C0.616107 11.4423 0 12.4544 0 13.537C0 14.6196 0.616107 15.623 1.7251 16.3623C2.95731 17.1896 4.57676 17.6033 6.19624 17.6033C7.81572 17.6033 9.4352 17.1896 10.6674 16.3623C11.7764 15.6142 12.3925 14.6108 12.3925 13.5194C12.3837 12.4368 11.7764 11.4334 10.6674 10.6941Z" fill="#00002F"/>
</svg>
