<svg width="23" height="32" viewBox="0 0 23 32" fill="none" xmlns="http://www.w3.org/2000/svg">
<path fill-rule="evenodd" clip-rule="evenodd" d="M2.50758 17.6186L5.74904 17.6185C5.74907 17.6995 5.75342 18.2673 5.74682 18.2976H5.6999L5.69996 19.2182L5.65139 19.2199L5.65135 20.1411L5.69983 20.1434L5.6999 20.9668H5.74722L5.75107 21.4998L5.79838 21.5003L5.79961 21.8393L5.84773 21.8399V22.179L5.8969 22.1794L5.89856 22.4217L5.94628 22.4227V22.665L5.99433 22.666L5.99745 22.907L6.0439 22.9077L6.04599 23.1012L6.09335 23.1017V23.3429L6.14239 23.3442L6.14262 23.4886L6.19147 23.4898L6.19193 23.6831L6.23978 23.6841L6.2432 23.8289L6.28959 23.8316L6.29092 23.9742L6.339 23.9775V24.1203H6.38711L6.39023 24.2653L6.43742 24.2658L6.43911 24.4106L6.48606 24.4113V24.5572L6.53534 24.5576V24.703L6.58409 24.7035L6.58621 24.7997L6.63393 24.8021V24.9456L6.67783 24.95C6.67889 24.9483 6.68148 24.9511 6.68304 24.9519L6.68436 25.0417L6.73165 25.0426L6.73251 25.1874L6.78103 25.1881L6.78099 25.2841L6.82967 25.2851L6.83146 25.3819L6.87961 25.3821V25.4791L6.92862 25.4796L6.92889 25.6244L6.9768 25.6258L6.97743 25.721L7.02671 25.7248V25.8187L7.07194 25.8186C7.08047 25.8386 7.07595 25.8903 7.07595 25.9145L7.12526 25.9156L7.12523 26.0114L7.17126 26.0126C7.17829 26.0328 7.17454 26.0852 7.17454 26.1092L7.22342 26.1097L7.22703 26.2062L7.27233 26.209V26.2556L7.32101 26.2575L7.32277 26.3529H7.37065L7.37284 26.4494L7.42013 26.4499L7.42056 26.546L7.46907 26.547L7.47139 26.5949L7.51795 26.5954V26.6923L7.56663 26.6932L7.57001 26.789L7.61653 26.7918V26.8377L7.66521 26.8395L7.66701 26.9343L7.71512 26.9385V27.0319L7.76201 27.0318L7.76357 27.0795L7.81238 27.0805L7.81483 27.1773L7.86215 27.1775V27.2259L7.91077 27.2264L7.91226 27.3226L7.96018 27.325L7.96386 27.3715H8.00925L8.00915 27.4668L8.05783 27.4685L8.05893 27.5161L8.10747 27.517L8.1098 27.565L8.15715 27.5655V27.6621L8.20659 27.6626L8.20334 27.8089C7.99316 27.8089 8.00925 27.8286 8.00919 27.7596L7.91286 27.7596L7.9115 27.7114L7.81347 27.7103L7.81211 27.663L7.7642 27.6606L7.76048 27.6144L7.66651 27.6114L7.66584 27.5656L7.56862 27.5657L7.56726 27.5175L7.47007 27.5156L7.46827 27.4686H7.42032L7.41946 27.4211L7.32234 27.4174L7.32161 27.3716L7.27392 27.3717L7.27233 27.3238L7.17507 27.3223L7.17374 27.275L7.12583 27.2726L7.12208 27.2261C7.09785 27.2261 7.04665 27.2312 7.02668 27.2218V27.1781L6.97777 27.1753L6.9774 27.1291L6.88024 27.1291L6.87888 27.0807L6.8309 27.0798L6.82761 27.0321L6.73178 27.0321C6.73178 26.9772 6.73812 26.9835 6.6833 26.9835L6.68337 26.9364L6.63479 26.9351L6.6332 26.887L6.5359 26.8865L6.53308 26.8383L6.48613 26.8369V26.7898L6.43835 26.788L6.43758 26.741H6.33976L6.3387 26.6935L6.29015 26.6925L6.28783 26.6446L6.24051 26.644V26.5967L6.14365 26.5944L6.14272 26.5474L6.09384 26.545L6.09225 26.4985L6.0444 26.4985L6.04304 26.4513L5.99559 26.4473L5.99486 26.4015L5.94777 26.4015L5.94641 26.3534L5.89767 26.353L5.89631 26.3046L5.84832 26.3037L5.84507 26.256L5.74947 26.2559L5.74811 26.2076C5.72518 26.2071 5.7148 26.2096 5.69993 26.202V26.1581H5.65248L5.65148 26.1104L5.60241 26.1096L5.60098 26.0613L5.5535 26.0611L5.54971 26.0128L5.50356 26.0114V25.9643L5.45484 25.963L5.45425 25.9162L5.40613 25.9125L5.40338 25.8671H5.35682L5.35453 25.8192L5.30718 25.8186L5.30721 25.7711L5.2587 25.7701L5.2579 25.722L5.20893 25.7216L5.20707 25.6735L5.16015 25.6712V25.6248L5.11173 25.6235L5.1108 25.5766L5.06193 25.5738L5.06156 25.5276H5.01245L5.01152 25.4799L4.96301 25.4791V25.3832L4.91529 25.3822L4.9145 25.3338L4.86552 25.3328L4.86366 25.2855L4.81594 25.2832V25.2369L4.76753 25.2355L4.7666 25.1886L4.71772 25.1858L4.71736 25.1396H4.66831L4.66612 25.0432L4.61957 25.0426V24.9945L4.57109 24.9941L4.57029 24.9458L4.52118 24.9449L4.51932 24.8498L4.4717 24.8463V24.8004L4.42279 24.7986L4.42239 24.7516H4.37405L4.37315 24.7039L4.32464 24.7031L4.32467 24.6071L4.27616 24.6061L4.27536 24.558L4.22648 24.5576L4.22293 24.4608L4.17678 24.4594V24.4116L4.12886 24.4097L4.12707 24.3143H4.07919L4.07783 24.2667L4.02968 24.2658L4.02974 24.1702L3.9812 24.1688L3.97964 24.1211L3.93112 24.1203V24.024L3.88327 24.0229L3.88181 23.9267L3.83333 23.9244V23.878L3.78469 23.877L3.78403 23.7808H3.73594L3.73362 23.6847L3.68544 23.6838L3.68551 23.5882L3.63746 23.5868L3.635 23.49L3.58768 23.4898V23.3929L3.539 23.392L3.53569 23.2962L3.48916 23.2934V23.1992L3.43999 23.1969L3.43985 23.102L3.39101 23.1007L3.38942 22.9563H3.3421L3.34213 22.8605L3.29372 22.8594L3.29202 22.7627L3.24351 22.7623V22.6161L3.1946 22.6157L3.19258 22.4718L3.14496 22.4682L3.14293 22.3258L3.09641 22.3212V22.1796H3.04714L3.04717 21.9867L2.99786 21.9855L2.99789 21.841L2.94885 21.84L2.94858 21.6465L2.89954 21.646L2.89927 21.4522L2.85096 21.4508L2.85076 21.2583L2.80158 21.2564L2.80145 21.0644L2.75231 21.0616L2.75217 20.8208H2.70306L2.70253 20.5791L2.65362 20.5782L2.65369 20.2883L2.60534 20.2872L2.60514 19.8992L2.55606 19.8988L2.55311 19.366L2.50656 19.3632L2.50772 17.6187L2.50758 17.6186ZM1.52856 15.9022C1.52856 15.9354 1.45241 15.921 1.37834 15.921V15.9648L1.27833 15.9723L1.2782 16.0148H1.17805V16.0649C1.13644 16.0649 1.12386 16.0712 1.08418 16.0712V16.115H1.0341V16.1651H0.98403C0.98403 16.2067 0.977759 16.2192 0.977759 16.2589H0.933958V16.309H0.883885V16.4029C0.811978 16.4029 0.833812 16.4026 0.833812 16.5531H0.790011C0.790011 16.5928 0.783739 16.6053 0.783739 16.647V16.7909H0.739938L0.733667 17.2791H0.689865V17.8048C0.689865 17.9344 0.683594 18.0508 0.683594 18.174C0.683594 18.3 0.689865 18.4175 0.689865 18.5495V19.0252H0.733667L0.739938 19.5634H0.783739V19.8013C0.783739 19.8742 0.790011 19.923 0.790011 19.9952H0.833812V20.2393C0.833812 20.281 0.840084 20.2935 0.840084 20.3332H0.883885V20.6274H0.933958V20.8714H0.977759C0.977759 20.9111 0.98403 20.9237 0.98403 20.9653V21.1093H1.02783C1.02783 21.157 1.0341 21.1791 1.0341 21.2282V21.3534H1.0779L1.08418 21.5473H1.12798C1.12798 21.6978 1.10611 21.6976 1.17805 21.6976V21.8728C1.17805 21.8992 1.20921 21.8916 1.22812 21.8916V22.0793H1.2782V22.2295H1.32827V22.3735H1.37207L1.37834 22.5237H1.42214L1.42841 22.6676H1.47222L1.47849 22.8116H1.52229L1.52856 22.9555H1.57236V23.0557H1.61616L1.62243 23.1996H1.66623C1.66623 23.2399 1.67251 23.256 1.67251 23.2998H1.71631L1.72258 23.4375H1.76638C1.76638 23.4812 1.77265 23.4973 1.77265 23.5376H1.81645V23.6377H1.86653L1.8728 23.7754H1.9166V23.8755C1.98827 23.8755 1.96667 23.8844 1.96667 23.9757H2.01674V24.0696H2.06055L2.06811 24.1696L2.11062 24.1697C2.11062 24.2113 2.11689 24.2239 2.11689 24.2636H2.16069C2.16069 24.3548 2.13909 24.3637 2.21076 24.3637V24.4576H2.26084V24.5139H2.30464C2.30464 24.5536 2.31091 24.5661 2.31091 24.6078H2.35471C2.35471 24.6494 2.36098 24.662 2.36098 24.7017H2.40478L2.41235 24.8017L2.45486 24.8018C2.45486 24.8931 2.43325 24.9019 2.50493 24.9019V24.9958H2.555V25.0897H2.60507V25.1397H2.64888C2.64888 25.1814 2.65515 25.1939 2.65515 25.2336C2.71229 25.2336 2.70522 25.2339 2.70522 25.29H2.74902C2.74902 25.3296 2.75529 25.3422 2.75529 25.3838H2.79909V25.4339H2.84917V25.5277H2.89924V25.5778H2.94304C2.94304 25.6175 2.94931 25.63 2.94931 25.6717H2.99939V25.7218H3.04319C3.04319 25.7634 3.04946 25.7759 3.04946 25.8156C3.1 25.8156 3.09953 25.8151 3.09953 25.8657H3.14333V25.9158H3.19341V26.0097H3.24348V26.0597H3.29355V26.1098H3.33735C3.33735 26.1603 3.33689 26.1599 3.38742 26.1599C3.38742 26.2015 3.3937 26.2141 3.3937 26.2537C3.44423 26.2537 3.44377 26.2533 3.44377 26.3038H3.48757C3.48757 26.3544 3.48707 26.3539 3.53764 26.3539C3.53764 26.4044 3.53718 26.404 3.58772 26.404V26.454H3.63779V26.5041H3.68159L3.68909 26.5916C3.739 26.5918 3.7379 26.5921 3.7379 26.6418C3.78844 26.6418 3.78797 26.6413 3.78797 26.6919H3.83178C3.83178 26.7424 3.83131 26.7419 3.88185 26.7419V26.7857C3.93239 26.7857 3.93192 26.7853 3.93192 26.8358C3.98246 26.8358 3.98199 26.8353 3.98199 26.8859H4.03207V26.936H4.08214V26.986H4.12594V27.0298H4.17601V27.0799H4.22609V27.13H4.27616V27.18H4.32623V27.2238C4.37677 27.2238 4.3763 27.2233 4.3763 27.2739C4.42687 27.2739 4.42638 27.2735 4.42638 27.324H4.47018V27.3678H4.52025V27.4179H4.57032V27.4679C4.61197 27.4679 4.62451 27.4742 4.6642 27.4742V27.518H4.71427C4.71427 27.5686 4.71377 27.5681 4.76434 27.5681V27.6119H4.81442V27.662H4.86449V27.712H4.91456V27.7558C4.95425 27.7558 4.96679 27.7621 5.00844 27.7621C5.00844 27.8126 5.00794 27.8122 5.05851 27.8122V27.856H5.10858C5.10858 27.9131 5.10888 27.906 5.16489 27.906V27.9499C5.20458 27.9499 5.21716 27.9561 5.25877 27.9561V27.9999C5.3093 27.9999 5.30884 27.9994 5.30884 28.05C5.35938 28.05 5.35891 28.0495 5.35891 28.1H5.45279V28.1501H5.50286V28.1939H5.55293V28.244C5.59454 28.244 5.60712 28.2503 5.64681 28.2503V28.2941H5.70312V28.3441H5.79699V28.3942H5.84706V28.438H5.89714V28.4881H5.99728V28.5381H6.09116V28.5882H6.14123V28.632L6.24124 28.6396L6.24137 28.6821H6.29145V28.7259C6.33113 28.7259 6.34371 28.7322 6.38532 28.7322V28.776L6.48533 28.7835L6.48547 28.826H6.53554V28.8761H6.63568V28.9262H6.72956V28.97L6.82957 28.9776L6.82967 29.0201L6.92972 29.0276L6.92985 29.0701H7.02372V29.1202H7.12384V29.1703H7.17391V29.2141C7.26516 29.2141 7.27406 29.1925 7.27406 29.2642H7.3742V29.3142H7.46807V29.358L7.56809 29.3656L7.56822 29.4081C7.65947 29.4081 7.66837 29.3865 7.66837 29.4582H7.81231V29.5082H7.91246V29.552L8.01247 29.5596L8.0126 29.6021L8.15655 29.6084V29.6522H8.2567V29.7023H8.40064V29.7461L8.50066 29.7536L8.50079 29.7961L8.64474 29.8024V29.8462L8.79495 29.8525V29.8963H8.9389C8.9389 29.9679 8.9465 29.9464 9.04529 29.9464V29.9902L9.18923 29.9964V30.0402C9.28048 30.0402 9.28938 30.0186 9.28938 30.0903H9.43332V30.1404H9.53347V30.1842C9.57508 30.1842 9.58766 30.1904 9.62734 30.1904V30.2343H9.68369V30.2781C9.72337 30.2781 9.73592 30.2843 9.77756 30.2843V30.3281L9.87757 30.3357L9.87767 30.3782C9.92824 30.3782 9.92775 30.3777 9.92775 30.4283H10.0216V30.4783H10.0717V30.5221L10.1717 30.5297L10.1718 30.5785H10.2219V30.6223H10.272V30.6724H10.322V30.7162C10.3726 30.7162 10.3721 30.7157 10.3721 30.7662C10.4226 30.7662 10.4222 30.7657 10.4222 30.8163C10.4679 30.8163 10.4722 30.8129 10.4722 30.8601H10.516V30.9102H10.5661V30.9603C10.6167 30.9603 10.6162 30.9598 10.6162 31.0103H10.6663V31.0604H10.7101C10.7101 31.111 10.7096 31.1105 10.7601 31.1105V31.1543H10.8102V31.2043H10.8603V31.2544H10.9041C10.9041 31.2941 10.9104 31.3067 10.9104 31.3483H10.9604V31.3984H11.0105V31.4484H11.0606V31.4922H11.1044V31.5423H11.1544V31.5924H11.2045V31.6425H11.2546V31.6925H11.3485V31.7363L11.5425 31.7426C11.5878 31.7426 11.6052 31.7363 11.6489 31.7363V31.6925H11.7427V31.6425H11.7928V31.5924H11.8429V31.5423H11.893V31.4922H11.9368C11.9368 31.4417 11.9363 31.4422 11.9868 31.4422L11.9944 31.3547L12.0369 31.3545V31.3045H12.087V31.2544H12.1371V31.2043H12.1871V31.1542H12.2372V31.1042H12.281V31.0604H12.3311V31.0103H12.3811V30.9602H12.4312C12.4312 30.9186 12.4375 30.906 12.4375 30.8664H12.4813V30.8225H12.5314V30.7725C12.573 30.7725 12.5855 30.7662 12.6252 30.7662C12.6252 30.7157 12.6248 30.7161 12.6753 30.7161V30.6723H12.7254V30.6223H12.7755C12.7755 30.5717 12.775 30.5722 12.8255 30.5722V30.5284C12.8671 30.5284 12.8797 30.5221 12.9194 30.5221V30.4783H12.9757V30.4282H13.0696C13.0696 30.3777 13.0691 30.3782 13.1197 30.3782V30.3344C13.1613 30.3344 13.1739 30.3281 13.2136 30.3281V30.2843H13.2699V30.2405C13.3102 30.2405 13.3263 30.2343 13.3701 30.2343V30.1904C13.4097 30.1904 13.4223 30.1842 13.4639 30.1842V30.1404H13.5641V30.0903H13.6642V30.0465L13.8082 30.0402V29.9964L13.9521 29.9902V29.9464L14.1023 29.9401V29.8963H14.2024V29.8525L14.3464 29.8462V29.8024L14.4966 29.7961V29.7523L14.5966 29.7448L14.5967 29.7023L14.7407 29.696V29.6522H14.8408V29.6084L14.9408 29.6009L14.941 29.5583L15.0849 29.5521V29.5083H15.1851V29.4582H15.2852V29.4144C15.3255 29.4144 15.3415 29.4082 15.3853 29.4082V29.3644L15.523 29.3581V29.3143C15.5668 29.3143 15.5829 29.3081 15.6232 29.3081V29.2643H15.7233C15.7233 29.1926 15.7322 29.2142 15.8235 29.2142V29.1704C15.8651 29.1704 15.8776 29.1641 15.9173 29.1641V29.1203C15.9611 29.1203 15.9772 29.114 16.0175 29.114V29.0702H16.0676V29.0264L16.1676 29.0189L16.1677 28.9764L16.2677 28.9688L16.2678 28.9263H16.3617V28.8762H16.4619V28.8261H16.5119V28.7823C16.5535 28.7823 16.5661 28.7761 16.6058 28.7761V28.7323C16.6496 28.7323 16.6656 28.726 16.706 28.726V28.6822H16.756V28.6384C16.7976 28.6384 16.8102 28.6322 16.8499 28.6322V28.5884C16.9059 28.5884 16.9062 28.5954 16.9062 28.5383H17.0001V28.4882H17.0502V28.4444L17.1502 28.4368L17.1503 28.3943C17.2009 28.3943 17.2004 28.3948 17.2004 28.3443C17.2421 28.3443 17.2546 28.338 17.2943 28.338V28.2942H17.3444V28.2504L17.4444 28.2428L17.4445 28.194H17.4946V28.1502H17.5447V28.1002H17.6385V28.0501H17.6886C17.6886 27.9996 17.6881 28 17.7387 28V27.9562C17.7803 27.9562 17.7929 27.95 17.8325 27.95V27.9062H17.8826C17.8826 27.849 17.8829 27.8561 17.939 27.8561V27.8123C17.9895 27.8123 17.989 27.8128 17.989 27.7622C18.0287 27.7622 18.0413 27.756 18.0829 27.756V27.7122H18.133V27.6621H18.1831V27.612H18.2331V27.5682C18.2837 27.5682 18.2832 27.5687 18.2832 27.5181C18.3248 27.5181 18.3374 27.5119 18.3771 27.5119V27.4681H18.4271V27.418H18.4772V27.368H18.521V27.3242H18.5711V27.2741H18.6212C18.6212 27.2235 18.6207 27.224 18.6712 27.224V27.1802H18.7213V27.1301H18.7714V27.0801H18.8215V27.03H18.8715V26.9862H18.9153V26.9361H18.9654V26.886H19.0155C19.0155 26.8355 19.015 26.836 19.0655 26.836V26.7859H19.1156V26.7421C19.1662 26.7421 19.1657 26.7426 19.1657 26.692H19.2095C19.2095 26.6415 19.209 26.642 19.2596 26.642C19.2596 26.5914 19.2591 26.5919 19.3096 26.5919C19.3096 26.5522 19.3159 26.5396 19.3159 26.498H19.3597V26.4542H19.4098V26.4041C19.4603 26.4041 19.4599 26.4046 19.4599 26.3541H19.5099V26.304H19.5537C19.5537 26.2643 19.56 26.2517 19.56 26.2101C19.6105 26.2101 19.6101 26.2106 19.6101 26.16H19.6539V26.11H19.704V26.0599H19.754V25.966H19.8041V25.9159H19.8542V25.8659H19.898C19.898 25.8262 19.9042 25.8136 19.9042 25.772C19.9548 25.772 19.9543 25.7725 19.9543 25.7219H19.9981V25.6719H20.0482V25.578H20.0983V25.5279H20.1483V25.434C20.1989 25.434 20.1984 25.4345 20.1984 25.384H20.2422C20.2422 25.3424 20.2485 25.3298 20.2485 25.2901H20.2923C20.2923 25.2341 20.2852 25.2338 20.3424 25.2338V25.1399H20.3924V25.0898H20.4425V24.996H20.4926V24.9021C20.5497 24.9021 20.5426 24.9018 20.5426 24.8458H20.5864C20.5864 24.8061 20.5927 24.7935 20.5927 24.7519H20.6365C20.6365 24.7103 20.6428 24.6977 20.6428 24.658H20.6866L20.6942 24.558L20.7367 24.5578V24.5078H20.7867V24.4077H20.8305C20.8305 24.368 20.8368 24.3554 20.8368 24.3138H20.8806C20.8806 24.2741 20.8869 24.2615 20.8869 24.2199H20.9307L20.9383 24.1199L20.9808 24.1198C20.9808 24.0782 20.987 24.0656 20.987 24.0259H21.0308V23.9257H21.0809V23.8256H21.1247L21.131 23.6879C21.2027 23.6879 21.181 23.679 21.181 23.5878H21.2248L21.2324 23.4878L21.2749 23.4877C21.2749 23.448 21.2812 23.4354 21.2812 23.3938H21.325L21.3313 23.2498H21.3751V23.1497H21.4251V23.0057H21.4752V22.8618C21.547 22.8618 21.5253 22.8611 21.5253 22.7178H21.5691L21.5754 22.5676H21.6192L21.6254 22.4237H21.6692L21.6755 22.2797H21.7193V22.1295H21.7694V21.9418C21.8413 21.9418 21.8195 21.942 21.8195 21.7916H21.8633L21.8695 21.5975H21.9133C21.9133 21.5253 21.9196 21.4765 21.9196 21.4036H21.9634L21.9697 21.1657H22.0135L22.0197 20.9654H22.0635V20.6776H22.1136V20.4272H22.1574C22.1574 20.3875 22.1637 20.375 22.1637 20.3333V20.1393H22.2075C22.2075 20.0671 22.2138 20.0182 22.2138 19.9453V19.7513H22.2576L22.2638 19.2194H22.3076C22.3076 19.0185 22.3139 18.8383 22.3139 18.6373V17.6234C22.3139 17.4515 22.3076 17.3007 22.3076 17.129H22.2638V16.8975C22.2638 16.8205 22.2576 16.7673 22.2576 16.6909H22.2138V16.5595C22.2138 16.5142 22.2075 16.4969 22.2075 16.4531H22.1637C22.1637 16.3619 22.1853 16.353 22.1136 16.353V16.3092H22.0635V16.2591H22.0135V16.1653H21.9634V16.1152C21.9218 16.1152 21.9092 16.1089 21.8695 16.1089V16.0651H21.8195C21.8195 15.9934 21.8106 16.015 21.7193 16.015V15.9712L21.6193 15.9637L21.6192 15.9212C21.4745 15.9212 21.4689 15.9417 21.4689 15.8774C21.4293 15.8774 21.4167 15.8711 21.3751 15.8711H1.52939V15.9024L1.52856 15.9022Z" fill="white"/>
<path fill-rule="evenodd" clip-rule="evenodd" d="M11.1529 0.0058402V0.0496415L10.9526 0.0559131V0.0997142H10.8087V0.149787H10.6647V0.193588L10.5647 0.201121L10.5646 0.243661L10.4646 0.251227L10.4644 0.293734C10.4228 0.293734 10.4103 0.299972 10.3706 0.299972V0.343774H10.3143V0.387575C10.2746 0.387575 10.262 0.393813 10.2204 0.393813C10.2204 0.444384 10.2209 0.443886 10.1703 0.443886V0.487687H10.1202V0.53776H10.0702V0.587833H10.0264C10.0264 0.63837 10.0268 0.637906 9.9763 0.637906C9.9763 0.688443 9.97676 0.687978 9.92622 0.687978C9.92622 0.771931 9.94773 0.781852 9.87615 0.781852C9.87615 0.920291 9.86988 1.03739 9.86988 1.17613L9.87615 2.77205H9.91995C9.91995 2.87728 9.92622 2.96053 9.92622 3.06619H9.97003V3.19762C9.97003 3.24292 9.9763 3.26031 9.9763 3.30401H10.0201V3.40415C10.0201 3.44576 10.0264 3.45834 10.0264 3.49806H10.0702V3.59821C10.0702 3.63982 10.0764 3.65239 10.0764 3.69208H10.1202V3.79219C10.1202 3.83384 10.1265 3.84638 10.1265 3.88607H10.1703V4.08005H10.2141C10.2141 4.12379 10.2204 4.14114 10.2204 4.18647V4.32415H10.2642V4.56197H10.2204V4.74344C10.2204 4.76989 10.1892 4.76222 10.1703 4.76222V4.9062H10.1202V5.05015H10.0702V5.14403C10.013 5.14403 10.0201 5.14432 10.0201 5.20034H9.9763C9.9763 5.24006 9.97003 5.25257 9.97003 5.29421H9.92622C9.92622 5.33585 9.91995 5.3484 9.91995 5.38808H9.87615V5.43816H9.82608V5.53203C9.76894 5.53203 9.77601 5.53233 9.77601 5.58834H9.7322V5.63214H9.68213V5.68222H9.63206C9.63206 5.72386 9.62579 5.7364 9.62579 5.77609C9.58418 5.77609 9.5716 5.78236 9.53191 5.78236V5.82616C9.48138 5.82616 9.48184 5.8257 9.48184 5.87624H9.43177V5.92631H9.3817V5.97011H9.28782V6.02018H9.18768V6.07026H9.08753V6.11406L8.94358 6.12033V6.16413H8.84344V6.2142H8.69325V6.258L8.54307 6.26424V6.30804L8.35539 6.31571L8.35532 6.35808H8.20513V6.40816H8.00488V6.45823H7.81713V6.50203L7.66067 6.5083V6.5521L7.46665 6.55837V6.60218C7.31623 6.60218 7.31643 6.58031 7.31643 6.65225H7.12241V6.69605L6.97223 6.70232V6.74612L6.77821 6.75236V6.79616C6.62779 6.79616 6.62802 6.77429 6.62802 6.84623H6.44028V6.89004L6.29006 6.89627V6.94007L6.13987 6.94635V6.99015C5.98945 6.99015 5.98965 6.96831 5.98965 7.04022H5.84571V7.08402L5.69549 7.09029V7.1341L5.55154 7.14037V7.18417C5.40112 7.18417 5.40136 7.16233 5.40136 7.23424H5.25741V7.27804L5.11346 7.28431V7.32811C5.06814 7.32811 5.05078 7.33439 5.00708 7.33439V7.37819H4.86313V7.42826H4.76299V7.47206L4.61904 7.47833V7.52213L4.47509 7.52841V7.57221H4.37495V7.62228H4.27484V7.66608L4.17479 7.67365L4.17466 7.71615C4.0834 7.71615 4.07451 7.69455 4.07451 7.76623H3.93056V7.8163H3.83042V7.8601C3.79073 7.8601 3.77819 7.86637 3.73654 7.86637V7.91017C3.69278 7.91017 3.67672 7.91644 3.6364 7.91644V7.96025C3.54515 7.96025 3.53625 7.93868 3.53625 8.01032H3.44238C3.44238 8.08196 3.43349 8.06039 3.34223 8.06039V8.10419H3.29216V8.15427H3.19202V8.20434H3.09814C3.09814 8.27598 3.08925 8.25441 2.998 8.25441C2.998 8.30498 2.99846 8.30448 2.94792 8.30448V8.34828L2.84791 8.35585L2.84778 8.39836H2.79771V8.44216C2.75802 8.44216 2.74544 8.4484 2.70383 8.4484C2.70383 8.50554 2.70353 8.49847 2.64749 8.49847V8.54227C2.6078 8.54227 2.59526 8.54854 2.55361 8.54854V8.59234H2.50354V8.64242H2.40967C2.40967 8.69295 2.41016 8.69249 2.35959 8.69249V8.73629H2.30952V8.78636C2.21827 8.78636 2.20937 8.76476 2.20937 8.83644H2.1593V8.88651H2.10923V8.93031C2.05869 8.93031 2.05916 8.92981 2.05916 8.98038H1.96528V9.03046H1.91521V9.08053H1.86514V9.12433C1.8146 9.12433 1.81506 9.12383 1.81506 9.1744H1.77126C1.77126 9.22494 1.77173 9.22448 1.72119 9.22448C1.72119 9.27505 1.72169 9.27455 1.67112 9.27455V9.31835H1.62104V9.36842H1.57097V9.4185H1.5209V9.46857H1.47083V9.51237H1.42702V9.56244H1.37695V9.61252H1.32688V9.66259H1.27681V9.75646H1.22673V9.80653H1.17666V9.85661H1.13286C1.13286 9.89629 1.12659 9.90887 1.12659 9.95048H1.07652V10.0506H1.03271C1.03271 10.0903 1.02644 10.1029 1.02644 10.1445H0.982641V10.1946H0.932568V10.2885H0.882496V10.3386C0.810854 10.3386 0.832423 10.3474 0.832423 10.4387H0.78235V10.5326C0.731813 10.5326 0.732277 10.5321 0.732277 10.5826H0.688476C0.688476 10.6739 0.710078 10.6828 0.638403 10.6828V10.7766H0.58833V10.8768H0.544529L0.538258 11.0145C0.466583 11.0145 0.488185 11.0234 0.488185 11.1146H0.444383L0.438112 11.2586H0.394311L0.386745 11.3586L0.344238 11.3587L0.337966 11.5027H0.294165V11.6529H0.250364C0.250364 11.6926 0.244092 11.7051 0.244092 11.7468V11.8469H0.200291C0.200291 11.8866 0.19402 11.8991 0.19402 11.9408V12.0409H0.150218C0.150218 12.0806 0.143947 12.0931 0.143947 12.1348V12.2787H0.100146C0.100146 12.3225 0.0938741 12.3398 0.0938741 12.3851V12.5729H0.0500728L0.0438013 12.9609H0V13.8371H0.0438013L0.0514665 14.0248L0.0938741 14.0249L0.101407 14.1249L0.143914 14.125V14.1751H0.193986V14.269H0.244059V14.319H0.294132V14.3691H0.388006C0.388006 14.4197 0.387542 14.4192 0.438079 14.4192V14.463C0.481847 14.463 0.497907 14.4692 0.538224 14.4692V14.513H0.682171C0.682171 14.5849 0.672216 14.5631 0.882429 14.5631V14.6069C0.958749 14.6069 1.01197 14.6132 1.08896 14.6132H21.9047C21.9817 14.6132 22.0349 14.6069 22.1113 14.6069V14.5631H22.2927C22.3192 14.5631 22.3115 14.532 22.3115 14.513H22.5055V14.4692C22.5452 14.4692 22.5578 14.463 22.5994 14.463V14.4192C22.6555 14.4192 22.6558 14.4262 22.6558 14.3691C22.6954 14.3691 22.708 14.3629 22.7496 14.3629V14.3191H22.7934C22.7934 14.2794 22.7997 14.2668 22.7997 14.2252H22.8498V14.1751H22.8936L22.9011 14.0751L22.9437 14.075L22.9499 13.9311H22.9937C22.9937 13.7693 23 13.6288 23 13.4679C23 13.3846 22.9937 13.3247 22.9937 13.2426V12.8608H22.9499L22.9422 12.4728H22.8999L22.8936 12.2287H22.8498V11.9909H22.7997V11.8094C22.7997 11.783 22.7685 11.7907 22.7496 11.7907V11.6029H22.6996V11.4527H22.6558L22.6495 11.3088H22.6057L22.5994 11.1648H22.5556L22.548 11.0648L22.5055 11.0647V10.9708H22.4555V10.8268H22.4054V10.7267H22.3553V10.6328C22.2837 10.6328 22.3053 10.6229 22.3053 10.5389C22.2481 10.5389 22.2552 10.5386 22.2552 10.4826H22.2114C22.2114 10.441 22.2051 10.4284 22.2051 10.3888H22.1613C22.1613 10.3471 22.155 10.3346 22.155 10.2949H22.1112V10.2386H22.0612V10.1447H22.0111V10.0946H21.9673C21.9673 10.0549 21.961 10.0424 21.961 10.0008H21.9109V9.95071H21.8671C21.8671 9.9091 21.8609 9.89653 21.8609 9.85684H21.8171V9.80677H21.767V9.75669H21.7169V9.70662H21.6731C21.6731 9.66693 21.6668 9.65436 21.6668 9.61275H21.6168V9.56267H21.5667V9.51887C21.5162 9.51887 21.5166 9.51934 21.5166 9.4688H21.4728V9.41873H21.4228V9.36866H21.3727V9.31858H21.3226V9.27478C21.2721 9.27478 21.2725 9.27528 21.2725 9.22471C21.222 9.22471 21.2225 9.22521 21.2225 9.17464H21.1724V9.13083H21.1286V9.08076H21.0785V9.03069C21.0369 9.03069 21.0244 9.02442 20.9846 9.02442V8.98062H20.9346C20.9346 8.92348 20.9343 8.93054 20.8783 8.93054V8.88674C20.8277 8.88674 20.8282 8.88721 20.8282 8.83667C20.7825 8.83667 20.7781 8.84009 20.7781 8.79287C20.7384 8.79287 20.7259 8.7866 20.6842 8.7866V8.73652H20.6342V8.69272C20.5836 8.69272 20.5841 8.69319 20.5841 8.64265H20.4902V8.59258H20.4401V8.54877L20.3401 8.54124L20.34 8.49874C20.2895 8.49874 20.2899 8.49923 20.2899 8.44866H20.1961V8.39859H20.1397V8.35479C20.1 8.35479 20.0875 8.34855 20.0458 8.34855V8.30475C20.0042 8.30475 19.9917 8.29851 19.952 8.29851V8.25471C19.8959 8.25471 19.8957 8.26178 19.8957 8.20464H19.8018V8.15456H19.7016V8.11076C19.6619 8.11076 19.6494 8.10449 19.6078 8.10449V8.06069C19.5517 8.06069 19.5514 8.06776 19.5514 8.01062H19.4575C19.4575 7.93894 19.4486 7.96054 19.3574 7.96054V7.91674L19.2574 7.90918L19.2572 7.86667H19.1634V7.8166H19.0632V7.7728L18.9193 7.76652C18.9193 7.69488 18.9104 7.71645 18.8191 7.71645V7.67265L18.7191 7.66512L18.719 7.62261H18.6189V7.57881L18.4749 7.57257V7.52877L18.3749 7.5212L18.3748 7.4787L18.2308 7.47243V7.42863H18.1307V7.38482L17.9867 7.37855V7.33475L17.8366 7.32848V7.28468L17.7365 7.27711L17.7364 7.2346H17.5925C17.5925 7.1627 17.5927 7.18453 17.4423 7.18453V7.14073L17.2983 7.13446V7.09066L17.1482 7.08439V7.04059H17.0042C17.0042 6.96868 17.0044 6.99051 16.854 6.99051V6.94671L16.7038 6.94044V6.89664L16.5536 6.8904V6.8466H16.3658C16.3658 6.77496 16.368 6.79653 16.2094 6.79653V6.75273L16.0216 6.74649V6.70269L15.8714 6.69641V6.65261H15.6774V6.60254H15.5272V6.55874L15.3332 6.55247V6.50867L15.133 6.501L15.133 6.45863C14.9825 6.45863 14.9828 6.48046 14.9828 6.40855H14.7888V6.35848H14.6385V6.31468C14.5663 6.31468 14.5175 6.30844 14.4445 6.30844V6.26464L14.3006 6.2584V6.2146H14.1504V6.16453H14.0502V6.12073L13.9063 6.11446V6.07065H13.8062V6.02058H13.706V5.97678C13.6663 5.97678 13.6537 5.97051 13.6121 5.97051V5.92671H13.5621V5.87663C13.5139 5.87663 13.5057 5.88367 13.5057 5.83283L13.4182 5.8253C13.418 5.77539 13.4177 5.77649 13.368 5.77649C13.368 5.72595 13.3685 5.72642 13.3179 5.72642L13.3104 5.63895C13.2605 5.63875 13.2616 5.63841 13.2616 5.58874H13.2178C13.2178 5.53269 13.2249 5.53243 13.1677 5.53243C13.1677 5.49231 13.1615 5.48073 13.1615 5.44479C13.1106 5.44479 13.1177 5.43663 13.1177 5.38848H13.0739C13.0739 5.3488 13.0676 5.33625 13.0676 5.29461H13.0238C13.0238 5.25296 13.0175 5.24045 13.0175 5.20073H12.9737C12.9737 5.14469 12.9808 5.14442 12.9237 5.14442L12.9174 5.00675H12.8736V4.9066H12.8235V4.80646H12.7797C12.7797 4.76677 12.7734 4.75423 12.7734 4.71258V4.56864H12.7296V4.32454H12.7734V4.13052C12.7734 4.08891 12.7797 4.07634 12.7797 4.03665H12.8235V3.84266C12.8954 3.84266 12.8736 3.8429 12.8736 3.69248H12.9174L12.9237 3.49846H12.9675L12.9737 3.30444H13.0175L13.0238 3.06038H13.0676C13.0676 2.95512 13.0739 2.87187 13.0739 2.76621H13.1177L13.1239 1.23287C13.1239 1.08999 13.1177 0.968638 13.1177 0.826085H13.0739C13.0739 0.786398 13.0676 0.773822 13.0676 0.732211H13.0238C13.0238 0.690566 13.0175 0.678024 13.0175 0.638337C12.967 0.638337 12.9675 0.638801 12.9675 0.588264H12.9237V0.538191H12.8736V0.488119H12.8235V0.444317H12.7734V0.394244C12.7318 0.394244 12.7193 0.388006 12.6796 0.388006V0.344205H12.6232V0.300403C12.5835 0.300403 12.571 0.294165 12.5293 0.294165V0.250364L12.4293 0.242798L12.4292 0.200291L12.3292 0.192726L12.3291 0.150219H12.1851V0.100146H12.0412V0.0563445L11.8409 0.0500729V0.00627159C11.7182 0.00627159 11.6169 0 11.4967 0C11.3764 0 11.2751 0.00627159 11.1525 0.00627159L11.1529 0.0058402Z" fill="white"/>
<path fill-rule="evenodd" clip-rule="evenodd" d="M2.50404 19.3629L2.55059 19.3657L2.55355 19.8984L2.60262 19.8988L2.60282 20.2868L2.65117 20.288L2.6511 20.5778L2.70002 20.5788L2.70055 20.8205H2.74966L2.74979 21.0613L2.79893 21.0641L2.79907 21.2561L2.84824 21.2579L2.84844 21.4505L2.89676 21.4519L2.89702 21.6457L2.94607 21.6461L2.94633 21.8397L2.99538 21.8407L2.99534 21.9852L3.04465 21.9863L3.04462 22.1792H3.0939V22.3208L3.14042 22.3254L3.14244 22.4679L3.19006 22.4714L3.19208 22.6153L3.24099 22.6158V22.762L3.28951 22.7624L3.2912 22.859L3.33961 22.8602L3.33958 22.956H3.3869L3.38849 23.1003L3.43734 23.1017L3.43747 23.1965L3.48665 23.1988V23.2931L3.53317 23.2958L3.53649 23.3916L3.58517 23.3926V23.4894L3.63249 23.4896L3.63494 23.5864L3.68299 23.5878L3.68292 23.6834L3.7311 23.6843L3.73343 23.7804H3.78151L3.78217 23.8767L3.83082 23.8776V23.924L3.8793 23.9263L3.88076 24.0226L3.92861 24.0236V24.1199L3.97712 24.1207L3.97868 24.1684L4.02723 24.1698L4.02716 24.2654L4.07531 24.2663L4.07667 24.3139H4.12455L4.12634 24.4094L4.17426 24.4112V24.4591L4.22042 24.4604L4.22397 24.5572L4.27285 24.5576L4.27364 24.6058L4.32216 24.6068L4.32212 24.7028L4.37064 24.7035L4.37153 24.7513H4.41988L4.42028 24.7982L4.46919 24.8001V24.8459L4.51681 24.8495L4.51866 24.9445L4.56777 24.9454L4.56857 24.9938L4.61705 24.9942V25.0423L4.66361 25.0428L4.6658 25.1393H4.71484L4.71521 25.1854L4.76408 25.1882L4.76501 25.2351L4.81343 25.2365V25.2828L4.86114 25.2851L4.863 25.3325L4.91198 25.3334L4.91278 25.3818L4.96049 25.3828V25.4788L5.00901 25.4795L5.00993 25.5272H5.05905L5.05941 25.5734L5.10829 25.5762L5.10922 25.6231L5.15763 25.6245V25.6708L5.20455 25.6731L5.20641 25.7212L5.25539 25.7217L5.25618 25.7698L5.3047 25.7708L5.30466 25.8183L5.35202 25.8188L5.35431 25.8667H5.40086L5.40361 25.9121L5.45173 25.9159L5.45233 25.9626L5.50104 25.964V26.0111L5.5472 26.0125L5.55098 26.0607L5.59846 26.061L5.59989 26.1093L5.64897 26.1101L5.64996 26.1578H5.69741V26.2016C5.71228 26.2093 5.72267 26.2068 5.7456 26.2073L5.74696 26.2556L5.84256 26.2556L5.84581 26.3033L5.89379 26.3042L5.89515 26.3526L5.9439 26.353L5.94526 26.4012L5.99234 26.4011L5.99307 26.4469L6.04052 26.4509L6.04188 26.4981L6.08974 26.4981L6.09133 26.5447L6.14021 26.547L6.14114 26.594L6.238 26.5963V26.6436L6.28531 26.6442L6.28764 26.6922L6.33618 26.6931L6.33724 26.7407H6.43507L6.43583 26.7876L6.48361 26.7895V26.8365L6.53057 26.8379L6.53339 26.8862L6.63068 26.8867L6.63227 26.9347L6.68085 26.936L6.68079 26.9832C6.7356 26.9832 6.72927 26.9769 6.72927 27.0317L6.8251 27.0317L6.82838 27.0794L6.87636 27.0804L6.87773 27.1287L6.97488 27.1287L6.97525 27.1749L7.02416 27.1777V27.2214C7.04414 27.2309 7.09534 27.2258 7.11956 27.2257L7.12331 27.2722L7.17123 27.2746L7.17255 27.3219L7.26981 27.3235L7.27141 27.3713L7.31909 27.3712L7.31982 27.4171L7.41695 27.4207L7.41781 27.4683H7.46576L7.46755 27.5152L7.56474 27.5172L7.5661 27.5653L7.66333 27.5652L7.66399 27.611L7.75797 27.614L7.76168 27.6603L7.8096 27.6627L7.81096 27.71L7.90898 27.7111L7.91034 27.7593L8.00667 27.7592C8.00674 27.8282 7.99064 27.8086 8.20082 27.8086L8.20407 27.6622L8.15463 27.6618V27.5652L8.10728 27.5646L8.10496 27.5167L8.05641 27.5157L8.05532 27.4682L8.00664 27.4664L8.00674 27.3711H7.96134L7.95766 27.3246L7.90974 27.3222L7.90825 27.226L7.85964 27.2256V27.1771L7.81232 27.1769L7.80986 27.0801L7.76105 27.0791L7.75949 27.0315L7.7126 27.0316V26.9381L7.66449 26.9339L7.6627 26.8392L7.61402 26.8373V26.7914L7.5675 26.7886L7.56411 26.6929L7.51543 26.6919V26.5951L7.46888 26.5945L7.46655 26.5466L7.41804 26.5456L7.41761 26.4496L7.37032 26.4491L7.36813 26.3526H7.32025L7.31849 26.2571L7.26981 26.2553V26.2086L7.22452 26.2058L7.2209 26.1093L7.17202 26.1089C7.17202 26.0848 7.17577 26.0325 7.16874 26.0122L7.12271 26.011L7.12275 25.9153L7.07344 25.9141C7.07344 25.89 7.07795 25.8382 7.06942 25.8182L7.02419 25.8183V25.7244L6.97492 25.7207L6.97429 25.6254L6.92637 25.624L6.92611 25.4792L6.87709 25.4787V25.3818L6.82895 25.3816L6.82716 25.2848L6.77848 25.2837L6.77851 25.1877L6.73 25.187L6.72913 25.0422L6.68185 25.0413L6.68052 24.9515C6.67899 24.9507 6.67641 24.948 6.67531 24.9496L6.63141 24.9452V24.8017L6.58369 24.7993L6.58157 24.7031L6.53282 24.7026V24.5572L6.48355 24.5568V24.4109L6.43659 24.4102L6.4349 24.2654L6.38772 24.2649L6.3846 24.1199H6.33648V23.9771L6.2884 23.9739L6.28707 23.8312L6.24068 23.8285L6.23727 23.6838L6.18942 23.6827L6.18895 23.4894L6.14011 23.4882L6.13987 23.3439L6.09083 23.3425V23.1014L6.04348 23.1009L6.04139 22.9074L5.99493 22.9067L5.99181 22.6656L5.94376 22.6647V22.4223L5.89605 22.4214L5.89439 22.179L5.84521 22.1786V21.8395L5.7971 21.8389L5.79587 21.5L5.74855 21.4995L5.7447 20.9664H5.69738L5.69732 20.143L5.64884 20.1408L5.64887 19.2196L5.69745 19.2179L5.69738 18.2972H5.7443C5.75091 18.267 5.74656 17.6991 5.74653 17.6182L2.50507 17.6182L2.50391 19.3627L2.50404 19.3629Z" fill="#FF4E00"/>
</svg>
