<svg width="23" height="32" viewBox="0 0 23 32" fill="none" xmlns="http://www.w3.org/2000/svg">
<path fill-rule="evenodd" clip-rule="evenodd" d="M2.50612 17.6186L5.74758 17.6185C5.74761 17.6995 5.75196 18.2673 5.74535 18.2976H5.69843L5.6985 19.2182L5.64992 19.2199L5.64989 20.1411L5.69837 20.1434L5.69843 20.9668H5.74575L5.7496 21.4998L5.79692 21.5003L5.79815 21.8393L5.84626 21.8399V22.179L5.89544 22.1794L5.8971 22.4217L5.94482 22.4227V22.665L5.99286 22.666L5.99598 22.907L6.04244 22.9077L6.04453 23.1012L6.09188 23.1017V23.3429L6.14093 23.3442L6.14116 23.4886L6.19 23.4898L6.19047 23.6831L6.23832 23.6841L6.24173 23.8289L6.28812 23.8316L6.28945 23.9742L6.33753 23.9775V24.1203H6.38565L6.38877 24.2653L6.43595 24.2658L6.43765 24.4106L6.4846 24.4113V24.5572L6.53388 24.5576V24.703L6.58262 24.7035L6.58474 24.7997L6.63246 24.8021V24.9456L6.67636 24.95C6.67742 24.9483 6.68001 24.9511 6.68157 24.9519L6.6829 25.0417L6.73019 25.0426L6.73105 25.1874L6.77956 25.1881L6.77953 25.2841L6.82821 25.2851L6.83 25.3819L6.87815 25.3821V25.4791L6.92716 25.4796L6.92742 25.6244L6.97534 25.6258L6.97597 25.721L7.02525 25.7248V25.8187L7.07047 25.8186C7.079 25.8386 7.07449 25.8903 7.07449 25.9145L7.1238 25.9156L7.12377 26.0114L7.16979 26.0126C7.17683 26.0328 7.17308 26.0852 7.17308 26.1092L7.22195 26.1097L7.22557 26.2062L7.27086 26.209V26.2556L7.31954 26.2575L7.3213 26.3529H7.36918L7.37138 26.4494L7.41866 26.4499L7.41909 26.546L7.46761 26.547L7.46993 26.5949L7.51648 26.5954V26.6923L7.56516 26.6932L7.56855 26.789L7.61507 26.7918V26.8377L7.66375 26.8395L7.66554 26.9343L7.71366 26.9385V27.0319L7.76054 27.0318L7.7621 27.0795L7.81091 27.0805L7.81337 27.1773L7.86069 27.1775V27.2259L7.9093 27.2264L7.91079 27.3226L7.95871 27.325L7.96239 27.3715H8.00779L8.00769 27.4668L8.05637 27.4685L8.05746 27.5161L8.10601 27.517L8.10833 27.565L8.15568 27.5655V27.6621L8.20513 27.6626L8.20187 27.8089C7.99169 27.8089 8.00779 27.8286 8.00772 27.7596L7.91139 27.7596L7.91003 27.7114L7.81201 27.7103L7.81065 27.663L7.76273 27.6606L7.75902 27.6144L7.66504 27.6114L7.66438 27.5656L7.56715 27.5657L7.56579 27.5175L7.4686 27.5156L7.46681 27.4686H7.41886L7.418 27.4211L7.32087 27.4174L7.32014 27.3716L7.27246 27.3717L7.27086 27.3238L7.17361 27.3223L7.17228 27.275L7.12436 27.2726L7.12061 27.2261C7.09639 27.2261 7.04519 27.2312 7.02521 27.2218V27.1781L6.9763 27.1753L6.97594 27.1291L6.87878 27.1291L6.87742 27.0807L6.82943 27.0798L6.82615 27.0321L6.73032 27.0321C6.73032 26.9772 6.73666 26.9835 6.68184 26.9835L6.6819 26.9364L6.63332 26.9351L6.63173 26.887L6.53444 26.8865L6.53162 26.8383L6.48467 26.8369V26.7898L6.43688 26.788L6.43612 26.741H6.3383L6.33723 26.6935L6.28869 26.6925L6.28637 26.6446L6.23905 26.644V26.5967L6.14219 26.5944L6.14126 26.5474L6.09238 26.545L6.09079 26.4985L6.04294 26.4985L6.04158 26.4513L5.99412 26.4473L5.99339 26.4015L5.94631 26.4015L5.94495 26.3534L5.8962 26.353L5.89484 26.3046L5.84686 26.3037L5.84361 26.256L5.74801 26.2559L5.74665 26.2076C5.72372 26.2071 5.71333 26.2096 5.69847 26.202V26.1581H5.65102L5.65002 26.1104L5.60094 26.1096L5.59952 26.0613L5.55203 26.0611L5.54825 26.0128L5.50209 26.0114V25.9643L5.45338 25.963L5.45278 25.9162L5.40467 25.9125L5.40191 25.8671H5.35536L5.35307 25.8192L5.30572 25.8186L5.30575 25.7711L5.25724 25.7701L5.25644 25.722L5.20746 25.7216L5.2056 25.6735L5.15868 25.6712V25.6248L5.11027 25.6235L5.10934 25.5766L5.06046 25.5738L5.0601 25.5276H5.01099L5.01006 25.4799L4.96154 25.4791V25.3832L4.91383 25.3822L4.91303 25.3338L4.86405 25.3328L4.86219 25.2855L4.81448 25.2832V25.2369L4.76606 25.2355L4.76513 25.1886L4.71626 25.1858L4.71589 25.1396H4.66685L4.66466 25.0432L4.6181 25.0426V24.9945L4.56962 24.9941L4.56883 24.9458L4.51972 24.9449L4.51786 24.8498L4.47024 24.8463V24.8004L4.42133 24.7986L4.42093 24.7516H4.37258L4.37169 24.7039L4.32317 24.7031L4.32321 24.6071L4.27469 24.6061L4.2739 24.558L4.22502 24.5576L4.22147 24.4608L4.17531 24.4594V24.4116L4.1274 24.4097L4.1256 24.3143H4.07772L4.07636 24.2667L4.02821 24.2658L4.02828 24.1702L3.97973 24.1688L3.97817 24.1211L3.92966 24.1203V24.024L3.88181 24.0229L3.88035 23.9267L3.83187 23.9244V23.878L3.78322 23.877L3.78256 23.7808H3.73448L3.73216 23.6847L3.68397 23.6838L3.68404 23.5882L3.63599 23.5868L3.63354 23.49L3.58622 23.4898V23.3929L3.53754 23.392L3.53422 23.2962L3.4877 23.2934V23.1992L3.43852 23.1969L3.43839 23.102L3.38954 23.1007L3.38795 22.9563H3.34063L3.34067 22.8605L3.29225 22.8594L3.29056 22.7627L3.24205 22.7623V22.6161L3.19313 22.6157L3.19111 22.4718L3.14349 22.4682L3.14147 22.3258L3.09495 22.3212V22.1796H3.04567L3.0457 21.9867L2.99639 21.9855L2.99643 21.841L2.94738 21.84L2.94712 21.6465L2.89807 21.646L2.89781 21.4522L2.84949 21.4508L2.8493 21.2583L2.80012 21.2564L2.79999 21.0644L2.75084 21.0616L2.75071 20.8208H2.7016L2.70107 20.5791L2.65216 20.5782L2.65222 20.2883L2.60388 20.2872L2.60368 19.8992L2.5546 19.8988L2.55165 19.366L2.50509 19.3632L2.50625 17.6187L2.50612 17.6186ZM1.52709 15.9022C1.52709 15.9354 1.45094 15.921 1.37688 15.921V15.9648L1.27686 15.9723L1.27673 16.0148H1.17659V16.0649C1.13497 16.0649 1.1224 16.0712 1.08271 16.0712V16.115H1.03264V16.1651H0.982566C0.982566 16.2067 0.976294 16.2192 0.976294 16.2589H0.932493V16.309H0.88242V16.4029C0.810513 16.4029 0.832347 16.4026 0.832347 16.5531H0.788546C0.788546 16.5928 0.782274 16.6053 0.782274 16.647V16.7909H0.738473L0.732202 17.2791H0.6884V17.8048C0.6884 17.9344 0.682129 18.0508 0.682129 18.174C0.682129 18.3 0.6884 18.4175 0.6884 18.5495V19.0252H0.732202L0.738473 19.5634H0.782274V19.8013C0.782274 19.8742 0.788546 19.923 0.788546 19.9952H0.832347V20.2393C0.832347 20.281 0.838619 20.2935 0.838619 20.3332H0.88242V20.6274H0.932493V20.8714H0.976294C0.976294 20.9111 0.982566 20.9237 0.982566 20.9653V21.1093H1.02637C1.02637 21.157 1.03264 21.1791 1.03264 21.2282V21.3534H1.07644L1.08271 21.5473H1.12651C1.12651 21.6978 1.10465 21.6976 1.17659 21.6976V21.8728C1.17659 21.8992 1.20774 21.8916 1.22666 21.8916V22.0793H1.27673V22.2295H1.3268V22.3735H1.3706L1.37688 22.5237H1.42068L1.42695 22.6676H1.47075L1.47702 22.8116H1.52082L1.52709 22.9555H1.5709V23.0557H1.6147L1.62097 23.1996H1.66477C1.66477 23.2399 1.67104 23.256 1.67104 23.2998H1.71484L1.72111 23.4375H1.76492C1.76492 23.4812 1.77119 23.4973 1.77119 23.5376H1.81499V23.6377H1.86506L1.87133 23.7754H1.91513V23.8755C1.98681 23.8755 1.96521 23.8844 1.96521 23.9757H2.01528V24.0696H2.05908L2.06665 24.1696L2.10915 24.1697C2.10915 24.2113 2.11543 24.2239 2.11543 24.2636H2.15923C2.15923 24.3548 2.13762 24.3637 2.2093 24.3637V24.4576H2.25937V24.5139H2.30317C2.30317 24.5536 2.30944 24.5661 2.30944 24.6078H2.35325C2.35325 24.6494 2.35952 24.662 2.35952 24.7017H2.40332L2.41088 24.8017L2.45339 24.8018C2.45339 24.8931 2.43179 24.9019 2.50346 24.9019V24.9958H2.55354V25.0897H2.60361V25.1397H2.64741C2.64741 25.1814 2.65368 25.1939 2.65368 25.2336C2.71082 25.2336 2.70376 25.2339 2.70376 25.29H2.74756C2.74756 25.3296 2.75383 25.3422 2.75383 25.3838H2.79763V25.4339H2.8477V25.5277H2.89778V25.5778H2.94158C2.94158 25.6175 2.94785 25.63 2.94785 25.6717H2.99792V25.7218H3.04172C3.04172 25.7634 3.04799 25.7759 3.04799 25.8156C3.09853 25.8156 3.09807 25.8151 3.09807 25.8657H3.14187V25.9158H3.19194V26.0097H3.24201V26.0597H3.29209V26.1098H3.33589C3.33589 26.1603 3.33542 26.1599 3.38596 26.1599C3.38596 26.2015 3.39223 26.2141 3.39223 26.2537C3.44277 26.2537 3.4423 26.2533 3.4423 26.3038H3.48611C3.48611 26.3544 3.48561 26.3539 3.53618 26.3539C3.53618 26.4044 3.53571 26.404 3.58625 26.404V26.454H3.63632V26.5041H3.68012L3.68762 26.5916C3.73753 26.5918 3.73644 26.5921 3.73644 26.6418C3.78697 26.6418 3.78651 26.6413 3.78651 26.6919H3.83031C3.83031 26.7424 3.82985 26.7419 3.88038 26.7419V26.7857C3.93092 26.7857 3.93046 26.7853 3.93046 26.8358C3.98099 26.8358 3.98053 26.8353 3.98053 26.8859H4.0306V26.936H4.08067V26.986H4.12448V27.0298H4.17455V27.0799H4.22462V27.13H4.27469V27.18H4.32477V27.2238C4.3753 27.2238 4.37484 27.2233 4.37484 27.2739C4.42541 27.2739 4.42491 27.2735 4.42491 27.324H4.46871V27.3678H4.51879V27.4179H4.56886V27.4679C4.6105 27.4679 4.62305 27.4742 4.66273 27.4742V27.518H4.71281C4.71281 27.5686 4.71231 27.5681 4.76288 27.5681V27.6119H4.81295V27.662H4.86302V27.712H4.9131V27.7558C4.95278 27.7558 4.96533 27.7621 5.00697 27.7621C5.00697 27.8126 5.00647 27.8122 5.05704 27.8122V27.856H5.10712C5.10712 27.9131 5.10742 27.906 5.16343 27.906V27.9499C5.20311 27.9499 5.21569 27.9561 5.2573 27.9561V27.9999C5.30784 27.9999 5.30737 27.9994 5.30737 28.05C5.35791 28.05 5.35745 28.0495 5.35745 28.1H5.45132V28.1501H5.50139V28.1939H5.55147V28.244C5.59308 28.244 5.60565 28.2503 5.64534 28.2503V28.2941H5.70165V28.3441H5.79553V28.3942H5.8456V28.438H5.89567V28.4881H5.99582V28.5381H6.08969V28.5882H6.13976V28.632L6.23978 28.6396L6.23991 28.6821H6.28998V28.7259C6.32967 28.7259 6.34225 28.7322 6.38386 28.7322V28.776L6.48387 28.7835L6.484 28.826H6.53407V28.8761H6.63422V28.9262H6.72809V28.97L6.82811 28.9776L6.82821 29.0201L6.92825 29.0276L6.92839 29.0701H7.02226V29.1202H7.12237V29.1703H7.17245V29.2141C7.2637 29.2141 7.27259 29.1925 7.27259 29.2642H7.37274V29.3142H7.46661V29.358L7.56662 29.3656L7.56676 29.4081C7.65801 29.4081 7.6669 29.3865 7.6669 29.4582H7.81085V29.5082H7.91099V29.552L8.01101 29.5596L8.01114 29.6021L8.15509 29.6084V29.6522H8.25523V29.7023H8.39918V29.7461L8.49919 29.7536L8.49932 29.7961L8.64327 29.8024V29.8462L8.79349 29.8525V29.8963H8.93744C8.93744 29.9679 8.94503 29.9464 9.04382 29.9464V29.9902L9.18777 29.9964V30.0402C9.27902 30.0402 9.28791 30.0186 9.28791 30.0903H9.43186V30.1404H9.532V30.1842C9.57362 30.1842 9.58619 30.1904 9.62588 30.1904V30.2343H9.68222V30.2781C9.72191 30.2781 9.73445 30.2843 9.7761 30.2843V30.3281L9.87611 30.3357L9.87621 30.3782C9.92678 30.3782 9.92628 30.3777 9.92628 30.4283H10.0202V30.4783H10.0702V30.5221L10.1702 30.5297L10.1703 30.5785H10.2204V30.6223H10.2705V30.6724H10.3206V30.7162C10.3711 30.7162 10.3706 30.7157 10.3706 30.7662C10.4212 30.7662 10.4207 30.7657 10.4207 30.8163C10.4664 30.8163 10.4708 30.8129 10.4708 30.8601H10.5146V30.9102H10.5647V30.9603C10.6152 30.9603 10.6147 30.9598 10.6147 31.0103H10.6648V31.0604H10.7086C10.7086 31.111 10.7081 31.1105 10.7587 31.1105V31.1543H10.8087V31.2043H10.8588V31.2544H10.9026C10.9026 31.2941 10.9089 31.3067 10.9089 31.3483H10.959V31.3984H11.009V31.4484H11.0591V31.4922H11.1029V31.5423H11.153V31.5924H11.2031V31.6425H11.2531V31.6925H11.347V31.7363L11.541 31.7426C11.5863 31.7426 11.6037 31.7363 11.6474 31.7363V31.6925H11.7413V31.6425H11.7914V31.5924H11.8414V31.5423H11.8915V31.4922H11.9353C11.9353 31.4417 11.9348 31.4422 11.9854 31.4422L11.9929 31.3547L12.0354 31.3545V31.3045H12.0855V31.2544H12.1356V31.2043H12.1857V31.1542H12.2357V31.1042H12.2795V31.0604H12.3296V31.0103H12.3797V30.9602H12.4298C12.4298 30.9186 12.436 30.906 12.436 30.8664H12.4798V30.8225H12.5299V30.7725C12.5715 30.7725 12.5841 30.7662 12.6238 30.7662C12.6238 30.7157 12.6233 30.7161 12.6738 30.7161V30.6723H12.7239V30.6223H12.774C12.774 30.5717 12.7735 30.5722 12.8241 30.5722V30.5284C12.8657 30.5284 12.8782 30.5221 12.9179 30.5221V30.4783H12.9743V30.4282H13.0682C13.0682 30.3777 13.0677 30.3782 13.1182 30.3782V30.3344C13.1599 30.3344 13.1724 30.3281 13.2121 30.3281V30.2843H13.2685V30.2405C13.3087 30.2405 13.3248 30.2343 13.3686 30.2343V30.1904C13.4083 30.1904 13.4208 30.1842 13.4625 30.1842V30.1404H13.5626V30.0903H13.6628V30.0465L13.8067 30.0402V29.9964L13.9507 29.9902V29.9464L14.1008 29.9401V29.8963H14.201V29.8525L14.3449 29.8462V29.8024L14.4951 29.7961V29.7523L14.5951 29.7448L14.5953 29.7023L14.7392 29.696V29.6522H14.8394V29.6084L14.9394 29.6009L14.9395 29.5583L15.0834 29.5521V29.5083H15.1836V29.4582H15.2837V29.4144C15.324 29.4144 15.3401 29.4082 15.3839 29.4082V29.3644L15.5216 29.3581V29.3143C15.5653 29.3143 15.5814 29.3081 15.6217 29.3081V29.2643H15.7219C15.7219 29.1926 15.7307 29.2142 15.822 29.2142V29.1704C15.8636 29.1704 15.8762 29.1641 15.9159 29.1641V29.1203C15.9596 29.1203 15.9757 29.114 16.016 29.114V29.0702H16.0661V29.0264L16.1661 29.0189L16.1662 28.9764L16.2663 28.9688L16.2664 28.9263H16.3603V28.8762H16.4604V28.8261H16.5105V28.7823C16.5521 28.7823 16.5647 28.7761 16.6043 28.7761V28.7323C16.6481 28.7323 16.6642 28.726 16.7045 28.726V28.6822H16.7546V28.6384C16.7962 28.6384 16.8088 28.6322 16.8484 28.6322V28.5884C16.9045 28.5884 16.9048 28.5954 16.9048 28.5383H16.9987V28.4882H17.0487V28.4444L17.1487 28.4368L17.1489 28.3943C17.1994 28.3943 17.1989 28.3948 17.1989 28.3443C17.2406 28.3443 17.2531 28.338 17.2928 28.338V28.2942H17.3429V28.2504L17.4429 28.2428L17.443 28.194H17.4931V28.1502H17.5432V28.1002H17.6371V28.0501H17.6871C17.6871 27.9996 17.6867 28 17.7372 28V27.9562C17.7788 27.9562 17.7914 27.95 17.8311 27.95V27.9062H17.8812C17.8812 27.849 17.8815 27.8561 17.9375 27.8561V27.8123C17.988 27.8123 17.9876 27.8128 17.9876 27.7622C18.0273 27.7622 18.0398 27.756 18.0814 27.756V27.7122H18.1315V27.6621H18.1816V27.612H18.2317V27.5682C18.2822 27.5682 18.2817 27.5687 18.2817 27.5181C18.3233 27.5181 18.3359 27.5119 18.3756 27.5119V27.4681H18.4257V27.418H18.4758V27.368H18.5196V27.3242H18.5696V27.2741H18.6197C18.6197 27.2235 18.6192 27.224 18.6698 27.224V27.1802H18.7198V27.1301H18.7699V27.0801H18.82V27.03H18.8701V26.9862H18.9139V26.9361H18.9639V26.886H19.014C19.014 26.8355 19.0135 26.836 19.0641 26.836V26.7859H19.1142V26.7421C19.1647 26.7421 19.1642 26.7426 19.1642 26.692H19.208C19.208 26.6415 19.2076 26.642 19.2581 26.642C19.2581 26.5914 19.2576 26.5919 19.3082 26.5919C19.3082 26.5522 19.3144 26.5396 19.3144 26.498H19.3582V26.4542H19.4083V26.4041C19.4589 26.4041 19.4584 26.4046 19.4584 26.3541H19.5085V26.304H19.5523C19.5523 26.2643 19.5585 26.2517 19.5585 26.2101C19.6091 26.2101 19.6086 26.2106 19.6086 26.16H19.6524V26.11H19.7025V26.0599H19.7526V25.966H19.8026V25.9159H19.8527V25.8659H19.8965C19.8965 25.8262 19.9028 25.8136 19.9028 25.772C19.9533 25.772 19.9529 25.7725 19.9529 25.7219H19.9967V25.6719H20.0467V25.578H20.0968V25.5279H20.1469V25.434C20.1974 25.434 20.1969 25.4345 20.1969 25.384H20.2407C20.2407 25.3424 20.247 25.3298 20.247 25.2901H20.2908C20.2908 25.2341 20.2838 25.2338 20.3409 25.2338V25.1399H20.391V25.0898H20.441V24.996H20.4911V24.9021C20.5483 24.9021 20.5412 24.9018 20.5412 24.8458H20.585C20.585 24.8061 20.5913 24.7935 20.5913 24.7519H20.6351C20.6351 24.7103 20.6413 24.6977 20.6413 24.658H20.6851L20.6927 24.558L20.7352 24.5578V24.5078H20.7853V24.4077H20.8291C20.8291 24.368 20.8353 24.3554 20.8353 24.3138H20.8791C20.8791 24.2741 20.8854 24.2615 20.8854 24.2199H20.9292L20.9368 24.1199L20.9793 24.1198C20.9793 24.0782 20.9856 24.0656 20.9856 24.0259H21.0294V23.9257H21.0794V23.8256H21.1232L21.1295 23.6879C21.2012 23.6879 21.1796 23.679 21.1796 23.5878H21.2234L21.231 23.4878L21.2735 23.4877C21.2735 23.448 21.2797 23.4354 21.2797 23.3938H21.3235L21.3298 23.2498H21.3736V23.1497H21.4237V23.0057H21.4737V22.8618C21.5455 22.8618 21.5238 22.8611 21.5238 22.7178H21.5676L21.5739 22.5676H21.6177L21.624 22.4237H21.6678L21.674 22.2797H21.7178V22.1295H21.7679V21.9418C21.8398 21.9418 21.818 21.942 21.818 21.7916H21.8618L21.8681 21.5975H21.9119C21.9119 21.5253 21.9181 21.4765 21.9181 21.4036H21.9619L21.9682 21.1657H22.012L22.0183 20.9654H22.0621V20.6776H22.1122V20.4272H22.156C22.156 20.3875 22.1622 20.375 22.1622 20.3333V20.1393H22.206C22.206 20.0671 22.2123 20.0182 22.2123 19.9453V19.7513H22.2561L22.2624 19.2194H22.3062C22.3062 19.0185 22.3124 18.8383 22.3124 18.6373V17.6234C22.3124 17.4515 22.3062 17.3007 22.3062 17.129H22.2624V16.8975C22.2624 16.8205 22.2561 16.7673 22.2561 16.6909H22.2123V16.5595C22.2123 16.5142 22.206 16.4969 22.206 16.4531H22.1622C22.1622 16.3619 22.1838 16.353 22.1122 16.353V16.3092H22.0621V16.2591H22.012V16.1653H21.9619V16.1152C21.9203 16.1152 21.9077 16.1089 21.8681 16.1089V16.0651H21.818C21.818 15.9934 21.8091 16.015 21.7178 16.015V15.9712L21.6178 15.9637L21.6177 15.9212C21.4731 15.9212 21.4675 15.9417 21.4675 15.8774C21.4278 15.8774 21.4152 15.8711 21.3736 15.8711H1.52792V15.9024L1.52709 15.9022Z" fill="#00002F"/>
<path fill-rule="evenodd" clip-rule="evenodd" d="M11.1529 0.0058402V0.0496415L10.9526 0.0559131V0.0997142H10.8087V0.149787H10.6647V0.193588L10.5647 0.201121L10.5646 0.243661L10.4646 0.251227L10.4644 0.293734C10.4228 0.293734 10.4103 0.299972 10.3706 0.299972V0.343774H10.3143V0.387575C10.2746 0.387575 10.262 0.393813 10.2204 0.393813C10.2204 0.444384 10.2209 0.443886 10.1703 0.443886V0.487687H10.1202V0.53776H10.0702V0.587833H10.0264C10.0264 0.63837 10.0268 0.637906 9.9763 0.637906C9.9763 0.688443 9.97676 0.687978 9.92622 0.687978C9.92622 0.771931 9.94773 0.781852 9.87615 0.781852C9.87615 0.920291 9.86988 1.03739 9.86988 1.17613L9.87615 2.77205H9.91995C9.91995 2.87728 9.92622 2.96053 9.92622 3.06619H9.97003V3.19762C9.97003 3.24292 9.9763 3.26031 9.9763 3.30401H10.0201V3.40415C10.0201 3.44576 10.0264 3.45834 10.0264 3.49806H10.0702V3.59821C10.0702 3.63982 10.0764 3.65239 10.0764 3.69208H10.1202V3.79219C10.1202 3.83384 10.1265 3.84638 10.1265 3.88607H10.1703V4.08005H10.2141C10.2141 4.12379 10.2204 4.14114 10.2204 4.18647V4.32415H10.2642V4.56197H10.2204V4.74344C10.2204 4.76989 10.1892 4.76222 10.1703 4.76222V4.9062H10.1202V5.05015H10.0702V5.14403C10.013 5.14403 10.0201 5.14432 10.0201 5.20034H9.9763C9.9763 5.24006 9.97003 5.25257 9.97003 5.29421H9.92622C9.92622 5.33585 9.91995 5.3484 9.91995 5.38808H9.87615V5.43816H9.82608V5.53203C9.76894 5.53203 9.77601 5.53233 9.77601 5.58834H9.7322V5.63214H9.68213V5.68222H9.63206C9.63206 5.72386 9.62579 5.7364 9.62579 5.77609C9.58418 5.77609 9.5716 5.78236 9.53191 5.78236V5.82616C9.48138 5.82616 9.48184 5.8257 9.48184 5.87624H9.43177V5.92631H9.3817V5.97011H9.28782V6.02018H9.18768V6.07026H9.08753V6.11406L8.94358 6.12033V6.16413H8.84344V6.2142H8.69325V6.258L8.54307 6.26424V6.30804L8.35539 6.31571L8.35532 6.35808H8.20513V6.40816H8.00488V6.45823H7.81713V6.50203L7.66067 6.5083V6.5521L7.46665 6.55837V6.60218C7.31623 6.60218 7.31643 6.58031 7.31643 6.65225H7.12241V6.69605L6.97223 6.70232V6.74612L6.77821 6.75236V6.79616C6.62779 6.79616 6.62802 6.77429 6.62802 6.84623H6.44028V6.89004L6.29006 6.89627V6.94007L6.13987 6.94635V6.99015C5.98945 6.99015 5.98965 6.96831 5.98965 7.04022H5.84571V7.08402L5.69549 7.09029V7.1341L5.55154 7.14037V7.18417C5.40112 7.18417 5.40136 7.16233 5.40136 7.23424H5.25741V7.27804L5.11346 7.28431V7.32811C5.06814 7.32811 5.05078 7.33439 5.00708 7.33439V7.37819H4.86313V7.42826H4.76299V7.47206L4.61904 7.47833V7.52213L4.47509 7.52841V7.57221H4.37495V7.62228H4.27484V7.66608L4.17479 7.67365L4.17466 7.71615C4.0834 7.71615 4.07451 7.69455 4.07451 7.76623H3.93056V7.8163H3.83042V7.8601C3.79073 7.8601 3.77819 7.86637 3.73654 7.86637V7.91017C3.69278 7.91017 3.67672 7.91644 3.6364 7.91644V7.96025C3.54515 7.96025 3.53625 7.93868 3.53625 8.01032H3.44238C3.44238 8.08196 3.43349 8.06039 3.34223 8.06039V8.10419H3.29216V8.15427H3.19202V8.20434H3.09814C3.09814 8.27598 3.08925 8.25441 2.998 8.25441C2.998 8.30498 2.99846 8.30448 2.94792 8.30448V8.34828L2.84791 8.35585L2.84778 8.39836H2.79771V8.44216C2.75802 8.44216 2.74544 8.4484 2.70383 8.4484C2.70383 8.50554 2.70353 8.49847 2.64749 8.49847V8.54227C2.6078 8.54227 2.59526 8.54854 2.55361 8.54854V8.59234H2.50354V8.64242H2.40967C2.40967 8.69295 2.41016 8.69249 2.35959 8.69249V8.73629H2.30952V8.78636C2.21827 8.78636 2.20937 8.76476 2.20937 8.83644H2.1593V8.88651H2.10923V8.93031C2.05869 8.93031 2.05916 8.92981 2.05916 8.98038H1.96528V9.03046H1.91521V9.08053H1.86514V9.12433C1.8146 9.12433 1.81506 9.12383 1.81506 9.1744H1.77126C1.77126 9.22494 1.77173 9.22448 1.72119 9.22448C1.72119 9.27505 1.72169 9.27455 1.67112 9.27455V9.31835H1.62104V9.36842H1.57097V9.4185H1.5209V9.46857H1.47083V9.51237H1.42702V9.56244H1.37695V9.61252H1.32688V9.66259H1.27681V9.75646H1.22673V9.80653H1.17666V9.85661H1.13286C1.13286 9.89629 1.12659 9.90887 1.12659 9.95048H1.07652V10.0506H1.03271C1.03271 10.0903 1.02644 10.1029 1.02644 10.1445H0.982641V10.1946H0.932568V10.2885H0.882496V10.3386C0.810854 10.3386 0.832423 10.3474 0.832423 10.4387H0.78235V10.5326C0.731813 10.5326 0.732277 10.5321 0.732277 10.5826H0.688476C0.688476 10.6739 0.710078 10.6828 0.638403 10.6828V10.7766H0.58833V10.8768H0.544529L0.538258 11.0145C0.466583 11.0145 0.488185 11.0234 0.488185 11.1146H0.444383L0.438112 11.2586H0.394311L0.386745 11.3586L0.344238 11.3587L0.337966 11.5027H0.294165V11.6529H0.250364C0.250364 11.6926 0.244092 11.7051 0.244092 11.7468V11.8469H0.200291C0.200291 11.8866 0.19402 11.8991 0.19402 11.9408V12.0409H0.150218C0.150218 12.0806 0.143947 12.0931 0.143947 12.1348V12.2787H0.100146C0.100146 12.3225 0.0938741 12.3398 0.0938741 12.3851V12.5729H0.0500728L0.0438013 12.9609H0V13.8371H0.0438013L0.0514665 14.0248L0.0938741 14.0249L0.101407 14.1249L0.143914 14.125V14.1751H0.193986V14.269H0.244059V14.319H0.294132V14.3691H0.388006C0.388006 14.4197 0.387542 14.4192 0.438079 14.4192V14.463C0.481847 14.463 0.497907 14.4692 0.538224 14.4692V14.513H0.682171C0.682171 14.5849 0.672216 14.5631 0.882429 14.5631V14.6069C0.958749 14.6069 1.01197 14.6132 1.08896 14.6132H21.9047C21.9817 14.6132 22.0349 14.6069 22.1113 14.6069V14.5631H22.2927C22.3192 14.5631 22.3115 14.532 22.3115 14.513H22.5055V14.4692C22.5452 14.4692 22.5578 14.463 22.5994 14.463V14.4192C22.6555 14.4192 22.6558 14.4262 22.6558 14.3691C22.6954 14.3691 22.708 14.3629 22.7496 14.3629V14.3191H22.7934C22.7934 14.2794 22.7997 14.2668 22.7997 14.2252H22.8498V14.1751H22.8936L22.9011 14.0751L22.9437 14.075L22.9499 13.9311H22.9937C22.9937 13.7693 23 13.6288 23 13.4679C23 13.3846 22.9937 13.3247 22.9937 13.2426V12.8608H22.9499L22.9422 12.4728H22.8999L22.8936 12.2287H22.8498V11.9909H22.7997V11.8094C22.7997 11.783 22.7685 11.7907 22.7496 11.7907V11.6029H22.6996V11.4527H22.6558L22.6495 11.3088H22.6057L22.5994 11.1648H22.5556L22.548 11.0648L22.5055 11.0647V10.9708H22.4555V10.8268H22.4054V10.7267H22.3553V10.6328C22.2837 10.6328 22.3053 10.6229 22.3053 10.5389C22.2481 10.5389 22.2552 10.5386 22.2552 10.4826H22.2114C22.2114 10.441 22.2051 10.4284 22.2051 10.3888H22.1613C22.1613 10.3471 22.155 10.3346 22.155 10.2949H22.1112V10.2386H22.0612V10.1447H22.0111V10.0946H21.9673C21.9673 10.0549 21.961 10.0424 21.961 10.0008H21.9109V9.95071H21.8671C21.8671 9.9091 21.8609 9.89653 21.8609 9.85684H21.8171V9.80677H21.767V9.75669H21.7169V9.70662H21.6731C21.6731 9.66693 21.6668 9.65436 21.6668 9.61275H21.6168V9.56267H21.5667V9.51887C21.5162 9.51887 21.5166 9.51934 21.5166 9.4688H21.4728V9.41873H21.4228V9.36866H21.3727V9.31858H21.3226V9.27478C21.2721 9.27478 21.2725 9.27528 21.2725 9.22471C21.222 9.22471 21.2225 9.22521 21.2225 9.17464H21.1724V9.13083H21.1286V9.08076H21.0785V9.03069C21.0369 9.03069 21.0244 9.02442 20.9846 9.02442V8.98062H20.9346C20.9346 8.92348 20.9343 8.93054 20.8783 8.93054V8.88674C20.8277 8.88674 20.8282 8.88721 20.8282 8.83667C20.7825 8.83667 20.7781 8.84009 20.7781 8.79287C20.7384 8.79287 20.7259 8.7866 20.6842 8.7866V8.73652H20.6342V8.69272C20.5836 8.69272 20.5841 8.69319 20.5841 8.64265H20.4902V8.59258H20.4401V8.54877L20.3401 8.54124L20.34 8.49874C20.2895 8.49874 20.2899 8.49923 20.2899 8.44866H20.1961V8.39859H20.1397V8.35479C20.1 8.35479 20.0875 8.34855 20.0458 8.34855V8.30475C20.0042 8.30475 19.9917 8.29851 19.952 8.29851V8.25471C19.8959 8.25471 19.8957 8.26178 19.8957 8.20464H19.8018V8.15456H19.7016V8.11076C19.6619 8.11076 19.6494 8.10449 19.6078 8.10449V8.06069C19.5517 8.06069 19.5514 8.06776 19.5514 8.01062H19.4575C19.4575 7.93894 19.4486 7.96054 19.3574 7.96054V7.91674L19.2574 7.90918L19.2572 7.86667H19.1634V7.8166H19.0632V7.7728L18.9193 7.76652C18.9193 7.69488 18.9104 7.71645 18.8191 7.71645V7.67265L18.7191 7.66512L18.719 7.62261H18.6189V7.57881L18.4749 7.57257V7.52877L18.3749 7.5212L18.3748 7.4787L18.2308 7.47243V7.42863H18.1307V7.38482L17.9867 7.37855V7.33475L17.8366 7.32848V7.28468L17.7365 7.27711L17.7364 7.2346H17.5925C17.5925 7.1627 17.5927 7.18453 17.4423 7.18453V7.14073L17.2983 7.13446V7.09066L17.1482 7.08439V7.04059H17.0042C17.0042 6.96868 17.0044 6.99051 16.854 6.99051V6.94671L16.7038 6.94044V6.89664L16.5536 6.8904V6.8466H16.3658C16.3658 6.77496 16.368 6.79653 16.2094 6.79653V6.75273L16.0216 6.74649V6.70269L15.8714 6.69641V6.65261H15.6774V6.60254H15.5272V6.55874L15.3332 6.55247V6.50867L15.133 6.501L15.133 6.45863C14.9825 6.45863 14.9828 6.48046 14.9828 6.40855H14.7888V6.35848H14.6385V6.31468C14.5663 6.31468 14.5175 6.30844 14.4445 6.30844V6.26464L14.3006 6.2584V6.2146H14.1504V6.16453H14.0502V6.12073L13.9063 6.11446V6.07065H13.8062V6.02058H13.706V5.97678C13.6663 5.97678 13.6537 5.97051 13.6121 5.97051V5.92671H13.5621V5.87663C13.5139 5.87663 13.5057 5.88367 13.5057 5.83283L13.4182 5.8253C13.418 5.77539 13.4177 5.77649 13.368 5.77649C13.368 5.72595 13.3685 5.72642 13.3179 5.72642L13.3104 5.63895C13.2605 5.63875 13.2616 5.63841 13.2616 5.58874H13.2178C13.2178 5.53269 13.2249 5.53243 13.1677 5.53243C13.1677 5.49231 13.1615 5.48073 13.1615 5.44479C13.1106 5.44479 13.1177 5.43663 13.1177 5.38848H13.0739C13.0739 5.3488 13.0676 5.33625 13.0676 5.29461H13.0238C13.0238 5.25296 13.0175 5.24045 13.0175 5.20073H12.9737C12.9737 5.14469 12.9808 5.14442 12.9237 5.14442L12.9174 5.00675H12.8736V4.9066H12.8235V4.80646H12.7797C12.7797 4.76677 12.7734 4.75423 12.7734 4.71258V4.56864H12.7296V4.32454H12.7734V4.13052C12.7734 4.08891 12.7797 4.07634 12.7797 4.03665H12.8235V3.84266C12.8954 3.84266 12.8736 3.8429 12.8736 3.69248H12.9174L12.9237 3.49846H12.9675L12.9737 3.30444H13.0175L13.0238 3.06038H13.0676C13.0676 2.95512 13.0739 2.87187 13.0739 2.76621H13.1177L13.1239 1.23287C13.1239 1.08999 13.1177 0.968638 13.1177 0.826085H13.0739C13.0739 0.786398 13.0676 0.773822 13.0676 0.732211H13.0238C13.0238 0.690566 13.0175 0.678024 13.0175 0.638337C12.967 0.638337 12.9675 0.638801 12.9675 0.588264H12.9237V0.538191H12.8736V0.488119H12.8235V0.444317H12.7734V0.394244C12.7318 0.394244 12.7193 0.388006 12.6796 0.388006V0.344205H12.6232V0.300403C12.5835 0.300403 12.571 0.294165 12.5293 0.294165V0.250364L12.4293 0.242798L12.4292 0.200291L12.3292 0.192726L12.3291 0.150219H12.1851V0.100146H12.0412V0.0563445L11.8409 0.0500729V0.00627159C11.7182 0.00627159 11.6169 0 11.4967 0C11.3764 0 11.2751 0.00627159 11.1525 0.00627159L11.1529 0.0058402Z" fill="#00002F"/>
<path fill-rule="evenodd" clip-rule="evenodd" d="M2.50502 19.3634L2.55157 19.3662L2.55452 19.8989L2.6036 19.8993L2.6038 20.2873L2.65215 20.2885L2.65208 20.5783L2.70099 20.5793L2.70152 20.821H2.75063L2.75077 21.0618L2.79991 21.0645L2.80004 21.2565L2.84922 21.2584L2.84942 21.451L2.89773 21.4524L2.898 21.6461L2.94704 21.6466L2.94731 21.8402L2.99635 21.8412L2.99632 21.9857L3.04563 21.9868L3.0456 22.1797H3.09487V22.3213L3.14139 22.3259L3.14342 22.4683L3.19104 22.4719L3.19306 22.6158L3.24197 22.6162V22.7624L3.29048 22.7628L3.29218 22.8595L3.34059 22.8607L3.34056 22.9565H3.38788L3.38947 23.1008L3.43831 23.1022L3.43845 23.197L3.48762 23.1993V23.2936L3.53415 23.2963L3.53746 23.3921L3.58614 23.393V23.4899L3.63346 23.4901L3.63592 23.5869L3.68397 23.5883L3.6839 23.6839L3.73208 23.6848L3.7344 23.7809H3.78249L3.78315 23.8772L3.83179 23.8781V23.9245L3.88027 23.9268L3.88174 24.0231L3.92958 24.0241V24.1204L3.9781 24.1212L3.97966 24.1689L4.0282 24.1703L4.02814 24.2659L4.07629 24.2668L4.07765 24.3144H4.12553L4.12732 24.4099L4.17524 24.4117V24.4595L4.22139 24.4609L4.22494 24.5577L4.27382 24.5581L4.27462 24.6062L4.32313 24.6072L4.3231 24.7033L4.37161 24.704L4.37251 24.7517H4.42086L4.42125 24.7987L4.47016 24.8006V24.8464L4.51778 24.85L4.51964 24.945L4.56875 24.9459L4.56955 24.9942L4.61803 24.9946V25.0428L4.66458 25.0433L4.66677 25.1398H4.71582L4.71618 25.1859L4.76506 25.1887L4.76599 25.2356L4.8144 25.237V25.2833L4.86212 25.2856L4.86398 25.3329L4.91296 25.3339L4.91375 25.3823L4.96147 25.3833V25.4792L5.00998 25.48L5.01091 25.5277H5.06002L5.06039 25.5739L5.10926 25.5767L5.11019 25.6236L5.15861 25.625V25.6713L5.20553 25.6736L5.20739 25.7217L5.25636 25.7221L5.25716 25.7703L5.30567 25.7713L5.30564 25.8187L5.35299 25.8193L5.35528 25.8672H5.40184L5.40459 25.9126L5.45271 25.9164L5.4533 25.9631L5.50202 25.9644V26.0116L5.54817 26.013L5.55196 26.0612L5.59944 26.0614L5.60087 26.1098L5.64994 26.1106L5.65094 26.1583H5.69839V26.2021C5.71326 26.2098 5.72364 26.2072 5.74657 26.2077L5.74793 26.2561L5.84353 26.2561L5.84679 26.3038L5.89477 26.3047L5.89613 26.3531L5.94487 26.3535L5.94623 26.4017L5.99332 26.4016L5.99405 26.4474L6.0415 26.4514L6.04286 26.4986L6.09071 26.4986L6.0923 26.5451L6.14118 26.5475L6.14211 26.5945L6.23897 26.5968V26.6441L6.28629 26.6447L6.28861 26.6926L6.33716 26.6936L6.33822 26.7412H6.43604L6.43681 26.7881L6.48459 26.79V26.837L6.53154 26.8384L6.53436 26.8867L6.63166 26.8872L6.63325 26.9352L6.68183 26.9365L6.68176 26.9837C6.73658 26.9837 6.73024 26.9774 6.73024 27.0322L6.82607 27.0322L6.82936 27.0799L6.87734 27.0808L6.8787 27.1292L6.97586 27.1292L6.97623 27.1754L7.02514 27.1782V27.2219C7.04511 27.2314 7.09631 27.2263 7.12054 27.2262L7.12429 27.2727L7.1722 27.2751L7.17353 27.3224L7.27079 27.3239L7.27238 27.3718L7.32007 27.3717L7.3208 27.4176L7.41792 27.4212L7.41879 27.4688H7.46673L7.46853 27.5157L7.56572 27.5177L7.56708 27.5658L7.6643 27.5657L7.66497 27.6115L7.75894 27.6145L7.76266 27.6607L7.81057 27.6631L7.81193 27.7105L7.90996 27.7116L7.91132 27.7598L8.00765 27.7597C8.00771 27.8287 7.99162 27.809 8.2018 27.809L8.20505 27.6627L8.15561 27.6622V27.5656L8.10826 27.5651L8.10593 27.5172L8.05739 27.5162L8.05629 27.4687L8.00761 27.4669L8.00771 27.3716H7.96232L7.95864 27.3251L7.91072 27.3227L7.90923 27.2265L7.86061 27.2261V27.1776L7.81329 27.1774L7.81084 27.0806L7.76203 27.0796L7.76047 27.032L7.71358 27.0321V26.9386L7.66547 26.9344L7.66367 26.8396L7.61499 26.8378V26.7919L7.56847 26.7891L7.56509 26.6933L7.51641 26.6924V26.5956L7.46985 26.595L7.46753 26.5471L7.41902 26.5461L7.41859 26.45L7.3713 26.4495L7.36911 26.3531H7.32123L7.31947 26.2576L7.27079 26.2558V26.2091L7.2255 26.2063L7.22188 26.1098L7.173 26.1094C7.173 26.0853 7.17675 26.033 7.16971 26.0127L7.12369 26.0115L7.12372 25.9158L7.07441 25.9146C7.07441 25.8905 7.07893 25.8387 7.0704 25.8187L7.02517 25.8188V25.7249L6.97589 25.7211L6.97526 25.6259L6.92735 25.6245L6.92708 25.4797L6.87807 25.4792V25.3823L6.82992 25.3821L6.82813 25.2853L6.77945 25.2842L6.77949 25.1882L6.73097 25.1875L6.73011 25.0427L6.68282 25.0418L6.6815 24.952C6.67997 24.9512 6.67738 24.9485 6.67629 24.9501L6.63239 24.9457V24.8022L6.58467 24.7998L6.58255 24.7036L6.5338 24.7031V24.5577L6.48452 24.5573V24.4114L6.43757 24.4107L6.43588 24.2659L6.38869 24.2654L6.38557 24.1204H6.33746V23.9776L6.28938 23.9743L6.28805 23.8317L6.24166 23.829L6.23824 23.6843L6.19039 23.6832L6.18993 23.4899L6.14108 23.4887L6.14085 23.3444L6.09181 23.343V23.1019L6.04445 23.1013L6.04236 22.9079L5.99591 22.9072L5.99279 22.6661L5.94474 22.6652V22.4228L5.89702 22.4219L5.89536 22.1795L5.84619 22.1791V21.84L5.79807 21.8394L5.79684 21.5005L5.74953 21.4999L5.74568 20.9669H5.69836L5.69829 20.1435L5.64981 20.1412L5.64985 19.2201L5.69842 19.2184L5.69836 18.2977H5.74528C5.75188 18.2674 5.74753 17.6996 5.7475 17.6187L2.50604 17.6187L2.50488 19.3632L2.50502 19.3634Z" fill="#FF4E00"/>
</svg>
