<svg width="19" height="15" viewBox="0 0 19 15" fill="none" xmlns="http://www.w3.org/2000/svg">
<path d="M14.9417 11.4244C13.8702 13.2866 12.0796 14.25 9.5 14.25C6.92046 14.25 5.1298 13.2866 4.05834 11.4245C3.96757 11.2668 3.91674 11.0791 3.91667 10.8833C3.91667 10.8832 3.91667 10.8832 3.91667 10.8831V10.1414L8.51214 12.4158L8.84482 11.7436L8.51214 12.4158C9.13805 12.7256 9.86195 12.7256 10.4879 12.4158L15.0833 10.1414V10.8832C15.0833 11.0788 15.0326 11.2666 14.9417 11.4244ZM14.9417 11.4244L15.5918 11.7985L14.9417 11.4244ZM0.792208 4.97698L0.792214 4.97699L0.795964 4.97477C0.796752 4.9743 0.797145 4.97412 0.797109 4.97414L0.805142 4.97039L0.813084 4.96646L9.1775 0.826711L9.17753 0.826695C9.38412 0.724435 9.61588 0.724435 9.82247 0.826694L9.8225 0.826712L18.2032 4.97454C18.2141 4.9799 18.222 4.98659 18.2302 5.00129C18.2404 5.01932 18.25 5.04929 18.25 5.08708C18.25 5.12488 18.2404 5.15486 18.2302 5.17289C18.222 5.18758 18.2141 5.19428 18.2032 5.19965C18.2032 5.19965 18.2032 5.19965 18.2032 5.19966L9.8225 9.34748C9.6159 9.44973 9.3841 9.44973 9.1775 9.34748L1.91601 5.75357L0.833333 5.21772V6.42574V8.96604C0.833333 9.01719 0.814568 9.05138 0.799077 9.06825C0.796133 9.07145 0.793657 9.07376 0.791666 9.0754C0.789675 9.07376 0.7872 9.07145 0.784256 9.06825C0.768766 9.05138 0.75 9.0172 0.75 8.96604V5.08709L0.750178 5.07853L0.750202 5.07795C0.751574 5.04464 0.760282 5.01845 0.769342 5.00204C0.777212 4.98778 0.784654 4.9814 0.792208 4.97698ZM0.785673 9.07913C0.785664 9.07905 0.786205 9.07875 0.787313 9.07848L0.785673 9.07913ZM0.796018 9.07848C0.797126 9.07875 0.797666 9.07905 0.797659 9.07913L0.796018 9.07848Z" stroke="#00002F" stroke-width="1.5"/>
</svg>
