<svg width="19" height="18" viewBox="0 0 19 18" fill="none" xmlns="http://www.w3.org/2000/svg">
<path fill-rule="evenodd" clip-rule="evenodd" d="M13.05 9.00001C13.05 8.62723 12.7478 8.32501 12.375 8.32501H2.4997L4.26428 6.81251C4.54733 6.5699 4.58011 6.14377 4.3375 5.86073C4.09489 5.57768 3.66876 5.5449 3.38572 5.78752L0.235719 8.48755C0.086103 8.61571 0 8.803 0 9.00001C0 9.19702 0.086103 9.38431 0.235719 9.51247L3.38572 12.2125C3.66876 12.4551 4.09489 12.4224 4.3375 12.1393C4.58011 11.8563 4.54733 11.4301 4.26428 11.1876L2.4997 9.67501H12.375C12.7478 9.67501 13.05 9.37279 13.05 9.00001Z" fill="#FF4E00"/>
<path d="M6.97461 5.4C6.97461 6.03197 6.97461 6.34796 7.12627 6.57495C7.19194 6.67324 7.27633 6.75763 7.37462 6.82331C7.60164 6.97496 7.91763 6.97496 8.54961 6.97496H12.3746C13.4929 6.97496 14.3996 7.88157 14.3996 9C14.3996 10.1183 13.4929 11.025 12.3746 11.025H8.54961C7.91763 11.025 7.60155 11.025 7.37457 11.1767C7.27632 11.2423 7.19196 11.3267 7.1263 11.425C6.97461 11.6519 6.97461 11.9679 6.97461 12.6C6.97461 15.1456 6.97461 16.4183 7.76544 17.2092C8.55627 18 9.82887 18 12.3744 18H13.2744C15.82 18 17.0928 18 17.8836 17.2092C18.6744 16.4183 18.6744 15.1456 18.6744 12.6V5.4C18.6744 2.85442 18.6744 1.58162 17.8836 0.790812C17.0928 0 15.82 0 13.2744 0H12.3744C9.82887 0 8.55627 0 7.76544 0.790812C6.97461 1.58162 6.97461 2.85441 6.97461 5.4Z" fill="#00002F"/>
</svg>
