<svg width="249" height="50" viewBox="0 0 249 50" fill="none" xmlns="http://www.w3.org/2000/svg">
<path d="M220.059 24.6374C218.769 23.784 217.35 23.1788 216 22.4247C215.127 21.9285 214.204 21.5019 213.44 20.8768C212.151 19.815 212.418 17.7413 213.768 16.8383C215.703 15.5484 218.898 16.2727 219.245 18.9022C219.245 18.9617 219.305 19.0014 219.354 19.0014H222.271C222.351 19.0014 222.4 18.9419 222.39 18.8724C222.242 17.0566 221.537 15.5484 220.247 14.5859C219.017 13.6631 217.618 13.167 216.119 13.167C208.41 13.167 207.715 21.3133 211.863 23.8733C212.339 24.171 216.407 26.215 217.846 27.1081C219.285 28.0011 219.741 29.6184 219.116 30.9084C218.55 32.0792 217.072 32.8929 215.594 32.7936C213.986 32.6944 212.736 31.8312 212.299 30.4718C212.22 30.2237 212.19 29.7574 212.19 29.549C212.19 29.4895 212.131 29.4398 212.081 29.4398H208.916C208.856 29.4398 208.807 29.4994 208.807 29.549C208.807 31.8312 209.372 33.1012 210.93 34.2522C212.389 35.3437 213.976 35.8001 215.623 35.8001C219.94 35.8001 222.172 33.3592 222.629 30.829C223.016 28.3384 222.281 26.1158 220.059 24.6374Z" fill="#4D4D4D"/>
<path d="M82.7313 13.5739H81.3223H79.7843C79.7248 13.5739 79.6851 13.6136 79.6652 13.6533L77.0755 22.1965C77.0358 22.3057 76.8869 22.3057 76.8472 22.1965L74.2476 13.6533C74.2277 13.5937 74.188 13.5739 74.1384 13.5739H72.6004H71.2014H69.3161C69.2566 13.5739 69.197 13.6334 69.197 13.693V35.4926C69.197 35.5522 69.2566 35.6018 69.3161 35.6018H72.4814C72.5409 35.6018 72.6004 35.5422 72.6004 35.4926V18.9221C72.6004 18.7931 72.789 18.7733 72.8286 18.8824L75.4383 27.4753L75.6268 28.0805C75.6466 28.1401 75.6863 28.1599 75.7359 28.1599H78.157C78.2165 28.1599 78.2562 28.1202 78.2662 28.0805L78.4547 27.4753L81.0643 18.8824C81.104 18.7534 81.2925 18.7832 81.2925 18.9221V35.4926C81.2925 35.5522 81.352 35.6018 81.4017 35.6018H84.5669C84.6265 35.6018 84.6761 35.5422 84.6761 35.4926V13.683C84.6761 13.6235 84.6165 13.564 84.5669 13.564L82.7313 13.5739Z" fill="#4D4D4D"/>
<path d="M171.637 13.5739C171.578 13.5739 171.538 13.6136 171.518 13.6533L168.928 22.1965C168.889 22.3057 168.74 22.3057 168.7 22.1965L166.1 13.6533C166.08 13.5937 166.041 13.5739 165.981 13.5739H161.169C161.109 13.5739 161.05 13.6334 161.05 13.693V35.4926C161.05 35.5522 161.109 35.6018 161.169 35.6018H164.334C164.394 35.6018 164.453 35.5422 164.453 35.4926V18.9221C164.453 18.7931 164.642 18.7733 164.681 18.8824L167.291 27.4753L167.48 28.0805C167.499 28.1401 167.539 28.1599 167.599 28.1599H170.02C170.079 28.1599 170.109 28.1202 170.129 28.0805L170.317 27.4753L172.937 18.8824C172.977 18.7534 173.165 18.7832 173.165 18.9221V35.4926C173.165 35.5522 173.225 35.6018 173.274 35.6018H176.44C176.499 35.6018 176.559 35.5422 176.559 35.4926V13.683C176.559 13.6235 176.499 13.564 176.44 13.564L171.637 13.5739Z" fill="#4D4D4D"/>
<path d="M130.836 13.5742H124.942H121.777H115.883C115.823 13.5742 115.773 13.6338 115.773 13.6933V16.412C115.773 16.4716 115.833 16.5311 115.883 16.5311H121.657V35.5029C121.657 35.5624 121.717 35.612 121.767 35.612H124.932C124.991 35.612 125.041 35.5525 125.041 35.5029V16.5212H130.816C130.875 16.5212 130.925 16.4617 130.925 16.4021V13.6834C130.945 13.6238 130.915 13.5742 130.836 13.5742Z" fill="#4D4D4D"/>
<path d="M149.49 35.6019H152.367C152.447 35.6019 152.496 35.5225 152.486 35.4531L146.543 13.574C146.523 13.5145 146.483 13.4946 146.424 13.4946H145.322H143.387H142.286C142.226 13.4946 142.187 13.5343 142.167 13.574L136.223 35.4531C136.203 35.5324 136.263 35.6019 136.342 35.6019H139.22C139.279 35.6019 139.319 35.5622 139.339 35.5225L141.065 29.1523C141.085 29.0928 141.125 29.0729 141.185 29.0729H147.545C147.604 29.0729 147.644 29.1126 147.664 29.1523L149.39 35.5225C149.4 35.5622 149.45 35.6019 149.49 35.6019ZM141.939 25.9672L144.251 17.4438C144.29 17.3346 144.439 17.3346 144.479 17.4438L146.791 25.9672C146.811 26.0466 146.751 26.116 146.682 26.116H142.048C141.968 26.116 141.919 26.0366 141.939 25.9672Z" fill="#4D4D4D"/>
<path d="M198.587 35.6019H201.464C201.544 35.6019 201.593 35.5225 201.583 35.4531L195.63 13.574C195.61 13.5145 195.57 13.4946 195.521 13.4946H194.419H192.484H191.383C191.323 13.4946 191.284 13.5343 191.264 13.574L185.32 35.4531C185.3 35.5324 185.36 35.6019 185.429 35.6019H188.307C188.366 35.6019 188.406 35.5622 188.426 35.5225L190.153 29.1523C190.172 29.0928 190.212 29.0729 190.262 29.0729H196.622C196.682 29.0729 196.721 29.1126 196.741 29.1523L198.468 35.5225C198.487 35.5622 198.527 35.6019 198.587 35.6019ZM191.026 25.9672L193.338 17.4438C193.377 17.3346 193.526 17.3346 193.566 17.4438L195.878 25.9672C195.898 26.0466 195.838 26.116 195.769 26.116H191.145C191.065 26.116 191.006 26.0366 191.026 25.9672Z" fill="#4D4D4D"/>
<path d="M97.5357 32.3674V25.6003C97.5357 25.5407 97.5953 25.4812 97.6548 25.4812H106.079C106.139 25.4812 106.188 25.4216 106.188 25.372V22.6533C106.188 22.5937 106.129 22.5342 106.079 22.5342H97.6548C97.5953 22.5342 97.5357 22.4747 97.5357 22.4251V16.6403C97.5357 16.5807 97.5953 16.5311 97.6548 16.5311H107.24C107.299 16.5311 107.359 16.4716 107.359 16.412V13.6933C107.359 13.6338 107.299 13.5742 107.24 13.5742H97.5457H94.2713C94.2117 13.5742 94.1621 13.6338 94.1621 13.6933V16.5311V22.5541V25.501V32.4864V35.4731C94.1621 35.5326 94.2216 35.5823 94.2713 35.5823H97.5457H107.637C107.696 35.5823 107.756 35.5227 107.756 35.4731V32.6055C107.756 32.546 107.696 32.4964 107.637 32.4964H97.635C97.5754 32.4765 97.5357 32.4468 97.5357 32.3674Z" fill="#4D4D4D"/>
<path d="M248.962 35.4134L238.018 24.1316C237.978 24.0919 237.978 24.0125 238.018 23.9827L247.871 13.7824C247.95 13.7031 247.891 13.5939 247.792 13.5939H243.753C243.713 13.5939 243.694 13.6138 243.674 13.6336L235.319 22.286C235.24 22.3654 235.131 22.3058 235.131 22.2066V13.7031C235.131 13.6435 235.071 13.584 235.011 13.584H231.846C231.787 13.584 231.737 13.6435 231.737 13.7031V35.5027C231.737 35.5623 231.797 35.6218 231.846 35.6218H235.011C235.071 35.6218 235.131 35.5623 235.131 35.5027V25.9077C235.131 25.8085 235.26 25.7589 235.319 25.8283L244.785 35.5722C244.805 35.592 244.845 35.6119 244.864 35.6119H248.903C248.982 35.6019 249.042 35.463 248.962 35.4134Z" fill="#4D4D4D"/>
<path d="M47.5957 1.83594L28.4453 16.0052L32.0075 7.66043L47.5957 1.83594Z" fill="#E17726" stroke="#E17726" stroke-width="0.78" stroke-miterlimit="22.927" stroke-linecap="round" stroke-linejoin="round"/>
<path d="M3.42114 1.83594L22.4028 16.1441L19.0093 7.66043L3.42114 1.83594Z" fill="#E27625" stroke="#E27625" stroke-width="0.78" stroke-miterlimit="22.927" stroke-linecap="round" stroke-linejoin="round"/>
<path d="M40.6998 34.689L35.6096 42.4781L46.5144 45.4747L49.64 34.8576L40.6998 34.689Z" fill="#E27625" stroke="#E27625" stroke-width="0.78" stroke-miterlimit="22.927" stroke-linecap="round" stroke-linejoin="round"/>
<path d="M1.39746 34.8576L4.50319 45.4747L15.3981 42.4781L10.3178 34.689L1.39746 34.8576Z" fill="#E27625" stroke="#E27625" stroke-width="0.78" stroke-miterlimit="22.927" stroke-linecap="round" stroke-linejoin="round"/>
<path d="M14.8117 21.5417L11.7754 26.1159L22.571 26.6021L22.2138 14.9829L14.8117 21.5417Z" fill="#E27625" stroke="#E27625" stroke-width="0.78" stroke-miterlimit="22.927" stroke-linecap="round" stroke-linejoin="round"/>
<path d="M36.2146 21.5417L28.6934 14.854L28.4453 26.6022L39.241 26.116L36.2146 21.5417Z" fill="#E27625" stroke="#E27625" stroke-width="0.78" stroke-miterlimit="22.927" stroke-linecap="round" stroke-linejoin="round"/>
<path d="M15.3975 42.4781L21.9264 39.3227L16.3004 34.937L15.3975 42.4781Z" fill="#E27625" stroke="#E27625" stroke-width="0.78" stroke-miterlimit="22.927" stroke-linecap="round" stroke-linejoin="round"/>
<path d="M29.0908 39.3227L35.6099 42.4781L34.7169 34.937L29.0908 39.3227Z" fill="#E27625" stroke="#E27625" stroke-width="0.78" stroke-miterlimit="22.927" stroke-linecap="round" stroke-linejoin="round"/>
<path d="M35.6099 42.4781L29.0908 39.3228L29.6167 43.5497L29.5671 45.3457L35.6099 42.4781Z" fill="#D5BFB2" stroke="#D5BFB2" stroke-width="0.78" stroke-miterlimit="22.927" stroke-linecap="round" stroke-linejoin="round"/>
<path d="M15.3975 42.4781L21.4601 45.3457L21.4204 43.5497L21.9264 39.3228L15.3975 42.4781Z" fill="#D5BFB2" stroke="#D5BFB2" stroke-width="0.78" stroke-miterlimit="22.927" stroke-linecap="round" stroke-linejoin="round"/>
<path d="M21.5693 32.1393L16.1516 30.5517L19.9817 28.7954L21.5693 32.1393Z" fill="#233447" stroke="#233447" stroke-width="0.78" stroke-miterlimit="22.927" stroke-linecap="round" stroke-linejoin="round"/>
<path d="M29.4473 32.1393L31.0349 28.7954L34.8848 30.5517L29.4473 32.1393Z" fill="#233447" stroke="#233447" stroke-width="0.78" stroke-miterlimit="22.927" stroke-linecap="round" stroke-linejoin="round"/>
<path d="M15.3974 42.4781L16.3401 34.689L10.3171 34.8576L15.3974 42.4781Z" fill="#CC6228" stroke="#CC6228" stroke-width="0.78" stroke-miterlimit="22.927" stroke-linecap="round" stroke-linejoin="round"/>
<path d="M34.6768 34.689L35.6095 42.4781L40.6997 34.8576L34.6768 34.689Z" fill="#CC6228" stroke="#CC6228" stroke-width="0.78" stroke-miterlimit="22.927" stroke-linecap="round" stroke-linejoin="round"/>
<path d="M39.241 26.1162L28.4453 26.6024L29.4475 32.1391L31.0351 28.7953L34.885 30.5516L39.241 26.1162Z" fill="#CC6228" stroke="#CC6228" stroke-width="0.78" stroke-miterlimit="22.927" stroke-linecap="round" stroke-linejoin="round"/>
<path d="M16.1512 30.5516L19.9813 28.7953L21.5689 32.1391L22.571 26.6024L11.7754 26.1162L16.1512 30.5516Z" fill="#CC6228" stroke="#CC6228" stroke-width="0.78" stroke-miterlimit="22.927" stroke-linecap="round" stroke-linejoin="round"/>
<path d="M11.7754 26.1162L16.3 34.9373L16.1512 30.5516L11.7754 26.1162Z" fill="#E27525" stroke="#E27525" stroke-width="0.78" stroke-miterlimit="22.927" stroke-linecap="round" stroke-linejoin="round"/>
<path d="M34.8855 30.5516L34.7168 34.9373L39.2414 26.1162L34.8855 30.5516Z" fill="#E27525" stroke="#E27525" stroke-width="0.78" stroke-miterlimit="22.927" stroke-linecap="round" stroke-linejoin="round"/>
<path d="M22.5715 26.6021L21.5693 32.1388L22.8394 38.6777L23.1272 30.065L22.5715 26.6021Z" fill="#E27525" stroke="#E27525" stroke-width="0.78" stroke-miterlimit="22.927" stroke-linecap="round" stroke-linejoin="round"/>
<path d="M28.446 26.6021L27.9102 30.0451L28.1781 38.6777L29.4481 32.1388L28.446 26.6021Z" fill="#E27525" stroke="#E27525" stroke-width="0.78" stroke-miterlimit="22.927" stroke-linecap="round" stroke-linejoin="round"/>
<path d="M29.4478 32.1389L28.1777 38.6778L29.0906 39.3227L34.7166 34.937L34.8853 30.5513L29.4478 32.1389Z" fill="#F5841F" stroke="#F5841F" stroke-width="0.78" stroke-miterlimit="22.927" stroke-linecap="round" stroke-linejoin="round"/>
<path d="M16.1516 30.5513L16.3004 34.937L21.9265 39.3227L22.8394 38.6778L21.5693 32.1389L16.1516 30.5513Z" fill="#F5841F" stroke="#F5841F" stroke-width="0.78" stroke-miterlimit="22.927" stroke-linecap="round" stroke-linejoin="round"/>
<path d="M29.5667 45.3456L29.6164 43.5497L29.1302 43.1329H21.8967L21.4204 43.5497L21.4601 45.3456L15.3975 42.478L17.5209 44.2145L21.8173 47.1813H29.1798L33.506 44.2145L35.6095 42.478L29.5667 45.3456Z" fill="#C0AC9D" stroke="#C0AC9D" stroke-width="0.78" stroke-miterlimit="22.927" stroke-linecap="round" stroke-linejoin="round"/>
<path d="M29.09 39.3227L28.1771 38.6777H22.8388L21.926 39.3227L21.4199 43.5497L21.8962 43.1329H29.1297L29.6159 43.5497L29.09 39.3227Z" fill="#161616" stroke="#161616" stroke-width="0.78" stroke-miterlimit="22.927" stroke-linecap="round" stroke-linejoin="round"/>
<path d="M48.4099 16.9379L50.0173 9.10911L47.5962 1.83594L29.0908 15.5389L36.2152 21.542L46.2666 24.4691L48.4793 21.8793L47.5168 21.1848L49.0548 19.7857L47.8741 18.8827L49.412 17.7119L48.4099 16.9379Z" fill="#763E1A" stroke="#763E1A" stroke-width="0.78" stroke-miterlimit="22.927" stroke-linecap="round" stroke-linejoin="round"/>
<path d="M1 9.10911L2.62729 16.9379L1.58543 17.7119L3.14325 18.8827L1.96248 19.7857L3.50046 21.1848L2.53798 21.8793L4.75069 24.4691L14.8121 21.542L21.9265 15.5389L3.42108 1.83594L1 9.10911Z" fill="#763E1A" stroke="#763E1A" stroke-width="0.78" stroke-miterlimit="22.927" stroke-linecap="round" stroke-linejoin="round"/>
<path d="M46.2666 24.4691L36.2151 21.542L39.2414 26.1163L34.7168 34.9373L40.7 34.8579H49.6402L46.2666 24.4691Z" fill="#F5841F" stroke="#F5841F" stroke-width="0.78" stroke-miterlimit="22.927" stroke-linecap="round" stroke-linejoin="round"/>
<path d="M14.8126 21.542L4.75126 24.4691L1.39746 34.8579H10.3178L16.301 34.9373L11.7764 26.1163L14.8126 21.542Z" fill="#F5841F" stroke="#F5841F" stroke-width="0.78" stroke-miterlimit="22.927" stroke-linecap="round" stroke-linejoin="round"/>
<path d="M28.4451 26.6022L29.09 15.5386L32.0072 7.66016H19.0088L21.926 15.5386L22.571 26.6022L22.819 30.0849L22.8389 38.6778H28.1772L28.197 30.0849L28.4451 26.6022Z" fill="#F5841F" stroke="#F5841F" stroke-width="0.78" stroke-miterlimit="22.927" stroke-linecap="round" stroke-linejoin="round"/>
<path d="M47.5957 1.83594L28.4453 16.0052L32.0075 7.66043L47.5957 1.83594Z" fill="#959595" stroke="#959595" stroke-width="0.78" stroke-miterlimit="22.927" stroke-linecap="round" stroke-linejoin="round"/>
<path d="M3.43066 1.83594L22.4024 16.1441L19.0089 7.66043L3.43066 1.83594Z" fill="#959595" stroke="#959595" stroke-width="0.78" stroke-miterlimit="22.927" stroke-linecap="round" stroke-linejoin="round"/>
<path d="M40.6998 34.689L35.6096 42.4781L46.5144 45.4747L49.64 34.8576L40.6998 34.689Z" fill="#959595" stroke="#959595" stroke-width="0.78" stroke-miterlimit="22.927" stroke-linecap="round" stroke-linejoin="round"/>
<path d="M1.39746 34.8576L4.50319 45.4747L15.3981 42.4781L10.3178 34.689L1.39746 34.8576Z" fill="#959595" stroke="#959595" stroke-width="0.78" stroke-miterlimit="22.927" stroke-linecap="round" stroke-linejoin="round"/>
<path d="M14.8117 21.5417L11.7754 26.1159L22.571 26.6021L22.2138 14.9829L14.8117 21.5417Z" fill="#959595" stroke="#E27625" stroke-width="0.78" stroke-miterlimit="22.927" stroke-linecap="round" stroke-linejoin="round"/>
<path d="M36.2146 21.5417L28.6934 14.854L28.4453 26.6022L39.241 26.116L36.2146 21.5417Z" fill="#959595" stroke="#E27625" stroke-width="0.78" stroke-miterlimit="22.927" stroke-linecap="round" stroke-linejoin="round"/>
<path d="M15.3975 42.4781L21.9264 39.3227L16.3004 34.937L15.3975 42.4781Z" fill="#959595" stroke="#959595" stroke-width="0.78" stroke-miterlimit="22.927" stroke-linecap="round" stroke-linejoin="round"/>
<path d="M29.0908 39.3227L35.6099 42.4781L34.7169 34.937L29.0908 39.3227Z" fill="#959595" stroke="#959595" stroke-width="0.78" stroke-miterlimit="22.927" stroke-linecap="round" stroke-linejoin="round"/>
<path d="M35.6099 42.4781L29.0908 39.3228L29.6167 43.5497L29.5671 45.3457L35.6099 42.4781Z" fill="#C4C4C4" stroke="#D5BFB2" stroke-width="0.78" stroke-miterlimit="22.927" stroke-linecap="round" stroke-linejoin="round"/>
<path d="M15.3975 42.4781L21.4601 45.3457L21.4204 43.5497L21.9264 39.3228L15.3975 42.4781Z" fill="#C4C4C4" stroke="#D5BFB2" stroke-width="0.78" stroke-miterlimit="22.927" stroke-linecap="round" stroke-linejoin="round"/>
<path d="M21.5693 32.1393L16.1516 30.5517L19.9817 28.7954L21.5693 32.1393Z" fill="#233447" stroke="#233447" stroke-width="0.78" stroke-miterlimit="22.927" stroke-linecap="round" stroke-linejoin="round"/>
<path d="M29.4473 32.1393L31.0349 28.7954L34.8848 30.5517L29.4473 32.1393Z" fill="#233447" stroke="#233447" stroke-width="0.78" stroke-miterlimit="22.927" stroke-linecap="round" stroke-linejoin="round"/>
<path d="M15.3974 42.4781L16.3401 34.689L10.3171 34.8576L15.3974 42.4781Z" fill="#828282" stroke="#828282" stroke-width="0.78" stroke-miterlimit="22.927" stroke-linecap="round" stroke-linejoin="round"/>
<path d="M34.6768 34.689L35.6095 42.4781L40.6997 34.8576L34.6768 34.689Z" fill="#828282" stroke="#828282" stroke-width="0.78" stroke-miterlimit="22.927" stroke-linecap="round" stroke-linejoin="round"/>
<path d="M39.241 26.1162L28.4453 26.6024L29.4475 32.1391L31.0351 28.7953L34.885 30.5516L39.241 26.1162Z" fill="#828282" stroke="#959595" stroke-width="0.78" stroke-miterlimit="22.927" stroke-linecap="round" stroke-linejoin="round"/>
<path d="M16.1512 30.5516L19.9813 28.7953L21.5689 32.1391L22.571 26.6024L11.7754 26.1162L16.1512 30.5516Z" fill="#828282" stroke="#959595" stroke-width="0.78" stroke-miterlimit="22.927" stroke-linecap="round" stroke-linejoin="round"/>
<path d="M11.7754 26.1162L16.3 34.9373L16.1512 30.5516L11.7754 26.1162Z" fill="#959595" stroke="#959595" stroke-width="0.78" stroke-miterlimit="22.927" stroke-linecap="round" stroke-linejoin="round"/>
<path d="M34.8855 30.5516L34.7168 34.9373L39.2414 26.1162L34.8855 30.5516Z" fill="#959595" stroke="#959595" stroke-width="0.78" stroke-miterlimit="22.927" stroke-linecap="round" stroke-linejoin="round"/>
<path d="M22.5715 26.6021L21.5693 32.1388L22.8394 38.6777L23.1272 30.065L22.5715 26.6021Z" fill="#959595" stroke="#959595" stroke-width="0.78" stroke-miterlimit="22.927" stroke-linecap="round" stroke-linejoin="round"/>
<path d="M28.446 26.6021L27.9102 30.0451L28.1781 38.6777L29.4481 32.1388L28.446 26.6021Z" fill="#959595" stroke="#959595" stroke-width="0.78" stroke-miterlimit="22.927" stroke-linecap="round" stroke-linejoin="round"/>
<path d="M29.4478 32.1389L28.1777 38.6778L29.0906 39.3227L34.7166 34.937L34.8853 30.5513L29.4478 32.1389Z" fill="#A4A4A4" stroke="#A4A4A4" stroke-width="0.78" stroke-miterlimit="22.927" stroke-linecap="round" stroke-linejoin="round"/>
<path d="M16.1516 30.5513L16.3004 34.937L21.9265 39.3227L22.8394 38.6778L21.5693 32.1389L16.1516 30.5513Z" fill="#A4A4A4" stroke="#A4A4A4" stroke-width="0.78" stroke-miterlimit="22.927" stroke-linecap="round" stroke-linejoin="round"/>
<path d="M29.5667 45.3456L29.6164 43.5497L29.1302 43.1329H21.8967L21.4204 43.5497L21.4601 45.3456L15.3975 42.478L17.5209 44.2145L21.8173 47.1813H29.1798L33.506 44.2145L35.6095 42.478L29.5667 45.3456Z" fill="#B0B0B0" stroke="#C0AC9D" stroke-width="0.78" stroke-miterlimit="22.927" stroke-linecap="round" stroke-linejoin="round"/>
<path d="M29.09 39.3227L28.1771 38.6777H22.8388L21.926 39.3227L21.4199 43.5497L21.8962 43.1329H29.1297L29.6159 43.5497L29.09 39.3227Z" fill="#161616" stroke="#161616" stroke-width="0.78" stroke-miterlimit="22.927" stroke-linecap="round" stroke-linejoin="round"/>
<path d="M48.4099 16.9379L50.0173 9.10911L47.5962 1.83594L29.0908 15.5389L36.2152 21.542L46.2666 24.4691L48.4793 21.8793L47.5168 21.1848L49.0548 19.7857L47.8741 18.8827L49.412 17.7119L48.4099 16.9379Z" fill="#4D4D4D" stroke="#4D4D4D" stroke-width="0.78" stroke-miterlimit="22.927" stroke-linecap="round" stroke-linejoin="round"/>
<path d="M1 9.10911L2.62729 16.9379L1.58543 17.7119L3.14325 18.8827L1.96248 19.7857L3.50046 21.1848L2.53798 21.8793L4.75069 24.4691L14.8121 21.542L21.9265 15.5389L3.43101 1.83594L1 9.10911Z" fill="#4D4D4D" stroke="#4D4D4D" stroke-width="0.78" stroke-miterlimit="22.927" stroke-linecap="round" stroke-linejoin="round"/>
<path d="M46.2666 24.4691L36.2151 21.542L39.2414 26.1163L34.7168 34.9373L40.7 34.8579H49.6402L46.2666 24.4691Z" fill="#A4A4A4" stroke="#A4A4A4" stroke-width="0.78" stroke-miterlimit="22.927" stroke-linecap="round" stroke-linejoin="round"/>
<path d="M14.8126 21.542L4.75126 24.4691L1.39746 34.8579H10.3178L16.301 34.9373L11.7764 26.1163L14.8126 21.542Z" fill="#A4A4A4" stroke="#A4A4A4" stroke-width="0.78" stroke-miterlimit="22.927" stroke-linecap="round" stroke-linejoin="round"/>
<path d="M28.4451 26.6022L29.09 15.5386L32.0072 7.66016H19.0088L21.926 15.5386L22.571 26.6022L22.819 30.0849L22.8389 38.6778H28.1772L28.197 30.0849L28.4451 26.6022Z" fill="#A4A4A4" stroke="#A4A4A4" stroke-width="0.78" stroke-miterlimit="22.927" stroke-linecap="round" stroke-linejoin="round"/>
</svg>
