<svg width="222" height="52" viewBox="0 0 222 52" fill="none" xmlns="http://www.w3.org/2000/svg">
<path fill-rule="evenodd" clip-rule="evenodd" d="M1.75146 8.82843C0 12.278 0 16.8034 0 25.8541C0 34.9048 0 39.4301 1.75146 42.8797C3.28066 45.9381 5.77004 48.3652 8.81954 49.9478C12.2691 51.6992 16.7945 51.6992 25.8452 51.6992C34.8959 51.6992 39.4212 51.6992 42.8708 49.9478C45.9292 48.4186 48.3564 45.9292 49.9389 42.8797C51.6904 39.4301 51.6904 34.9048 51.6904 25.8541C51.6904 16.8034 51.6904 12.278 49.9389 8.82843C48.4097 5.77004 45.9203 3.34289 42.8708 1.76035C39.4301 0 34.9048 0 25.8541 0C16.8034 0 12.2691 0 8.81954 1.75146C5.77004 3.28066 3.334 5.77004 1.75146 8.82843ZM38.6922 13.9139C39.1456 13.9139 39.599 14.0828 39.8835 14.4207C40.2214 14.7585 40.3903 15.1586 40.3903 15.612C40.337 20.4219 40.1058 24.1026 39.768 27.0365C39.4301 29.926 38.9233 32.1309 38.1232 33.8823C37.6164 35.0737 36.9941 36.0339 36.2028 36.8251C35.1804 37.9009 34.0513 38.6922 32.8066 39.4835C32.2376 39.8213 31.7308 40.1058 31.1085 40.4436C29.8638 41.1816 28.5035 41.9106 26.9209 42.9864C26.3519 43.3865 25.6229 43.3865 25.0539 42.9864C23.4714 41.9106 22.0578 41.1193 20.8131 40.4436C20.5286 40.2747 20.2441 40.1058 19.9684 39.9902C18.5015 39.1456 17.1412 38.2921 16.0121 37.163C15.2208 36.3717 14.5451 35.4649 14.0295 34.3358C13.2916 32.8066 12.7848 31.0018 12.4469 28.6813C11.9402 25.5696 11.709 21.4354 11.6557 15.7276C11.6557 15.2742 11.8246 14.8207 12.1091 14.5362C12.4469 14.1984 12.847 14.0295 13.3004 14.0295H13.9761C16.1277 14.0295 20.8219 13.8072 24.8939 10.6332C25.5162 10.1798 26.3608 10.1798 26.9298 10.6332C31.0018 13.7983 35.7583 14.0295 37.9098 14.0295H38.5855L38.6922 13.9139ZM34.9581 32.7621C35.4649 31.6863 35.9183 30.1571 36.2561 28.0678C36.6562 25.5251 36.8785 22.0133 36.9941 17.2657C34.5047 17.2123 30.1483 16.6967 26.0141 13.9317C21.8799 16.7056 17.5857 17.159 15.0341 17.2657C15.1497 21.1687 15.3186 24.2271 15.6031 26.6542C15.941 29.3659 16.3944 31.2329 16.9634 32.5398C17.3635 33.3845 17.7547 34.0068 18.2614 34.5758C18.9371 35.3137 19.7906 35.9361 20.9197 36.6118C21.3732 36.8963 21.9422 37.1808 22.5023 37.5186C23.5247 38.0876 24.7072 38.7633 26.0141 39.6079C27.3121 38.8167 28.4501 38.141 29.4637 37.572C29.7482 37.403 30.086 37.2341 30.3083 37.0652C31.7219 36.2739 32.7977 35.5982 33.5356 34.7981C34.0424 34.2291 34.4958 33.669 34.8959 32.8777L34.9581 32.7621Z" fill="#4D4D4D"/>
<path d="M72.4683 20.6533H66.6982V17.257H82.4258V20.6533H76.6558V35.3051H72.4683V20.6533ZM87.1823 23.2494C87.6891 22.5737 88.3115 22.058 89.1027 21.7202C89.9473 21.3823 90.8542 21.2134 91.93 21.2134V24.9475C91.4765 24.8941 91.192 24.8941 91.0231 24.8941C89.894 24.8941 88.9871 25.232 88.3115 25.8543C87.6358 26.4767 87.3513 27.4369 87.3513 28.7438V35.3051H83.3327V21.3823H87.1823V23.196V23.2494ZM107.666 21.4446V35.3584H103.817V33.7137C103.31 34.336 102.625 34.7894 101.896 35.1273C101.158 35.4118 100.367 35.5807 99.5226 35.5807C97.7089 35.5807 96.2419 35.0739 95.1662 33.9982C94.0904 32.9224 93.5836 31.3932 93.5836 29.3039V21.4357H97.6022V28.6816C97.6022 30.9487 98.5624 32.0156 100.429 32.0156C101.39 32.0156 102.181 31.7311 102.75 31.1087C103.319 30.4864 103.657 29.5262 103.657 28.2815V21.4357H107.666V21.4446ZM115.304 35.5274C114.174 35.5274 113.036 35.4118 111.907 35.1273C110.832 34.8428 109.925 34.4516 109.249 34.0515L110.609 31.1621C111.232 31.5621 111.97 31.9 112.876 32.1222C113.783 32.3445 114.628 32.4601 115.481 32.4601C117.179 32.4601 118.024 32.06 118.024 31.2154C118.024 30.8153 117.802 30.5397 117.348 30.3708C116.895 30.2019 116.157 30.0329 115.197 29.9174C114.068 29.7484 113.108 29.5173 112.37 29.3484C111.632 29.1261 110.956 28.726 110.449 28.157C109.942 27.588 109.658 26.7967 109.658 25.721C109.658 24.8141 109.88 24.0762 110.396 23.4005C110.903 22.7248 111.641 22.1558 112.601 21.818C113.561 21.4179 114.752 21.249 116.05 21.249C117.011 21.249 118.033 21.3645 118.993 21.5868C119.953 21.8091 120.807 22.0936 121.429 22.4936L120.069 25.3831C118.824 24.7074 117.526 24.3607 116.05 24.3607C115.206 24.3607 114.521 24.4763 114.13 24.6985C113.677 24.9208 113.508 25.2675 113.508 25.6054C113.508 26.0588 113.73 26.3433 114.183 26.5122C114.637 26.6812 115.375 26.8501 116.388 27.019C117.517 27.1879 118.477 27.4191 119.162 27.6413C119.9 27.8636 120.522 28.2103 121.029 28.8327C121.536 29.4017 121.82 30.193 121.82 31.2065C121.82 32.0511 121.536 32.8513 121.029 33.527C120.522 34.2027 119.731 34.7183 118.762 35.1095C117.802 35.4474 116.61 35.6785 115.25 35.6785L115.304 35.5274ZM132.498 34.6294C132.098 34.9139 131.591 35.1362 131.031 35.3051C130.462 35.4207 129.84 35.5274 129.217 35.5274C127.573 35.5274 126.275 35.1273 125.368 34.2827C124.461 33.4381 124.007 32.1934 124.007 30.5486V24.8319H121.856V21.7202H124.007V18.3239H128.026V21.7202H131.476V24.8319H128.026V30.4953C128.026 31.0643 128.195 31.5177 128.479 31.8555C128.764 32.14 129.217 32.3089 129.778 32.3089C130.4 32.3089 130.969 32.14 131.422 31.8022L132.498 34.6294ZM168.141 17.2037L162.202 35.2518H157.73L153.773 23.0271L149.639 35.2518H145.167L139.228 17.2037H143.585L147.657 29.9351L151.898 17.2037H155.747L159.881 29.9885L164.069 17.2037H168.087H168.141ZM173.973 21.16C176.125 21.16 177.76 21.6668 178.952 22.6892C180.081 23.7117 180.703 25.232 180.703 27.3302V35.2518H176.916V33.5003C176.178 34.7983 174.764 35.4207 172.675 35.4207C171.599 35.4207 170.692 35.2518 169.901 34.8517C169.11 34.5138 168.541 34.0071 168.15 33.3847C167.758 32.7624 167.527 32.0244 167.527 31.2332C167.527 29.9351 168.034 28.9127 168.994 28.1748C169.954 27.4369 171.484 27.0457 173.52 27.0457H176.747C176.747 26.1388 176.462 25.5165 175.956 25.0097C175.449 24.5029 174.595 24.2718 173.582 24.2718C172.844 24.2718 172.115 24.3874 171.377 24.6096C170.701 24.8319 170.079 25.1164 169.563 25.5165L168.096 22.6892C168.834 22.1825 169.741 21.7291 170.808 21.4446C171.884 21.16 172.96 20.9911 174.089 20.9911L173.973 21.16ZM173.689 32.7624C174.364 32.7624 174.987 32.5934 175.502 32.3089C176.009 31.9711 176.409 31.5177 176.631 30.8953V29.4817H173.857C172.213 29.4817 171.368 30.0507 171.368 31.1265C171.368 31.6333 171.59 32.0333 171.99 32.3712C172.391 32.6557 172.951 32.8246 173.689 32.8246V32.7624ZM183.531 16.1279H187.549V35.3051H183.531V16.1279ZM190.545 16.1279H194.564V35.3051H190.545V16.1279ZM211.145 28.4059C211.145 28.4593 211.145 28.806 211.092 29.4817H200.565C200.734 30.3263 201.187 31.0109 201.925 31.5177C202.601 32.0244 203.508 32.2556 204.584 32.2556C205.322 32.2556 205.944 32.14 206.504 31.9711C207.073 31.7488 207.58 31.4021 208.087 30.9487L210.238 33.2691C208.94 34.7361 207.011 35.5363 204.521 35.5363C202.939 35.5363 201.579 35.2518 200.387 34.6294C199.196 34.0071 198.236 33.1625 197.613 32.0867C196.938 31.0109 196.653 29.7662 196.653 28.4059C196.653 27.0457 196.991 25.801 197.613 24.7252C198.289 23.6494 199.143 22.7426 200.272 22.1825C201.401 21.5601 202.645 21.2756 204.059 21.2756C205.419 21.2756 206.664 21.5601 207.74 22.1825C208.816 22.7515 209.722 23.5961 210.345 24.7252C210.967 25.801 211.305 27.099 211.305 28.5126L211.145 28.4059ZM203.952 24.2718C203.046 24.2718 202.254 24.5563 201.632 25.0631C201.01 25.5698 200.609 26.3077 200.503 27.1524H207.349C207.233 26.2455 206.842 25.5698 206.22 25.0631C205.597 24.5563 204.859 24.2718 203.952 24.2718ZM222 34.6294C221.6 34.9139 221.094 35.1362 220.533 35.3051C219.964 35.4207 219.342 35.5274 218.72 35.5274C217.075 35.5274 215.777 35.1273 214.87 34.2827C213.963 33.4381 213.51 32.1934 213.51 30.5486V24.8319H211.358V21.7202H213.51V18.3239H217.528V21.7202H220.978V24.8319H217.528V30.4953C217.528 31.0643 217.697 31.5177 217.982 31.8555C218.266 32.14 218.72 32.3089 219.28 32.3089C219.902 32.3089 220.471 32.14 220.925 31.8022L222 34.6294Z" fill="#4D4D4D"/>
</svg>
