<svg width="16" height="22" viewBox="0 0 16 22" fill="none" xmlns="http://www.w3.org/2000/svg">
<path d="M8.875 1C8.875 0.516751 8.48325 0.125 8 0.125C7.51675 0.125 7.125 0.516751 7.125 1L8.875 1ZM7.38128 19.1187C7.72299 19.4604 8.27701 19.4604 8.61872 19.1187L14.1872 13.5503C14.5289 13.2085 14.5289 12.6545 14.1872 12.3128C13.8455 11.9711 13.2915 11.9711 12.9497 12.3128L8 17.2626L3.05025 12.3128C2.70854 11.9711 2.15452 11.9711 1.81281 12.3128C1.47111 12.6545 1.47111 13.2085 1.81281 13.5503L7.38128 19.1187ZM7.125 1L7.125 18.5L8.875 18.5L8.875 1L7.125 1Z" fill="#00002F"/>
<path d="M1 21.125H15" stroke="#00002F" stroke-width="1.75" stroke-linecap="round"/>
</svg>
