<svg width="36" height="8" viewBox="0 0 36 8" fill="none" xmlns="http://www.w3.org/2000/svg">
<path d="M1 3.5C0.723858 3.5 0.5 3.72386 0.5 4C0.5 4.27614 0.723858 4.5 1 4.5L1 3.5ZM35.3536 4.35356C35.5488 4.15829 35.5488 3.84171 35.3536 3.64645L32.1716 0.464469C31.9763 0.269207 31.6597 0.269207 31.4645 0.464469C31.2692 0.659731 31.2692 0.976313 31.4645 1.17158L34.2929 4L31.4645 6.82843C31.2692 7.02369 31.2692 7.34027 31.4645 7.53554C31.6597 7.7308 31.9763 7.7308 32.1716 7.53554L35.3536 4.35356ZM1 4.5L35 4.5L35 3.5L1 3.5L1 4.5Z" fill="#FF4E00"/>
</svg>
