<svg width="19" height="19" viewBox="0 0 19 19" fill="none" xmlns="http://www.w3.org/2000/svg">
<path id="Vector" d="M13.665 0.399106L4.58017 3.41832C-1.52672 5.46132 -1.52672 8.79255 4.58017 10.8255L7.27647 11.7212L8.17184 14.4183C10.2041 20.5272 13.5443 20.5272 15.5766 14.4183L18.6049 5.34055C19.953 1.26461 17.7396 -0.95954 13.665 0.399106ZM13.987 5.81356L10.1639 9.65805C10.013 9.80901 9.82181 9.87946 9.63065 9.87946C9.4395 9.87946 9.24834 9.80901 9.09743 9.65805C8.80567 9.3662 8.80567 8.88312 9.09743 8.59127L12.9205 4.74677C13.2123 4.45491 13.6952 4.45491 13.987 4.74677C14.2787 5.03863 14.2787 5.5217 13.987 5.81356Z" fill="white"/>
</svg>
