<svg width="28" height="23" viewBox="0 0 28 23" fill="none" xmlns="http://www.w3.org/2000/svg">
<path d="M25.6129 0.203051C25.6129 0.203051 28.2031 -0.79252 27.9872 1.6253C27.9153 2.62088 27.2678 6.10538 26.7641 9.87435L25.0373 21.039C25.0373 21.039 24.8934 22.6746 23.5983 22.959C22.3031 23.2435 20.3605 21.9635 20.0007 21.679C19.7129 21.4657 14.6045 18.2656 12.8057 16.7011C12.3021 16.2745 11.7265 15.4211 12.8777 14.4255L20.4325 7.31432C21.2959 6.46096 22.1593 4.46982 18.5617 6.88764L8.48874 13.6433C8.48874 13.6433 7.33754 14.3544 5.17907 13.7144L0.502281 12.2922C0.502281 12.2922 -1.22453 11.2255 1.72543 10.1588C8.92047 6.81647 17.7703 3.40308 25.6129 0.203051Z" fill="#00002F"/>
</svg>
