<svg width="16" height="13" viewBox="0 0 16 13" fill="none" xmlns="http://www.w3.org/2000/svg">
<rect x="3" y="5" width="10" height="5" fill="#FF4E00"/>
<path d="M13.5424 1.08998C12.5071 0.584866 11.4044 0.212678 10.2428 0C10.0997 0.265848 9.93131 0.629174 9.82189 0.921607C8.59292 0.726651 7.37238 0.726651 6.16868 0.921607C6.05083 0.629174 5.88248 0.265848 5.73938 0C4.57776 0.212678 3.47506 0.584866 2.43971 1.08998C0.352156 4.40422 -0.21182 7.63873 0.0659589 10.82C1.45485 11.91 2.79324 12.5658 4.1148 13C4.44308 12.5303 4.72928 12.0252 4.9818 11.5024C4.502 11.3163 4.04746 11.077 3.61816 10.8023C3.73601 10.7137 3.84544 10.6162 3.95486 10.5276C6.58955 11.8214 9.4431 11.8214 12.0441 10.5276C12.1535 10.6251 12.263 10.7137 12.3808 10.8023C11.9515 11.077 11.4886 11.3074 11.0172 11.5024C11.2697 12.0252 11.5559 12.5303 11.8842 13C13.2057 12.5658 14.5525 11.91 15.933 10.82C16.2613 7.12476 15.369 3.92569 13.5593 1.08998H13.5424ZM5.33534 8.87049C4.54409 8.87049 3.89594 8.09953 3.89594 7.15134C3.89594 6.20315 4.52726 5.43219 5.33534 5.43219C6.14343 5.43219 6.78315 6.20315 6.77473 7.15134C6.77473 8.09067 6.14343 8.87049 5.33534 8.87049ZM10.6468 8.87049C9.85555 8.87049 9.2074 8.09953 9.2074 7.15134C9.2074 6.20315 9.83872 5.43219 10.6468 5.43219C11.4549 5.43219 12.0946 6.20315 12.0862 7.15134C12.0862 8.09067 11.4549 8.87049 10.6468 8.87049Z" fill="white"/>
</svg>
