<svg width="27" height="23" viewBox="0 0 27 23" fill="none" xmlns="http://www.w3.org/2000/svg">
<path d="M25.6434 3.70232C25.5131 3.74037 25.3828 3.7758 25.2526 3.8088C24.4563 4.00985 24.3831 3.74455 24.9596 3.15923C25.2178 2.89694 25.4459 2.61167 25.644 2.30355C26.088 1.61262 25.7029 1.31131 24.9474 1.63405C24.6779 1.74918 24.404 1.85357 24.1263 1.94664C23.3478 2.20805 22.2432 1.81372 21.5496 1.3738C20.674 0.818515 19.6788 0.541016 18.5638 0.541016C17.002 0.541016 15.6708 1.09183 14.5694 2.1926C13.4683 3.29394 12.9175 4.62555 12.9175 6.18698C12.9175 6.40053 12.9297 6.61733 12.9538 6.83714C12.9934 7.19492 12.3908 7.45429 11.5776 7.33946C9.81866 7.09112 8.14745 6.55813 6.56366 5.74109C4.99295 4.9309 3.60667 3.91134 2.40506 2.68238C1.83067 2.09501 1.05382 2.1456 0.839353 2.93849C0.710858 3.41379 0.64695 3.90809 0.64695 4.42149C0.64695 5.38899 0.87415 6.28632 1.32865 7.11347C1.55468 7.5251 1.8194 7.89776 2.12338 8.2312C2.63469 8.79246 2.55645 9.11812 1.84472 8.91858C1.13328 8.71903 0.61191 8.42277 0.61191 8.44211C0.61191 8.46146 0.61191 8.4772 0.61191 8.4772C0.61191 9.8403 1.03992 11.038 1.89647 12.0692C2.42411 12.7045 3.03709 13.1952 3.73516 13.5409C4.47129 13.9055 4.8142 14.1089 4.40257 14.1621C4.15423 14.1943 3.90438 14.2103 3.65308 14.2103C3.48298 14.2103 3.30453 14.2026 3.11835 14.1868C2.82389 14.1619 2.77096 14.7754 3.21739 15.4649C3.57221 16.0127 4.02637 16.4948 4.57961 16.9113C5.14234 17.3351 5.74881 17.6393 6.39804 17.8246C7.18801 18.0498 7.34654 18.46 6.6422 18.8823C4.8993 19.9281 2.97051 20.4509 0.856119 20.4509C0.617888 20.4509 0.39064 20.4456 0.173549 20.4352C-0.203286 20.4171 0.049525 20.7489 0.777001 21.13C3.05021 22.3206 5.51198 22.9154 8.16266 22.9154C10.1667 22.9154 12.0488 22.5981 13.8087 21.963C15.5679 21.328 17.0714 20.4771 18.3182 19.4108C19.565 18.3446 20.6402 17.1183 21.5435 15.7314C22.4465 14.3445 23.1192 12.8966 23.5624 11.3878C24.005 9.87865 24.2266 8.36654 24.2266 6.85147C24.2266 6.71496 24.2254 6.59239 24.2233 6.48446C24.2191 6.28161 24.7557 5.73254 25.3547 5.17073C25.625 4.91705 25.8829 4.65082 26.1292 4.37157C26.6725 3.75495 26.4319 3.4724 25.6434 3.70232Z" fill="#00002F"/>
</svg>
