<svg width="28" height="22" viewBox="0 0 28 22" fill="none" xmlns="http://www.w3.org/2000/svg">
<path d="M18.0989 10.8551C18.0989 13.1828 16.2121 15.0696 13.8844 15.0696C11.5568 15.0696 9.66992 13.1828 9.66992 10.8551C9.66992 8.52746 11.5568 6.64062 13.8844 6.64062C16.2121 6.64062 18.0989 8.52746 18.0989 10.8551Z" stroke="#FF4E00" stroke-width="1.5"/>
<path d="M6.78977 3.90126C10.6301 0.0609072 16.8566 0.0609072 20.6969 3.90126L23.6771 6.88137C25.5501 8.75448 26.4868 9.69108 26.4868 10.8548C26.4868 12.0186 25.5501 12.9552 23.6771 14.8283L20.6969 17.8084C16.8566 21.6488 10.6301 21.6488 6.78977 17.8084L3.80967 14.8283C1.93655 12.9552 1 12.0186 1 10.8548C1 9.69108 1.93655 8.75448 3.80967 6.88137L6.78977 3.90126Z" stroke="#FF4E00" stroke-width="1.5" stroke-linejoin="round"/>
</svg>
