<svg width="16" height="16" viewBox="0 0 16 16" fill="none" xmlns="http://www.w3.org/2000/svg">
<path d="M16 8V12C16 14.4 14.4 16 12 16H4C1.6 16 0 14.4 0 12V8C0 5.824 1.312 4.304 3.352 4.048C3.56 4.016 3.776 4 4 4H12C12.208 4 12.408 4.00799 12.6 4.03999C14.664 4.27999 16 5.808 16 8Z" fill="#00002F"/>
<path d="M12.5996 4.04C12.4076 4.008 12.2076 4.00001 11.9996 4.00001H3.99956C3.77556 4.00001 3.55956 4.01601 3.35156 4.04801C3.46356 3.82401 3.62356 3.61601 3.81556 3.42401L6.4156 0.816C7.5116 -0.272 9.2876 -0.272 10.3836 0.816L11.7836 2.23202C12.2956 2.73602 12.5676 3.376 12.5996 4.04Z" fill="#FF4E00"/>
<path d="M16 8.3999H13.6C12.72 8.3999 12 9.1199 12 9.9999C12 10.8799 12.72 11.5999 13.6 11.5999H16" fill="#FF4E00"/>
</svg>
